<?xml version="1.0" encoding="utf-8"?>
<!-- Generator: Adobe Illustrator 26.4.0, SVG Export Plug-In . SVG Version: 6.00 Build 0)  -->
<svg version="1.1" id="Layer_1" xmlns="http://www.w3.org/2000/svg" xmlns:xlink="http://www.w3.org/1999/xlink" x="0px" y="0px"
	 viewBox="0 0 347.8 173.9" style="enable-background:new 0 0 347.8 173.9;" xml:space="preserve">
<style type="text/css">
	.st0{fill:#FFFFFF;}
	.st1{opacity:0.16;fill:#B11F24;}
	.st2{fill:#B11F24;}
	.st3{opacity:0.2;fill:#ED3324;}
	.st4{fill:#F3C79B;}
	.st5{fill:#ECF6F9;stroke:#ED3324;stroke-width:2;stroke-miterlimit:10;}
	.st6{fill:#ED3324;}
	.st7{fill:#ECF6F9;}
	.st8{clip-path:url(#SVGID_00000176743739664023669650000003253327485564083112_);}
	.st9{clip-path:url(#SVGID_00000104687944429993649760000003258426188960992669_);}
	.st10{clip-path:url(#SVGID_00000176743739664023669650000003253327485564083112_);fill:#ED3324;}
	.st11{opacity:0.2;fill:url(#SVGID_00000131329295563841906260000005019231920391755452_);}
	.st12{fill:#F0F8F9;}
	.st13{fill:#EF4C23;}
	.st14{fill:#F05A22;}
	.st15{opacity:0.33;}
	.st16{fill:#F5957D;}
	.st17{fill:#F7D1BB;stroke:#221F1F;stroke-width:0.25;stroke-miterlimit:10;}
	.st18{opacity:0.37;}
	.st19{fill:#ECF6F9;stroke:#ED3324;stroke-miterlimit:10;}
	.st20{opacity:0.4;}
	.st21{opacity:0.3;}
	.st22{fill:#FFFFFF;stroke:#ED3324;stroke-miterlimit:10;}
	.st23{opacity:0.8;}
	.st24{opacity:0.61;fill:#ED3324;}
	.st25{opacity:0.5;}
	.st26{fill:#ED2D24;}
	.st27{fill:none;stroke:#000000;stroke-width:0.25;stroke-miterlimit:10;}
	.st28{fill:#F05D35;}
	.st29{fill:none;stroke:#ED3324;stroke-width:2;stroke-miterlimit:10;}
	.st30{opacity:0.62;fill:#ED3324;}
	.st31{fill:#F5957D;stroke:#ED3324;stroke-width:2;stroke-miterlimit:10;}
	.st32{fill:#F9F8F8;}
	.st33{opacity:0.15;}
	.st34{fill:none;stroke:#ECF6F9;stroke-miterlimit:10;}
	.st35{fill:#EE3A24;}
	.st36{fill:#E47B6A;}
	.st37{fill:#F05F4F;}
	.st38{fill:#F16C59;}
	.st39{fill:#88261B;}
	.st40{fill:#DC7C6D;}
	.st41{fill:#E06B57;}
	.st42{fill:#E07260;}
	.st43{fill:#DF7A68;}
	.st44{fill:#E37665;}
	.st45{fill:#994D42;}
	.st46{fill:#E27D6C;}
	.st47{fill:#DE8073;}
	.st48{fill:#E56E5B;}
	.st49{fill:#E46E5C;}
	.st50{fill:#E66E5A;}
	.st51{fill:#E46F5C;}
	.st52{fill:#E16852;}
	.st53{fill:#E26652;}
	.st54{fill:#E26650;}
	.st55{fill:#E56550;}
	.st56{fill:#CD2627;}
	.st57{fill:#EE3B24;}
	.st58{fill:#F27267;}
	.st59{fill:#EE4324;}
	.st60{fill:#F05541;}
	.st61{fill:#BFBFBF;}
	.st62{fill:#CDCAC9;}
	.st63{fill:#C1C1C1;}
	.st64{fill:#ECC0BC;}
	.st65{fill:#EE3E23;stroke:#ECF6F9;stroke-width:2;stroke-miterlimit:10;}
	.st66{fill:#F59183;}
	.st67{fill:#EE3C23;}
	.st68{fill:#F1695B;}
	.st69{fill:#F05743;}
	.st70{fill:#999999;}
	.st71{fill:#DBDADA;}
	.st72{fill:#F59990;}
	.st73{fill:#F7BCB7;}
	.st74{fill:#ED3324;stroke:#ECF6F9;stroke-miterlimit:10;}
	.st75{opacity:0.44;}
	.st76{opacity:0.14;}
	.st77{fill:#F5957D;stroke:#ED3324;stroke-miterlimit:10;}
	.st78{opacity:0.52;}
	.st79{opacity:0.41;}
	.st80{opacity:0.1;fill:#ECF6F9;}
	.st81{opacity:0.23;fill:#B11F24;}
	.st82{opacity:0.38;fill:#B11F24;}
	.st83{fill:#ED3324;stroke:#ECF6F9;stroke-width:2;stroke-miterlimit:10;}
	.st84{fill:#F9BEB1;}
	.st85{fill:#F05D35;stroke:#F5957D;stroke-miterlimit:10;}
	.st86{opacity:0.56;}
	.st87{fill:#F16139;stroke:#ED3324;stroke-miterlimit:10;}
	.st88{fill:#FBCEC5;}
	.st89{opacity:0.84;}
	.st90{fill:#A1887B;}
	.st91{fill:#846D61;}
	.st92{fill:#7FFFD4;}
	.st93{fill:#FDFDFD;}
	.st94{fill:#30211C;}
	.st95{fill:#A2897A;}
	.st96{fill:#1376AC;}
	.st97{fill:#F8F8F8;}
	.st98{fill:#F0FFFF;}
	.st99{fill:#FF4501;}
</style>
<g>
	<path class="st99" d="M220.2,134c-25.5-3-44.1-26.3-41.2-51.8c3-25.7,26.5-44.4,52.2-41.4c25.8,3.1,44.1,26.5,41,52.3
		C269.1,118.7,245.9,137,220.2,134z M264.5,88.2c1.7-13.9-7.8-29.5-21.8-36.2c-15.3-7.4-33.7-4.1-45.4,8.2
		c-11.7,12.2-14.4,30.3-6.7,45.3c6.7,13,22.1,22.6,33.8,20.7c-13.7-8.1-20.3-19.4-16.5-35.3c2.7-11.3,12.6-19.8,24.3-21.5
		C245.3,67.4,255.9,73.5,264.5,88.2z"/>
	<path class="st99" d="M117.1,132.9c-25.6-2.8-44.2-25.8-41.6-51.4c2.7-25.8,25.9-44.4,51.8-41.6c25.9,2.8,44.3,25.9,41.4,51.9
		C165.8,117.3,142.7,135.7,117.1,132.9z M161.2,82.3c-2-22.1-22.4-37.9-44.2-35c-22,2.9-37.3,23.9-33.6,45.8
		c3.5,20.6,24.4,36,43.5,32c-16.2-7.6-23-17.4-21.9-31.3c1-12.4,9-22.5,20.7-26.1C138.8,63.6,150.4,68.3,161.2,82.3z"/>
</g>
</svg>
