<?xml version="1.0" encoding="utf-8"?>
<!-- Generator: Adobe Illustrator 26.4.0, SVG Export Plug-In . SVG Version: 6.00 Build 0)  -->
<svg version="1.1" id="Layer_1" xmlns="http://www.w3.org/2000/svg" xmlns:xlink="http://www.w3.org/1999/xlink" x="0px" y="0px"
	 viewBox="0 0 383.2 383.1" style="enable-background:new 0 0 383.2 383.1;" xml:space="preserve">
<style type="text/css">
	.st0{fill:#F0FFFF;stroke:#F0FFFF;stroke-width:15;stroke-linejoin:round;stroke-miterlimit:10;}
</style>
<g>
	<path class="st0" d="M312.9,43.1c-1.4,0-153.8,0-228.7,0.1c-3.5,0-4.4-0.7-4.3-4.3c0.3-9.7,0.2-19.3,0-29c-0.1-3.1,0.5-4,3.9-4
		C117.3,6,310.4,6,373.5,5.8c3.3,0,3.8,0.9,3.8,4c-0.1,96.4-0.1,192.9,0,289.3c0,3.1-0.6,4.1-3.9,4c-9.8-0.2-19.6-0.2-29.4,0.1
		c-3.1,0.1-4-0.6-4-3.9c0.2-25.6,0.1-51.2,0.1-76.9c0-49.6,0-152.2,0-152.2L32,377.3L5.9,351.2C5.9,351.2,312.5,44.7,312.9,43.1z"/>
</g>
</svg>
