<?xml version="1.0" encoding="UTF-8"?>
<svg width="409px" height="297px" viewBox="0 0 409 297" version="1.1" xmlns="http://www.w3.org/2000/svg" xmlns:xlink="http://www.w3.org/1999/xlink">
    <title>flower</title>
    <defs>
        <polygon id="path-1" points="-1.36537274e-13 -1.79254477e-14 410 -1.79254477e-14 410 272 -1.36537274e-13 272"></polygon>
    </defs>
    <g id="Page-1" stroke="none" stroke-width="1" fill="none" fill-rule="evenodd">
        <g id="Intro-Web-Page" transform="translate(-1335.000000, -692.000000)">
            <g id="flower" transform="translate(1305.498258, 669.468269)">
                <g transform="translate(225.501742, 169.531731) rotate(-10.000000) translate(-225.501742, -169.531731) translate(20.501742, 33.531731)">
                    <mask id="mask-2" fill="white">
                        <use xlink:href="#path-1"></use>
                    </mask>
                    <g id="path-1"></g>
                    <path d="M315.434342,19.2726226 C317.248523,22.3963306 318.616167,25.6871022 319.157092,29.2832795 C319.245728,29.8727894 319.301785,30.4670861 319.372934,31.0592288 C319.936617,32.5711789 319.722212,34.1482314 319.726045,35.70111 C319.727243,36.2386816 319.702089,36.8102405 319.461092,37.3245956 C318.628865,42.7804934 316.669269,47.8091581 313.69035,52.4496031 C312.107104,55.095576 310.297475,57.5821441 308.351295,59.9715378 C306.646592,61.9480591 305.079395,64.0523914 303.550529,65.3326544 C305.108383,64.310646 307.35473,63.2144401 309.575682,62.0725192 C311.06071,61.0696584 312.743853,60.4645911 314.344586,59.6941355 C315.613052,59.1611114 316.833846,58.5208602 318.11429,58.0151216 C318.38116,57.9399669 318.626708,57.8001887 318.900285,57.7432242 C319.370299,57.4483496 319.909787,57.3222142 320.416455,57.115419 C320.631338,57.0390675 320.82682,56.9201124 321.036195,56.8308364 C323.311528,55.8813497 325.654895,55.1264517 328.002096,54.3823242 C328.680048,54.0994169 329.395852,53.9380975 330.096084,53.7238826 C331.487683,53.3361417 332.87545,52.9335613 334.299629,52.6765034 C335.943243,52.2677 337.616564,51.9989143 339.264013,51.6035141 C340.172901,51.8756509 341.040825,51.7234267 341.888385,51.3522006 C345.055596,51.0415292 348.219695,50.641821 351.409186,51.0594802 C352.044017,51.4230471 352.703045,51.1904026 353.343865,51.1095036 C354.255149,50.9938992 355.12978,50.9864796 355.914814,51.5530121 C355.9989,51.5836485 356.082506,51.6142847 356.166352,51.6449211 C356.715901,51.4718737 357.274553,51.5125627 357.834163,51.568809 C360.566814,52.3821075 363.379001,52.9249449 365.981811,54.1764864 C369.229515,55.7379813 372.235504,57.6175674 374.735782,60.2408023 C376.335798,61.8642879 377.499817,63.805386 378.720371,65.7060346 C379.147025,66.5382416 379.537029,67.38816 379.914335,68.2454984 C380.554436,70.3945884 381.380197,72.4991599 381.474583,74.7772576 C381.535192,75.1623657 381.59077,75.5474737 381.646826,75.9332999 C381.802779,76.6735978 381.632933,77.4179648 381.678208,78.1592201 C381.660721,78.4983737 381.752952,78.8394421 381.663596,79.1769204 C381.411579,80.4141011 381.601789,81.7063316 381.203402,82.9253219 C381.068051,84.0612593 380.696734,85.143583 380.437292,86.2512774 C380.300743,86.5868409 380.216418,86.9372439 380.159643,87.2945878 C379.922239,88.0011379 379.555474,88.6650844 379.449829,89.4166317 C379.365264,89.7450147 379.277585,90.0736371 379.12331,90.3785642 C378.795353,90.8065153 378.477219,91.2409288 378.312162,91.7658151 C378.227838,92.0915653 378.069489,92.3857219 377.926711,92.6865801 C376.681483,94.8979002 375.407986,97.0912692 373.904513,99.1417485 C373.111092,100.132163 372.282458,101.093857 371.482569,102.079484 C370.263453,103.656776 368.748959,104.954751 367.386346,106.397051 C365.551562,108.060029 363.637245,109.628226 361.677651,111.141373 C361.562423,111.262003 361.443841,111.379283 361.31927,111.490579 C359.452386,112.782091 357.535194,113.99797 355.6192,115.215285 C355.431863,115.338788 355.234706,115.443861 355.034195,115.542711 C354.219934,115.901012 353.524014,116.47305 352.709034,116.830394 C350.746805,118.103237 348.579512,118.980441 346.509721,120.045053 C346.106544,120.228871 345.682763,120.362905 345.280783,120.551031 C345.080751,120.645094 344.879521,120.736285 344.67901,120.830588 C344.05424,121.094587 343.424677,121.346139 342.79871,121.607027 C341.427712,122.165422 340.050247,122.705866 338.673261,123.249421 C335.345065,124.434185 332.009203,125.593578 328.55931,126.382703 C328.189431,126.382703 327.868901,126.605534 327.502615,126.621092 C326.639244,126.766853 325.783059,126.958091 324.912981,127.061249 C324.805897,127.097869 324.696659,127.129942 324.586941,127.157227 C323.564982,127.280012 322.591651,127.563398 321.731635,128.036585 C323.430588,128.850602 325.372934,128.411641 327.175377,128.886264 C332.321827,129.388892 337.403358,130.258437 342.415654,131.536067 C344.1297,131.972874 345.860277,132.344578 347.583425,132.746202 C348.382595,133.172477 349.35808,132.846966 350.141199,133.343849 C353.041063,134.053511 355.783058,135.213143 358.557393,136.27967 C359.428669,136.610207 360.278386,136.991486 361.115885,137.40005 C364.034435,138.627896 366.860753,140.043151 369.630057,141.57377 C370.258661,142.06802 371.005847,142.362176 371.682361,142.776006 C374.847897,144.541663 377.87329,146.522254 380.771957,148.696475 C382.997461,150.364 385.208113,152.050434 387.230711,153.965683 C387.602507,154.329489 388.033235,154.62915 388.394011,155.00636 C388.673816,155.243074 388.738977,155.621959 388.978057,155.886436 C389.89988,156.878287 390.728755,157.963962 391.86714,158.736332 C392.931742,160.027126 394.069887,161.250904 395.276067,162.412452 C395.564257,162.993584 396.001932,163.448342 396.494466,163.857863 C396.877041,164.464367 397.255785,165.073503 397.858994,165.496188 C399.379238,166.825039 400.607458,168.359727 401.249715,170.30609 C401.44831,170.785262 401.575995,171.31709 402.148541,171.520055 C402.169624,172.639238 403.095519,173.297679 403.547807,174.198819 C404.37788,175.852701 405.304734,177.458714 406.047368,179.158072 C407.226239,182.004139 408.37229,184.863129 409.043055,187.881286 C409.351129,189.2671 409.79072,190.628742 409.822341,192.068887 C409.876961,194.562158 410.132571,197.033647 409.911218,199.553484 C409.387781,205.513684 407.03459,210.492805 402.576635,214.480552 C402.3996,214.638522 402.174413,214.742636 402.148781,215.015013 C399.558668,217.874961 396.081226,219.095866 392.541259,220.196141 C392.164194,220.313182 391.7694,220.39408 391.368378,220.28063 C389.722366,220.574786 388.014309,220.553963 386.447354,221.248546 C386.157487,221.457496 385.865464,221.476643 385.571285,221.257402 C382.979974,221.260275 380.388422,221.262668 377.797109,221.266019 C373.357359,221.272003 369.042419,220.369188 364.71095,219.535545 C361.709032,218.957524 358.737061,218.229673 355.837197,217.324225 C352.358558,216.238071 348.871535,215.144499 345.461409,213.827377 C344.343867,213.396075 343.245248,212.73165 342.009841,212.634475 C341.964804,212.734044 341.919767,212.833372 341.874969,212.93294 C343.028207,213.725416 344.182883,214.515737 345.334682,215.310606 C350.139283,218.625551 354.83081,222.087456 359.197734,225.971088 C359.284215,226.047917 359.405672,226.085735 359.511077,226.141981 C359.61313,226.145092 359.668467,226.197749 359.677092,226.299471 C360.590052,227.236033 361.432821,228.249186 362.568092,228.94329 C363.316954,229.086898 363.543339,229.725473 363.847099,230.291048 C364.919606,231.596442 366.016547,232.88269 367.058629,234.212018 C368.500776,236.052113 369.565616,238.101874 370.366223,240.298354 C370.668787,241.128886 370.345621,242.054438 370.823062,242.842366 C371.309846,243.594391 370.902117,244.248525 370.5962,244.913668 C368.966959,249.017978 365.456698,250.50719 361.528885,251.395404 C361.090492,251.494492 360.69402,251.641451 360.313362,251.861171 C359.217377,252.491609 358.043538,252.126368 356.898205,252.127324 C356.56354,251.874575 356.276071,251.943507 356.024534,252.255614 C355.459893,252.669444 354.880638,252.877675 354.252274,252.379595 L351.397447,252.394914 C350.262895,252.470068 349.14607,253.014342 347.990196,252.524161 C346.3255,252.199129 344.625828,252.456904 342.955382,252.232636 C341.796633,251.773091 340.58135,251.716127 339.354807,251.739824 C335.003932,251.054096 330.701929,250.128784 326.426756,249.078532 C325.4242,248.832005 324.438653,248.516068 323.412142,248.374854 C320.220496,247.36194 316.944523,246.631456 313.780664,245.525916 C313.662322,245.501262 313.547813,245.462011 313.437377,245.41414 C312.540467,245.003423 311.644037,244.589832 310.64747,244.468005 C309.997546,244.200895 309.331331,243.978302 308.661046,243.76672 C306.64755,243.170748 304.744253,242.268652 302.741778,241.64348 C301.702809,241.10495 300.569694,240.788056 299.514915,240.285429 C297.901483,239.692329 296.329257,239.003729 294.77308,238.276356 C293.540788,237.728972 292.363594,237.048032 291.02805,236.753396 C289.726765,235.817792 288.254434,235.200757 286.816841,234.523886 C282.926878,232.692649 279.220419,230.524889 275.505095,228.37556 C269.121321,224.681969 263.14887,220.393362 257.396096,215.79193 C256.749287,215.207447 256.130744,214.588498 255.408234,214.091137 C253.933268,212.876694 252.582154,211.524627 251.151028,210.261118 C250.952673,210.076581 250.782825,209.863803 250.574408,209.688601 C249.55724,208.640025 248.49192,207.637882 247.499426,206.564414 C246.949399,205.905973 246.424525,205.224793 245.76406,204.66616 C245.446645,204.36578 245.157496,204.042902 245.028374,203.786562 C245.513002,204.626428 245.582953,205.762605 245.994276,206.788682 C246.563708,208.648642 247.017194,210.529904 247.08978,212.481772 C247.103196,212.848451 247.250526,213.172285 247.32958,213.51886 C247.956266,218.942207 247.850142,224.332045 246.590779,229.667552 C246.374936,230.687645 246.089621,231.691224 245.829938,232.700786 C245.034123,235.528422 244.045462,238.284495 242.728126,240.916107 C242.190794,241.757887 241.932071,242.766492 241.193271,243.488361 C240.260907,244.595338 239.601879,245.874165 238.902126,247.127141 C238.506136,248.340867 237.842077,249.388007 236.937741,250.286034 C236.809816,250.47057 236.654582,250.618725 236.425564,250.667551 C235.979026,250.966735 235.577284,251.300622 235.492959,251.878165 C235.471399,252.020336 235.391147,252.109851 235.251483,252.145754 C234.189757,253.083034 233.273444,254.152673 232.409354,255.269461 C232.237829,256.158155 231.489926,256.596158 230.901568,257.14474 C230.587746,257.437221 230.255477,257.711751 229.960819,258.025774 C229.408395,258.603077 228.653305,258.954677 228.185445,259.626761 C228.10687,259.701676 228.019672,259.765341 227.926962,259.821109 C227.41646,260.116942 226.995796,260.52407 226.570098,260.924496 C226.094334,261.363457 225.517475,261.67317 225.04746,262.119791 C224.486412,262.436686 223.972558,262.82299 223.457266,263.207859 C223.30826,263.274637 223.135777,263.260036 222.990605,263.341654 C222.720382,263.389284 222.380448,263.348116 222.190237,263.497468 C218.695069,266.241095 214.675025,268.004598 210.530413,269.410038 C208.281431,270.172596 206.015919,271.143145 203.529774,271.059134 C202.91195,271.038072 202.391628,271.585935 201.73284,271.518679 C200.795924,272.13715 199.729886,272.010297 198.717509,271.937296 C196.78714,271.797997 194.841681,272.013408 192.916583,271.533518 C192.080762,271.325048 191.262427,271.045252 190.418938,270.87029 C189.742903,270.576852 188.915944,270.563688 188.474197,269.831049 C185.307226,268.28511 182.513965,266.270294 180.28295,263.501059 C179.214277,262.174362 178.48458,260.641111 177.500231,259.26822 C176.373104,258.343386 176.4076,256.956135 176.082518,255.712013 C176.101684,255.010728 175.85901,254.381727 175.544949,253.772351 C175.095536,253.226642 175.132907,252.564371 175.100805,251.918854 L175.088109,251.877686 C175.066548,251.267593 174.716792,250.769035 174.511969,250.223086 C174.088188,249.092414 174.531612,247.984719 174.551975,246.866733 C174.747695,245.950276 174.405366,245.062541 174.41902,244.146084 C174.470286,240.741863 174.66337,237.350087 175.067985,233.970039 C174.40321,233.054061 175.231844,232.168719 175.126438,231.273085 C174.564912,231.708456 174.590305,232.6881 173.692916,232.821895 C172.803912,234.011446 171.948207,235.222778 171.271691,236.550431 L171.281034,236.544209 C170.409038,237.165312 169.844397,238.030069 169.361446,238.959691 C168.721344,240.150198 168.027102,241.291641 166.722942,241.884502 C163.206452,245.655163 159.336612,249.030663 155.231526,252.1436 C154.861168,252.821429 154.295568,253.22353 153.531614,253.345597 C151.571541,254.528446 149.611467,255.711774 147.651394,256.894623 C147.402492,257.596866 146.795449,257.648325 146.187687,257.698347 C144.89814,258.324239 143.609072,258.94965 142.319525,259.575302 C140.805511,260.219622 139.291257,260.863701 137.777004,261.507543 C137.26291,262.269383 136.372468,262.344537 135.622648,262.661192 C134.712323,263.045343 133.753368,263.304076 132.819566,263.629348 C132.251092,263.819389 131.672796,263.974245 131.087074,264.103493 C130.837693,264.149447 130.601966,264.10852 130.379176,263.989324 C129.493526,264.262897 128.607876,264.536471 127.722225,264.809803 C126.499036,265.690359 125.125643,265.944066 123.652833,265.78131 C122.515167,265.603715 121.488416,266.151818 120.395307,266.293032 C117.740033,266.636972 115.130754,267.343762 112.420861,267.257597 C112.291499,267.253289 112.157825,267.385888 112.025828,267.45458 C110.749935,267.900003 109.433318,267.810966 108.118857,267.748736 C107.782276,267.669751 107.447372,267.652759 107.116302,267.775783 C103.690126,267.737487 100.254368,267.845671 96.8406493,267.620447 C93.2094112,267.380862 89.5537378,267.234141 85.982629,266.367708 C84.756565,266.070202 83.4821101,265.970394 82.2299342,265.780113 C82.0596075,265.90577 81.9067688,265.878245 81.7675849,265.728175 C80.2851926,265.048431 78.6434935,264.948625 77.1088773,264.440492 C74.9185875,263.715274 72.6940409,263.092016 70.4841073,262.425437 C69.843526,262.561863 69.3064344,262.379242 68.8649267,261.901507 C68.7092132,261.297636 68.0957021,261.41755 67.7068975,261.222003 C65.2351258,259.977403 62.7310135,258.796707 60.2381605,257.59495 C59.1213356,256.647618 57.8701179,255.903968 56.5949444,255.19694 C56.3019634,255.190717 56.1369072,255.034902 56.0779755,254.755346 C55.1156663,253.934867 54.1291614,253.140955 53.1958389,252.288884 C50.2473443,249.596956 47.7288585,246.540983 46.0691924,242.90292 C44.2471053,238.90847 43.4620697,234.703875 44.254292,230.301819 C44.394434,229.523944 44.4960073,228.739605 44.6153076,227.958139 C45.6121134,224.822943 46.8609355,221.804548 48.6892514,219.045604 C49.0325397,218.52718 49.5852027,218.118137 49.6300002,217.423554 C49.6323959,217.370419 49.6347915,217.317284 49.636708,217.264149 C49.7981708,216.681581 50.248063,216.281393 50.5630834,215.795761 C50.9145167,215.267284 51.4288503,214.871883 51.7584837,214.324978 C52.4287704,213.40134 53.2260234,212.587085 53.9851865,211.73956 C54.7824394,211.079204 55.3808583,210.221626 56.1603839,209.543318 C56.9291294,208.929634 57.5112582,208.112746 58.3269572,207.550042 C59.7559278,206.361449 61.1386636,205.117088 62.6148273,203.984262 C63.6087584,203.365552 64.4867429,202.592704 65.4107227,201.880888 C67.9282502,200.207618 70.3518707,198.393851 72.8768245,196.963519 C70.3866067,197.627465 67.8429672,198.49749 65.2272204,199.124097 C64.4335607,199.425195 63.5824068,199.519976 62.7885078,199.818441 C60.6779913,200.185837 58.6522787,200.944564 56.5139732,201.181758 C56.1697268,201.289463 55.7993682,201.280846 55.4620689,201.420146 C55.3492366,201.458919 55.2328107,201.481658 55.1149476,201.494582 C54.5850427,201.527133 54.0877178,201.752359 53.5537403,201.763608 C53.2415947,201.78108 52.9639456,201.940725 52.6570703,201.983087 C52.392597,201.996013 52.1286026,202.007023 51.8749094,202.098932 C44.3055576,203.385418 36.7122499,204.073538 29.0394084,203.142242 C25.6350328,202.72889 22.2603623,202.19874 19.0021177,201.091045 C18.5963044,200.927331 18.1871374,200.766971 17.7798867,200.604693 C17.5048728,200.522597 17.2356083,200.422789 16.9780821,200.29498 C16.7263053,200.193017 16.4833924,200.070472 16.2340112,199.962527 C15.8408946,199.78182 15.4278945,199.652574 15.0244769,199.497717 C13.6515631,198.769625 12.1916894,198.196152 10.9526892,197.227278 C10.808235,197.130821 10.6903719,197.012345 10.6410227,196.840016 C10.4699775,196.528148 10.2289809,196.299812 9.87874536,196.201919 C9.65355971,196.021931 9.42837408,195.841463 9.20318843,195.660996 C7.38469457,195.024336 6.37447345,193.443453 5.14385787,192.137341 C4.41487924,191.364013 3.85574809,190.436786 3.20247017,189.591654 C2.91475957,189.220667 2.82468532,188.753943 2.59494804,188.354473 C1.9605953,187.2317 1.46207262,186.047176 0.987026735,184.850923 C0.763038889,183.901915 0.403220978,182.989767 0.224030701,182.028313 C-0.37055522,181.112574 0.445622956,180.138434 0.1054489,179.212405 C-0.0818863904,176.871359 0.067598547,174.53821 0.267390915,172.206021 C0.104251104,169.51146 0.788432164,166.991863 1.8456069,164.548856 C3.3179377,161.126922 4.9387952,157.782298 7.0294283,154.683243 C7.25006231,154.356056 7.41056697,153.98866 7.68031064,153.693307 C8.10984027,153.255303 8.40066512,152.711269 8.7818038,152.235209 C9.97744375,150.536569 11.4394735,149.061717 12.7829215,147.486819 C13.1803502,147.030386 13.6208995,146.614641 14.0257546,146.16491 C15.5541422,144.579241 17.2317753,143.153455 18.8492789,141.662807 C19.3027645,141.358358 19.7126503,140.999099 20.1215779,140.637926 C22.2184394,138.881364 24.5146143,137.397656 26.7305368,135.802892 C29.3264004,134.187545 31.9241802,132.575069 34.7066603,131.288104 C36.3081135,130.611472 37.7703829,129.64571 39.4015413,129.03059 C40.0967422,128.775447 40.7885892,128.51097 41.4476164,128.168465 C42.6894913,127.685704 43.9284915,127.196241 45.1588674,126.684997 C45.4336419,126.570589 45.7045834,126.44589 45.9920543,126.364752 C47.4787587,125.88582 48.9340809,125.306123 50.4593542,124.947343 C52.2215517,124.281961 54.0606476,123.880816 55.8662052,123.36335 C56.9914147,123.124722 58.1125518,122.867903 59.2365636,122.622573 C60.5740225,122.168533 61.9998789,122.141966 63.3529093,121.760687 C67.7790049,120.891621 72.2599596,120.463191 76.7469032,120.088614 C78.4913733,119.942613 80.2351247,119.689624 81.9898958,119.922747 C83.4919321,119.900249 84.9968428,119.878708 86.3575391,119.909105 C84.2113282,119.118544 81.7939363,118.723862 79.5392053,117.795677 C76.1149461,116.868211 72.8154973,115.58699 69.5390463,114.249523 C66.1135893,112.851502 62.7250245,111.368273 59.4581557,109.624875 C58.87435,109.258675 58.2095733,109.05188 57.6164246,108.703871 C56.992373,108.345809 56.4064113,107.918097 55.7207929,107.67157 C52.9991608,106.250571 50.6131511,104.291762 47.9221829,102.821936 C44.1376266,100.123307 40.7394795,96.9727928 37.3710376,93.7885302 C36.5922307,93.0523012 35.9954887,92.1511626 35.2461476,91.3866907 C35.1603854,91.3122539 35.0866012,91.2280041 35.0195245,91.1372918 C34.0708702,89.9101636 33.1212575,88.6837534 32.2296183,87.4140216 C31.7205549,86.6387791 31.2045445,85.8678448 30.7141668,85.079917 C30.4544845,84.7168287 30.1751586,84.3669044 29.9732101,83.9650421 C29.5154125,82.9183809 29.1337948,81.8341424 28.4354797,80.906915 C27.6938043,78.7752974 27.0177684,76.6257287 26.5879991,74.4057922 C26.5635641,73.8935912 26.5067886,73.3868952 26.3422114,72.8964747 C26.2823216,72.5678523 26.2775304,72.2361184 26.2839986,71.9034271 C26.2449504,71.0245476 26.3376599,70.146147 26.2945391,69.2672675 C26.2907062,69.1339516 26.2909458,69.0003964 26.2938204,68.8668412 C26.2796865,68.3419549 26.194643,67.8137177 26.3561059,67.2955331 C26.6845416,66.6873543 26.7722202,66.0167061 26.8476814,65.3434251 C27.9237812,61.9229278 29.423901,58.7484785 32.1393044,56.2827334 C33.3531508,55.0017523 34.8513541,54.082184 36.259483,53.0470114 C36.5160509,52.9158498 36.7268629,52.7071398 36.9997208,52.6035028 C38.6442948,51.9091594 40.2086164,51.035785 41.8886449,50.4197077 C42.1191009,50.3378511 42.336381,50.2227256 42.5711491,50.1506825 C43.6589874,49.7756268 44.8158187,49.6911377 45.9115625,49.3469577 C48.0520239,48.9908106 50.1565513,48.3132212 52.3712762,48.6229353 C53.9950083,48.3747333 55.6175428,48.7574479 57.2398377,48.6217386 C59.637346,48.3129819 61.9792768,48.7605594 64.3250403,49.1435135 C65.1680492,49.2301567 65.915953,49.8196665 66.8154978,49.6169403 C67.0124154,49.6016222 67.2052606,49.6248387 67.3961892,49.6700752 C68.2377607,49.9759597 69.1363472,49.9900811 70.0035516,50.1662399 C74.4636647,51.3119905 78.9048525,52.519971 83.2063773,54.1843849 C85.357619,55.1295631 87.6463675,55.7322371 89.7564049,56.7829671 C91.043796,57.4785073 92.3776615,58.0711285 93.7534502,58.5708836 C95.3283122,59.4399498 97.0107365,60.0916897 98.5937436,60.9444803 C99.3888405,61.5634297 100.302999,61.970797 101.205178,62.3989875 C101.898223,62.7450822 102.570426,63.1292329 103.235442,63.5255902 C104.231051,64.0947557 105.261155,64.6083928 106.049065,65.1768401 C105.042198,63.9822629 103.692282,62.8444108 102.619296,61.4533304 C102.513411,61.3269556 102.408724,61.1993841 102.311942,61.0655896 C101.132113,59.6307088 100.039483,58.1252208 98.7928172,56.7437143 C97.8046355,55.1549338 96.7838738,53.586498 95.8031186,51.9924518 C95.351789,50.8045764 94.5657954,49.7909451 94.0483474,48.6368174 C93.1684466,46.8465074 92.4892962,44.9745804 91.7756494,43.1158174 C91.3645659,41.7213862 91.0241522,40.3140302 90.9503679,38.8535394 C90.9163505,38.1812158 90.7017055,37.541922 90.5397636,36.8930542 C90.4655002,36.6300127 90.4628649,36.3619449 90.476999,36.092441 C90.4767594,35.9564924 90.476999,35.8210224 90.4765198,35.6850737 C90.3914764,34.7329543 90.3457205,33.7798776 90.4185465,32.8248861 C90.6885297,31.1343835 90.7663865,29.4055855 91.3832514,27.7813818 C91.4354753,27.086081 91.5955009,26.4195017 91.912198,25.795526 C92.23728,24.9810307 92.5860781,24.1753912 92.9161908,23.3625713 C93.2657076,22.5913977 93.6602615,21.8448768 94.1484832,21.1507726 C94.6093951,20.4865867 95.0719839,19.8235977 95.4135953,19.0856932 C95.6656115,18.6620503 96.0582491,18.3552084 96.3423664,17.9578937 C97.2284957,16.7989791 98.1771501,15.6934388 99.1775493,14.6314595 C99.2460632,14.5445768 99.325597,14.4696614 99.4120778,14.4016871 C100.583762,13.7992526 101.349153,12.696345 102.413994,11.9622701 C103.407925,11.1951653 104.452643,10.4998645 105.48658,9.78948482 C105.936712,9.38498964 106.538724,9.21840466 106.994366,8.82132923 C107.361371,8.55350077 107.766465,8.35819423 108.187371,8.19352402 C109.964181,7.11646589 111.931202,6.42954215 113.765027,5.4688063 C114.6169,5.1339609 115.48075,4.8302305 116.337414,4.50687372 C116.54631,4.39940724 116.762632,4.3101311 116.983745,4.23162552 C117.999476,3.87499961 119.027185,3.55475433 120.047946,3.21153181 C121.266584,2.84700747 122.501272,2.54423445 123.732127,2.22614329 C124.318329,2.0746371 124.897583,2.00546604 125.49145,2.15146725 C129.428126,1.47435671 133.358574,0.754881883 137.352265,0.483941928 C138.109512,-0.193407962 138.891912,-0.0967120771 139.687967,0.407111781 C141.831543,0.40591505 143.974879,0.404478972 146.118455,0.403042894 C146.558525,-0.0457313256 147.134425,-0.0210786618 147.677506,0.0217643172 C151.221545,0.302517469 154.770854,0.548804761 158.259075,1.2900601 C159.466933,1.49541918 160.672155,1.71346361 161.866837,1.99421676 C162.534727,2.15122791 163.131231,2.42121049 163.67455,2.82690238 C164.295727,3.0774979 164.92505,3.29673907 165.603241,3.32809343 C167.375022,3.36112321 168.953716,4.12750991 170.599249,4.64066826 C171.064951,4.78619079 171.454475,5.04588147 171.769016,5.41830424 L175.590224,6.97501225 C176.955952,7.03915705 178.016959,7.70932655 178.938543,8.65618032 C180.063993,9.28039534 181.189681,9.90437102 182.315131,10.5288254 C182.917382,10.3368697 183.072856,11.0589773 183.547424,11.1291058 C183.880649,11.1808046 184.176026,11.3157959 184.439781,11.5240271 C185.869231,12.4833269 187.240228,13.523047 188.619849,14.5505604 C188.758315,14.6458202 188.883844,14.7563982 189.006738,14.8698483 C189.857172,15.4801813 190.531293,16.3020963 191.41814,16.8681501 C191.509173,16.9306195 191.591582,17.0036201 191.66872,17.0818865 C192.244381,17.7235737 192.881368,18.3049457 193.500149,18.9042687 C193.834814,19.2482094 194.163489,19.5986122 194.521869,19.9198149 C195.513645,20.9911287 196.438103,22.1191676 197.330701,23.2737739 C197.537919,23.6564886 197.849825,23.9568681 198.13514,24.2785495 C199.560996,26.0695774 200.707287,28.0446628 201.907719,29.9848034 C202.025342,30.18011 202.135539,30.379964 202.247654,30.5788609 C203.130908,32.2116809 203.905163,33.8971572 204.69523,35.5761712 C205.381567,37.3212447 206.018794,39.0835512 206.611224,40.8623724 C207.210361,43.1244339 207.987491,45.3482 208.05313,47.7079145 C208.017675,45.8288072 208.736354,44.1033601 209.179778,42.3228634 C209.483778,41.2369494 209.904684,40.1900489 210.252045,39.1182564 C210.278157,39.0028914 210.319361,38.8925528 210.368231,38.7850864 C211.349226,36.443562 212.393703,34.1312378 213.598447,31.8943078 C214.260109,30.7052356 214.617053,29.3486211 215.562114,28.3148847 C216.078124,27.6004361 216.551013,26.8563086 217.040433,26.1234304 C218.978947,23.2543868 221.242301,20.6589161 223.700658,18.2278762 C224.347467,17.6400419 225.011047,17.0689616 225.590062,16.4098021 C225.659294,16.3229194 225.738348,16.2460892 225.823152,16.1750034 C227.43874,14.857163 228.999469,13.467758 230.762384,12.3380437 C231.96593,11.5515519 232.97615,10.4268639 234.500945,10.2030751 C234.890707,10.0879496 235.223216,9.88163312 235.494875,9.57886012 C235.525301,9.21625055 235.78043,9.0276457 236.064547,8.87853298 C237.881365,7.92425948 239.696985,6.96687448 241.57441,6.13347083 C241.942852,5.96999735 242.326385,5.90226235 242.728365,5.94414795 C245.258829,4.89581138 247.947162,4.27327176 250.431871,3.10095383 C251.119646,2.69430456 251.914263,2.75270503 252.658334,2.59162501 C254.44832,2.25606157 256.244535,1.9508951 258.026856,1.57919037 C261.541908,0.846790844 265.107746,0.606726555 268.679814,0.41094132 C270.030209,0.336983329 271.381563,0.284805846 272.732198,0.222815168 C274.830975,0.5112274 276.933587,0.750094959 279.059435,0.631139871 C280.787135,1.00811022 282.541187,1.19384291 284.297635,1.35827378 C285.911067,1.75439182 287.524258,2.15362138 289.138888,2.54614923 C293.026453,3.49180627 296.765254,4.83717154 300.364871,6.5918189 C305.039389,8.87063455 309.21802,11.7930523 312.639884,15.7420261 C312.895254,16.0366613 313.22345,16.2690664 313.517869,16.5309113 C314.064302,17.1067785 314.188634,18.0026514 314.950193,18.415045 C315.038829,18.7422313 315.113333,19.0773161 315.434342,19.2726226 Z" id="Fill-1" fill="#FF4501" fill-rule="nonzero" mask="url(#mask-2)"></path>
                </g>
                <g id="Ready-to-hire" transform="translate(220.483782, 176.164450) rotate(-10.000000) translate(-220.483782, -176.164450) translate(127.658782, 130.630950)" fill="#F0F8FF" fill-rule="nonzero">
                    <path d="M43.0285,9.071 C43.0285,2.632 38.2815,0.094 26.4845,0.094 C15.7685,0.094 11.8205,1.88 10.7865,6.204 C10.0345,9.776 10.8335,12.643 10.8335,15.369 C10.8335,18.189 10.0815,21.761 10.7865,25.521 C11.7265,29.563 14.4995,31.067 19.3875,31.067 C23.5705,31.067 26.1085,28.952 26.1085,26.32 C26.1085,24.205 24.3695,23.359 24.3695,21.902 C24.3695,21.15 24.6515,20.586 25.7795,20.586 C27.5185,20.586 28.5995,21.996 28.5525,24.581 C28.5525,28.905 31.3255,31.02 36.4955,31.02 C41.6655,31.02 43.8745,28.952 43.8745,24.205 C43.8745,21.338 42.5115,18.847 39.7855,18.847 C38.7985,18.847 37.6705,19.035 36.5425,19.035 C35.4615,19.035 34.8505,18.753 34.8505,18.142 C34.8505,17.578 35.3205,17.249 36.1195,17.061 C40.6785,16.027 43.0285,14.57 43.0285,9.071 Z M22.4425,13.254 C22.4425,11.327 24.0875,10.998 25.9675,10.998 C29.6335,10.998 30.9025,11.609 30.9025,13.019 C30.9025,14.617 29.0225,15.416 25.6385,15.416 C23.1475,15.416 22.4425,14.711 22.4425,13.254 Z" id="Shape"></path>
                    <path d="M59.7605,31.067 C71.1815,31.067 73.4845,29.563 73.4845,24.393 C73.4845,22.325 72.4035,20.868 70.1005,20.868 C66.1525,20.868 64.9305,21.62 61.8285,21.62 C60.2775,21.62 58.9145,21.15 58.9145,19.646 C58.9145,18.706 59.4315,18.001 60.8885,18.001 C63.8965,18.001 66.3405,19.458 68.7375,19.458 C70.8055,19.458 71.7455,17.86 71.7455,15.745 C71.7455,13.066 70.8525,11.938 68.6905,11.938 C65.7295,11.938 63.9905,13.113 60.9355,13.113 C59.5255,13.113 58.9615,12.455 58.9615,11.562 C58.9615,10.058 60.2305,9.635 61.8755,9.635 C64.9775,9.635 66.0115,10.34 69.5835,10.34 C72.0745,10.34 73.0145,8.46 73.0145,5.734 C73.0145,1.363 71.4635,0.094 59.7135,0.094 C49.1385,0.094 46.5065,1.786 45.6135,6.016 C44.9085,9.776 45.8955,12.502 45.8955,15.416 C45.8955,18.095 44.9085,21.667 45.5665,25.192 C46.4125,29.281 49.0915,31.067 59.7605,31.067 Z" id="Path"></path>
                    <path d="M91.0155,1.60559287e-13 C77.0565,1.60559287e-13 74.3305,5.405 74.9415,15.886 C75.6935,20.539 73.8135,22.278 74.2835,25.944 C74.8005,29.234 77.0565,31.02 82.7435,31.02 C87.9135,31.02 89.7935,28.952 89.7935,26.367 C89.7935,24.017 88.0545,23.97 88.0545,22.701 C88.0545,21.808 88.5245,21.103 91.0155,21.103 C93.5065,21.103 93.8825,21.808 93.8825,22.701 C93.8825,23.97 92.0965,24.017 92.0965,26.367 C92.0965,28.952 94.0705,31.02 99.2405,31.02 C104.9275,31.02 107.1835,29.234 107.7005,25.944 C108.1705,22.278 106.2905,20.539 107.0425,15.886 C107.6065,5.358 104.8805,1.60559287e-13 91.0155,1.60559287e-13 Z M91.0155,14.993 C87.7255,14.993 86.7855,14.617 86.7855,13.16 C86.7855,11.468 88.1955,10.998 91.0155,10.998 C93.7885,10.998 95.1985,11.468 95.1985,13.16 C95.1985,14.617 94.2585,14.993 91.0155,14.993 Z" id="Shape"></path>
                    <path d="M120.9075,15.416 C120.9075,13.254 122.1765,12.831 124.1975,12.831 C128.1925,12.831 129.7905,13.583 129.7905,15.463 C129.7905,17.766 128.0985,18.8 123.9625,18.8 C122.0355,18.8 120.9075,18.095 120.9075,15.416 Z M122.8815,31.067 C136.0415,31.067 140.9295,25.944 140.7885,15.228 C140.9295,5.123 136.1825,0.047 122.7875,0.047 C113.5755,0.047 111.0845,1.551 110.0975,5.076 C109.3455,8.366 110.3325,11.233 110.3325,15.369 C110.3325,19.599 109.3455,23.077 110.1445,26.179 C111.1785,29.61 113.6695,31.067 122.8815,31.067 Z" id="Shape"></path>
                    <path d="M158.6485,31.02 C168.3775,31.02 171.9025,28.905 173.4535,25.615 C174.5815,22.325 174.0175,19.505 174.0175,14.617 C174.0175,10.622 175.4275,7.473 174.6755,4.7 C173.8295,1.692 171.8085,-1.14907922e-14 166.9675,-1.14907922e-14 C159.8235,-1.14907922e-14 159.3065,4.324 160.8575,7.238 C162.1265,9.259 162.5495,11.609 158.1785,11.609 C155.3115,11.609 155.3115,9.4 156.4865,7.614 C158.6485,4.559 158.2255,0.094 150.2825,0.094 C145.5355,0.094 142.9975,1.504 142.3395,4.888 C142.1045,7.05 143.2795,8.789 143.2795,10.998 C143.2795,12.643 143.4675,14.147 144.2195,15.369 C145.2535,17.202 146.8985,18.236 150.2355,18.236 C153.6195,18.236 155.3585,17.437 157.2855,17.437 C158.1315,17.437 158.9305,17.813 158.9305,18.941 C158.9305,20.586 157.7555,20.962 156.3925,20.962 C153.6195,20.962 150.8465,20.022 147.3215,20.022 C144.1255,20.022 142.4805,21.761 142.4805,24.581 C142.4805,29.469 145.9585,31.02 158.6485,31.02 Z" id="Path"></path>
                    <path d="M19.599,78.33 C19.599,76.544 20.351,76.168 21.244,76.168 C22.137,76.168 22.748,76.356 23.453,76.356 C25.333,76.356 26.414,74.429 26.414,70.528 C26.414,62.303 23.829,60.235 13.207,60.235 C2.585,60.235 -3.28417693e-14,62.303 -3.28417693e-14,70.528 C-3.28417693e-14,74.429 1.034,76.356 2.961,76.356 C3.619,76.356 4.277,76.168 5.17,76.168 C6.063,76.168 6.815,76.544 6.815,78.33 C6.815,80.304 4.653,81.761 4.653,85.004 C4.653,89.563 8.413,90.973 13.207,90.973 C18.001,90.973 21.761,89.563 21.761,85.004 C21.761,81.761 19.599,80.304 19.599,78.33 Z" id="Path"></path>
                    <path d="M43.428,60.047 C30.127,60.047 26.884,65.123 26.884,75.275 C26.884,85.944 30.127,91.02 43.428,91.02 C57.105,91.02 60.254,85.944 60.207,75.228 C60.254,65.076 57.152,60.047 43.428,60.047 Z M43.522,78.189 C40.279,78.189 38.728,77.343 38.728,75.463 C38.728,73.583 40.326,72.831 43.522,72.831 C46.765,72.831 48.316,73.583 48.316,75.463 C48.316,77.437 46.812,78.189 43.522,78.189 Z" id="Shape"></path>
                    <path d="M94.423,91.067 C98.653,91.067 101.144,89.704 102.037,86.461 C102.789,82.983 101.238,80.398 101.238,75.463 C101.238,70.81 102.789,68.319 102.037,64.841 C101.144,61.551 98.653,60.047 94.423,60.047 C89.723,60.047 86.762,61.504 86.762,64.888 C86.762,67.332 88.83,67.896 88.83,69.635 C88.83,70.716 88.454,71.327 85.775,71.327 C83.002,71.327 82.579,70.716 82.579,69.635 C82.579,67.896 84.694,67.332 84.694,64.888 C84.694,61.504 82.062,60.047 77.033,60.047 C72.803,60.047 70.312,61.551 69.419,64.841 C68.667,68.319 70.218,70.81 70.265,75.463 C70.218,80.398 68.667,82.983 69.466,86.461 C70.359,89.704 72.85,91.067 77.033,91.067 C82.109,91.067 84.694,89.375 84.694,86.038 C84.694,83.5 82.626,82.842 82.626,81.338 C82.626,80.257 83.049,79.552 85.775,79.552 C88.407,79.552 88.736,80.257 88.736,81.338 C88.736,82.842 86.762,83.5 86.762,86.038 C86.762,89.375 89.535,91.067 94.423,91.067 Z" id="Path"></path>
                    <path d="M112.518,60.047 C108.194,60.047 105.656,61.598 104.763,64.888 C104.011,68.648 105.703,70.857 105.703,75.463 C105.703,80.398 104.011,82.654 104.81,86.461 C105.703,89.704 108.241,91.067 112.518,91.067 C116.795,91.067 119.333,89.704 120.226,86.461 C121.025,82.654 119.286,80.398 119.286,75.463 C119.286,70.857 121.025,68.648 120.226,64.888 C119.38,61.598 116.795,60.047 112.518,60.047 Z" id="Path"></path>
                    <path d="M155.194,69.071 C155.194,62.632 150.447,60.094 138.65,60.094 C127.934,60.094 123.986,61.88 122.952,66.204 C122.2,69.776 122.999,72.643 122.999,75.369 C122.999,78.189 122.247,81.761 122.952,85.521 C123.892,89.563 126.665,91.067 131.553,91.067 C135.736,91.067 138.274,88.952 138.274,86.32 C138.274,84.205 136.535,83.359 136.535,81.902 C136.535,81.15 136.817,80.586 137.945,80.586 C139.684,80.586 140.765,81.996 140.718,84.581 C140.718,88.905 143.491,91.02 148.661,91.02 C153.831,91.02 156.04,88.952 156.04,84.205 C156.04,81.338 154.677,78.847 151.951,78.847 C150.964,78.847 149.836,79.035 148.708,79.035 C147.627,79.035 147.016,78.753 147.016,78.142 C147.016,77.578 147.486,77.249 148.285,77.061 C152.844,76.027 155.194,74.57 155.194,69.071 Z M134.608,73.254 C134.608,71.327 136.253,70.998 138.133,70.998 C141.799,70.998 143.068,71.609 143.068,73.019 C143.068,74.617 141.188,75.416 137.804,75.416 C135.313,75.416 134.608,74.711 134.608,73.254 Z" id="Shape"></path>
                    <path d="M171.926,91.067 C183.347,91.067 185.65,89.563 185.65,84.393 C185.65,82.325 184.569,80.868 182.266,80.868 C178.318,80.868 177.096,81.62 173.994,81.62 C172.443,81.62 171.08,81.15 171.08,79.646 C171.08,78.706 171.597,78.001 173.054,78.001 C176.062,78.001 178.506,79.458 180.903,79.458 C182.971,79.458 183.911,77.86 183.911,75.745 C183.911,73.066 183.018,71.938 180.856,71.938 C177.895,71.938 176.156,73.113 173.101,73.113 C171.691,73.113 171.127,72.455 171.127,71.562 C171.127,70.058 172.396,69.635 174.041,69.635 C177.143,69.635 178.177,70.34 181.749,70.34 C184.24,70.34 185.18,68.46 185.18,65.734 C185.18,61.363 183.629,60.094 171.879,60.094 C161.304,60.094 158.672,61.786 157.779,66.016 C157.074,69.776 158.061,72.502 158.061,75.416 C158.061,78.095 157.074,81.667 157.732,85.192 C158.578,89.281 161.257,91.067 171.926,91.067 Z" id="Path"></path>
                </g>
            </g>
        </g>
    </g>
</svg>