<?xml version="1.0" encoding="UTF-8"?>
<svg width="553px" height="286px" viewBox="0 0 553 286" version="1.1" xmlns="http://www.w3.org/2000/svg" xmlns:xlink="http://www.w3.org/1999/xlink">
    <title>Fill-1-Clipped</title>
    <g id="Page-1" stroke="none" stroke-width="1" fill="none" fill-rule="evenodd">
        <g id="Fill-1-Clipped" transform="translate(267.462371, 143.750691) rotate(-10.000000) translate(-267.462371, -143.750691) translate(-3.360192, 0.625295)" stroke="#FF4501" stroke-width="5">
            <path d="M456.659551,49.1 C458.359551,52.5 459.359551,56 459.259551,59.6 C459.259551,60.2 459.159551,60.8 459.159551,61.4 C459.559551,63 458.859551,64.5 458.559551,66 C458.459551,66.5 458.259551,67.1 457.859551,67.6 C455.459551,72.8 451.659551,77.4 446.659551,81.5 C443.959551,83.8 440.959551,86 437.859551,88 C435.159551,89.7 432.559551,91.5 430.259551,92.4 C432.559551,91.7 435.759551,91 439.059551,90.2 C441.259551,89.5 443.659551,89.2 445.959551,88.7 C447.759551,88.4 449.559551,88 451.359551,87.7 C451.759551,87.7 452.059551,87.6 452.459551,87.6 C453.159551,87.4 453.859551,87.4 454.659551,87.2 C454.959551,87.2 455.259551,87.1 455.559551,87 C458.759551,86.5 462.059551,86.1 465.359551,85.8 C466.359551,85.6 467.359551,85.6 468.259551,85.5 C470.159551,85.4 472.159551,85.2 474.059551,85.2 C476.359551,85.1 478.659551,85.1 480.859551,85 C481.959551,85.4 483.159551,85.4 484.359551,85.2 C488.659551,85.4 492.959551,85.6 497.059551,86.6 C497.859551,87.1 498.759551,87 499.659551,87 C500.859551,87 502.059551,87.2 502.959551,87.9 C503.059551,87.9 503.159551,88 503.259551,88 C504.059551,87.9 504.759551,88.1 505.459551,88.2 C508.859551,89.5 512.459551,90.5 515.659551,92.2 C519.559551,94.3 523.159551,96.7 525.859551,99.7 C527.559551,101.6 528.659551,103.7 529.859551,105.8 C530.259551,106.7 530.559551,107.6 530.859551,108.5 C531.159551,110.7 531.759551,112.9 531.359551,115.2 C531.359551,115.6 531.359551,116 531.359551,116.4 C531.359551,117.2 530.959551,117.9 530.859551,118.6 C530.759551,118.9 530.759551,119.3 530.559551,119.6 C529.959551,120.8 529.859551,122.1 529.059551,123.2 C528.659551,124.3 527.859551,125.3 527.259551,126.3 C526.959551,126.6 526.759551,126.9 526.659551,127.3 C526.159551,128 525.559551,128.5 525.259551,129.3 C525.059551,129.6 524.859551,129.9 524.559551,130.2 C524.059551,130.6 523.459551,130.9 523.159551,131.4 C522.959551,131.7 522.659551,132 522.459551,132.2 C520.259551,134.2 518.059551,136.1 515.659551,137.9 C514.359551,138.7 513.059551,139.5 511.759551,140.4 C509.759551,141.7 507.459551,142.8 505.359551,143.9 C502.559551,145.2 499.659551,146.4 496.659551,147.6 C496.459551,147.7 496.259551,147.8 496.059551,147.9 C493.259551,148.8 490.459551,149.7 487.659551,150.6 C487.359551,150.7 487.059551,150.8 486.759551,150.8 C485.559551,151 484.559551,151.5 483.359551,151.7 C480.459551,152.6 477.359551,153.1 474.359551,153.8 C473.759551,153.9 473.159551,154 472.659551,154.1 C472.359551,154.2 472.059551,154.2 471.759551,154.3 C470.859551,154.5 469.959551,154.6 469.059551,154.7 C467.159551,155 465.159551,155.3 463.159551,155.6 C458.459551,156.2 453.759551,156.8 449.059551,156.9 C448.559551,156.8 448.059551,157 447.559551,157 C446.359551,157 445.159551,157 444.059551,157 C443.859551,157 443.759551,157 443.559551,157 C442.159551,156.9 440.859551,157.1 439.559551,157.4 C441.659551,158.5 444.259551,158.4 446.559551,159.2 C453.259551,160.6 459.759551,162.3 466.159551,164.5 C468.359551,165.2 470.559551,165.9 472.759551,166.6 C473.759551,167.2 475.059551,167 476.059551,167.6 C479.759551,168.8 483.059551,170.4 486.559551,172 C487.659551,172.5 488.659551,173 489.659551,173.5 C493.259551,175.2 496.659551,177.1 499.959551,179.1 C500.659551,179.7 501.559551,180.1 502.359551,180.6 C506.159551,182.9 509.659551,185.4 513.059551,188 C515.659551,190 518.159551,192.1 520.359551,194.3 C520.759551,194.7 521.259551,195.1 521.659551,195.5 C521.959551,195.8 521.959551,196.2 522.259551,196.5 C523.259551,197.6 524.059551,198.8 525.459551,199.8 C526.559551,201.3 527.759551,202.7 529.159551,204 C529.359551,204.6 529.859551,205.1 530.459551,205.6 C530.859551,206.3 531.159551,206.9 531.859551,207.5 C533.559551,209.1 534.859551,210.8 535.259551,212.8 C535.459551,213.3 535.459551,213.9 536.159551,214.2 C535.959551,215.3 536.959551,216.1 537.359551,217.1 C538.059551,218.9 538.959551,220.6 539.559551,222.4 C540.459551,225.4 541.259551,228.4 541.459551,231.5 C541.559551,232.9 541.759551,234.3 541.559551,235.8 C541.059551,238.3 540.759551,240.7 539.959551,243.2 C537.859551,249 533.559551,253.5 526.759551,256.6 C526.459551,256.7 526.159551,256.8 526.059551,257.1 C521.959551,259.5 517.059551,260.1 512.059551,260.5 C511.559551,260.5 510.959551,260.6 510.459551,260.4 C508.159551,260.4 505.959551,260.1 503.659551,260.5 C503.259551,260.7 502.859551,260.6 502.459551,260.4 C499.059551,260 495.559551,259.5 492.159551,259.1 C486.259551,258.3 480.759551,256.7 475.159551,255.1 C471.359551,254 467.559551,252.8 463.859551,251.4 C459.459551,249.7 455.159551,248 450.959551,246.2 C449.559551,245.6 448.259551,244.7 446.659551,244.4 C446.559551,244.5 446.459551,244.6 446.459551,244.7 C447.759551,245.7 449.159551,246.7 450.459551,247.6 C456.059551,251.7 461.459551,255.9 466.359551,260.5 C466.459551,260.6 466.559551,260.6 466.759551,260.7 C466.859551,260.7 466.959551,260.8 466.959551,260.9 C467.959551,262 468.859551,263.1 470.159551,264 C471.159551,264.3 471.259551,264.9 471.559551,265.5 C472.659551,267 473.859551,268.4 474.859551,269.9 C476.359551,272 477.259551,274.2 477.859551,276.5 C478.059551,277.4 477.459551,278.2 477.859551,279.1 C478.359551,279.9 477.659551,280.5 477.059551,281.1 C473.959551,284.9 468.959551,285.7 463.559551,285.9 C462.959551,285.9 462.359551,286 461.859551,286.1 C460.259551,286.5 458.759551,286 457.259551,285.8 C456.859551,285.5 456.459551,285.5 456.059551,285.8 C455.259551,286.1 454.359551,286.2 453.659551,285.6 L449.859551,285.1 C448.359551,285 446.759551,285.3 445.359551,284.6 C443.259551,284 440.959551,283.9 438.759551,283.4 C437.359551,282.7 435.759551,282.5 434.059551,282.3 C428.459551,280.9 422.959551,279.2 417.559551,277.4 C416.259551,277 415.059551,276.5 413.759551,276.2 C409.759551,274.6 405.559551,273.4 401.659551,271.7 C401.459551,271.7 401.359551,271.6 401.259551,271.5 C400.159551,270.9 399.059551,270.4 397.759551,270.1 C396.959551,269.7 396.159551,269.4 395.259551,269.1 C392.759551,268.2 390.459551,266.9 387.859551,266 C386.559551,265.3 385.159551,264.8 383.859551,264.1 C381.859551,263.2 379.959551,262.3 378.059551,261.3 C376.559551,260.5 375.159551,259.7 373.459551,259.1 C371.959551,258 370.159551,257.1 368.359551,256.2 C363.659551,253.7 359.259551,250.9 354.759551,248.2 C347.159551,243.5 340.259551,238.2 333.659551,232.7 C332.959551,232 332.259551,231.3 331.459551,230.7 C329.759551,229.2 328.359551,227.7 326.659551,226.2 C326.459551,226 326.259551,225.7 326.059551,225.5 C324.959551,224.3 323.759551,223.1 322.759551,221.9 C322.159551,221.2 321.659551,220.4 320.859551,219.7 C320.459551,219.3 320.159551,219 320.059551,218.7 C320.459551,219.6 320.359551,220.7 320.659551,221.8 C320.959551,223.7 321.159551,225.7 320.759551,227.6 C320.659551,228 320.859551,228.3 320.859551,228.7 C320.459551,234.1 319.059551,239.4 316.059551,244.5 C315.559551,245.5 314.959551,246.4 314.359551,247.4 C312.659551,250 310.659551,252.6 308.359551,255 C307.459551,255.7 306.859551,256.7 305.759551,257.3 C304.259551,258.2 303.059551,259.4 301.859551,260.5 C301.059551,261.6 299.959551,262.5 298.559551,263.3 C298.359551,263.5 298.059551,263.6 297.759551,263.6 C297.059551,263.8 296.459551,264.1 296.259551,264.6 C296.159551,264.7 296.059551,264.8 295.859551,264.8 C294.259551,265.5 292.759551,266.4 291.359551,267.4 C290.959551,268.2 289.859551,268.5 288.959551,269 C288.459551,269.2 287.959551,269.4 287.459551,269.7 C286.559551,270.2 285.459551,270.4 284.759551,271 C284.659551,271.1 284.459551,271.1 284.359551,271.1 C283.659551,271.3 282.959551,271.6 282.259551,272 C281.559551,272.3 280.659551,272.6 279.959551,272.9 C279.159551,273.1 278.359551,273.4 277.559551,273.7 C277.359551,273.7 277.159551,273.7 276.859551,273.8 C276.459551,273.8 276.059551,273.7 275.759551,273.8 C270.459551,275.9 264.759551,276.9 258.959551,277.6 C255.759551,278 252.559551,278.5 249.259551,278 C248.459551,277.9 247.659551,278.3 246.759551,278.1 C245.359551,278.5 243.959551,278.2 242.659551,278 C240.159551,277.5 237.459551,277.4 235.059551,276.6 C233.959551,276.2 232.959551,275.8 231.859551,275.5 C231.059551,275.1 229.959551,274.9 229.559551,274.1 C225.759551,272 222.459551,269.6 220.159551,266.4 C219.059551,264.9 218.459551,263.3 217.459551,261.7 C216.159551,260.6 216.559551,259.2 216.459551,258 C216.659551,257.3 216.459551,256.7 216.159551,256 C215.659551,255.4 215.859551,254.7 215.959551,254.1 L215.959551,254.1 C216.059551,253.5 215.759551,252.9 215.559551,252.4 C215.259551,251.2 216.059551,250.2 216.359551,249.1 C216.859551,248.2 216.559551,247.3 216.859551,246.4 C217.759551,243.1 218.759551,239.7 220.059551,236.5 C219.359551,235.5 220.659551,234.8 220.759551,233.9 C219.959551,234.2 219.759551,235.2 218.459551,235.2 C216.959551,236.2 215.559551,237.3 214.359551,238.5 L214.359551,238.5 C213.059551,239 212.059551,239.7 211.259551,240.5 C210.159551,241.6 208.959551,242.6 207.059551,242.9 C201.559551,246 195.559551,248.7 189.459551,251 C188.859551,251.6 187.959551,251.9 186.959551,251.9 C184.059551,252.7 181.159551,253.5 178.359551,254.4 C177.859551,255 177.059551,255 176.259551,254.9 C174.359551,255.3 172.559551,255.7 170.659551,256.1 C168.459551,256.5 166.359551,256.8 164.159551,257.2 C163.259551,257.9 162.059551,257.8 161.059551,258 C159.759551,258.2 158.459551,258.3 157.159551,258.5 C156.359551,258.6 155.559551,258.6 154.759551,258.7 C154.459551,258.7 154.159551,258.6 153.859551,258.5 C152.659551,258.6 151.359551,258.7 150.159551,258.8 C148.359551,259.5 146.459551,259.5 144.559551,259.1 C143.059551,258.7 141.559551,259.1 140.159551,259 C136.559551,258.9 132.959551,259.1 129.359551,258.6 C129.159551,258.6 128.959551,258.7 128.759551,258.7 C126.959551,258.9 125.259551,258.6 123.459551,258.3 C123.059551,258.2 122.559551,258.1 122.159551,258.2 C117.659551,257.6 113.059551,257.1 108.559551,256.3 C103.759551,255.4 98.9595509,254.7 94.4595509,253.2 C92.8595509,252.7 91.2595509,252.4 89.6595509,252 C89.3595509,252.1 89.1595509,252 89.0595509,251.9 C87.2595509,251 85.0595509,250.6 83.1595509,249.8 C80.4595509,248.7 77.6595509,247.7 74.8595509,246.7 C73.9595509,246.7 73.2595509,246.5 72.8595509,245.9 C72.7595509,245.3 71.9595509,245.3 71.4595509,245 C68.4595509,243.3 65.4595509,241.7 62.3595509,240.1 C61.0595509,239 59.6595509,238 58.0595509,237.1 C57.6595509,237 57.4595509,236.9 57.4595509,236.6 C56.3595509,235.6 55.2595509,234.7 54.2595509,233.7 C50.9595509,230.5 48.3595509,227.1 46.9595509,223.2 C45.4595509,218.9 45.4595509,214.7 47.4595509,210.5 C47.8595509,209.8 48.1595509,209 48.4595509,208.3 C50.5595509,205.4 52.8595509,202.6 55.9595509,200.2 C56.5595509,199.7 57.3595509,199.4 57.5595509,198.8 C57.5595509,198.7 57.5595509,198.7 57.5595509,198.6 C57.9595509,198.1 58.5595509,197.7 59.1595509,197.3 C59.7595509,196.8 60.5595509,196.5 61.0595509,196.1 C62.1595509,195.3 63.4595509,194.6 64.6595509,193.9 C65.8595509,193.4 66.8595509,192.6 68.0595509,192.1 C69.2595509,191.6 70.1595509,190.9 71.3595509,190.5 C73.5595509,189.6 75.6595509,188.6 77.8595509,187.7 C79.3595509,187.3 80.6595509,186.7 82.0595509,186.1 C85.7595509,184.9 89.4595509,183.5 93.1595509,182.6 C89.6595509,182.8 86.1595509,183.2 82.4595509,183.4 C81.3595509,183.6 80.1595509,183.5 79.0595509,183.7 C76.1595509,183.7 73.2595509,184.1 70.4595509,184 C69.9595509,184 69.4595509,184 68.9595509,184.1 C68.7595509,184.1 68.6595509,184.1 68.4595509,184.1 C67.7595509,184 67.0595509,184.2 66.3595509,184.1 C65.9595509,184.1 65.5595509,184.2 65.1595509,184.2 C64.7595509,184.2 64.4595509,184.1 64.0595509,184.2 C53.7595509,184.2 43.4595509,183.5 33.5595509,181.3 C29.1595509,180.3 24.7595509,179.2 20.7595509,177.5 C20.2595509,177.3 19.7595509,177 19.2595509,176.8 C18.9595509,176.7 18.5595509,176.5 18.2595509,176.4 C17.9595509,176.3 17.6595509,176.1 17.3595509,175.9 C16.8595509,175.7 16.3595509,175.5 15.8595509,175.2 C14.1595509,174.2 12.3595509,173.4 10.9595509,172.3 C10.7595509,172.2 10.6595509,172 10.6595509,171.9 C10.4595509,171.6 10.2595509,171.3 9.75955093,171.1 C9.45955093,170.9 9.25955093,170.7 8.95955093,170.4 C6.65955093,169.5 5.75955093,167.7 4.35955093,166.2 C3.55955093,165.3 3.05955093,164.3 2.35955093,163.4 C2.05955093,163 2.05955093,162.5 1.85955093,162.1 C1.25955093,160.9 0.859550928,159.6 0.559550928,158.4 C0.459550928,157.4 0.259550928,156.5 0.159550928,155.5 C-0.440449072,154.5 0.859550928,153.7 0.659550928,152.7 C0.959550928,150.4 1.65955093,148.1 2.55955093,145.8 C2.95955093,143.1 4.45955093,140.8 6.45955093,138.5 C9.25955093,135.4 12.1595509,132.4 15.6595509,129.7 C16.0595509,129.4 16.3595509,129.1 16.7595509,128.8 C17.4595509,128.4 17.9595509,128 18.5595509,127.6 C20.5595509,126.1 22.8595509,124.9 24.9595509,123.6 C25.5595509,123.2 26.2595509,122.9 26.9595509,122.5 C29.3595509,121.2 31.9595509,120.1 34.4595509,118.9 C35.1595509,118.7 35.7595509,118.4 36.3595509,118.1 C39.5595509,116.7 42.9595509,115.7 46.2595509,114.5 C50.0595509,113.4 53.8595509,112.2 57.8595509,111.4 C60.1595509,111 62.2595509,110.3 64.6595509,110 C65.6595509,109.9 66.6595509,109.7 67.5595509,109.5 C69.3595509,109.2 71.0595509,109 72.8595509,108.7 C73.2595509,108.6 73.6595509,108.6 74.0595509,108.5 C76.1595509,108.3 78.2595509,108 80.3595509,107.9 C82.8595509,107.6 85.3595509,107.5 87.8595509,107.3 C89.3595509,107.3 90.9595509,107.2 92.4595509,107.2 C94.3595509,107 96.2595509,107.2 98.1595509,107.1 C104.259551,107 110.259551,107.4 116.359551,107.8 C118.659551,108 121.059551,108 123.359551,108.5 C125.359551,108.7 127.359551,109 129.159551,109.2 C126.459551,108 123.359551,107.2 120.559551,105.9 C116.259551,104.4 112.159551,102.6 108.159551,100.7 C103.959551,98.7 99.7595509,96.7 95.8595509,94.4 C95.1595509,93.9 94.3595509,93.6 93.6595509,93.2 C92.9595509,92.7 92.2595509,92.2 91.3595509,91.9 C88.0595509,90 85.3595509,87.7 82.1595509,85.8 C77.7595509,82.5 73.9595509,78.8 70.2595509,75.1 C69.3595509,74.2 68.8595509,73.2 67.9595509,72.4 C67.8595509,72.3 67.7595509,72.2 67.7595509,72.1 C66.7595509,70.7 65.8595509,69.4 64.9595509,67.9 C64.4595509,67 63.9595509,66.2 63.4595509,65.3 C63.1595509,64.9 62.9595509,64.5 62.7595509,64.1 C62.3595509,63 62.1595509,61.9 61.4595509,60.8 C60.9595509,58.6 60.5595509,56.3 60.5595509,54.1 C60.6595509,53.6 60.6595509,53.1 60.5595509,52.6 C60.5595509,52.3 60.6595509,51.9 60.7595509,51.6 C60.9595509,50.7 61.2595509,49.9 61.3595509,49 C61.3595509,48.9 61.4595509,48.7 61.4595509,48.6 C61.5595509,48.1 61.5595509,47.5 61.9595509,47.1 C62.5595509,46.6 62.8595509,45.9 63.0595509,45.3 C65.2595509,42.1 68.0595509,39.3 72.1595509,37.3 C74.0595509,36.2 76.2595509,35.6 78.3595509,34.8 C78.7595509,34.7 79.0595509,34.5 79.4595509,34.5 C81.7595509,34.1 84.0595509,33.5 86.4595509,33.2 C86.7595509,33.2 87.0595509,33.1 87.4595509,33.1 C88.9595509,32.9 90.5595509,33 92.0595509,32.9 C94.9595509,32.9 97.9595509,32.6 100.759551,33.3 C102.959551,33.3 105.059551,34 107.259551,34.1 C110.559551,34.2 113.559551,35.1 116.559551,35.8 C117.659551,36 118.559551,36.7 119.759551,36.7 C120.059551,36.7 120.259551,36.8 120.559551,36.9 C121.559551,37.3 122.759551,37.5 123.859551,37.8 C129.459551,39.7 135.159551,41.7 140.459551,44 C143.059551,45.3 145.959551,46.3 148.559551,47.7 C150.059551,48.6 151.759551,49.4 153.459551,50.2 C155.359551,51.3 157.459551,52.3 159.359551,53.4 C160.259551,54.1 161.359551,54.7 162.459551,55.3 C163.259551,55.8 164.059551,56.3 164.859551,56.8 C166.059551,57.5 167.259551,58.2 168.159551,58.9 C167.059551,57.5 165.559551,56.2 164.459551,54.6 C164.359551,54.5 164.259551,54.3 164.159551,54.2 C162.959551,52.6 161.859551,50.9 160.459551,49.3 C159.559551,47.6 158.559551,45.8 157.559551,44.1 C157.259551,42.9 156.459551,41.7 156.059551,40.5 C155.359551,38.6 154.859551,36.6 154.359551,34.7 C154.159551,33.3 154.059551,31.8 154.259551,30.4 C154.359551,29.7 154.259551,29.1 154.159551,28.4 C154.159551,28.1 154.159551,27.9 154.259551,27.6 C154.259551,27.5 154.359551,27.3 154.359551,27.2 C154.459551,26.2 154.659551,25.3 154.959551,24.4 C155.759551,22.8 156.259551,21.1 157.459551,19.6 C157.659551,18.9 158.059551,18.3 158.659551,17.7 C159.259551,17 159.959551,16.2 160.559551,15.5 C161.159551,14.8 161.859551,14.1 162.759551,13.5 C163.559551,12.9 164.259551,12.4 164.959551,11.7 C165.359551,11.3 165.959551,11.1 166.459551,10.8 C167.859551,9.8 169.459551,8.9 170.959551,8 C171.059551,7.9 171.159551,7.9 171.359551,7.8 C173.059551,7.4 174.359551,6.5 175.959551,5.9 C177.459551,5.3 178.959551,4.8 180.559551,4.3 C181.259551,4 182.059551,3.9 182.759551,3.6 C183.259551,3.4 183.859551,3.3 184.459551,3.2 C187.059551,2.4 189.859551,2.1 192.459551,1.5 C193.659551,1.3 194.859551,1.2 196.059551,1 C196.359551,0.9 196.659551,0.9 196.959551,0.8 C198.359551,0.6 199.859551,0.5 201.259551,0.3 C202.959551,0.2 204.659551,0.1 206.359551,0 C207.159551,0 207.959551,0 208.759551,0.2 C214.159551,0.2 219.559551,0.2 224.859551,0.6 C226.059551,0.1 227.059551,0.3 227.959551,0.9 C230.759551,1.3 233.659551,1.6 236.459551,2 C237.159551,1.6 237.859551,1.8 238.659551,1.9 C243.259551,2.8 247.959551,3.7 252.359551,5 C253.959551,5.4 255.459551,5.8 256.959551,6.3 C257.759551,6.6 258.559551,6.9 259.159551,7.4 C259.959551,7.8 260.659551,8.1 261.559551,8.2 C263.859551,8.5 265.859551,9.6 267.859551,10.4 C268.459551,10.6 268.859551,10.9 269.259551,11.4 L273.959551,13.6 C275.759551,13.9 276.959551,14.7 277.959551,15.8 C279.259551,16.6 280.659551,17.4 281.959551,18.2 C282.759551,18.1 282.859551,18.9 283.459551,19 C283.859551,19.1 284.259551,19.3 284.559551,19.5 C286.259551,20.7 287.759551,22 289.359551,23.2 C289.559551,23.3 289.659551,23.4 289.759551,23.6 C290.759551,24.3 291.459551,25.3 292.459551,26 C292.559551,26.1 292.659551,26.2 292.759551,26.3 C293.359551,27 294.059551,27.7 294.759551,28.4 C295.159551,28.8 295.459551,29.2 295.859551,29.6 C296.959551,30.8 297.859551,32.1 298.759551,33.4 C298.959551,33.8 299.259551,34.2 299.559551,34.5 C301.059551,36.5 302.059551,38.7 303.259551,40.8 C303.359551,41 303.459551,41.2 303.559551,41.4 C304.359551,43.2 304.959551,45 305.659551,46.7 C306.159551,48.5 306.559551,50.4 306.959551,52.2 C307.259551,54.5 307.759551,56.9 307.259551,59.2 C307.659551,57.3 308.959551,55.8 310.059551,54.1 C310.759551,53.1 311.559551,52.1 312.259551,51.1 C312.359551,51 312.359551,50.9 312.459551,50.8 C314.259551,48.7 316.259551,46.6 318.359551,44.6 C319.559551,43.5 320.259551,42.3 321.759551,41.4 C322.659551,40.8 323.459551,40.1 324.259551,39.5 C327.459551,37 331.159551,34.8 334.959551,32.9 C335.959551,32.4 336.959551,32 337.859551,31.4 C337.959551,31.3 338.059551,31.3 338.259551,31.2 C340.759551,30.2 343.059551,29.1 345.659551,28.3 C347.459551,27.7 349.059551,26.8 351.159551,26.8 C351.659551,26.8 352.159551,26.6 352.659551,26.4 C352.759551,26 353.159551,25.9 353.559551,25.8 C356.159551,25.2 358.859551,24.5 361.559551,24.1 C362.059551,24 362.659551,24 363.159551,24.1 C366.759551,23.5 370.459551,23.4 374.059551,22.6 C375.059551,22.3 376.059551,22.5 377.159551,22.5 C379.659551,22.5 382.059551,22.5 384.559551,22.4 C389.359551,22.3 394.159551,22.7 398.959551,23.1 C400.759551,23.3 402.559551,23.4 404.359551,23.6 C407.059551,24.2 409.759551,24.8 412.659551,25.1 C414.859551,25.8 417.159551,26.3 419.459551,26.7 C421.459551,27.4 423.559551,28 425.559551,28.7 C430.459551,30.3 435.159551,32.3 439.459551,34.6 C445.159551,37.7 449.959551,41.3 453.559551,45.7 C453.859551,46 454.259551,46.3 454.559551,46.6 C455.159551,47.3 455.059551,48.2 456.059551,48.7 C456.259551,48.5 456.359551,48.9 456.659551,49.1 Z" id="Fill-1"></path>
        </g>
    </g>
</svg>