<?xml version="1.0" encoding="utf-8"?>
<!-- Generator: Adobe Illustrator 26.4.0, SVG Export Plug-In . SVG Version: 6.00 Build 0)  -->
<svg version="1.1" id="Layer_1" xmlns="http://www.w3.org/2000/svg" xmlns:xlink="http://www.w3.org/1999/xlink" x="0px" y="0px"
	 viewBox="0 0 553 286" style="enable-background:new 0 0 553 286;" xml:space="preserve">
<style type="text/css">
	.st0{fill:none;stroke:#FF4501;stroke-width:5;}
	.st1{fill:none;}
	.st2{font-family:'MyriadPro-Regular';}
	.st3{font-size:12px;}
</style>
<g id="Page-1">
	
		<g id="Fill-1-Clipped" transform="translate(267.462371, 143.750691) rotate(-10.000000) translate(-267.462371, -143.750691) translate(-3.360192, 0.625295)">
		<path id="Fill-1" class="st0" d="M456.7,49.1c1.7,3.4,2.7,6.9,2.6,10.5c0,0.6-0.1,1.2-0.1,1.8c0.4,1.6-0.3,3.1-0.6,4.6
			c-0.1,0.5-0.3,1.1-0.7,1.6c-2.4,5.2-6.2,9.8-11.2,13.9c-2.7,2.3-5.7,4.5-8.8,6.5c-2.7,1.7-5.3,3.5-7.6,4.4
			c2.3-0.7,5.5-1.4,8.8-2.2c2.2-0.7,4.6-1,6.9-1.5c1.8-0.3,3.6-0.7,5.4-1c0.4,0,0.7-0.1,1.1-0.1c0.7-0.2,1.4-0.2,2.2-0.4
			c0.3,0,0.6-0.1,0.9-0.2c3.2-0.5,6.5-0.9,9.8-1.2c1-0.2,2-0.2,2.9-0.3c1.9-0.1,3.9-0.3,5.8-0.3c2.3-0.1,4.6-0.1,6.8-0.2
			c1.1,0.4,2.3,0.4,3.5,0.2c4.3,0.2,8.6,0.4,12.7,1.4c0.8,0.5,1.7,0.4,2.6,0.4c1.2,0,2.4,0.2,3.3,0.9c0.1,0,0.2,0.1,0.3,0.1
			c0.8-0.1,1.5,0.1,2.2,0.2c3.4,1.3,7,2.3,10.2,4c3.9,2.1,7.5,4.5,10.2,7.5c1.7,1.9,2.8,4,4,6.1c0.4,0.9,0.7,1.8,1,2.7
			c0.3,2.2,0.9,4.4,0.5,6.7c0,0.4,0,0.8,0,1.2c0,0.8-0.4,1.5-0.5,2.2c-0.1,0.3-0.1,0.7-0.3,1c-0.6,1.2-0.7,2.5-1.5,3.6
			c-0.4,1.1-1.2,2.1-1.8,3.1c-0.3,0.3-0.5,0.6-0.6,1c-0.5,0.7-1.1,1.2-1.4,2c-0.2,0.3-0.4,0.6-0.7,0.9c-0.5,0.4-1.1,0.7-1.4,1.2
			c-0.2,0.3-0.5,0.6-0.7,0.8c-2.2,2-4.4,3.9-6.8,5.7c-1.3,0.8-2.6,1.6-3.9,2.5c-2,1.3-4.3,2.4-6.4,3.5c-2.8,1.3-5.7,2.5-8.7,3.7
			c-0.2,0.1-0.4,0.2-0.6,0.3c-2.8,0.9-5.6,1.8-8.4,2.7c-0.3,0.1-0.6,0.2-0.9,0.2c-1.2,0.2-2.2,0.7-3.4,0.9c-2.9,0.9-6,1.4-9,2.1
			c-0.6,0.1-1.2,0.2-1.7,0.3c-0.3,0.1-0.6,0.1-0.9,0.2c-0.9,0.2-1.8,0.3-2.7,0.4c-1.9,0.3-3.9,0.6-5.9,0.9
			c-4.7,0.6-9.4,1.2-14.1,1.3c-0.5-0.1-1,0.1-1.5,0.1c-1.2,0-2.4,0-3.5,0c-0.2,0-0.3,0-0.5,0c-1.4-0.1-2.7,0.1-4,0.4
			c2.1,1.1,4.7,1,7,1.8c6.7,1.4,13.2,3.1,19.6,5.3c2.2,0.7,4.4,1.4,6.6,2.1c1,0.6,2.3,0.4,3.3,1c3.7,1.2,7,2.8,10.5,4.4
			c1.1,0.5,2.1,1,3.1,1.5c3.6,1.7,7,3.6,10.3,5.6c0.7,0.6,1.6,1,2.4,1.5c3.8,2.3,7.3,4.8,10.7,7.4c2.6,2,5.1,4.1,7.3,6.3
			c0.4,0.4,0.9,0.8,1.3,1.2c0.3,0.3,0.3,0.7,0.6,1c1,1.1,1.8,2.3,3.2,3.3c1.1,1.5,2.3,2.9,3.7,4.2c0.2,0.6,0.7,1.1,1.3,1.6
			c0.4,0.7,0.7,1.3,1.4,1.9c1.7,1.6,3,3.3,3.4,5.3c0.2,0.5,0.2,1.1,0.9,1.4c-0.2,1.1,0.8,1.9,1.2,2.9c0.7,1.8,1.6,3.5,2.2,5.3
			c0.9,3,1.7,6,1.9,9.1c0.1,1.4,0.3,2.8,0.1,4.3c-0.5,2.5-0.8,4.9-1.6,7.4c-2.1,5.8-6.4,10.3-13.2,13.4c-0.3,0.1-0.6,0.2-0.7,0.5
			c-4.1,2.4-9,3-14,3.4c-0.5,0-1.1,0.1-1.6-0.1c-2.3,0-4.5-0.3-6.8,0.1c-0.4,0.2-0.8,0.1-1.2-0.1c-3.4-0.4-6.9-0.9-10.3-1.3
			c-5.9-0.8-11.4-2.4-17-4c-3.8-1.1-7.6-2.3-11.3-3.7c-4.4-1.7-8.7-3.4-12.9-5.2c-1.4-0.6-2.7-1.5-4.3-1.8c-0.1,0.1-0.2,0.2-0.2,0.3
			c1.3,1,2.7,2,4,2.9c5.6,4.1,11,8.3,15.9,12.9c0.1,0.1,0.2,0.1,0.4,0.2c0.1,0,0.2,0.1,0.2,0.2c1,1.1,1.9,2.2,3.2,3.1
			c1,0.3,1.1,0.9,1.4,1.5c1.1,1.5,2.3,2.9,3.3,4.4c1.5,2.1,2.4,4.3,3,6.6c0.2,0.9-0.4,1.7,0,2.6c0.5,0.8-0.2,1.4-0.8,2
			c-3.1,3.8-8.1,4.6-13.5,4.8c-0.6,0-1.2,0.1-1.7,0.2c-1.6,0.4-3.1-0.1-4.6-0.3c-0.4-0.3-0.8-0.3-1.2,0c-0.8,0.3-1.7,0.4-2.4-0.2
			l-3.8-0.5c-1.5-0.1-3.1,0.2-4.5-0.5c-2.1-0.6-4.4-0.7-6.6-1.2c-1.4-0.7-3-0.9-4.7-1.1c-5.6-1.4-11.1-3.1-16.5-4.9
			c-1.3-0.4-2.5-0.9-3.8-1.2c-4-1.6-8.2-2.8-12.1-4.5c-0.2,0-0.3-0.1-0.4-0.2c-1.1-0.6-2.2-1.1-3.5-1.4c-0.8-0.4-1.6-0.7-2.5-1
			c-2.5-0.9-4.8-2.2-7.4-3.1c-1.3-0.7-2.7-1.2-4-1.9c-2-0.9-3.9-1.8-5.8-2.8c-1.5-0.8-2.9-1.6-4.6-2.2c-1.5-1.1-3.3-2-5.1-2.9
			c-4.7-2.5-9.1-5.3-13.6-8c-7.6-4.7-14.5-10-21.1-15.5c-0.7-0.7-1.4-1.4-2.2-2c-1.7-1.5-3.1-3-4.8-4.5c-0.2-0.2-0.4-0.5-0.6-0.7
			c-1.1-1.2-2.3-2.4-3.3-3.6c-0.6-0.7-1.1-1.5-1.9-2.2c-0.4-0.4-0.7-0.7-0.8-1c0.4,0.9,0.3,2,0.6,3.1c0.3,1.9,0.5,3.9,0.1,5.8
			c-0.1,0.4,0.1,0.7,0.1,1.1c-0.4,5.4-1.8,10.7-4.8,15.8c-0.5,1-1.1,1.9-1.7,2.9c-1.7,2.6-3.7,5.2-6,7.6c-0.9,0.7-1.5,1.7-2.6,2.3
			c-1.5,0.9-2.7,2.1-3.9,3.2c-0.8,1.1-1.9,2-3.3,2.8c-0.2,0.2-0.5,0.3-0.8,0.3c-0.7,0.2-1.3,0.5-1.5,1c-0.1,0.1-0.2,0.2-0.4,0.2
			c-1.6,0.7-3.1,1.6-4.5,2.6c-0.4,0.8-1.5,1.1-2.4,1.6c-0.5,0.2-1,0.4-1.5,0.7c-0.9,0.5-2,0.7-2.7,1.3c-0.1,0.1-0.3,0.1-0.4,0.1
			c-0.7,0.2-1.4,0.5-2.1,0.9c-0.7,0.3-1.6,0.6-2.3,0.9c-0.8,0.2-1.6,0.5-2.4,0.8c-0.2,0-0.4,0-0.7,0.1c-0.4,0-0.8-0.1-1.1,0
			c-5.3,2.1-11,3.1-16.8,3.8c-3.2,0.4-6.4,0.9-9.7,0.4c-0.8-0.1-1.6,0.3-2.5,0.1c-1.4,0.4-2.8,0.1-4.1-0.1c-2.5-0.5-5.2-0.6-7.6-1.4
			c-1.1-0.4-2.1-0.8-3.2-1.1c-0.8-0.4-1.9-0.6-2.3-1.4c-3.8-2.1-7.1-4.5-9.4-7.7c-1.1-1.5-1.7-3.1-2.7-4.7c-1.3-1.1-0.9-2.5-1-3.7
			c0.2-0.7,0-1.3-0.3-2c-0.5-0.6-0.3-1.3-0.2-1.9l0,0c0.1-0.6-0.2-1.2-0.4-1.7c-0.3-1.2,0.5-2.2,0.8-3.3c0.5-0.9,0.2-1.8,0.5-2.7
			c0.9-3.3,1.9-6.7,3.2-9.9c-0.7-1,0.6-1.7,0.7-2.6c-0.8,0.3-1,1.3-2.3,1.3c-1.5,1-2.9,2.1-4.1,3.3l0,0c-1.3,0.5-2.3,1.2-3.1,2
			c-1.1,1.1-2.3,2.1-4.2,2.4c-5.5,3.1-11.5,5.8-17.6,8.1c-0.6,0.6-1.5,0.9-2.5,0.9c-2.9,0.8-5.8,1.6-8.6,2.5
			c-0.5,0.6-1.3,0.6-2.1,0.5c-1.9,0.4-3.7,0.8-5.6,1.2c-2.2,0.4-4.3,0.7-6.5,1.1c-0.9,0.7-2.1,0.6-3.1,0.8c-1.3,0.2-2.6,0.3-3.9,0.5
			c-0.8,0.1-1.6,0.1-2.4,0.2c-0.3,0-0.6-0.1-0.9-0.2c-1.2,0.1-2.5,0.2-3.7,0.3c-1.8,0.7-3.7,0.7-5.6,0.3c-1.5-0.4-3,0-4.4-0.1
			c-3.6-0.1-7.2,0.1-10.8-0.4c-0.2,0-0.4,0.1-0.6,0.1c-1.8,0.2-3.5-0.1-5.3-0.4c-0.4-0.1-0.9-0.2-1.3-0.1c-4.5-0.6-9.1-1.1-13.6-1.9
			c-4.8-0.9-9.6-1.6-14.1-3.1c-1.6-0.5-3.2-0.8-4.8-1.2c-0.3,0.1-0.5,0-0.6-0.1c-1.8-0.9-4-1.3-5.9-2.1c-2.7-1.1-5.5-2.1-8.3-3.1
			c-0.9,0-1.6-0.2-2-0.8c-0.1-0.6-0.9-0.6-1.4-0.9c-3-1.7-6-3.3-9.1-4.9c-1.3-1.1-2.7-2.1-4.3-3c-0.4-0.1-0.6-0.2-0.6-0.5
			c-1.1-1-2.2-1.9-3.2-2.9c-3.3-3.2-5.9-6.6-7.3-10.5c-1.5-4.3-1.5-8.5,0.5-12.7c0.4-0.7,0.7-1.5,1-2.2c2.1-2.9,4.4-5.7,7.5-8.1
			c0.6-0.5,1.4-0.8,1.6-1.4c0-0.1,0-0.1,0-0.2c0.4-0.5,1-0.9,1.6-1.3c0.6-0.5,1.4-0.8,1.9-1.2c1.1-0.8,2.4-1.5,3.6-2.2
			c1.2-0.5,2.2-1.3,3.4-1.8s2.1-1.2,3.3-1.6c2.2-0.9,4.3-1.9,6.5-2.8c1.5-0.4,2.8-1,4.2-1.6c3.7-1.2,7.4-2.6,11.1-3.5
			c-3.5,0.2-7,0.6-10.7,0.8c-1.1,0.2-2.3,0.1-3.4,0.3c-2.9,0-5.8,0.4-8.6,0.3c-0.5,0-1,0-1.5,0.1c-0.2,0-0.3,0-0.5,0
			c-0.7-0.1-1.4,0.1-2.1,0c-0.4,0-0.8,0.1-1.2,0.1c-0.4,0-0.7-0.1-1.1,0c-10.3,0-20.6-0.7-30.5-2.9c-4.4-1-8.8-2.1-12.8-3.8
			c-0.5-0.2-1-0.5-1.5-0.7c-0.3-0.1-0.7-0.3-1-0.4c-0.3-0.1-0.6-0.3-0.9-0.5c-0.5-0.2-1-0.4-1.5-0.7c-1.7-1-3.5-1.8-4.9-2.9
			c-0.2-0.1-0.3-0.3-0.3-0.4c-0.2-0.3-0.4-0.6-0.9-0.8c-0.3-0.2-0.5-0.4-0.8-0.7c-2.3-0.9-3.2-2.7-4.6-4.2c-0.8-0.9-1.3-1.9-2-2.8
			c-0.3-0.4-0.3-0.9-0.5-1.3c-0.6-1.2-1-2.5-1.3-3.7c-0.1-1-0.3-1.9-0.4-2.9c-0.6-1,0.7-1.8,0.5-2.8c0.3-2.3,1-4.6,1.9-6.9
			c0.4-2.7,1.9-5,3.9-7.3c2.8-3.1,5.7-6.1,9.2-8.8c0.4-0.3,0.7-0.6,1.1-0.9c0.7-0.4,1.2-0.8,1.8-1.2c2-1.5,4.3-2.7,6.4-4
			c0.6-0.4,1.3-0.7,2-1.1c2.4-1.3,5-2.4,7.5-3.6c0.7-0.2,1.3-0.5,1.9-0.8c3.2-1.4,6.6-2.4,9.9-3.6c3.8-1.1,7.6-2.3,11.6-3.1
			c2.3-0.4,4.4-1.1,6.8-1.4c1-0.1,2-0.3,2.9-0.5c1.8-0.3,3.5-0.5,5.3-0.8c0.4-0.1,0.8-0.1,1.2-0.2c2.1-0.2,4.2-0.5,6.3-0.6
			c2.5-0.3,5-0.4,7.5-0.6c1.5,0,3.1-0.1,4.6-0.1c1.9-0.2,3.8,0,5.7-0.1c6.1-0.1,12.1,0.3,18.2,0.7c2.3,0.2,4.7,0.2,7,0.7
			c2,0.2,4,0.5,5.8,0.7c-2.7-1.2-5.8-2-8.6-3.3c-4.3-1.5-8.4-3.3-12.4-5.2c-4.2-2-8.4-4-12.3-6.3c-0.7-0.5-1.5-0.8-2.2-1.2
			c-0.7-0.5-1.4-1-2.3-1.3c-3.3-1.9-6-4.2-9.2-6.1c-4.4-3.3-8.2-7-11.9-10.7c-0.9-0.9-1.4-1.9-2.3-2.7c-0.1-0.1-0.2-0.2-0.2-0.3
			c-1-1.4-1.9-2.7-2.8-4.2c-0.5-0.9-1-1.7-1.5-2.6c-0.3-0.4-0.5-0.8-0.7-1.2c-0.4-1.1-0.6-2.2-1.3-3.3c-0.5-2.2-0.9-4.5-0.9-6.7
			c0.1-0.5,0.1-1,0-1.5c0-0.3,0.1-0.7,0.2-1c0.2-0.9,0.5-1.7,0.6-2.6c0-0.1,0.1-0.3,0.1-0.4c0.1-0.5,0.1-1.1,0.5-1.5
			c0.6-0.5,0.9-1.2,1.1-1.8c2.2-3.2,5-6,9.1-8c1.9-1.1,4.1-1.7,6.2-2.5c0.4-0.1,0.7-0.3,1.1-0.3c2.3-0.4,4.6-1,7-1.3
			c0.3,0,0.6-0.1,1-0.1c1.5-0.2,3.1-0.1,4.6-0.2c2.9,0,5.9-0.3,8.7,0.4c2.2,0,4.3,0.7,6.5,0.8c3.3,0.1,6.3,1,9.3,1.7
			c1.1,0.2,2,0.9,3.2,0.9c0.3,0,0.5,0.1,0.8,0.2c1,0.4,2.2,0.6,3.3,0.9c5.6,1.9,11.3,3.9,16.6,6.2c2.6,1.3,5.5,2.3,8.1,3.7
			c1.5,0.9,3.2,1.7,4.9,2.5c1.9,1.1,4,2.1,5.9,3.2c0.9,0.7,2,1.3,3.1,1.9c0.8,0.5,1.6,1,2.4,1.5c1.2,0.7,2.4,1.4,3.3,2.1
			c-1.1-1.4-2.6-2.7-3.7-4.3c-0.1-0.1-0.2-0.3-0.3-0.4c-1.2-1.6-2.3-3.3-3.7-4.9c-0.9-1.7-1.9-3.5-2.9-5.2c-0.3-1.2-1.1-2.4-1.5-3.6
			c-0.7-1.9-1.2-3.9-1.7-5.8c-0.2-1.4-0.3-2.9-0.1-4.3c0.1-0.7,0-1.3-0.1-2c0-0.3,0-0.5,0.1-0.8c0-0.1,0.1-0.3,0.1-0.4
			c0.1-1,0.3-1.9,0.6-2.8c0.8-1.6,1.3-3.3,2.5-4.8c0.2-0.7,0.6-1.3,1.2-1.9c0.6-0.7,1.3-1.5,1.9-2.2c0.6-0.7,1.3-1.4,2.2-2
			c0.8-0.6,1.5-1.1,2.2-1.8c0.4-0.4,1-0.6,1.5-0.9c1.4-1,3-1.9,4.5-2.8c0.1-0.1,0.2-0.1,0.4-0.2c1.7-0.4,3-1.3,4.6-1.9
			c1.5-0.6,3-1.1,4.6-1.6c0.7-0.3,1.5-0.4,2.2-0.7c0.5-0.2,1.1-0.3,1.7-0.4c2.6-0.8,5.4-1.1,8-1.7c1.2-0.2,2.4-0.3,3.6-0.5
			c0.3-0.1,0.6-0.1,0.9-0.2c1.4-0.2,2.9-0.3,4.3-0.5c1.7-0.1,3.4-0.2,5.1-0.3c0.8,0,1.6,0,2.4,0.2c5.4,0,10.8,0,16.1,0.4
			c1.2-0.5,2.2-0.3,3.1,0.3c2.8,0.4,5.7,0.7,8.5,1.1c0.7-0.4,1.4-0.2,2.2-0.1c4.6,0.9,9.3,1.8,13.7,3.1c1.6,0.4,3.1,0.8,4.6,1.3
			c0.8,0.3,1.6,0.6,2.2,1.1c0.8,0.4,1.5,0.7,2.4,0.8c2.3,0.3,4.3,1.4,6.3,2.2c0.6,0.2,1,0.5,1.4,1l4.7,2.2c1.8,0.3,3,1.1,4,2.2
			c1.3,0.8,2.7,1.6,4,2.4c0.8-0.1,0.9,0.7,1.5,0.8c0.4,0.1,0.8,0.3,1.1,0.5c1.7,1.2,3.2,2.5,4.8,3.7c0.2,0.1,0.3,0.2,0.4,0.4
			c1,0.7,1.7,1.7,2.7,2.4c0.1,0.1,0.2,0.2,0.3,0.3c0.6,0.7,1.3,1.4,2,2.1c0.4,0.4,0.7,0.8,1.1,1.2c1.1,1.2,2,2.5,2.9,3.8
			c0.2,0.4,0.5,0.8,0.8,1.1c1.5,2,2.5,4.2,3.7,6.3c0.1,0.2,0.2,0.4,0.3,0.6c0.8,1.8,1.4,3.6,2.1,5.3c0.5,1.8,0.9,3.7,1.3,5.5
			c0.3,2.3,0.8,4.7,0.3,7c0.4-1.9,1.7-3.4,2.8-5.1c0.7-1,1.5-2,2.2-3c0.1-0.1,0.1-0.2,0.2-0.3c1.8-2.1,3.8-4.2,5.9-6.2
			c1.2-1.1,1.9-2.3,3.4-3.2c0.9-0.6,1.7-1.3,2.5-1.9c3.2-2.5,6.9-4.7,10.7-6.6c1-0.5,2-0.9,2.9-1.5c0.1-0.1,0.2-0.1,0.4-0.2
			c2.5-1,4.8-2.1,7.4-2.9c1.8-0.6,3.4-1.5,5.5-1.5c0.5,0,1-0.2,1.5-0.4c0.1-0.4,0.5-0.5,0.9-0.6c2.6-0.6,5.3-1.3,8-1.7
			c0.5-0.1,1.1-0.1,1.6,0c3.6-0.6,7.3-0.7,10.9-1.5c1-0.3,2-0.1,3.1-0.1c2.5,0,4.9,0,7.4-0.1c4.8-0.1,9.6,0.3,14.4,0.7
			c1.8,0.2,3.6,0.3,5.4,0.5c2.7,0.6,5.4,1.2,8.3,1.5c2.2,0.7,4.5,1.2,6.8,1.6c2,0.7,4.1,1.3,6.1,2c4.9,1.6,9.6,3.6,13.9,5.9
			c5.7,3.1,10.5,6.7,14.1,11.1c0.3,0.3,0.7,0.6,1,0.9c0.6,0.7,0.5,1.6,1.5,2.1C456.3,48.5,456.4,48.9,456.7,49.1z"/>
	</g>
</g>
<rect x="162" y="103.9" class="st1" width="249" height="102"/>
<text transform="matrix(1 0 0 1 162 112.4099)" class="st2 st3">Press Me</text>
</svg>
