<?xml version="1.0" encoding="utf-8"?>
<!-- Generator: Adobe Illustrator 26.4.0, SVG Export Plug-In . SVG Version: 6.00 Build 0)  -->
<svg version="1.1" id="Layer_1" xmlns="http://www.w3.org/2000/svg" xmlns:xlink="http://www.w3.org/1999/xlink" x="0px" y="0px"
	 viewBox="0 0 1585 1229" style="enable-background:new 0 0 1585 1229;" xml:space="preserve">
<style type="text/css">
	.st0{fill:#706E6F;}
	.st1{fill:#878786;}
	.st2{fill:#252524;}
	.st3{fill:#F2EFEF;}
	.st4{fill:#EBEBEB;}
	.st5{fill:#EFEDED;}
	.st6{fill:#FE4F02;}
	.st7{fill:#EA592E;}
	.st8{fill:#FAE8D8;}
	.st9{fill:#F8F8F6;}
	.st10{fill:#7DDFCB;}
	.st11{fill:#413B37;}
	.st12{fill:#4C4B48;}
	.st13{fill:#D3D2D1;stroke:#221F20;stroke-width:1.0006;stroke-linecap:round;stroke-linejoin:round;}
	.st14{fill:#EDE2DE;}
	.st15{clip-path:url(#SVGID_00000106109677645052427980000008512824603337427886_);}
	.st16{clip-path:url(#SVGID_00000062908038987558651620000005913207651931430303_);}
	.st17{fill:#4B9FAE;}
	.st18{fill:#265A63;}
	.st19{fill:#A5823D;}
	.st20{fill:#808080;}
	.st21{fill:#4D4E4E;}
	.st22{fill:#CCCBCB;}
	.st23{fill:#989898;}
	.st24{fill:#C8C7B1;}
	.st25{fill:#B2B3A0;}
	.st26{fill:#676767;}
	
		.st27{clip-path:url(#SVGID_00000106109677645052427980000008512824603337427886_);fill:#454948;stroke:#221F20;stroke-width:0.25;stroke-miterlimit:10;}
	.st28{fill:#CF5847;}
	.st29{fill:#FFFFFF;}
	.st30{fill:#222020;}
	.st31{opacity:0.5;fill:#312119;}
	.st32{opacity:0.23;fill:#EDE2DE;}
	.st33{fill:#1B1A2E;}
	.st34{fill:#22223A;}
	.st35{fill:#016F46;}
	.st36{fill:#1F4168;}
	.st37{opacity:0.4;}
	.st38{fill:#FFC89F;}
	.st39{clip-path:url(#SVGID_00000072276155136081298360000009703882243034300552_);fill:#2A7959;}
	.st40{fill:#A65B3C;}
	.st41{fill:#6D6D6D;stroke:#301D03;stroke-width:0.75;stroke-miterlimit:10;}
	.st42{fill:#C9AA99;}
	.st43{fill:#F4741E;}
	.st44{fill:#F0F2F5;}
	.st45{opacity:0.28;}
	.st46{fill:#095137;}
	.st47{fill:#FF9A6C;}
	.st48{opacity:0.61;fill:#095137;}
	.st49{fill:#A07F4E;}
	.st50{fill:#D6B887;}
	.st51{opacity:0.62;}
	.st52{fill:#7F6553;}
	.st53{fill:#CEDDDD;stroke:#1B1A2E;stroke-miterlimit:10;}
	.st54{fill:#2C2C4C;}
	.st55{fill:none;stroke:#221F20;stroke-width:1.0006;stroke-linecap:round;stroke-linejoin:round;}
	.st56{fill:#F4D4C0;stroke:#221F20;stroke-width:0.25;stroke-miterlimit:10;}
	.st57{fill:#78BBB5;stroke:#221F20;stroke-width:0.25;stroke-miterlimit:10;}
	.st58{fill:#59A9AB;stroke:#221F20;stroke-width:0.25;stroke-miterlimit:10;}
	.st59{fill:#FFFFFF;stroke:#221F20;stroke-width:0.25;stroke-miterlimit:10;}
	.st60{fill:none;stroke:#221F20;stroke-width:0.5;stroke-miterlimit:10;}
	.st61{fill:none;stroke:#221F20;stroke-miterlimit:10;}
	.st62{clip-path:url(#SVGID_00000148623384909356376920000013549636330129898409_);}
	.st63{clip-path:url(#SVGID_00000150806733157570805690000015408621643932778648_);}
	
		.st64{clip-path:url(#SVGID_00000148623384909356376920000013549636330129898409_);fill:#454948;stroke:#221F20;stroke-width:0.25;stroke-miterlimit:10;}
	.st65{clip-path:url(#SVGID_00000150090415977149596960000007876444945749187503_);fill:#2A7959;}
</style>
<g>
	<path class="st12" d="M819,272.5c0,25.7,0.8,52.5-21,52.5s-58-26.8-58-52.5s17.7-46.5,39.5-46.5S819,246.8,819,272.5z"/>
	
		<image style="overflow:visible;" width="447" height="39" xlink:href="785D5C32A475F2A0.png"  transform="matrix(1 0 0 1 839 632)">
	</image>
	<rect x="835.5" y="485.5" class="st13" width="437" height="101"/>
	<rect x="823.5" y="0.2" width="473.5" height="663.6"/>
	<rect x="830.9" y="7.5" class="st14" width="458.8" height="648.8"/>
	<g>
		<defs>
			<rect id="SVGID_00000062154290128648400730000013331545639439662470_" x="848.2" y="134.5" width="424.1" height="451.7"/>
		</defs>
		<use xlink:href="#SVGID_00000062154290128648400730000013331545639439662470_"  style="overflow:visible;fill:#B8D9F2;"/>
		<clipPath id="SVGID_00000059281992166620949290000005946447573512583841_">
			<use xlink:href="#SVGID_00000062154290128648400730000013331545639439662470_"  style="overflow:visible;"/>
		</clipPath>
		<g style="clip-path:url(#SVGID_00000059281992166620949290000005946447573512583841_);">
			<defs>
				<path id="SVGID_00000000212504585258711490000007752899872300655508_" d="M1535,606.8V50.9H683.1v555.9h273.8
					C986.6,562.4,1535,606.8,1535,606.8z"/>
			</defs>
			<clipPath id="SVGID_00000129891633216831661920000003979918584411337099_">
				<use xlink:href="#SVGID_00000000212504585258711490000007752899872300655508_"  style="overflow:visible;"/>
			</clipPath>
			<g style="clip-path:url(#SVGID_00000129891633216831661920000003979918584411337099_);">
				<g>
					<path class="st17" d="M778.5,450.1c-0.6,0.8-1.2,1.6-1.8,2.5c-9.4-6.1-18.8-12.1-28.3-17.9c0.6-0.8,1.2-1.7,1.8-2.5
						C759.7,438,769.1,444,778.5,450.1z"/>
					<path class="st17" d="M799.3,439.6c-0.6,0.8-1.2,1.6-1.8,2.4c-9.4-6.3-18.9-12.5-28.3-18.5c0.6-0.8,1.2-1.7,1.8-2.5
						C780.4,427.1,789.9,433.3,799.3,439.6z"/>
					<path class="st17" d="M818.1,428.2c-0.6,0.8-1.2,1.6-1.8,2.4c-8.1-5.6-16.2-11.1-24.3-16.5c0.6-0.8,1.2-1.6,1.8-2.4
						C801.9,417.1,810,422.6,818.1,428.2z"/>
					<path class="st17" d="M839.6,419.4c-0.6,0.8-1.2,1.6-1.8,2.4c-7.7-5.5-15.5-10.9-23.2-16.2c0.6-0.8,1.2-1.6,1.8-2.4
						C824.1,408.5,831.8,413.9,839.6,419.4z"/>
					<path class="st17" d="M857.2,409.8c-0.6,0.8-1.2,1.6-1.8,2.3c-6.4-4.7-12.9-9.3-19.3-13.9c0.6-0.8,1.2-1.6,1.8-2.4
						C844.3,400.4,850.8,405.1,857.2,409.8z"/>
					<path class="st17" d="M874.5,400.5c-0.6,0.8-1.2,1.5-1.8,2.3c-4.9-3.7-9.9-7.4-14.8-11c0.6-0.8,1.2-1.6,1.8-2.3
						C864.6,393.1,869.6,396.7,874.5,400.5z"/>
					<path class="st17" d="M891.2,393.8c-0.6,0.8-1.2,1.5-1.8,2.3c-4.7-3.6-9.4-7.2-14.1-10.7c0.6-0.8,1.2-1.5,1.8-2.3
						C881.7,386.6,886.5,390.2,891.2,393.8z"/>
					<path class="st17" d="M775.4,453c1-0.2,2-0.4,2.9-0.6c-1.6-11.3-3.3-22.5-4.9-33.8c-1,0.2-2,0.4-2.9,0.6
						C772.1,430.5,773.7,441.8,775.4,453z"/>
					<path class="st17" d="M797.7,442.1c0.9-0.1,1.7-0.3,2.6-0.4c-1.7-10.3-3.4-20.6-5.1-30.9c-0.9,0.1-1.7,0.3-2.6,0.5
						C794.3,421.5,796,431.8,797.7,442.1z"/>
					<path class="st17" d="M816.6,429.4c1-0.3,1.9-0.5,2.9-0.8c0.1-7.9,0.2-15.9,0.3-23.8c-1,0.3-1.9,0.5-2.9,0.8
						C816.8,413.5,816.7,421.4,816.6,429.4z"/>
					<path class="st17" d="M834.4,418.8c1.1-0.3,2.2-0.7,3.3-1c1-7.6,1.9-15.2,2.9-22.7c-1.1,0.3-2.2,0.7-3.3,1
						C836.3,403.6,835.4,411.2,834.4,418.8z"/>
					<path class="st17" d="M852.8,409.1c1.2-0.4,2.4-0.8,3.6-1.2c2-6.6,3.9-13.1,5.9-19.6c-1.2,0.4-2.4,0.8-3.6,1.2
						C856.8,396,854.8,402.6,852.8,409.1z"/>
					<path class="st17" d="M870.7,400.8c1.2-0.4,2.3-0.8,3.5-1.2c2.4-5.4,4.8-10.7,7.2-16.1c-1.2,0.4-2.3,0.8-3.5,1.2
						C875.5,390,873.1,395.4,870.7,400.8z"/>
					<path class="st17" d="M889.1,395.2c1.1-0.4,2.2-0.7,3.4-1.1c2.5-4.8,5-9.6,7.5-14.4c-1.1,0.4-2.2,0.7-3.4,1.1
						C894.1,385.5,891.6,390.4,889.1,395.2z"/>
					<path class="st18" d="M948.8,372.8c-66.8,13.8-134.2,34.7-201,62.7c-0.9-2.7-1.8-5.4-2.7-8c66.8-28.2,134.2-49.3,201-63.3
						C947,367.1,947.9,369.9,948.8,372.8z"/>
					<path class="st18" d="M948.5,372.6c-62.2,25-125,56.2-187.3,93.7c-1-1.8-2-3.5-2.9-5.3c62.3-37.6,125.1-69,187.3-94.3
						C946.6,368.6,947.6,370.6,948.5,372.6z"/>
				</g>
				<g>
					<g>
						
							<rect x="758.6" y="234" transform="matrix(0.7069 -0.7073 0.7073 0.7069 48.8532 610.1608)" class="st19" width="4.1" height="24.4"/>
						
							<rect x="748.4" y="244.1" transform="matrix(0.7073 -0.7069 0.7069 0.7073 48.6265 609.7173)" class="st19" width="24.4" height="4.1"/>
					</g>
					<g>
						
							<rect x="778.7" y="234" transform="matrix(0.707 -0.7072 0.7072 0.707 54.6628 624.2204)" class="st19" width="4.1" height="24.4"/>
						
							<rect x="768.5" y="244.1" transform="matrix(0.7072 -0.707 0.707 0.7072 54.5899 624.0803)" class="st19" width="24.4" height="4.1"/>
					</g>
					<g>
						
							<rect x="798.8" y="234" transform="matrix(0.7069 -0.7073 0.7073 0.7069 60.6351 638.5922)" class="st19" width="4.1" height="24.4"/>
						
							<rect x="788.6" y="244.1" transform="matrix(0.7073 -0.7069 0.7069 0.7073 60.3912 638.1319)" class="st19" width="24.4" height="4.1"/>
					</g>
					<g>
						
							<rect x="818.9" y="234" transform="matrix(0.7069 -0.7073 0.7073 0.7069 66.526 652.8076)" class="st19" width="4.1" height="24.4"/>
						
							<rect x="808.7" y="244.1" transform="matrix(0.7073 -0.7069 0.7069 0.7073 66.2733 652.3385)" class="st19" width="24.4" height="4.1"/>
					</g>
					<g>
						
							<rect x="839" y="234" transform="matrix(0.707 -0.7072 0.7072 0.707 72.327 666.8589)" class="st19" width="4.1" height="24.4"/>
						
							<rect x="828.8" y="244.1" transform="matrix(0.7072 -0.707 0.707 0.7072 72.2458 666.7106)" class="st19" width="24.4" height="4.1"/>
					</g>
					<g>
						
							<rect x="859.1" y="234" transform="matrix(0.7069 -0.7073 0.7073 0.7069 78.3076 681.2385)" class="st19" width="4.1" height="24.4"/>
						
							<rect x="848.9" y="244.1" transform="matrix(0.7073 -0.7069 0.7069 0.7073 78.038 680.7531)" class="st19" width="24.4" height="4.1"/>
					</g>
					<g>
						
							<rect x="879.2" y="234" transform="matrix(0.707 -0.7073 0.7073 0.707 84.1513 695.3703)" class="st19" width="4.1" height="24.4"/>
						
							<rect x="869" y="244.1" transform="matrix(0.7072 -0.707 0.707 0.7072 83.9676 695.0443)" class="st19" width="24.4" height="4.1"/>
					</g>
					<g>
						
							<rect x="899.3" y="234" transform="matrix(0.7067 -0.7075 0.7075 0.7067 90.1801 709.8282)" class="st19" width="4.1" height="24.4"/>
						
							<rect x="889.1" y="244.1" transform="matrix(0.7073 -0.7069 0.7069 0.7073 89.8025 709.1672)" class="st19" width="24.4" height="4.1"/>
					</g>
				</g>
				<g>
					<g>
						
							<rect x="919.4" y="234" transform="matrix(0.7068 -0.7074 0.7074 0.7068 96.0223 723.9575)" class="st19" width="4.1" height="24.4"/>
						
							<rect x="909.2" y="244.1" transform="matrix(0.7074 -0.7068 0.7068 0.7074 95.623 723.2672)" class="st19" width="24.4" height="4.1"/>
					</g>
					<g>
						
							<rect x="939.5" y="234" transform="matrix(0.707 -0.7072 0.7072 0.707 101.7566 737.9049)" class="st19" width="4.1" height="24.4"/>
						
							<rect x="929.3" y="244.1" transform="matrix(0.7071 -0.7071 0.7071 0.7071 101.7144 737.8329)" class="st19" width="24.4" height="4.1"/>
					</g>
					<g>
						
							<rect x="959.6" y="234" transform="matrix(0.7068 -0.7074 0.7074 0.7068 107.808 752.3936)" class="st19" width="4.1" height="24.4"/>
						
							<rect x="949.4" y="244.1" transform="matrix(0.7076 -0.7067 0.7067 0.7076 107.2755 751.4944)" class="st19" width="24.4" height="4.1"/>
					</g>
					<g>
						
							<rect x="979.7" y="234" transform="matrix(0.7073 -0.707 0.707 0.7073 113.3761 766.0696)" class="st19" width="4.1" height="24.4"/>
						
							<rect x="969.5" y="244.1" transform="matrix(0.7071 -0.7071 0.7071 0.7071 113.4875 766.2557)" class="st19" width="24.4" height="4.1"/>
					</g>
					<g>
						
							<rect x="999.8" y="234" transform="matrix(0.7068 -0.7074 0.7074 0.7068 119.5917 780.8262)" class="st19" width="4.1" height="24.4"/>
						
							<rect x="989.6" y="244.1" transform="matrix(0.7077 -0.7065 0.7065 0.7077 118.9285 779.7304)" class="st19" width="24.4" height="4.1"/>
					</g>
					<g>
						
							<rect x="1019.9" y="234" transform="matrix(0.7073 -0.707 0.707 0.7073 125.1429 794.4858)" class="st19" width="4.1" height="24.4"/>
						
							<rect x="1009.7" y="244.1" transform="matrix(0.7071 -0.7071 0.7071 0.7071 125.2604 794.6779)" class="st19" width="24.4" height="4.1"/>
					</g>
					<g>
						
							<rect x="1040" y="234" transform="matrix(0.7067 -0.7075 0.7075 0.7067 131.4973 809.4562)" class="st19" width="4.1" height="24.4"/>
						
							<rect x="1029.8" y="244.1" transform="matrix(0.7073 -0.707 0.707 0.7073 131.0265 808.6946)" class="st19" width="24.4" height="4.1"/>
					</g>
					<g>
						
							<rect x="1060.1" y="234" transform="matrix(0.707 -0.7073 0.7073 0.707 137.1573 823.2993)" class="st19" width="4.1" height="24.4"/>
						
							<rect x="1049.9" y="244.1" transform="matrix(0.7071 -0.7071 0.7071 0.7071 137.0336 823.101)" class="st19" width="24.4" height="4.1"/>
					</g>
					<g>
						
							<rect x="1080.2" y="234" transform="matrix(0.707 -0.7073 0.7073 0.707 143.0469 837.5137)" class="st19" width="4.1" height="24.4"/>
						
							<rect x="1070" y="244.1" transform="matrix(0.7074 -0.7068 0.7068 0.7074 142.6667 836.9095)" class="st19" width="24.4" height="4.1"/>
					</g>
					<g>
						
							<rect x="1100.2" y="234" transform="matrix(0.7073 -0.707 0.707 0.7073 148.6771 851.3196)" class="st19" width="4.1" height="24.4"/>
						
							<rect x="1090.1" y="244.1" transform="matrix(0.7073 -0.707 0.707 0.7073 148.677 851.3195)" class="st19" width="24.4" height="4.1"/>
					</g>
					<g>
						
							<rect x="1120.3" y="234" transform="matrix(0.7067 -0.7076 0.7076 0.7067 155.0921 866.3577)" class="st19" width="4.1" height="24.4"/>
						
							<rect x="1110.2" y="244.1" transform="matrix(0.7075 -0.7067 0.7067 0.7075 154.3081 865.1333)" class="st19" width="24.4" height="4.1"/>
					</g>
					<g>
						
							<rect x="1140.4" y="234" transform="matrix(0.707 -0.7073 0.7073 0.707 160.7157 880.157)" class="st19" width="4.1" height="24.4"/>
						
							<rect x="1130.3" y="244.1" transform="matrix(0.707 -0.7073 0.7073 0.707 160.7156 880.1569)" class="st19" width="24.4" height="4.1"/>
					</g>
					<g>
						
							<rect x="1160.5" y="234" transform="matrix(0.7067 -0.7076 0.7076 0.7067 166.8834 894.7984)" class="st19" width="4.1" height="24.4"/>
						
							<rect x="1150.4" y="244.1" transform="matrix(0.7074 -0.7068 0.7068 0.7074 166.2023 893.7518)" class="st19" width="24.4" height="4.1"/>
					</g>
					<g>
						
							<rect x="1180.6" y="234" transform="matrix(0.707 -0.7073 0.7073 0.707 172.4948 908.5856)" class="st19" width="4.1" height="24.4"/>
						
							<rect x="1170.5" y="244.1" transform="matrix(0.7071 -0.7071 0.7071 0.7071 172.3528 908.369)" class="st19" width="24.4" height="4.1"/>
					</g>
				</g>
				<rect x="744.1" y="253.8" class="st17" width="449.5" height="5.4"/>
				<rect x="733.5" y="232" class="st17" width="449.5" height="5.2"/>
				<g>
					<path class="st17" d="M1144.9,449.4c0.6,0.8,1.2,1.6,1.8,2.5c9.4-6.1,18.8-12.1,28.3-17.9c-0.6-0.8-1.2-1.7-1.8-2.5
						C1163.7,437.3,1154.3,443.3,1144.9,449.4z"/>
					<path class="st17" d="M1124.1,438.9c0.6,0.8,1.2,1.6,1.8,2.4c9.4-6.3,18.9-12.5,28.3-18.5c-0.6-0.8-1.2-1.7-1.8-2.5
						C1143,426.4,1133.5,432.6,1124.1,438.9z"/>
					<path class="st17" d="M1105.3,427.5c0.6,0.8,1.2,1.6,1.8,2.4c8.1-5.6,16.2-11.1,24.3-16.5c-0.6-0.8-1.2-1.6-1.8-2.4
						C1121.5,416.4,1113.4,421.9,1105.3,427.5z"/>
					<path class="st17" d="M1083.8,418.7c0.6,0.8,1.2,1.6,1.8,2.4c7.7-5.5,15.5-10.9,23.2-16.2c-0.6-0.8-1.2-1.6-1.8-2.4
						C1099.3,407.8,1091.6,413.2,1083.8,418.7z"/>
					<path class="st17" d="M1066.2,409.1c0.6,0.8,1.2,1.6,1.8,2.3c6.4-4.7,12.9-9.3,19.3-13.9c-0.6-0.8-1.2-1.6-1.8-2.4
						C1079.1,399.7,1072.6,404.4,1066.2,409.1z"/>
					<path class="st17" d="M1048.9,399.8c0.6,0.8,1.2,1.5,1.8,2.3c4.9-3.7,9.9-7.4,14.8-11c-0.6-0.8-1.2-1.5-1.8-2.3
						C1058.8,392.4,1053.8,396,1048.9,399.8z"/>
					<path class="st17" d="M1032.2,393.1c0.6,0.8,1.2,1.5,1.8,2.3c4.7-3.6,9.4-7.2,14.1-10.7c-0.6-0.8-1.2-1.5-1.8-2.3
						C1041.7,385.9,1037,389.5,1032.2,393.1z"/>
					<path class="st17" d="M1148,452.3c-1-0.2-2-0.4-2.9-0.6c1.6-11.3,3.3-22.5,4.9-33.8c1,0.2,2,0.4,2.9,0.6
						C1151.3,429.8,1149.7,441.1,1148,452.3z"/>
					<path class="st17" d="M1125.7,441.4c-0.9-0.1-1.7-0.3-2.6-0.4c1.7-10.3,3.4-20.6,5.1-30.9c0.9,0.2,1.7,0.3,2.6,0.5
						C1129.1,420.8,1127.4,431.1,1125.7,441.4z"/>
					<path class="st17" d="M1106.8,428.7c-1-0.3-1.9-0.5-2.9-0.8c-0.1-7.9-0.2-15.9-0.3-23.8c1,0.3,1.9,0.5,2.9,0.8
						C1106.6,412.8,1106.7,420.7,1106.8,428.7z"/>
					<path class="st17" d="M1089,418.1c-1.1-0.3-2.2-0.7-3.3-1c-1-7.6-1.9-15.2-2.9-22.7c1.1,0.3,2.2,0.7,3.3,1
						C1087.1,402.9,1088,410.5,1089,418.1z"/>
					<path class="st17" d="M1070.6,408.4c-1.2-0.4-2.4-0.8-3.6-1.2c-2-6.6-3.9-13.1-5.9-19.6c1.2,0.4,2.4,0.8,3.6,1.2
						C1066.6,395.3,1068.6,401.9,1070.6,408.4z"/>
					<path class="st17" d="M1052.7,400c-1.2-0.4-2.3-0.8-3.5-1.2c-2.4-5.4-4.8-10.7-7.2-16.1c1.2,0.4,2.3,0.8,3.5,1.2
						C1047.9,389.3,1050.3,394.7,1052.7,400z"/>
					<path class="st17" d="M1034.3,394.5c-1.1-0.4-2.2-0.7-3.4-1.1c-2.5-4.8-5-9.6-7.5-14.4c1.1,0.4,2.2,0.7,3.4,1.1
						C1029.3,384.8,1031.8,389.7,1034.3,394.5z"/>
					<path class="st18" d="M974.7,372.1c66.8,13.8,134.2,34.7,201,62.7c0.9-2.7,1.8-5.4,2.7-8c-66.8-28.2-134.2-49.3-201-63.3
						C976.5,366.4,975.6,369.2,974.7,372.1z"/>
					<path class="st18" d="M974.9,371.9c62.2,25,125,56.2,187.3,93.7c1-1.8,2-3.5,2.9-5.3c-62.3-37.6-125.1-69-187.3-94.3
						C976.8,367.9,975.9,369.9,974.9,371.9z"/>
				</g>
				<g>
					<rect x="941.7" y="230.6" class="st19" width="33" height="27.7"/>
					<rect x="938.5" y="224.8" class="st18" width="6.5" height="33.4"/>
					<rect x="971.5" y="224.8" class="st18" width="6.5" height="33.4"/>
					<rect x="956.1" y="213.1" class="st19" width="4.2" height="23.4"/>
					<rect x="953.5" y="219.7" class="st19" width="9.4" height="5.2"/>
					<path class="st18" d="M946.6,224.2c0,1.1-0.9,2-1.9,2h-5.8c-1.1,0-1.9-0.9-1.9-2v-3.9c0-1.1,0.9-2,1.9-2h5.8
						c1.1,0,1.9,0.9,1.9,2V224.2z"/>
					<path class="st18" d="M979.6,224.2c0,1.1-0.9,2-1.9,2h-5.8c-1.1,0-1.9-0.9-1.9-2v-3.9c0-1.1,0.9-2,1.9-2h5.8
						c1.1,0,1.9,0.9,1.9,2V224.2z"/>
					<path class="st18" d="M972.4,249.3c-0.4,0.3-0.9-6.2-8.7-8.3c-7.9-2.2-6.9-9.8-5.4-11c0.4-0.3,0.9,6.2,8.7,8.3
						C974.9,240.4,973.9,248.1,972.4,249.3z"/>
					<path class="st18" d="M944,249.3c0.4,0.3,0.9-6.2,8.7-8.3c7.9-2.2,6.9-9.8,5.4-11c-0.4-0.3-0.9,6.2-8.7,8.3
						C941.6,240.4,942.5,248.1,944,249.3z"/>
				</g>
				<g>
					<g>
						<rect x="1291.5" y="279.3" class="st17" width="2.1" height="151.5"/>
						<rect x="1315.8" y="302.8" class="st17" width="2.1" height="128.6"/>
						<rect x="1341.2" y="324.3" class="st17" width="2.1" height="106.5"/>
						<rect x="1366.9" y="341.9" class="st17" width="2.1" height="89.5"/>
						<rect x="1393.3" y="359.1" class="st17" width="2.1" height="72.6"/>
						<rect x="1419.7" y="373.4" class="st17" width="2.1" height="58"/>
						<rect x="1446.8" y="385.5" class="st17" width="2.1" height="45.9"/>
						<rect x="1472.8" y="395.5" class="st17" width="2.1" height="36"/>
						<rect x="1499.2" y="403.6" class="st17" width="2.1" height="28.4"/>
						<rect x="1569.8" y="410.3" class="st17" width="2.1" height="23"/>
					</g>
					<g>
						<polygon class="st17" points="1598.6,420.6 1597.8,422.2 1570.1,411.1 1570.9,409.6 						"/>
						<polygon class="st17" points="1570.5,421.6 1569.4,420.2 1600.2,402.8 1601.2,404.3 						"/>
						<polygon class="st17" points="1549.5,417.5 1549,416.1 1570.2,409.6 1570.7,411.1 						"/>
						<polygon class="st17" points="1570.9,419.2 1570.2,420.9 1547.7,413.6 1548.3,412 						"/>
					</g>
					<g>
						<polygon class="st17" points="1394.9,391.5 1393.2,392.2 1367.7,344.6 1369.4,343.9 						"/>
						<polygon class="st17" points="1369.2,379.8 1367.9,378.5 1393.4,358.7 1394.7,360 						"/>
						<polygon class="st17" points="1368.2,378.4 1366.4,379.1 1341.7,327.8 1343.5,327.2 						"/>
						<polygon class="st17" points="1341.6,362.5 1340.4,361.1 1367.8,344.1 1368.9,345.5 						"/>
						<polygon class="st17" points="1342.7,361.6 1340.9,362.2 1317.1,305.9 1318.9,305.3 						"/>
						<polygon class="st17" points="1316.4,339.3 1315.5,337.8 1343.2,324.2 1344.1,325.7 						"/>
						<polygon class="st17" points="1317.9,336.9 1316.1,337.5 1291.6,283 1293.4,282.4 						"/>
						<polygon class="st17" points="1292.2,305.8 1292.2,304.1 1317.7,304.4 1317.7,306.1 						"/>
						<polygon class="st17" points="1294.1,280.7 1294.2,282.4 1280.7,283.3 1280.5,281.6 						"/>
						<polygon class="st17" points="1421.7,403.7 1420,404.5 1392.7,360 1394.5,359.2 						"/>
						<polygon class="st17" points="1394.3,394.3 1393.1,393 1421.9,372.8 1423.1,374.2 						"/>
						<polygon class="st17" points="1448.8,410.5 1447.2,411.4 1420.7,375.4 1422.3,374.5 						"/>
						<polygon class="st17" points="1420.3,404.7 1419.1,403.3 1448.1,384.2 1449.3,385.6 						"/>
						<polygon class="st17" points="1474.9,414 1473.3,415.1 1448.5,386.9 1450,385.8 						"/>
						<polygon class="st17" points="1447,411.7 1446,410.3 1475.1,395.1 1476.1,396.6 						"/>
						<polygon class="st17" points="1499.9,415.1 1498.6,416.3 1473.3,396.5 1474.6,395.2 						"/>
						<polygon class="st17" points="1472.8,415.3 1472,413.7 1501.5,403.5 1502.2,405.1 						"/>
						<polygon class="st17" points="1519.3,415.5 1518.2,416.9 1499.7,406.1 1500.8,404.6 						"/>
						<polygon class="st17" points="1293.1,302.3 1291.2,302.8 1279.9,267.3 1281.7,266.8 						"/>
						<polygon class="st17" points="1526.1,409.2 1526.6,410.9 1499.5,417.3 1499,415.6 						"/>
					</g>
					<path class="st17" d="M1538.9,414.6c-107-22.1-201.4-76.7-266.9-154.5c0.6-0.8,1.2-1.6,1.8-2.4
						c65.5,77.8,159.8,132.4,266.9,154.5C1540.1,413,1539.5,413.8,1538.9,414.6z"/>
					<path class="st17" d="M1537.9,415c-121.3,16.2-235.6-50-266.9-154.5c0.6-0.8,1.2-1.6,1.8-2.4
						c31.2,104.4,145.6,170.6,266.9,154.5C1539,413.4,1538.5,414.2,1537.9,415z"/>
					<path class="st17" d="M1732.3,323.5c-46.5,54.8-114.4,87-191.9,91c-0.4-0.7-0.9-1.4-1.3-2.2c77.5-4.1,145.4-36.2,191.9-91
						C1731.4,322,1731.9,322.7,1732.3,323.5z"/>
					<path class="st17" d="M1732.2,324.1c-24.1,76.2-106.4,115.2-191.9,91c-0.4-0.7-0.8-1.3-1.2-2c85.5,24.2,167.7-14.8,191.9-91
						C1731.4,322.8,1731.8,323.5,1732.2,324.1z"/>
					<rect x="1271.8" y="424" class="st17" width="663.5" height="10.8"/>
					<g>
						<rect x="1534.2" y="418.7" class="st17" width="10.3" height="15.7"/>
						<path class="st17" d="M1549.3,413.9c0,4.7-4.3,8.5-9.6,8.5c-5.3,0-9.6-3.8-9.6-8.5c0-4.7,4.3-8.5,9.6-8.5
							C1545,405.5,1549.3,409.3,1549.3,413.9z"/>
						<path class="st17" d="M1544.5,413.9c0,2.3-2.1,4.2-4.8,4.2s-4.8-1.9-4.8-4.2c0-2.3,2.1-4.2,4.8-4.2S1544.5,411.6,1544.5,413.9
							z"/>
					</g>
				</g>
				<g>
					<g>
						<rect x="628.4" y="283.5" class="st17" width="2.1" height="146.6"/>
						<rect x="604.1" y="306.3" class="st17" width="2.1" height="124.4"/>
						<rect x="578.7" y="327" class="st17" width="2.1" height="103.1"/>
						<rect x="553" y="344.1" class="st17" width="2.1" height="86.6"/>
						<rect x="526.6" y="360.8" class="st17" width="2.1" height="70.2"/>
						<rect x="500.2" y="374.6" class="st17" width="2.1" height="56.1"/>
						<rect x="473.1" y="386.3" class="st17" width="2.1" height="44.4"/>
						<rect x="447.1" y="395.9" class="st17" width="2.1" height="34.8"/>
						<rect x="420.7" y="403.8" class="st17" width="2.1" height="27.5"/>
						<rect x="350.1" y="410.2" class="st17" width="2.1" height="22.2"/>
						<rect x="321.6" y="404.1" class="st17" width="2.1" height="27.5"/>
						<rect x="294.5" y="396.5" class="st17" width="2.1" height="33.6"/>
						<rect x="268.2" y="385.4" class="st17" width="2.1" height="45.3"/>
						<rect x="240.7" y="370.2" class="st17" width="2.1" height="61.1"/>
						<rect x="217.1" y="352.1" class="st17" width="2.1" height="79.2"/>
					</g>
					<g>
						<polygon class="st17" points="268.5,408.3 269.5,409.8 297.7,396.7 296.7,395.3 						"/>
						<polygon class="st17" points="295.4,417.7 297,416.7 268.5,383.7 267,384.7 						"/>
						<polygon class="st17" points="241.4,393.7 242.2,395.2 270.5,385.9 269.8,384.3 						"/>
						<polygon class="st17" points="268.6,409.1 270.3,408.2 242.5,369.3 240.8,370.2 						"/>
						<polygon class="st17" points="296.3,417 297.2,418.5 324.5,406.1 323.6,404.6 						"/>
						<polygon class="st17" points="322.9,421.1 324.3,419.9 295.8,396 294.4,397.2 						"/>
						<polygon class="st17" points="323.3,420.2 324.1,421.7 351.8,411.1 351,409.5 						"/>
						<polygon class="st17" points="351.5,421.2 352.5,419.8 321.8,403 320.7,404.4 						"/>
						<polygon class="st17" points="372.4,417.2 373,415.8 351.8,409.6 351.2,411 						"/>
						<polygon class="st17" points="241.6,394.8 243.4,394.1 218.8,351.3 217.1,352 						"/>
						<polygon class="st17" points="218,374.1 218.5,375.7 242.2,370.3 241.7,368.7 						"/>
						<polygon class="st17" points="198.4,345.8 197.8,347.4 218.6,353.3 219.3,351.7 						"/>
						<polygon class="st17" points="217.1,373.9 218.9,373.2 200,334.9 198.2,335.6 						"/>
						<polygon class="st17" points="351.1,418.9 351.8,420.5 374.3,413.5 373.6,411.9 						"/>
					</g>
					<g>
						<polygon class="st17" points="527,392 528.8,392.7 554.3,346.7 552.5,346 						"/>
						<polygon class="st17" points="552.7,380.8 554,379.5 528.6,360.3 527.3,361.6 						"/>
						<polygon class="st17" points="553.8,379.4 555.6,380 580.2,330.5 578.4,329.8 						"/>
						<polygon class="st17" points="580.4,364 581.5,362.7 554.2,346.2 553.1,347.6 						"/>
						<polygon class="st17" points="579.2,363.2 581.1,363.8 604.9,309.3 603,308.7 						"/>
						<polygon class="st17" points="605.5,341.6 606.5,340.1 578.8,327 577.8,328.4 						"/>
						<polygon class="st17" points="604.1,339.2 605.9,339.8 630.3,287.2 628.5,286.6 						"/>
						<polygon class="st17" points="629.8,309.2 629.8,307.5 604.2,307.8 604.3,309.5 						"/>
						<polygon class="st17" points="627.9,284.9 627.7,286.5 641.3,287.5 641.4,285.8 						"/>
						<polygon class="st17" points="500.2,403.9 502,404.7 529.2,361.6 527.5,360.8 						"/>
						<polygon class="st17" points="527.6,394.8 528.8,393.5 500,374 498.8,375.3 						"/>
						<polygon class="st17" points="473.2,410.4 474.8,411.3 501.3,376.5 499.7,375.6 						"/>
						<polygon class="st17" points="501.7,404.8 502.8,403.5 473.9,385 472.7,386.3 						"/>
						<polygon class="st17" points="447.1,413.8 448.6,414.9 473.5,387.6 471.9,386.6 						"/>
						<polygon class="st17" points="475,411.6 476,410.2 446.9,395.5 445.9,397 						"/>
						<polygon class="st17" points="422.1,414.9 423.4,416.1 448.7,396.9 447.4,395.6 						"/>
						<polygon class="st17" points="449.2,415.1 449.9,413.6 420.4,403.6 419.7,405.2 						"/>
						<polygon class="st17" points="402.7,415.2 403.7,416.6 422.2,406.2 421.2,404.8 						"/>
						<polygon class="st17" points="628.8,305.8 630.7,306.2 642.1,271.9 640.2,271.4 						"/>
						<polygon class="st17" points="395.8,409.2 395.3,410.8 422.5,417 423,415.4 						"/>
					</g>
					<polygon class="st20" points="-7.3,424 -2.7,428.8 123.2,340.9 118.6,336.2 					"/>
					<path class="st17" d="M383,414.4c107-21.3,201.4-74.2,266.9-149.4c-0.6-0.8-1.2-1.5-1.8-2.3
						c-65.5,75.2-159.8,128.1-266.9,149.4C381.8,412.8,382.4,413.6,383,414.4z"/>
					<path class="st17" d="M384.1,414.8c121.3,15.6,235.6-48.4,266.9-149.4c-0.6-0.8-1.2-1.5-1.8-2.3
						c-31.2,101-145.6,165.1-266.9,149.4C382.9,413.2,383.5,414,384.1,414.8z"/>
					<path class="st17" d="M189.6,326.3c46.5,53,114.4,84.1,191.9,88c0.4-0.7,0.9-1.4,1.3-2.1c-77.5-3.9-145.4-35.1-191.9-88
						C190.5,324.9,190.1,325.6,189.6,326.3z"/>
					<path class="st17" d="M189.7,326.9c24.1,73.7,106.4,111.4,191.9,88c0.4-0.6,0.8-1.3,1.2-1.9c-85.5,23.4-167.7-14.4-191.9-88
						C190.5,325.6,190.1,326.2,189.7,326.9z"/>
					<rect x="-13.3" y="423.5" class="st17" width="663.5" height="10.5"/>
					<g>
						<rect x="113" y="334.5" class="st21" width="86.8" height="77.4"/>
						<rect x="109.3" y="405.6" class="st20" width="94.2" height="108.4"/>
						<rect x="113" y="305.5" class="st22" width="86.8" height="26.1"/>
						<rect x="109.3" y="331.1" class="st21" width="94.2" height="6.7"/>
						<polygon class="st21" points="129.9,306.1 182.5,306.2 156.7,228.4 						"/>
						<g>
							<rect x="154.8" y="214" class="st22" width="3.3" height="18.3"/>
							<rect x="150.5" y="219" class="st22" width="11.7" height="2.6"/>
							<path class="st21" d="M152.6,233.7c0,0.7,0.8,1.4,1.7,1.4h4.2c0.9,0,1.7-0.6,1.7-1.4V233c0-0.7-0.8-1.4-1.7-1.4h-4.2
								c-0.9,0-1.7,0.6-1.7,1.4V233.7z"/>
						</g>
						<rect x="191.8" y="294" class="st22" width="8" height="16.4"/>
						<rect x="176.3" y="294" class="st22" width="8" height="16.4"/>
						<rect x="160.2" y="294" class="st22" width="8" height="16.4"/>
						<rect x="144.1" y="294" class="st22" width="8" height="16.4"/>
						<rect x="128.1" y="294" class="st22" width="8" height="16.4"/>
						<rect x="113" y="294" class="st22" width="8" height="16.4"/>
						<rect x="113" y="310.4" class="st23" width="86.8" height="3.6"/>
						<rect x="175.9" y="294.1" class="st23" width="4.5" height="111.4"/>
						<rect x="131.8" y="294.1" class="st23" width="4.4" height="111.4"/>
						<rect x="152.2" y="344" class="st23" width="8" height="14.5"/>
						<rect x="154.1" y="347.1" class="st21" width="4.2" height="8.7"/>
						<rect x="140.1" y="372.9" class="st23" width="8" height="14.5"/>
						<rect x="142" y="376.1" class="st21" width="4.2" height="8.7"/>
						<g>
							<rect x="155.3" y="315.8" class="st21" width="2.2" height="12.4"/>
							<rect x="152.5" y="319.2" class="st21" width="8" height="1.8"/>
						</g>
						<g>
							<rect x="169.6" y="315.8" class="st21" width="1.3" height="12.4"/>
							<rect x="167.9" y="319.2" class="st21" width="4.7" height="1.8"/>
						</g>
						<g>
							<rect x="141.4" y="315.8" class="st21" width="1.3" height="12.4"/>
							<rect x="139.7" y="319.2" class="st21" width="4.7" height="1.8"/>
						</g>
					</g>
					<g>
						<rect x="377.5" y="418.4" class="st17" width="10.3" height="15.2"/>
						<path class="st17" d="M372.7,413.8c0,4.5,4.3,8.2,9.6,8.2c5.3,0,9.6-3.7,9.6-8.2c0-4.5-4.3-8.2-9.6-8.2
							C377,405.6,372.7,409.2,372.7,413.8z"/>
						<path class="st17" d="M377.5,413.8c0,2.3,2.1,4.1,4.8,4.1c2.7,0,4.8-1.8,4.8-4.1c0-2.3-2.1-4.1-4.8-4.1
							C379.6,409.7,377.5,411.5,377.5,413.8z"/>
					</g>
					<rect x="-13.3" y="428.9" class="st20" width="128.6" height="85.2"/>
					<path class="st21" d="M12.7,471.4c0-13.8,15.1-25,33.8-25c18.6,0,33.8,11.2,33.8,25v42.2H12.7V471.4z"/>
				</g>
				<g>
					<polygon class="st18" points="731.7,222.2 668,222.2 700,111.2 					"/>
					<rect x="661.7" y="221.3" class="st23" width="70" height="242.2"/>
					<rect x="648.8" y="175.7" class="st24" width="24" height="313.9"/>
					<rect x="672.3" y="208.2" class="st23" width="54.9" height="13"/>
					<g>
						<polygon class="st17" points="751.4,175.7 727.4,175.7 739.4,141.9 						"/>
					</g>
					<rect x="727.4" y="175.7" class="st24" width="24" height="315.3"/>
					<path class="st25" d="M674.5,226v-5.2h51.3v5.2H674.5z M750.5,226h-23.1v-5.2h23.1V226z M672.8,220.8v5.2h-23.1v-5.2H672.8z"/>
					<g>
						<rect x="687.1" y="165.7" class="st23" width="27" height="43.2"/>
						<polygon class="st24" points="717.1,198.2 684.2,198.3 700.6,166.8 						"/>
						<polygon class="st24" points="717.1,187 684.2,187.1 700.6,155.7 						"/>
						<path class="st22" d="M709.7,184.1c0-8.1-4.1-14.7-9.1-14.7c-5,0-9.1,6.6-9.1,14.7v24.7h18.2V184.1z"/>
						<rect x="691.6" y="196.5" class="st22" width="18.2" height="1.8"/>
						<path class="st26" d="M704.5,182.9c0-3.5-1.7-6.3-3.8-6.3c-2.1,0-3.8,2.8-3.8,6.3v18.9h7.7V182.9z"/>
					</g>
					<g>
						<rect x="634.5" y="422.6" class="st25" width="130.6" height="80.9"/>
						<rect x="634.5" y="428.7" class="st25" width="130.6" height="2.5"/>
						<rect x="658.1" y="433.8" class="st25" width="3.6" height="5.3"/>
						<rect x="698" y="433.8" class="st25" width="3.6" height="5.3"/>
						<rect x="739.6" y="433.8" class="st25" width="3.6" height="5.3"/>
					</g>
					<rect x="693" y="257.7" class="st23" width="15.4" height="11.6"/>
					<g>
						<polygon class="st17" points="672.7,175.7 648.8,175.7 660.8,141.9 						"/>
					</g>
				</g>
				<rect x="649.1" y="263.5" class="st23" width="102.3" height="7.6"/>
				<rect x="649.1" y="314.3" class="st23" width="102.3" height="9.4"/>
				<g>
					<path class="st26" d="M695.6,289.5c0-3.5-1.7-6.3-3.8-6.3c-2.1,0-3.8,2.8-3.8,6.3v18.9h7.7V289.5z"/>
					<path class="st26" d="M712.2,289.5c0-3.5-1.7-6.3-3.8-6.3c-2.1,0-3.8,2.8-3.8,6.3v18.9h7.7V289.5z"/>
				</g>
				<g>
					<path class="st26" d="M695.7,392.6c0-3.5-1.7-6.3-3.8-6.3c-2.1,0-3.8,2.8-3.8,6.3v18.9h7.7V392.6z"/>
					<path class="st26" d="M712.2,392.6c0-3.5-1.7-6.3-3.8-6.3c-2.1,0-3.8,2.8-3.8,6.3v18.9h7.7V392.6z"/>
				</g>
				<g>
					<path class="st26" d="M695.7,238.4c0-3.5-1.7-6.3-3.8-6.3c-2.1,0-3.8,2.8-3.8,6.3v18.9h7.7V238.4z"/>
					<path class="st26" d="M712.2,238.4c0-3.5-1.7-6.3-3.8-6.3c-2.1,0-3.8,2.8-3.8,6.3v18.9h7.7V238.4z"/>
				</g>
				<g>
					<path class="st26" d="M695.7,338.4c0-3.5-1.7-6.3-3.8-6.3c-2.1,0-3.8,2.8-3.8,6.3v18.9h7.7V338.4z"/>
					<path class="st26" d="M712.2,338.4c0-3.5-1.7-6.3-3.8-6.3c-2.1,0-3.8,2.8-3.8,6.3v18.9h7.7V338.4z"/>
				</g>
				<rect x="649.5" y="366" class="st23" width="102.3" height="9.4"/>
				<g>
					<polygon class="st18" points="1259.3,222.2 1195.6,222.2 1227.6,111.2 					"/>
					<rect x="1189.3" y="221.3" class="st23" width="70" height="242.2"/>
					<rect x="1176.4" y="175.7" class="st24" width="24" height="313.9"/>
					<rect x="1200" y="208.2" class="st23" width="54.9" height="13"/>
					<g>
						<polygon class="st17" points="1279,175.7 1255.1,175.7 1267.1,141.9 						"/>
					</g>
					<rect x="1255.1" y="175.7" class="st24" width="24" height="315.3"/>
					<path class="st25" d="M1202.1,226v-5.2h51.3v5.2H1202.1z M1278.1,226h-23.1v-5.2h23.1V226z M1200.5,220.8v5.2h-23.1v-5.2
						H1200.5z"/>
					<g>
						<rect x="1214.8" y="165.7" class="st23" width="27" height="43.2"/>
						<polygon class="st24" points="1244.7,198.2 1211.9,198.3 1228.2,166.8 						"/>
						<polygon class="st24" points="1244.7,187 1211.9,187.1 1228.2,155.7 						"/>
						<path class="st22" d="M1237.4,184.1c0-8.1-4.1-14.7-9.1-14.7c-5,0-9.1,6.6-9.1,14.7v24.7h18.2V184.1z"/>
						<rect x="1219.2" y="196.5" class="st22" width="18.2" height="1.8"/>
						<path class="st26" d="M1232.1,182.9c0-3.5-1.7-6.3-3.8-6.3c-2.1,0-3.8,2.8-3.8,6.3v18.9h7.7V182.9z"/>
					</g>
					<g>
						<rect x="1162.1" y="422.6" class="st25" width="130.6" height="80.9"/>
						<rect x="1162.1" y="428.7" class="st25" width="130.6" height="2.5"/>
						<rect x="1185.7" y="433.8" class="st25" width="3.6" height="5.3"/>
						<rect x="1225.6" y="433.8" class="st25" width="3.6" height="5.3"/>
						<rect x="1267.2" y="433.8" class="st25" width="3.6" height="5.3"/>
					</g>
					<rect x="1220.6" y="257.7" class="st23" width="15.4" height="11.6"/>
					<g>
						<polygon class="st17" points="1200.4,175.7 1176.4,175.7 1188.5,141.9 						"/>
					</g>
				</g>
				<rect x="1176.7" y="263.5" class="st23" width="102.3" height="7.6"/>
				<rect x="1176.7" y="314.3" class="st23" width="102.3" height="9.4"/>
				<g>
					<path class="st26" d="M1223.3,289.5c0-3.5-1.7-6.3-3.8-6.3c-2.1,0-3.8,2.8-3.8,6.3v18.9h7.7V289.5z"/>
					<path class="st26" d="M1239.8,289.5c0-3.5-1.7-6.3-3.8-6.3c-2.1,0-3.8,2.8-3.8,6.3v18.9h7.7V289.5z"/>
				</g>
				<g>
					<path class="st26" d="M1223.3,392.6c0-3.5-1.7-6.3-3.8-6.3c-2.1,0-3.8,2.8-3.8,6.3v18.9h7.7V392.6z"/>
					<path class="st26" d="M1239.8,392.6c0-3.5-1.7-6.3-3.8-6.3c-2.1,0-3.8,2.8-3.8,6.3v18.9h7.7V392.6z"/>
				</g>
				<g>
					<path class="st26" d="M1223.3,238.4c0-3.5-1.7-6.3-3.8-6.3c-2.1,0-3.8,2.8-3.8,6.3v18.9h7.7V238.4z"/>
					<path class="st26" d="M1239.9,238.4c0-3.5-1.7-6.3-3.8-6.3c-2.1,0-3.8,2.8-3.8,6.3v18.9h7.7V238.4z"/>
				</g>
				<g>
					<path class="st26" d="M1223.3,338.4c0-3.5-1.7-6.3-3.8-6.3c-2.1,0-3.8,2.8-3.8,6.3v18.9h7.7V338.4z"/>
					<path class="st26" d="M1239.9,338.4c0-3.5-1.7-6.3-3.8-6.3c-2.1,0-3.8,2.8-3.8,6.3v18.9h7.7V338.4z"/>
				</g>
				<rect x="1177.2" y="366" class="st23" width="102.3" height="9.4"/>
			</g>
		</g>
		
			<rect x="927" y="496" style="clip-path:url(#SVGID_00000059281992166620949290000005946447573512583841_);fill:#454948;stroke:#221F20;stroke-width:0.25;stroke-miterlimit:10;" width="373" height="112"/>
	</g>
	<g>
		<g>
			<path class="st28" d="M1219.8,510V408.2c0-21.7-21.1-39.2-47-39.2H991.6c-26,0-47,17.6-47,39.2V510H1219.8z"/>
			<rect x="1171.3" y="403.8" class="st29" width="25.3" height="30.4"/>
			<rect x="1126.8" y="403.8" class="st29" width="40.3" height="30.4"/>
			<rect x="993.2" y="403.8" class="st29" width="40.3" height="30.4"/>
			<rect x="1082.1" y="403.8" class="st29" width="40.3" height="30.4"/>
			<rect x="1037.6" y="403.8" class="st29" width="40.3" height="30.4"/>
			<rect x="949" y="403.8" class="st29" width="40.3" height="30.4"/>
			<rect x="1126.8" y="455.3" class="st29" width="40.3" height="30.3"/>
			<rect x="1082.3" y="455.3" class="st29" width="40.3" height="30.3"/>
			<rect x="948.7" y="455.3" class="st29" width="40.3" height="30.3"/>
			<rect x="1037.6" y="455.3" class="st29" width="40.3" height="30.3"/>
			<rect x="993.1" y="455.3" class="st29" width="40.3" height="30.3"/>
			<path class="st29" d="M995.4,510.9c0,9.1,7.4,16.4,16.4,16.4c9.1,0,16.4-7.4,16.4-16.4c0-9.1-7.4-16.4-16.4-16.4
				C1002.7,494.5,995.4,501.8,995.4,510.9"/>
			<path class="st30" d="M993,509.7h5.2c0,6.8,5.5,12.3,12.3,12.3c6.8,0,12.3-5.5,12.3-12.3c0-6.8-5.5-12.3-12.3-12.3
				c-6.8,0-12.3,5.5-12.3,12.3H993h-5.3c0-12.6,10.2-22.8,22.8-22.8c12.6,0,22.8,10.2,22.8,22.8c0,12.6-10.2,22.8-22.8,22.8
				c-12.6,0-22.8-10.2-22.8-22.8H993z"/>
			<rect x="1171.6" y="403.8" class="st29" width="26.5" height="30.4"/>
			<rect x="1201.6" y="455.3" class="st29" width="18.2" height="30.4"/>
			
				<rect x="1213.9" y="406.1" transform="matrix(-1 -4.470081e-11 4.470081e-11 -1 2432.6997 840.1799)" class="st31" width="4.9" height="28"/>
		</g>
		<path class="st29" d="M1150.7,509.7c0,9.1,7.4,16.4,16.4,16.4c9.1,0,16.4-7.4,16.4-16.4c0-9.1-7.4-16.4-16.4-16.4
			C1158.1,493.3,1150.7,500.6,1150.7,509.7"/>
		<path class="st30" d="M1149.9,509.7h5.2c0,6.8,5.5,12.3,12.3,12.3c6.8,0,12.3-5.5,12.3-12.3c0-6.8-5.5-12.3-12.3-12.3
			c-6.8,0-12.3,5.5-12.3,12.3H1149.9h-5.3c0-12.6,10.2-22.8,22.8-22.8c12.6,0,22.8,10.2,22.8,22.8c0,12.6-10.2,22.8-22.8,22.8
			c-12.6,0-22.8-10.2-22.8-22.8H1149.9z"/>
	</g>
	<path class="st32" d="M1198,531c0,281.7-359,101-359,101l5-572C844,60,1198,249.3,1198,531z"/>
	<g>
		<g>
			<g>
				<g>
					<g>
						<path class="st33" d="M578.7,989c-25.3-32-38.5-64.9-40.4-100.7c-1.6-31.1,5.5-60.1,11.8-85.8c7.6-31,14.2-57.7,5.2-81.4
							c-5.5-14.4-15.7-27.9-30.4-40c-12-9.9-27-18.8-44.5-26.6c-30.1-13.4-57.4-18.8-57.6-18.8l2.3-11.3c1.2,0.2,28.9,5.7,60.2,19.7
							c18.5,8.3,34.4,17.8,47.2,28.3c16.3,13.4,27.7,28.5,33.9,44.8c10.2,27,2.9,56.7-4.8,88.2c-12.6,51.2-26.8,109.3,26.5,176.7
							L578.7,989z"/>
					</g>
					<g>
						<path class="st33" d="M418.9,1060.4l-8.3-6.6c47.3-62.7,34.7-116.7,23.5-164.3c-6.9-29.2-13.3-56.9-4.3-82
							c5.5-15.2,15.6-29.2,30.1-41.7c11.4-9.8,25.5-18.6,41.9-26.3c27.8-13,52.4-18.1,53.5-18.3l2,10.5c-0.2,0-24.6,5.1-51.4,17.6
							c-15.5,7.3-28.8,15.6-39.4,24.7c-13,11.2-22.1,23.7-26.9,37.1c-8,22.1-2.1,46.9,4.6,75.7c2.9,12.2,5.8,24.8,7.9,38
							c2.4,15.1,3.2,28.8,2.6,41.8C453.2,1000,441.4,1030.7,418.9,1060.4z"/>
					</g>
					<g>
						<path class="st33" d="M656.4,671.3c0-26.4-57.7-169.2-50.4-294.3c5.4-91.1-57.2-140.9-62-135c-24.3,9.9,35.7,133.8-9.4,134.2
							c-53.6,0.4-33.5-135-57.8-144.8c-4.8-5.9-18.3,56.7-48.1,143c-14.4,41.6,2.3,191-26.2,297c-6.8,25.5,5.9,112-2.3,181.8
							c0,0,12.9,14.5,49.9,7.2s60.3-4.5,82.2,2c21.9,6.5,68.5-4.6,92.3-4.6c23.8,0,35.1,4.6,34.1-4.6
							C650.5,783.3,656.4,697.6,656.4,671.3z"/>
					</g>
					<g>
						<path class="st33" d="M551.1,180.4c-4.7-25.8-19.8-43.1-39.3-43.1s-34.6,17.2-39.3,43.1c-4.7,25.8,0.7,78.7,0.7,78.7l6.1-16.9
							c0-23.4-1.7-38.4,2.7-61.4c4.4-23,17.4-32.8,29.9-32.8c12.5,0,25.5,9.8,29.9,32.8c4.4,23,2.7,38,2.7,61.4l6.1,16.9
							C550.4,259.1,555.8,206.3,551.1,180.4z"/>
					</g>
					<g>
						<g>
							<path class="st34" d="M619.2,655.1c-1.4,0.2-2.7,0.4-4.1,0.6c-63.2,8.3-126.9,8.3-190,0c-1.4-0.2-2.7-0.4-4.1-0.6
								c0.6-6.8,1.2-13.6,1.8-20.4c0.7,0.1,1.4,0.2,2.1,0.3c63.3,8.5,127.1,8.5,190.4,0c0.7-0.1,1.4-0.2,2.1-0.3
								C618,641.5,618.6,648.3,619.2,655.1z"/>
						</g>
						<g>
							<path class="st34" d="M619.1,747.9c-1.4,1-2.4,2.8-4.1,2.9c-58,6.2-32,4.2-83,13.2c-1.4,0.3-14.4-2.3-54,0
								c-0.4,0,2-17.6,2-18c0.6-35.1-17.6-62.9-17-98c0-1.1-39.1-7.7-38.2-7c0,0,0,0,0,0c33.2,23.7,63.5,8.2,96.9,7
								c30.2-1,63.4,14.4,93.5-7c0,0,0,0,0,0c0.9-0.7,2.1,0.2,2.1,1.5C617.9,677.6,618.5,712.7,619.1,747.9z"/>
						</g>
					</g>
					<g>
						<defs>
							<path id="SVGID_00000006679796258264971310000012545283830958149253_" d="M656.4,671.3c0-26.4,16.1-251.5-20.4-297
								c-57.1-71.2-43.4-148.9-48.1-143c-24.3,9.9-36.2,196.3-57.9,196.3c-21.7,0-28.8-186.4-53.2-196.3c-4.8-5.9,9,71.8-48.1,143
								c-36.5,45.5-26.2,270.6-26.2,297c0,26.4,5.9,112-2.3,181.8c0,0,12.9,14.5,49.9,7.2s60.3-4.5,82.2,2
								c21.9,6.5,68.5-4.6,92.3-4.6c23.8,0,35.1,4.6,34.1-4.6C650.5,783.3,656.4,697.6,656.4,671.3z"/>
						</defs>
						<clipPath id="SVGID_00000167374428131535887460000006022335530378016912_">
							<use xlink:href="#SVGID_00000006679796258264971310000012545283830958149253_"  style="overflow:visible;"/>
						</clipPath>
						<g style="opacity:5.000000e-02;clip-path:url(#SVGID_00000167374428131535887460000006022335530378016912_);">
							
								<image style="overflow:visible;" width="234" height="433" xlink:href="785D5C32A475F2A1.png"  transform="matrix(1 0 0 1 385 -29)">
							</image>
						</g>
						<g style="opacity:5.000000e-02;clip-path:url(#SVGID_00000167374428131535887460000006022335530378016912_);">
							
								<image style="overflow:visible;" width="241" height="325" xlink:href="785D5C32A475F2A7.png"  transform="matrix(1 0 0 1 403 89)">
							</image>
						</g>
						<g style="opacity:7.000000e-02;clip-path:url(#SVGID_00000167374428131535887460000006022335530378016912_);">
							
								<image style="overflow:visible;" width="244" height="460" xlink:href="785D5C32A475F2A2.png"  transform="matrix(1 0 0 1 479 485)">
							</image>
						</g>
					</g>
				</g>
			</g>
			<circle class="st35" cx="533" cy="473.6" r="33.5"/>
		</g>
		<g>
			<path class="st36" d="M963,773.8c0,1.5-0.5,3-1.7,4.3c-6.5,6.9-15.6,10.8-25.1,10.8H717.2c-27.7,0-54.1-7.7-76.8-21.4
				c-27.2-16.5-49-41.6-61.1-72.5c-45.9-116.7-98.2-300.2,27.8-297.5c191.1,4,201.8,288.8,201,370h148.6
				C960.5,767.5,963,770.6,963,773.8z"/>
		</g>
		<g class="st37">
			<path class="st36" d="M609.2,397.1c0,0-44.4,274.3,81.6,219.5l-7.5,60c-5.9,47.3,31.9,89.3,79.6,87.1c0.8,0,1.7-0.1,2.5-0.1
				L609.2,397.1z"/>
		</g>
		<g>
			<path class="st33" d="M952.4,763.4l-77.3,0.2l-77.3,0.1l-38.6,0l-19.3,0c-6.4,0-12.9,0-19.3-0.6c-12.9-1.2-25.5-4.3-37.6-8.9
				c-6-2.3-11.9-5-17.6-8c-5.7-3-11.2-6.4-16.5-10.1c-21.2-14.8-38.3-35.3-49.2-58.8c-2.8-5.8-5-11.9-7.3-17.9
				c-2.3-6-4.6-12.1-6.8-18.1c-4.4-12.1-8.6-24.3-12.6-36.5c-7.9-24.5-14.8-49.4-20-74.6c-1.3-6.3-2.4-12.7-3.4-19
				c-1-6.4-1.9-12.8-2.5-19.2c-0.6-6.4-1.2-12.8-1.4-19.3c-0.2-6.4-0.2-12.9,0.1-19.3c-0.3,6.4-0.2,12.9,0.1,19.3
				c0.3,6.4,0.8,12.8,1.5,19.2c0.7,6.4,1.6,12.8,2.7,19.1c1.1,6.3,2.2,12.7,3.6,19c5.2,25.2,12.2,50,20.1,74.5
				c4,12.2,8.2,24.4,12.6,36.5c2.2,6,4.5,12.1,6.8,18.1c2.3,6,4.6,12,7.3,17.8c10.9,23.3,27.9,43.6,49,58.3
				c21,14.7,45.6,24.6,71.2,27c6.4,0.7,12.8,0.7,19.3,0.7l19.3,0l38.6,0l77.3,0.1L952.4,763.4z"/>
		</g>
		<g>
			<g>
				<g>
					
						<rect x="762.8" y="767.2" transform="matrix(0.9573 -0.2892 0.2892 0.9573 -251.2193 262.9683)" class="st33" width="3" height="428.9"/>
				</g>
				<g>
					
						<rect x="425.8" y="980.1" transform="matrix(0.2891 -0.9573 0.9573 0.2891 -484.538 1310.8396)" class="st33" width="428.9" height="3"/>
				</g>
			</g>
			<g>
				<rect x="584.3" y="1073.3" class="st33" width="235.9" height="3"/>
			</g>
			<g>
				
					<ellipse transform="matrix(0.231 -0.973 0.973 0.231 -574.907 1422.2225)" class="st33" cx="612.3" cy="1074.8" rx="12.7" ry="12.7"/>
			</g>
			<g>
				
					<ellipse transform="matrix(0.7071 -0.7071 0.7071 0.7071 -527.8284 875.3206)" class="st33" cx="792.7" cy="1074.8" rx="12.7" ry="12.7"/>
			</g>
		</g>
		<g>
			<g>
				<g>
					
						<rect x="902.4" y="767.2" transform="matrix(0.9573 -0.2892 0.2892 0.9573 -245.2561 303.3285)" class="st33" width="3" height="428.9"/>
				</g>
				<g>
					
						<rect x="565.4" y="980.1" transform="matrix(0.2891 -0.9573 0.9573 0.2891 -385.3147 1444.448)" class="st33" width="428.9" height="3"/>
				</g>
			</g>
			<g>
				<rect x="723.9" y="1073.3" class="st33" width="235.9" height="3"/>
			</g>
			<g>
				
					<ellipse transform="matrix(0.7071 -0.7071 0.7071 0.7071 -539.7962 846.4277)" class="st33" cx="751.8" cy="1074.8" rx="12.7" ry="12.7"/>
			</g>
			<g>
				
					<ellipse transform="matrix(0.231 -0.973 0.973 0.231 -328.8344 1733.5605)" class="st33" cx="932.3" cy="1074.8" rx="12.7" ry="12.7"/>
			</g>
		</g>
	</g>
	<g>
		<g>
			<path class="st38" d="M1089.5,1056.9l-3.6,35.8l11.3,27.9h-72.7c0,0-7-48.5,5.8-82.8L1089.5,1056.9z"/>
		</g>
		<g>
			<defs>
				<path id="SVGID_00000025432713699831622590000005620421673234229124_" d="M719.5,297.3c-6.6-5.3-13.5-11.5-20.5,1.4
					c0,0-54.6,10.2-54,23.5c-8.2-3.3-41,3.8-40.5,115.3c0.1,32.2,0.5,69.5,2.1,110.4c1.6,41,40.2,71,80.7,67.1
					c0.8-0.1,1.6-0.2,2.4-0.3c0,0,11.6,49.4,17.5,103.3c0.8,7.8,7.6,13.5,15.3,12.9c40.8-2.9,160.3-18.8,216.4-103.8
					c0,0-78.5-57.7-88-128.1l34,32.8c0,0,2.2,90.4,68.4,52.4c66.2-38-9.1-113.5-39-126.2c0,0-12.8-15.8-16.8-41
					c-5.9-37-9.7-79.7-24.8-87c-11.9-5.7-8.7-12.5-44.7-20.2c0,0-10-13.1-21.1,3.1C792.7,333.3,730.8,306.5,719.5,297.3z"/>
			</defs>
			<use xlink:href="#SVGID_00000025432713699831622590000005620421673234229124_"  style="overflow:visible;fill:#2A7959;"/>
			<clipPath id="SVGID_00000124150483709879999890000014128578572294961561_">
				<use xlink:href="#SVGID_00000025432713699831622590000005620421673234229124_"  style="overflow:visible;"/>
			</clipPath>
			<path style="clip-path:url(#SVGID_00000124150483709879999890000014128578572294961561_);fill:#2A7959;" d="M599,409.1
				c-0.4-1.7-1-3.3-1.1-5c-0.5-8,1.9-15.3,5.8-22.2c0.7-1.2,1.4,17.6,2.2,16.5c0.7-1.1,1.5-2.2-1.1-3.1c3.1-1.4,5.7-2.6,8.2-3.7
				c0-0.2-0.1-0.4-0.1-0.6c-1.6,0.2-3.5-0.1-4.8,0.6c-9.5,6-19.4-8.5-26.7,0.4c-1.3,1.6-2.5,3.2-3.8,4.8c-0.2-0.1-0.5-0.1-0.7-0.2
				c0.1-1,0-2.1,0.3-3c2.2-5.9,6.2,9.5,10.9,5.6c5.5-4.5,11.6-7.9,18.2-10.4c0.5-0.2,1-0.4,1.6-0.7c-0.6-3.7-5.3-6.6-2.1-11
				c1.5,1.3,2.8,2.3,4.4,3.6c0.2-1.8,0.2-3.1,0.4-4.4c0.4-2.7,1.1-5.4,3.6-7c0.6-0.4,1.4-0.3,2.1-0.5c0,0.7,0,1.4-0.2,2.1
				c-0.2,1.2-0.6,2.5-0.7,3.9c6.6-5,13.5-7.9,21.6-5.5c0,0.2,0.1,0.4,0.1,0.6c-2.7,0.5-5.6,0.6-8.1,1.6c-2.5,1-4.8,2.7-7,4.5
				c7.8-2,15.1-1.2,22,2.9c-7.8-2.4-15.1-1.6-22.2,3.5c4.3-0.3,8.2-0.7,12-0.8c4,0,7.5,1.5,10.4,4.3c2.8,2.6,6,4.8,7.4,8.6
				c-0.2,0.2-0.4,0.4-0.5,0.6c-0.6-0.4-1.3-0.8-1.9-1.2c-7.7-6.4-16.3-8.8-26-5.9c-0.5,0.2-1,0.4-1.6,1c12-0.8,22.3-17.5,30.2-8.3
				c-4.2-0.6-6.8,15.5-11.3,14.3c2.1,2.6,4-15,5.9-12.7c-0.2,0.3-0.4,0.6-0.6,0.8c-0.8-0.4-1.8-0.6-2.4-1.1
				c-1.4-1.2-2.7,17.4-4.1,16.2c-2.8-2.2-5.9-2.9-10.1-2.3c4.8,4,9.3-12.4,10.4-6.5c-0.2,0.1-0.4,0.3-0.6,0.4
				c-3.2-3.3-6.4,13.3-9.8,10.1c-3.4-3.2-7.3-5.7-12.9-5.6c7.5,7,12.8-5.5,13.2,4.6c-3.3-7.1-6-14.6-14.3-18.5
				c0.2,8.9,4.9,15.8,7.3,23.5c-6.3-6-10-13.4-11.7-22c-4,8-3.8,16.3-2,24.7c-3.5-4.2-4.5-9.2-5.2-14.5c-3,5.2-3.7,11-4.1,16.9
				C599.5,409,599.3,409.1,599,409.1z"/>
		</g>
		<g class="st37">
			<path class="st40" d="M724.5,720.7c0,0-12.8-0.1-10,4.8c2.9,4.9,13.7,4.2,13.7,4.2L724.5,720.7z"/>
		</g>
		<g>
			<g>
				<g>
					<g>
						<path class="st41" d="M789.1,634.3h202c2.4,0,4.5-0.7,5.3-1.7l1.6-2.2l41.4-57.1c1.2-1.6-1.5-3.3-5.3-3.3h-202
							c-2.4,0-4.5,0.7-5.3,1.7l-43,59.3C782.7,632.6,785.4,634.3,789.1,634.3z"/>
					</g>
				</g>
			</g>
			<g>
				<g>
					<path class="st41" d="M786.6,632.1c0,0-0.1,0-0.1,0c-0.2,0-0.3-0.1-0.3-0.2l43-59.3c0.8-1.1,3.1-1.8,5.6-1.8h200
						c0.2,0,0.4,0.1,0.4,0.2s-0.2,0.2-0.4,0.2h-200c-2.2,0-4.2,0.6-4.9,1.6l-43,59.3C786.9,632,786.7,632.1,786.6,632.1z"/>
				</g>
			</g>
		</g>
		<g>
			<path class="st42" d="M713.5,304.9c-1,0.4-1.5,1.6-0.9,2.6c3.5,6,15.2,19.8,41,37c9.9,6.6,48.3,8.6,51.6,4.4l0,0
				c2.7-3.4,4.5-7.3,5.5-11.6l5.8-25.8l-10.8-0.9c-0.2-0.1-0.4-0.2-0.6-0.2l-74.6-11.7c-0.3-0.1-0.6,0-0.9,0.1L713.5,304.9z"/>
		</g>
		<g>
			<g>
				<g>
					<path class="st43" d="M1371.9,690.9c13.3,9.4,19.3,19.8,22,27.9c0,0,0,0,0,0c2.7,8,2,13.8,2,13.8s-1.4,6.2-7.4,12.4
						c-4.8,4.9-12.5,9.7-24.9,11.2c-32.3,4-47.3-11.9-81.1-16.9c-3.9-0.6-8.5-1.1-13.5-1.9c-16.1,3.6-13.6-1.4-12.7-2.7
						c-15.5-4.1-31.5-12.2-38.7-30.7c-1.4-3.6-1.7-7.6-0.8-11.4l0.3-1.1c1-4.4,3.5-8.4,7.1-11.1c14.4-10.9,30-12.4,44-10.6
						c0,0-1.2-4,2.9-3.1c1.9,0.4,5,2,10,5.7c2.3,0.6,4.5,1.3,6.6,1.9C1320.3,684.5,1343.4,670.9,1371.9,690.9z"/>
				</g>
			</g>
			<g>
				<g>
					<path class="st38" d="M1269.6,675.8L1269.6,675.8L1269.6,675.8c1.1,3.5,2.7,6.9,4.9,9.9l7.2,10.4c1,1.5,1.7,3.1,2.1,4.9
						c0.3,1.7,0.3,3.5-0.1,5.3c-0.9,4.1-3.9,7.6-7.8,9.1l-4.5,1.7c-5.3,2.1-9.7,5.9-12.3,10.8c0,0-24.4-5.1-35.3-23.2
						c-4.4-7.3-2-16.9,5.2-21.5C1237.1,678.2,1250.4,673.1,1269.6,675.8z"/>
				</g>
			</g>
			<g>
				<g>
					<path class="st44" d="M1362.9,722.7c-1,4.3-2.9,9.1-6.1,14.2c-1.8,2.9-5.2,4.4-8.6,3.8c-7.2-1.2-31.5-5-43.3-5.3
						c-13.9-0.3-32.2,5.7-32.4,5.7c-1.9,0.6-3.9-0.4-4.5-2.3c-0.6-1.9,0.4-3.9,2.3-4.5c0.8-0.3,19.7-6.4,34.7-6.1
						c11.9,0.3,35,3.9,44.3,5.4c0.5,0.1,1.1-0.2,1.4-0.6c9-14.1,5.4-24.5,3.5-28.3c-0.2-0.4-0.5-0.6-1-0.7
						c-8-1.5-34.9-6.5-45.7-10.7c-13-5-26.5-17.3-27-17.9c-1.5-1.3-1.6-3.6-0.2-5.1c1.3-1.5,3.6-1.6,5-0.2
						c0.1,0.1,13.1,12,24.8,16.4c10.3,3.9,36.6,8.9,44.5,10.3c2.6,0.5,4.8,2.1,6,4.5C1362.4,704.8,1365.2,712.4,1362.9,722.7z"/>
				</g>
			</g>
			<g>
				<g>
					<path class="st40" d="M1290.6,721.9c0.7-2.3,1.4-4.5,2-6.8c0.6-2.3,1.1-4.6,1.5-6.9c0.5-2.3,0.8-4.6,1-7
						c0.3-2.3,0.3-4.7,0.4-7.1c0.5,2.3,0.8,4.7,0.7,7.2l0,0.9l-0.1,0.9c0,0.6-0.1,1.2-0.1,1.8c-0.1,1.2-0.3,2.4-0.5,3.6
						c-0.5,2.4-1.1,4.7-1.9,7C1292.8,717.7,1291.9,719.9,1290.6,721.9z"/>
				</g>
			</g>
			<g>
				<g>
					<path class="st36" d="M1309.1,717.7c-1.1,4.9-2.5,8.1-2.6,8.4c-0.4,0.9-1.4,1.3-2.3,0.9c-0.9-0.4-1.3-1.4-0.9-2.4
						c0.1-0.1,5.5-13.2,3.2-27c-0.2-1,0.5-1.9,1.5-2.1c1-0.2,1.9,0.5,2.1,1.5C1311.2,704.9,1310.3,712.3,1309.1,717.7z"/>
				</g>
			</g>
			<g>
				<g>
					<path class="st36" d="M1320.8,719.7c-1.1,4.9-2.5,8.1-2.6,8.4c-0.4,0.9-1.4,1.3-2.3,0.9c-0.9-0.4-1.3-1.4-0.9-2.4
						c0.1-0.1,5.5-13.2,3.2-27c-0.2-1,0.5-1.9,1.5-2.1c1-0.2,1.9,0.5,2.1,1.5C1322.9,706.9,1322,714.3,1320.8,719.7z"/>
				</g>
			</g>
			<g>
				<g>
					<path class="st36" d="M1332.5,721.7c-1.1,4.9-2.5,8.1-2.6,8.4c-0.4,0.9-1.4,1.3-2.3,0.9c-0.9-0.4-1.3-1.5-0.9-2.4
						c0.1-0.1,5.5-13.2,3.2-27c-0.2-1,0.5-1.9,1.5-2.1c1-0.2,1.9,0.5,2.1,1.5C1334.6,708.8,1333.7,716.3,1332.5,721.7z"/>
				</g>
			</g>
			<g>
				<g>
					<path class="st44" d="M1391.6,731.6c-0.1,0.4-5,21-33.2,24.5c-8.2,1-16.1,0.8-23.9-0.6l-0.1,0c-0.6-0.1-0.9-0.7-0.8-1.3
						c0.1-0.6,0.7-0.9,1.3-0.8l0,0c7.7,1.4,15.1,1.6,23.2,0.6c26.2-3.2,31-21.3,31.4-22.7c0.1-1.3,1.4-23.1-23.7-40.7
						c-5.9-4.1-11.8-7-18.2-8.9c-0.6-0.2-0.9-0.7-0.8-1.3c0.1-0.6,0.7-0.9,1.3-0.8l0.1,0c6.6,1.9,12.8,5,18.9,9.2
						c26.8,18.9,24.7,41.8,24.6,42.8L1391.6,731.6C1391.6,731.6,1391.6,731.6,1391.6,731.6z"/>
				</g>
			</g>
			<g>
				<g>
					<path class="st44" d="M1393.9,718.8C1393.9,718.8,1393.9,718.8,1393.9,718.8c2.7,8.1,2,13.8,2,13.8s-1.4,6.2-7.4,12.4l-1.1-8.1
						c-0.6-4.2,0.3-8.4,2.6-12L1393.9,718.8z"/>
				</g>
			</g>
		</g>
		<g>
			<path class="st33" d="M724.5,720.7c0,0,20.9,81.7,168.5,47.6l146.9,15.8c-19.1,34.4,0,118.3-22.3,258.3c0,0-2.9,7.2-8.6,20
				c0,0,30.4,39.8,87.4,12.8c0,0-3.7-16.7,25.2-117.7c28.8-101,54.3-163.7,44.7-218.3l58.4,2.2l18.9,2.1c0,0,20.4-29.7,4.5-78.8
				l-15.6-1.1c0,0-52.1-6.1-157.9-56.1c-103.9-49.1-151.9-15.2-151.9-15.2L805,634C805,634,793.7,711.5,724.5,720.7z"/>
		</g>
		<g>
			<path class="st36" d="M966.7,769.8c0,1.5-0.5,3-1.7,4.3c-6.5,6.9-15.5,10.8-24.9,10.8h-217c-27.4,0-53.6-7.7-76.1-21.4h313.4
				C964.2,763.5,966.7,766.6,966.7,769.8z"/>
		</g>
		<g>
			<g>
				<g>
					<path class="st43" d="M1014.7,1175.4c-0.5,4.2,2.8,7.8,6.9,7.9c11.6,0.2,39.4,1.3,94.3,5.3c47.9,3.5,64.9-2.1,71-6.4
						c2.3-1.7,3.1-4.8,1.9-7.4c0,0,1.7-3.9,1.7-8.5c0-4.1-1.3-8.8-6.4-11.9c-4.7-2.9-14.6-7.5-25.5-13.2c-2.9-1.5-5.9-3.1-8.8-4.8
						c-9.2-5.2-18.3-11.1-25-17.3c-16.1-15.1-15.9-17.5-24.2-17.3c0,0-5.9-6-9.7-13.4c-1.4-2.8-4.6-4.3-7.7-3.7
						c-6.8,1.4-17.9,4.4-24.8,10.7c-1.4,1.3-2.2,3.1-2.3,5.1l-0.4,12.5l-10.6,4.1c0,0-16-20.2-21.8-17.9c-5.7,2.4-2.3,14.2-2.3,14.2
						s-2.6,6.4-4.2,15.7c-1.7,10.1-2.2,23.5,3.2,35.8C1020.1,1164.8,1015.6,1167.5,1014.7,1175.4z"/>
				</g>
			</g>
			<g>
				<g>
					<path class="st44" d="M1014.7,1175.4c-0.5,4.2,2.8,7.8,6.9,7.9c11.6,0.2,39.4,1.3,94.3,5.3c47.9,3.5,64.9-2.1,71-6.4
						c2.3-1.7,3.1-4.8,1.9-7.4c-35.2,6.9-77.6-8-114.6-6.7c-40.2,1.4-54.1-3.3-54.1-3.3S1015.6,1167.5,1014.7,1175.4z"/>
				</g>
			</g>
			<g>
				<g>
					<path class="st44" d="M1063.7,1169.9c-0.7,0-1.3-0.4-1.5-1.1c-3.7-14.2-10-26.4-18.5-36.2c-11.4-13.3-23-17.7-23.2-17.8
						c-0.8-0.3-1.2-1.2-0.9-1.9c0.3-0.8,1.1-1.2,1.9-0.9c0.5,0.2,12.5,4.7,24.4,18.6c8.8,10.2,15.2,22.8,19.1,37.4
						c0.2,0.8-0.3,1.6-1.1,1.9C1063.9,1169.9,1063.8,1169.9,1063.7,1169.9z"/>
				</g>
			</g>
			<g>
				<g>
					<path class="st44" d="M1021.1,1113.3c0,0,12,4.4,23.8,18.2h0c0,0,7.2-5.5,18.4-10.4c10.9-4.8,23.4-4.5,34,1
						c6.4,3.3,14.5,7.9,23.6,13.8c20.7,13.5,33.1,13.3,37.7,5.2l0,0c0.8-1.4,0.3-3.1-1.1-3.8l-3.1-1.6c-0.8-0.4-1.7-0.4-2.4,0
						c-0.5,0.2-1.2,0.5-2.1,0.7c-4.5,1.1-13.5,1-26.5-10.2c-8-7-14.8-12-20.4-15.7c-11.8-7.7-26.8-8.5-39.3-2.1
						c-2.5,1.3-5.1,2.8-7.9,4.5l-10.6,4.1c0,0-16-20.2-21.8-17.9C1017.7,1101.5,1021.1,1113.3,1021.1,1113.3z"/>
				</g>
			</g>
			<g>
				<g>
					<path class="st44" d="M1083.7,1169.9c-0.3,0-0.5-0.1-0.8-0.2c-0.7-0.4-0.9-1.4-0.5-2.1c0.2-0.3,18-28.7,58-17.9
						c37.5,10.1,45.9,6,46,5.9c0.7-0.4,1.6-0.2,2,0.5c0.4,0.7,0.2,1.7-0.5,2.1c-0.8,0.5-9.4,4.9-48.3-5.6
						c-37.8-10.2-54,15.5-54.7,16.6C1084.7,1169.6,1084.2,1169.9,1083.7,1169.9z"/>
				</g>
			</g>
			<g>
				<g>
					<path class="st36" d="M1136.7,1133.9c-0.9,0-1.8-0.5-2.3-1.5c-0.6-1.3,0-2.8,1.2-3.4c1-0.5,1.2-1.8,1.2-1.8
						c0.2-1.4,1.4-2.4,2.8-2.2c1.4,0.2,2.4,1.4,2.2,2.8c0,0.4-0.6,4.1-4.1,5.8C1137.4,1133.9,1137,1133.9,1136.7,1133.9z"/>
				</g>
			</g>
			<g>
				<g>
					<path class="st36" d="M1130.8,1129.5c-0.9,0-1.8-0.5-2.3-1.5c-0.6-1.3,0-2.8,1.2-3.4c1-0.5,1.2-1.8,1.2-1.8
						c0.2-1.4,1.4-2.3,2.8-2.2c1.4,0.2,2.3,1.4,2.2,2.8c0,0.4-0.6,4.1-4.1,5.8C1131.5,1129.4,1131.1,1129.5,1130.8,1129.5z"/>
				</g>
			</g>
			<g>
				<g>
					<path class="st36" d="M1124.8,1125c-0.9,0-1.8-0.5-2.3-1.5c-0.6-1.3,0-2.8,1.2-3.4c1-0.5,1.2-1.8,1.2-1.8
						c0.2-1.4,1.4-2.4,2.8-2.2c1.4,0.2,2.4,1.4,2.2,2.8c0,0.4-0.6,4.1-4.1,5.8C1125.6,1124.9,1125.2,1125,1124.8,1125z"/>
				</g>
			</g>
			<g>
				<g>
					<path class="st36" d="M1118.9,1120.6c-0.9,0-1.8-0.5-2.3-1.5c-0.6-1.3,0-2.8,1.2-3.4c1-0.5,1.2-1.8,1.2-1.8
						c0.2-1.4,1.5-2.3,2.8-2.2c1.4,0.2,2.3,1.4,2.2,2.8c0,0.4-0.6,4.1-4.1,5.8C1119.6,1120.5,1119.3,1120.6,1118.9,1120.6z"/>
				</g>
			</g>
			<g>
				<g>
					<path class="st44" d="M1100.6,1101.8c-0.1,0.7-0.5,1.3-1,1.8c-0.5,0.5-1.1,0.9-1.7,1.2c-0.6,0.3-1.3,0.4-2,0.5
						c-0.7,0.1-1.4,0-2-0.1c0.6-0.3,1.2-0.5,1.9-0.7c0.6-0.2,1.2-0.4,1.7-0.7c0.6-0.2,1.1-0.5,1.6-0.8
						C1099.7,1102.6,1100.2,1102.3,1100.6,1101.8z"/>
				</g>
			</g>
		</g>
		<g>
			<path class="st29" d="M796.2,540.4c0,1.7-0.2,3.4-0.5,5c-0.3,1.7-0.6,3.3-1,4.9c-0.4,1.6-0.9,3.2-1.4,4.8c-0.5,1.6-1.2,3.1-2,4.7
				c0-1.7,0.2-3.4,0.5-5c0.3-1.7,0.6-3.3,1-4.9c0.4-1.6,0.9-3.2,1.4-4.8C794.8,543.5,795.4,542,796.2,540.4z"/>
		</g>
		<g class="st37">
			<path class="st40" d="M655.1,507.1c0,0-31.5,0.3-41,22.7C614,529.8,606,498.7,655.1,507.1z"/>
		</g>
		<g class="st37">
			<path class="st40" d="M658.4,502.5c0,0-15.8-13.3-34.6-3.9C623.7,498.6,654.6,482.3,658.4,502.5z"/>
		</g>
		<g class="st37">
			<path class="st40" d="M681.5,609.7c0,0-32.7-23.9-29.6-82.6C652,527.1,642.8,605.3,681.5,609.7z"/>
		</g>
		<g class="st45">
			<path class="st40" d="M692.1,451.1c0.2,12.1-1.2,24.2-4.2,35.9c-0.9,3.5-1.2,5.8,0.1,4c5-7,24.5,7.7,27,9c6,3-10-29,17.1-27.3
				c1.3,0.1,1.2-2.2-0.2-2.2c-9.1,0.2-24.7-5.4-27.9-9.5c-5.2-6.5-7.2-23.1-10-31c-5.7-16-2.7-13-2.6-30
				C689.8,424.1,691.7,426.4,692.1,451.1z"/>
		</g>
		<g class="st37">
			<path class="st40" d="M735.4,626c0,0,16.6-40.4,65.6-53.4C778.8,579.8,712.5,607.4,735.4,626z"/>
		</g>
		<g class="st37">
			<path class="st40" d="M733.1,658c0,0,36.1,10.5,57.7-19.9C790.8,638.1,763.4,657.3,733.1,658z"/>
		</g>
		<g class="st37">
			<path class="st40" d="M851.6,362.5c0,0,36.4,46.5,18,104.4C869.6,467,883,451,851.6,362.5z"/>
		</g>
		<g>
			<path class="st40" d="M851.6,362.5c0.2,5.3,0.3,10.5,0.7,15.8c0.3,5.3,0.6,10.5,1,15.7c0.8,10.5,20.8,17.9,22.2,28.4
				c1.3,10.4-16,3.8-13.9,14.1l1.7,7.7c0.3,1.3,0.5,2.6,0.9,3.8l1,3.8l1,3.8c0.2,0.6,0.3,1.3,0.5,1.9l0.6,1.9l2.4,7.5
				c-3.7-9.9-6.5-20-8.8-30.3c-2.2-10.3,15.1-3.7,13.7-14.1c-1.3-10.5-21.3-17.9-22-28.4C851.9,383.6,851.5,373.1,851.6,362.5z"/>
		</g>
		<g>
			<path class="st40" d="M790.8,638.1c-3,4.5-6.7,8.6-11.1,11.9c-2.2,1.7-4.5,3.1-6.9,4.4c-2.4,1.2-5,2.3-7.6,3.1
				c-5.2,1.6-10.7,2.5-16.1,2.5c-5.4,0-10.9-0.6-16.1-2.1c2.6,0.6,5.3,1,8,1.2c2.7,0.2,5.4,0.3,8.1,0.2c5.4-0.2,10.7-1,15.8-2.7
				c2.6-0.8,5-1.8,7.4-3c2.4-1.2,4.7-2.6,6.9-4.2c2.2-1.6,4.3-3.3,6.1-5.2C787.4,642.3,789.1,640.2,790.8,638.1z"/>
		</g>
		<g>
			<path class="st46" d="M801,572.7c-6.9,2.1-13.7,4.7-20.2,8c-6.4,3.3-12.6,7.2-18.2,11.8c-5.7,4.5-10.8,9.7-15.4,15.3
				c-2.3,2.8-4.5,5.7-6.5,8.8c-2,3-3.9,6.2-5.4,9.5c2.8-6.8,6.8-13,11.3-18.7c4.5-5.7,9.7-11,15.4-15.6c2.8-2.3,5.8-4.4,8.9-6.4
				c3.1-2,6.3-3.7,9.5-5.3c1.7-0.8,3.3-1.6,5-2.2l2.5-1l2.6-0.9C794,574.5,797.5,573.5,801,572.7z"/>
		</g>
		<g>
			<path class="st46" d="M649.4,323.9c5.7,2.6,10.9,6.4,15.7,10.6c4.7,4.2,8.9,9.1,12.4,14.4c1.8,2.7,3.3,5.4,4.7,8.3
				c1.4,2.9,2.6,5.8,3.6,8.8c0.5,1.5,1,3,1.4,4.6c0.2,0.8,0.4,1.5,0.6,2.3l0.5,2.3c0.4,1.5,0.6,3.1,0.8,4.7c0.2,1.6,0.4,3.2,0.6,4.7
				c-1-6.3-2.5-12.4-4.6-18.4c-2.2-5.9-5-11.6-8.5-16.8c-3.4-5.3-7.5-10.1-12.1-14.4c-2.3-2.2-4.7-4.2-7.2-6.1
				C654.8,327.1,652.2,325.3,649.4,323.9z"/>
		</g>
		<g>
			<path class="st46" d="M696.1,491.3c-2.8-0.1-5.5,0-8.3,0.2c-2.8,0.2-5.5,0.5-8.2,1.1c-5.4,1.1-10.7,2.8-15.3,5.7
				c-4.6,2.9-8.4,7.2-10.4,12.4c-1,2.6-1.7,5.3-1.9,8.1c-0.2,1.4-0.2,2.8-0.2,4.2c0,1.4,0.1,2.8,0.2,4.2c-0.8-5.5-0.7-11.3,1.2-16.7
				c1.8-5.4,5.8-9.9,10.5-13c4.8-3,10.2-4.7,15.7-5.7C684.9,490.9,690.5,490.7,696.1,491.3z"/>
		</g>
		<g>
			<path class="st46" d="M655.1,507.1c-2,0.2-4.1,0.5-6.1,0.8c-2,0.4-4,0.8-6,1.3c-4,1.1-7.8,2.5-11.5,4.4c-1.8,0.9-3.6,2-5.3,3.2
				c-1.7,1.2-3.3,2.6-4.8,4c-3,3-5.4,6.6-7.3,10.5c0.7-2.1,1.7-4.1,2.8-5.9c1.2-1.8,2.5-3.6,4-5.2c3-3.2,6.5-5.6,10.2-7.6
				c3.8-1.9,7.7-3.3,11.8-4.2C646.8,507.6,650.9,507,655.1,507.1z"/>
		</g>
		<g>
			<path class="st46" d="M658.4,502.5c-1.3-0.9-2.6-1.7-3.9-2.3c-0.7-0.4-1.4-0.7-2-1c-0.7-0.3-1.4-0.6-2.1-0.9
				c-2.8-1.1-5.8-1.9-8.8-2.2c-1.5-0.3-3-0.2-4.5-0.3c-1.5,0.1-3,0.1-4.5,0.4c-3,0.4-5.9,1.4-8.8,2.5c0.7-0.4,1.4-0.7,2.1-1
				c0.7-0.3,1.4-0.7,2.1-0.9l2.2-0.7c0.7-0.3,1.5-0.4,2.3-0.5c1.5-0.4,3.1-0.4,4.6-0.6c1.6,0,3.1,0,4.6,0.3c3.1,0.4,6.1,1.2,8.9,2.5
				C653.4,498.8,656.1,500.4,658.4,502.5z"/>
		</g>
		<g>
			<path class="st46" d="M681.5,609.7c-6-4.6-10.8-10.6-14.9-17c-4.1-6.4-7.2-13.4-9.7-20.6c-1-3.7-2.2-7.3-2.9-11l-0.6-2.8
				c-0.2-0.9-0.4-1.9-0.5-2.8l-0.7-5.7c-0.1-0.9-0.3-1.9-0.3-2.8l-0.1-2.8l-0.3-5.7c0-1.9,0.1-3.8,0.2-5.7l0.2-5.7
				c0.1,3.8,0,7.6,0.1,11.4l0.4,5.7l0.2,2.8c0.1,0.9,0.3,1.9,0.4,2.8l0.8,5.6c0.1,0.9,0.3,1.9,0.5,2.8l0.6,2.8
				c0.7,3.7,1.9,7.3,2.9,10.9c2.4,7.1,5.5,14.1,9.4,20.5l1.5,2.4l1.6,2.3c1,1.6,2.2,3,3.4,4.5C676.1,604.4,678.7,607.2,681.5,609.7z
				"/>
		</g>
		<g>
			<path class="st46" d="M733.4,556.8c2.3,6.6,2.8,13.8,1.7,20.7c-1.1,6.9-4.3,13.5-8.9,18.8c-4.6,5.3-10.6,9.3-16.8,12.2
				c-6.3,3-13,4.9-19.8,6.2l5-1.4c1.7-0.5,3.3-1,4.9-1.6c1.6-0.6,3.2-1.2,4.8-1.8c1.6-0.7,3.2-1.4,4.7-2.1
				c6.1-3.1,11.9-6.9,16.4-12.2c2.3-2.6,4.2-5.4,5.7-8.5c1.5-3.1,2.5-6.4,3.2-9.8c0.6-3.4,0.9-6.9,0.7-10.3
				C734.9,563.6,734.4,560.2,733.4,556.8z"/>
		</g>
		<g>
			<path class="st29" d="M815.1,523.6c0,2.7-2.2,4.9-4.8,4.9c-2.7,0-4.8-2.2-4.8-4.9c0-2.7,2.2-4.9,4.8-4.9
				C813,518.8,815.1,520.9,815.1,523.6z"/>
		</g>
		<g>
			<path class="st36" d="M978.2,692.1c3.7,2.3,7.7,4.1,11.8,5.7c4,1.6,8.2,3,12.4,4.2c4.2,1.2,8.4,2.2,12.7,3
				c2.1,0.4,4.3,0.8,6.4,1.2c2.2,0.3,4.3,0.7,6.5,0.9c8.6,1.1,17.4,1.6,26.1,1.4c8.7-0.2,17.4-1,26.1-2.2c2.2-0.3,4.3-0.6,6.5-1
				l6.4-1.2l6.4-1.3c2.1-0.4,4.3-0.9,6.5-1.2c4.3-0.6,8.7-0.9,13.1-0.9c4.4,0,8.8,0.4,13.1,1.4c4.3,1,8.5,2.6,12.3,4.9
				c3.8,2.3,7.2,5.2,10.1,8.5c5.8,6.7,9.5,15,11.6,23.5l-0.1,0c-1.2-4.2-2.8-8.4-4.8-12.3c-2-3.9-4.4-7.6-7.3-10.8
				c-5.8-6.5-13.7-11-22.1-12.9c-4.2-0.9-8.6-1.3-12.9-1.3c-4.3-0.1-8.7,0.2-13,0.8c-2.2,0.3-4.3,0.7-6.4,1.1l-6.4,1.2l-6.5,1.1
				c-2.2,0.3-4.3,0.6-6.5,0.9c-8.7,1.1-17.4,1.7-26.1,1.9c-8.7,0.2-17.5,0-26.2-0.9c-8.7-0.9-17.3-2.6-25.7-5.1
				c-4.2-1.2-8.3-2.7-12.4-4.4C985.8,696.6,981.8,694.7,978.2,692.1L978.2,692.1z"/>
		</g>
		<g>
			<path class="st36" d="M872.7,763.5c4.9-2.2,9.7-4.5,14.4-6.9c2.4-1.2,4.7-2.4,7.1-3.7l7-3.8c9.3-5.2,18.5-10.7,27.3-16.6
				c9-5.8,17.5-12.2,25.9-18.8l6.2-5.1c2-1.7,4-3.6,6-5.3l3-2.7c1-0.9,1.9-1.9,2.9-2.8l5.7-5.6c-7.3,7.8-15,15.3-23.3,22.1
				c-8.3,6.8-16.9,13.2-25.8,19.1c-9,5.9-18.1,11.4-27.5,16.4C892.2,754.8,882.6,759.5,872.7,763.5z"/>
		</g>
		<g>
			<path class="st36" d="M1041.7,781.2c1-1.7,2.3-3.3,3.6-4.9c1.3-1.5,2.7-3,4.1-4.4c2.9-2.8,6.1-5.3,9.5-7.5c3.4-2.1,7-4,10.8-5.4
				c1.9-0.8,3.8-1.3,5.8-1.8c1-0.3,2-0.4,2.9-0.6c1-0.2,2-0.4,3-0.5c-3.9,1-7.7,2.1-11.4,3.7l-1.4,0.6c-0.5,0.2-0.9,0.4-1.4,0.6
				l-2.7,1.3c-0.9,0.4-1.7,1-2.6,1.4l-1.3,0.7c-0.4,0.3-0.8,0.5-1.3,0.8c-3.4,2.1-6.6,4.5-9.5,7.2
				C1046.9,775.1,1044.2,778,1041.7,781.2z"/>
		</g>
		<g>
			<path class="st36" d="M951.7,671.4c0.7,1.1,1.5,2.1,2.3,3.1c0.8,1,1.6,2,2.5,2.9c1.7,1.9,3.5,3.7,5.5,5.3c0.9,0.9,2,1.6,3,2.4
				c1,0.7,2.1,1.5,3.2,2.1c0.5,0.3,1.1,0.7,1.6,1l1.7,0.9c1.1,0.6,2.3,1.1,3.5,1.7c-2.5-0.7-4.9-1.6-7.2-2.9c-1.2-0.6-2.2-1.3-3.3-2
				c-1-0.8-2.1-1.5-3.1-2.4c-2-1.7-3.8-3.5-5.4-5.6C954.3,675.9,952.8,673.7,951.7,671.4z"/>
		</g>
		<g>
			<path class="st36" d="M989.3,593c2.7,2.1,4.9,4.7,6.7,7.6c1.9,2.9,3.3,6,4.2,9.3c0.9,3.3,1.4,6.8,1.2,10.2c0,1.7-0.3,3.4-0.5,5.1
				c-0.1,0.8-0.4,1.7-0.6,2.5c-0.2,0.8-0.4,1.6-0.7,2.5c0.2-1.7,0.6-3.3,0.8-5c0.1-1.7,0.4-3.4,0.2-5c0-3.4-0.5-6.7-1.4-9.9
				c-0.9-3.2-2.2-6.3-3.9-9.2c-0.4-0.7-0.9-1.4-1.3-2.1c-0.5-0.7-1-1.4-1.5-2C991.6,595.4,990.5,594.2,989.3,593z"/>
		</g>
		<g>
			<path class="st36" d="M806.2,647.9c-0.1,7.1-0.8,14.1-2,21.1c-1.1,7-2.8,13.9-4.8,20.7l-1.6,5.1l-1.9,5c-0.6,1.7-1.3,3.3-2,4.9
				c-0.7,1.6-1.4,3.3-2.2,4.8c-3.1,6.4-7,12.3-11.3,17.8l2.9-4.4c0.5-0.7,1-1.4,1.5-2.2l1.3-2.3c0.9-1.5,1.8-3,2.6-4.6l2.3-4.7
				c2.9-6.4,5.6-12.9,7.5-19.7c2.1-6.7,3.7-13.6,5-20.5c0.6-3.5,1.2-6.9,1.6-10.4C805.6,654.9,805.9,651.4,806.2,647.9z"/>
		</g>
		<g>
			<path class="st36" d="M1225.6,739.1c0.9-3.1,1.8-6.1,2.6-9.2c0.8-3.1,1.5-6.2,2.2-9.3c1.3-6.3,2.3-12.6,2.9-18.9
				c0.8-6.3,0.9-12.7,0.8-19.1l-0.2-4.8c-0.1-1.6-0.3-3.2-0.5-4.8l-0.2-2.4c-0.1-0.8-0.3-1.6-0.4-2.4l-0.8-4.7
				c1.5,6.2,2.6,12.6,2.8,19c0.2,1.6,0.1,3.2,0.1,4.8c0,1.6,0,3.2-0.1,4.8l-0.2,4.8l-0.4,4.8c-0.7,6.4-1.7,12.7-3.2,19
				C1229.7,727,1227.9,733.1,1225.6,739.1z"/>
		</g>
		<g>
			<path class="st36" d="M1049.1,779.3c2-0.8,4.1-1.4,6.2-1.8c2.1-0.4,4.2-0.7,6.4-0.8c2.1-0.1,4.3,0,6.4,0.3
				c2.1,0.2,4.2,0.8,6.3,1.5c-1.1-0.1-2.1-0.4-3.2-0.4l-1.6-0.2l-1.6-0.1c-2.1-0.1-4.2-0.2-6.3-0.1c-2.1,0.1-4.2,0.3-6.3,0.5
				c-1.1,0.1-2.1,0.3-3.1,0.5C1051.2,778.9,1050.2,779.1,1049.1,779.3z"/>
		</g>
		<g>
			<path class="st36" d="M1017.6,1042.3c5,2.5,10.3,4.5,15.6,6.3c5.3,1.7,10.7,3.2,16.2,4.1c5.5,1,11,1.8,16.6,2.1
				c5.6,0.4,11.2,0.2,16.8,0l-4.2,0.4c-1.4,0.1-2.8,0.3-4.2,0.3c-2.8,0.1-5.6,0.2-8.4,0c-5.6-0.1-11.2-0.9-16.8-1.8
				c-5.5-1-11-2.5-16.3-4.4c-2.7-0.9-5.3-2-7.8-3.1C1022.5,1045,1020,1043.8,1017.6,1042.3z"/>
		</g>
		<g>
			<g>
				<path class="st36" d="M926.8,737.8C926.8,737.8,926.7,737.8,926.8,737.8c-2.6-0.3-4-0.5-4-0.5c-0.3,0-0.5-0.3-0.4-0.6
					c0-0.3,0.3-0.5,0.6-0.4c0,0,1.4,0.2,3.9,0.5c0.3,0,0.5,0.3,0.4,0.6C927.2,737.7,927,737.8,926.8,737.8z"/>
			</g>
			<g>
				<path class="st36" d="M1057.2,747c-0.3,0-0.5-0.2-0.5-0.5c0-0.3,0.2-0.5,0.5-0.5c2.6,0,5.2,0,7.7-0.1c0.3,0,0.5,0.2,0.5,0.5
					c0,0.3-0.2,0.5-0.5,0.5C1062.3,746.9,1059.8,747,1057.2,747C1057.2,747,1057.2,747,1057.2,747z M1049.5,746.9
					C1049.5,746.9,1049.5,746.9,1049.5,746.9c-2.6,0-5.1-0.1-7.7-0.1c-0.3,0-0.5-0.2-0.5-0.5c0-0.3,0.2-0.5,0.5-0.5
					c2.6,0.1,5.1,0.1,7.7,0.1c0.3,0,0.5,0.2,0.5,0.5C1050,746.7,1049.8,746.9,1049.5,746.9z M1072.5,746.7c-0.3,0-0.5-0.2-0.5-0.5
					c0-0.3,0.2-0.5,0.5-0.5c2.6-0.1,5.2-0.2,7.7-0.3c0.3,0,0.5,0.2,0.5,0.5c0,0.3-0.2,0.5-0.5,0.5
					C1077.8,746.5,1075.2,746.6,1072.5,746.7C1072.6,746.7,1072.6,746.7,1072.5,746.7z M1034.1,746.6
					C1034.1,746.6,1034.1,746.6,1034.1,746.6c-2.6-0.1-5.1-0.2-7.7-0.3c-0.3,0-0.5-0.2-0.5-0.5c0-0.3,0.3-0.5,0.5-0.5
					c2.6,0.1,5.1,0.2,7.7,0.3c0.3,0,0.5,0.2,0.5,0.5C1034.6,746.4,1034.4,746.6,1034.1,746.6z M1018.7,745.9
					C1018.7,745.9,1018.7,745.9,1018.7,745.9c-2.6-0.1-5.2-0.3-7.7-0.4c-0.3,0-0.5-0.3-0.5-0.5c0-0.3,0.3-0.5,0.5-0.5
					c2.5,0.1,5.1,0.3,7.7,0.4c0.3,0,0.5,0.2,0.5,0.5C1019.2,745.7,1019,745.9,1018.7,745.9z M1003.4,745
					C1003.4,745,1003.3,745,1003.4,745c-2.6-0.2-5.2-0.3-7.7-0.5c-0.3,0-0.5-0.3-0.5-0.5c0-0.3,0.3-0.5,0.5-0.5
					c2.5,0.2,5.1,0.4,7.7,0.5c0.3,0,0.5,0.3,0.5,0.5C1003.8,744.8,1003.6,745,1003.4,745z M988,743.9C988,743.9,988,743.9,988,743.9
					c-2.6-0.2-5.2-0.4-7.7-0.6c-0.3,0-0.5-0.3-0.5-0.5c0-0.3,0.3-0.5,0.5-0.5c2.5,0.2,5.1,0.4,7.7,0.6c0.3,0,0.5,0.3,0.5,0.5
					C988.5,743.7,988.3,743.9,988,743.9z M972.7,742.7C972.7,742.7,972.7,742.7,972.7,742.7c-2.7-0.2-5.2-0.5-7.7-0.7
					c-0.3,0-0.5-0.3-0.4-0.5c0-0.3,0.3-0.5,0.5-0.5c2.5,0.2,5,0.5,7.7,0.7c0.3,0,0.5,0.3,0.5,0.5
					C973.2,742.5,972.9,742.7,972.7,742.7z M957.4,741.2C957.4,741.2,957.3,741.2,957.4,741.2c-2.7-0.3-5.3-0.5-7.7-0.8
					c-0.3,0-0.5-0.3-0.4-0.5c0-0.3,0.3-0.5,0.5-0.4c2.4,0.3,5,0.5,7.7,0.8c0.3,0,0.5,0.3,0.4,0.5C957.8,741,957.6,741.2,957.4,741.2
					z M942.1,739.6C942,739.6,942,739.6,942.1,739.6c-2.9-0.3-5.4-0.6-7.7-0.9c-0.3,0-0.5-0.3-0.4-0.6c0-0.3,0.3-0.5,0.5-0.4
					c2.3,0.3,4.8,0.6,7.6,0.9c0.3,0,0.5,0.3,0.4,0.6C942.5,739.4,942.3,739.6,942.1,739.6z"/>
			</g>
			<g>
				<path class="st36" d="M1087.8,745.8c-0.3,0-0.5-0.2-0.5-0.5c0-0.3,0.2-0.5,0.5-0.5c1.3-0.1,2.6-0.2,3.9-0.4
					c0.3,0,0.5,0.2,0.5,0.5c0,0.3-0.2,0.5-0.4,0.5C1090.5,745.6,1089.2,745.7,1087.8,745.8C1087.9,745.8,1087.8,745.8,1087.8,745.8z
					"/>
			</g>
		</g>
		<g>
			<g>
				<path class="st36" d="M1087.7,780.7C1087.6,780.7,1087.6,780.7,1087.7,780.7c-0.4-0.1-0.5-0.3-0.5-0.6l0.7-3.9
					c0-0.3,0.3-0.5,0.6-0.4c0.3,0,0.4,0.3,0.4,0.6l-0.7,3.9C1088.1,780.6,1087.9,780.7,1087.7,780.7z"/>
			</g>
			<g>
				<path class="st36" d="M1044.1,1032.8C1044,1032.8,1044,1032.8,1044.1,1032.8c-0.4-0.1-0.5-0.3-0.5-0.6l1.4-7.9
					c0-0.3,0.3-0.5,0.6-0.4c0.3,0,0.5,0.3,0.4,0.6l-1.4,7.9C1044.5,1032.6,1044.3,1032.8,1044.1,1032.8z M1046.8,1017
					C1046.8,1017,1046.7,1017,1046.8,1017c-0.4-0.1-0.5-0.3-0.5-0.6l1.4-7.9c0-0.3,0.3-0.5,0.6-0.4c0.3,0,0.5,0.3,0.4,0.6l-1.4,7.9
					C1047.2,1016.9,1047,1017,1046.8,1017z M1049.5,1001.3C1049.5,1001.3,1049.5,1001.3,1049.5,1001.3c-0.4-0.1-0.5-0.3-0.5-0.6
					l1.4-7.9c0-0.3,0.3-0.5,0.6-0.4c0.3,0,0.5,0.3,0.4,0.6l-1.4,7.9C1050,1001.1,1049.8,1001.3,1049.5,1001.3z M1052.2,985.5
					C1052.2,985.5,1052.2,985.5,1052.2,985.5c-0.4-0.1-0.5-0.3-0.5-0.6l1.4-7.9c0-0.3,0.3-0.5,0.6-0.4c0.3,0,0.5,0.3,0.4,0.6
					l-1.4,7.9C1052.7,985.4,1052.5,985.5,1052.2,985.5z M1055,969.8C1054.9,969.8,1054.9,969.8,1055,969.8c-0.4-0.1-0.5-0.3-0.5-0.6
					l1.4-7.9c0-0.3,0.3-0.5,0.6-0.4c0.3,0,0.5,0.3,0.4,0.6l-1.4,7.9C1055.4,969.6,1055.2,969.8,1055,969.8z M1057.7,954
					C1057.7,954,1057.6,954,1057.7,954c-0.4-0.1-0.5-0.3-0.5-0.6l1.4-7.9c0-0.3,0.3-0.5,0.6-0.4c0.3,0,0.4,0.3,0.4,0.6l-1.4,7.9
					C1058.1,953.9,1057.9,954,1057.7,954z M1060.4,938.3C1060.4,938.3,1060.4,938.3,1060.4,938.3c-0.4-0.1-0.5-0.3-0.5-0.6l1.4-7.9
					c0-0.3,0.3-0.5,0.6-0.4c0.3,0,0.4,0.3,0.4,0.6l-1.4,7.9C1060.9,938.1,1060.7,938.3,1060.4,938.3z M1063.1,922.5
					C1063.1,922.5,1063.1,922.5,1063.1,922.5c-0.4-0.1-0.5-0.3-0.5-0.6l1.4-7.9c0-0.3,0.3-0.5,0.6-0.4c0.3,0,0.4,0.3,0.4,0.6
					l-1.4,7.9C1063.6,922.3,1063.4,922.5,1063.1,922.5z M1065.9,906.8C1065.8,906.8,1065.8,906.8,1065.9,906.8
					c-0.4-0.1-0.5-0.3-0.5-0.6l1.4-7.9c0-0.3,0.3-0.5,0.6-0.4c0.3,0,0.5,0.3,0.4,0.6l-1.4,7.9
					C1066.3,906.6,1066.1,906.8,1065.9,906.8z M1068.6,891C1068.6,891,1068.5,891,1068.6,891c-0.4-0.1-0.5-0.3-0.5-0.6l1.4-7.9
					c0-0.3,0.3-0.5,0.6-0.4c0.3,0,0.5,0.3,0.4,0.6l-1.4,7.9C1069,890.8,1068.8,891,1068.6,891z M1071.3,875.3
					C1071.3,875.3,1071.3,875.3,1071.3,875.3c-0.4-0.1-0.5-0.3-0.5-0.6l1.4-7.9c0-0.3,0.3-0.5,0.6-0.4c0.3,0,0.5,0.3,0.4,0.6
					l-1.4,7.9C1071.8,875.1,1071.6,875.3,1071.3,875.3z M1074,859.5C1074,859.5,1074,859.5,1074,859.5c-0.4-0.1-0.5-0.3-0.5-0.6
					l1.4-7.9c0-0.3,0.3-0.5,0.6-0.4c0.3,0,0.5,0.3,0.4,0.6l-1.4,7.9C1074.5,859.3,1074.3,859.5,1074,859.5z M1076.8,843.8
					C1076.7,843.8,1076.7,843.7,1076.8,843.8c-0.4-0.1-0.5-0.3-0.5-0.6l1.4-7.9c0-0.3,0.3-0.5,0.6-0.4c0.3,0,0.4,0.3,0.4,0.6
					l-1.4,7.9C1077.2,843.6,1077,843.8,1076.8,843.8z M1079.5,828C1079.5,828,1079.4,828,1079.5,828c-0.4-0.1-0.5-0.3-0.5-0.6
					l1.4-7.9c0-0.3,0.3-0.5,0.6-0.4c0.3,0,0.4,0.3,0.4,0.6l-1.4,7.9C1079.9,827.8,1079.7,828,1079.5,828z M1082.2,812.2
					C1082.2,812.2,1082.2,812.2,1082.2,812.2c-0.4-0.1-0.5-0.3-0.5-0.6l1.4-7.9c0-0.3,0.3-0.5,0.6-0.4c0.3,0,0.4,0.3,0.4,0.6
					l-1.4,7.9C1082.7,812.1,1082.5,812.2,1082.2,812.2z M1084.9,796.5C1084.9,796.5,1084.9,796.5,1084.9,796.5
					c-0.4-0.1-0.5-0.3-0.5-0.6l1.4-7.9c0-0.3,0.3-0.5,0.6-0.4c0.3,0,0.4,0.3,0.4,0.6l-1.4,7.9
					C1085.4,796.3,1085.2,796.5,1084.9,796.5z"/>
			</g>
			<g>
				<path class="st36" d="M1042,1044.6C1042,1044.6,1042,1044.6,1042,1044.6c-0.4-0.1-0.5-0.3-0.5-0.6l0.7-3.9
					c0-0.3,0.3-0.5,0.6-0.4c0.3,0,0.5,0.3,0.4,0.6l-0.7,3.9C1042.5,1044.4,1042.3,1044.6,1042,1044.6z"/>
			</g>
		</g>
		<g>
			<path class="st36" d="M1222.9,681.6C1222.9,681.6,1222.9,681.6,1222.9,681.6c-0.1,0-2.9-0.6-7.9-1.6c-0.3-0.1-0.4-0.3-0.4-0.6
				s0.3-0.4,0.6-0.4c5,1,7.8,1.6,7.8,1.6c0.3,0.1,0.4,0.3,0.4,0.6C1223.4,681.5,1223.2,681.6,1222.9,681.6z M1207.3,678.4
				c0,0-0.1,0-0.1,0c-2.4-0.5-5-1-7.8-1.6c-0.3-0.1-0.4-0.3-0.4-0.6c0.1-0.3,0.3-0.4,0.6-0.4c2.8,0.6,5.4,1.1,7.8,1.6
				c0.3,0.1,0.4,0.3,0.4,0.6C1207.8,678.2,1207.5,678.4,1207.3,678.4z M1191.8,675.1c0,0-0.1,0-0.1,0c-2.5-0.5-5.1-1.1-7.8-1.7
				c-0.3-0.1-0.4-0.3-0.4-0.6c0.1-0.3,0.3-0.4,0.6-0.4c2.7,0.6,5.3,1.1,7.8,1.7c0.3,0.1,0.4,0.3,0.4,0.6
				C1192.2,674.9,1192,675.1,1191.8,675.1z M1176.2,671.7c0,0-0.1,0-0.1,0c-2.5-0.6-5.1-1.1-7.8-1.7c-0.3-0.1-0.4-0.3-0.4-0.6
				c0.1-0.3,0.3-0.4,0.6-0.4c2.6,0.6,5.2,1.2,7.8,1.7c0.3,0.1,0.4,0.3,0.4,0.6C1176.7,671.6,1176.5,671.7,1176.2,671.7z
				 M1160.7,668.3c0,0-0.1,0-0.1,0c-2.5-0.6-5.1-1.1-7.8-1.7c-0.3-0.1-0.4-0.3-0.4-0.6c0.1-0.3,0.3-0.4,0.6-0.4
				c2.6,0.6,5.2,1.2,7.8,1.7c0.3,0.1,0.4,0.3,0.4,0.6C1161.1,668.2,1160.9,668.3,1160.7,668.3z M1145.2,664.8c0,0-0.1,0-0.1,0
				c-2.6-0.6-5.1-1.2-7.7-1.8c-0.3-0.1-0.4-0.3-0.4-0.6c0.1-0.3,0.3-0.4,0.6-0.4c2.6,0.6,5.2,1.2,7.7,1.8c0.3,0.1,0.4,0.3,0.4,0.6
				C1145.6,664.7,1145.4,664.8,1145.2,664.8z M1129.7,661.3c0,0-0.1,0-0.1,0c-2.6-0.6-5.1-1.2-7.7-1.8c-0.3-0.1-0.4-0.3-0.4-0.6
				c0.1-0.3,0.3-0.4,0.6-0.4c2.6,0.6,5.2,1.2,7.7,1.8c0.3,0.1,0.4,0.3,0.4,0.6C1130.2,661.1,1129.9,661.3,1129.7,661.3z
				 M1114.3,657.6c0,0-0.1,0-0.1,0c-2.6-0.6-5.2-1.2-7.7-1.9c-0.3-0.1-0.4-0.3-0.4-0.6c0.1-0.3,0.3-0.4,0.6-0.4
				c2.6,0.6,5.2,1.2,7.7,1.9c0.3,0.1,0.4,0.3,0.4,0.6C1114.7,657.4,1114.5,657.6,1114.3,657.6z M1098.8,653.8c0,0-0.1,0-0.1,0
				c-2.6-0.6-5.2-1.3-7.7-1.9c-0.3-0.1-0.4-0.3-0.4-0.6c0.1-0.3,0.3-0.4,0.6-0.4c2.6,0.6,5.1,1.3,7.7,1.9c0.3,0.1,0.4,0.3,0.4,0.6
				C1099.2,653.7,1099,653.8,1098.8,653.8z M1083.4,650c0,0-0.1,0-0.1,0c-2.6-0.7-5.2-1.3-7.7-2c-0.3-0.1-0.4-0.3-0.4-0.6
				c0.1-0.3,0.3-0.4,0.6-0.4c2.5,0.7,5.1,1.3,7.7,2c0.3,0.1,0.4,0.3,0.4,0.6C1083.8,649.8,1083.6,650,1083.4,650z M1068,645.9
				c0,0-0.1,0-0.1,0c-2.6-0.7-5.2-1.4-7.7-2.1c-0.3-0.1-0.4-0.3-0.3-0.6c0.1-0.3,0.3-0.4,0.6-0.3c2.5,0.7,5.1,1.4,7.7,2.1
				c0.3,0.1,0.4,0.3,0.4,0.6C1068.5,645.8,1068.3,645.9,1068,645.9z M1052.7,641.7c0,0-0.1,0-0.1,0c-2.6-0.7-5.2-1.5-7.6-2.2
				c-0.3-0.1-0.4-0.4-0.3-0.6c0.1-0.3,0.4-0.4,0.6-0.3c2.5,0.7,5,1.5,7.6,2.2c0.3,0.1,0.4,0.4,0.3,0.6
				C1053.1,641.5,1052.9,641.7,1052.7,641.7z M1037.5,637.1c0,0-0.1,0-0.1,0c-2.7-0.8-5.2-1.7-7.6-2.4c-0.3-0.1-0.4-0.4-0.3-0.6
				c0.1-0.3,0.4-0.4,0.6-0.3c2.3,0.8,4.9,1.6,7.6,2.4c0.3,0.1,0.4,0.4,0.3,0.6C1037.9,637,1037.7,637.1,1037.5,637.1z"/>
		</g>
		<g>
			<path class="st47" d="M791,409c-0.4,0.7-0.8,1.5-1.1,2.3c-0.3,0.8-0.6,1.6-0.9,2.4c-0.5,1.6-0.9,3.3-1.2,4.9
				c-0.3,1.7-0.5,3.3-0.7,5l-0.2,2.5c-0.1,0.9-0.1,1.7-0.2,2.6c-0.1-0.9-0.2-1.7-0.3-2.6c0-0.9-0.1-1.7-0.1-2.6
				c0-1.7,0.2-3.5,0.5-5.2c0.3-1.7,0.7-3.4,1.4-5C789,411.8,789.8,410.3,791,409z"/>
		</g>
		<g>
			<g>
				<path class="st38" d="M991.7,325.5c0,0,4.1-6.2,10.1-3.6c5.9,2.6-1.2,13.4-4,15.7c0,0,8.6-5,14.7,2l9.9-10.4
					c0,0,2.5-5.1,5.3-8.9c0,0,0.2-14.5,8.3-18.1c2.4-1.1,5,1,4.4,3.7l-2.1,9.3c0,0-0.1,19.7-12.3,32c-1.4,1.4-2.4,3.1-2.9,5l1.6,2.3
					c1.7,2.4,2.3,5.4,2.1,8.3c-0.2,1.9,0.1,3.7,0.7,5.5l0.3,0.8c1,2.8,1,5.9,0,8.8l-0.6,1.8l-2.4,10.2c-0.8,3.2-2.6,6-5.1,8
					c-4.2,3.3-11.1,8.2-19.1,11.9c-3.1,1.4-5.4,4.2-6.1,7.6l0,0c-0.5,2-0.3,4,0.3,6l28.8,86.4c0,0-30.9,44.6-70.7,37.8l2.9-98.9
					c0.6-19.4,3.4-38.6,8.5-57.3l0,0c0,0-1.7-25.6,9.5-45C973.6,346.4,979,325.2,991.7,325.5z"/>
			</g>
			<g>
				<path class="st47" d="M1022.4,329.3c0.9-1.5,1.8-3,2.7-4.4c0.9-1.4,1.9-2.9,2.9-4.2l0.1-0.1l0-0.1c0.2-3.1,0.6-6.2,1.4-9.2
					c0.4-1.5,1-3,1.8-4.3c0.2-0.3,0.4-0.6,0.6-1c0.2-0.3,0.4-0.6,0.7-0.9l0.8-0.8l0.9-0.7c0.3-0.3,0.6-0.4,1-0.6
					c0.3-0.2,0.7-0.4,1-0.5c0.7-0.2,1.4-0.2,2.1,0.1c0.6,0.3,1.2,0.8,1.4,1.4c0.3,0.6,0.3,1.3,0.1,2c-0.7,3-1.5,6.1-2.2,9.2l0,0.1
					l0,0.1c0,1.3-0.1,2.6-0.2,3.9c-0.1,1.3-0.3,2.6-0.5,3.9c-0.4,2.6-0.9,5.1-1.5,7.7l0.1,0c0.9-2.4,1.7-5,2.2-7.5
					c0.5-2.6,0.9-5.2,1-7.8l0,0.1c0.7-3.1,1.4-6.1,2-9.2c0.2-0.8,0.1-1.8-0.3-2.6c-0.4-0.8-1.1-1.4-1.9-1.7c-0.8-0.3-1.7-0.3-2.5,0
					c-0.4,0.1-0.7,0.4-1.1,0.6c-0.3,0.2-0.7,0.4-1,0.7c-2.5,2-4,4.9-5.1,7.9c-1,3-1.7,6.1-1.7,9.3l0.1-0.2c-1,1.4-1.9,2.9-2.8,4.4
					C1023.8,326.1,1023,327.6,1022.4,329.3L1022.4,329.3z"/>
			</g>
			<g>
				<path class="st38" d="M998,338.1c0.6-0.3,1.2-0.5,1.8-0.8l-0.4-0.9c-1.1,0.4-1.7,0.8-1.8,0.8L998,338.1z"/>
			</g>
			<g>
				<g>
					<polygon class="st36" points="961.9,370.4 1055.4,291.1 1051.9,286.8 958.4,366.1 957.3,370.7 					"/>
				</g>
			</g>
			<g>
				<path class="st38" d="M983.9,361.3l-1.8,6l-1.9,3.9c-1.6,3.3,1.3,6.9,4.8,6c3.4-0.9,5.2-2.9,5.2-2.9c4.7,5,13.3,2.8,13.3,2.8
					l6.9,3.5c-0.5,10.1,6.9,19.2,6.9,19.2c0.8-0.6,1.6-1.2,2.2-1.7c2.6-2,4.4-4.8,5.1-8l2.4-10.2l0.6-1.8c1-2.8,1-5.9,0-8.8
					l-0.3-0.8c-0.6-1.8-0.9-3.7-0.7-5.5c0.3-3-0.5-6.1-2.3-8.6l-1.4-2l-10.6-12.6c-4.4-5-10.1-3.8-13-2.8c-0.5,0.3-1.1,0.5-1.7,0.8
					c0,0,0,0,0,0c-4.4,1.8-8.9,3.1-12.2,4c-3.1,0.8-5.7,3-7.2,5.9c-2.1,4.1-4.7,7.9-6.6,10.7c-1.7,2.3-0.5,5.6,2.3,6.3
					C980.9,366.1,983.9,361.3,983.9,361.3z"/>
			</g>
		</g>
		<g>
			<path class="st29" d="M986.9,347.3c-0.3,2.7,1.6,5.1,4.2,5.4c2.6,0.3,5-1.6,5.3-4.3c0.3-2.7-1.6-5.1-4.2-5.4
				C989.6,342.7,987.2,344.6,986.9,347.3z"/>
		</g>
		<g>
			<path class="st47" d="M989.5,380c2.4,1.3,5.5,1.1,8,0c1.3-0.5,2.4-1.3,3.5-2c0.6-0.3,1.1-0.8,1.7-1c0.6-0.2,1.2-0.1,1.9-0.1
				c1.3,0.1,2.7,0.2,4,0.2c0.6,0,1.1,0.3,1.5,0.7c0.2,0.2,0.4,0.4,0.5,0.7c0.1,0.3,0.3,0.6,0.5,0.9c1.4,2.4,3.3,4.4,5.5,6l0.1-0.1
				c-1.8-2.1-3.4-4.2-4.7-6.5l-0.5-0.9c-0.2-0.3-0.5-0.7-0.8-0.9c-0.6-0.5-1.4-0.8-2.2-0.8c-1.4,0-2.7,0.1-4,0.1l-1,0
				c-0.4,0-0.7,0.1-1,0.2c-0.3,0.1-0.6,0.3-0.9,0.5c-0.3,0.2-0.6,0.4-0.8,0.5c-1.1,0.7-2.4,1.2-3.7,1.5
				C994.8,380.1,992.2,380.6,989.5,380L989.5,380z"/>
		</g>
		<g>
			<path class="st47" d="M989.6,379.9c-1.5-0.9-2-2.8-1.2-4.2c0.2-0.3,0.4-0.7,0.7-0.9c0.3-0.3,0.6-0.4,1-0.7
				c0.8-0.4,1.5-0.9,2.2-1.4c1.4-1,2.7-2.2,3.9-3.5c0.6-0.6,1.3-1.1,2.1-1.4c0.8-0.3,1.6-0.4,2.5-0.7c1.7-0.4,3.4-0.8,5-1.2l2.5-0.7
				l1.2-0.3c0.4-0.1,0.8-0.2,1.2-0.2c0.8-0.1,1.6,0,2.4,0.2c0.8,0.2,1.5,0.6,2.3,1c1.6,0.7,3.2,1.4,4.8,2l0-0.1
				c-1.5-0.9-3-1.8-4.5-2.6c-0.8-0.4-1.5-0.9-2.4-1.2c-0.9-0.3-1.8-0.4-2.7-0.4c-0.5,0-0.9,0.1-1.4,0.2c-0.4,0.1-0.8,0.2-1.3,0.4
				l-2.5,0.8c-1.7,0.5-3.3,1-4.9,1.6c-0.8,0.3-1.6,0.5-2.5,0.9c-0.8,0.4-1.5,0.9-2.2,1.5c-1.2,1.2-2.7,2.1-4.1,3l-2.2,1.3
				c-0.3,0.2-0.8,0.4-1.1,0.8c-0.3,0.3-0.6,0.8-0.8,1.2c-0.4,0.9-0.4,1.9,0,2.8C987.9,379.1,988.7,379.7,989.6,379.9L989.6,379.9z"
				/>
		</g>
		<g>
			<path class="st47" d="M978.3,371c0.1,2.1,0.4,4.2,0.6,6.3l0-0.1c-0.1,0.8-0.1,1.7-0.1,2.5c0,0.9-0.1,1.6,0,2.6
				c0.2,1.9,1.7,3.5,3.5,3.9c0.9,0.2,1.9,0.1,2.7-0.2c0.9-0.4,1.5-1,2.1-1.6c1.2-1.3,2-2.8,2.4-4.4c-0.7,1.5-1.7,2.9-2.9,4
				c-0.6,0.6-1.2,1.1-1.9,1.3c-0.7,0.3-1.5,0.3-2.2,0.1c-1.4-0.4-2.6-1.6-2.8-3.1l0-0.6l0-0.6l0-1.3c0-0.8,0-1.7,0-2.5l0-0.1l0,0
				C979.3,375.1,978.8,373.1,978.3,371z"/>
		</g>
		<g>
			<path class="st47" d="M978.4,371c-0.1-0.5-0.2-1.1-0.2-1.6c-0.1-0.5-0.1-1.1,0-1.6c0-1.1,0.3-2.1,0.6-3.1c0.4-1,0.9-1.9,1.5-2.7
				c0.6-0.8,1.4-1.6,2.1-2.4c1.4-1.7,2.7-3.4,3.9-5.2c1.1-1.8,2.8-3.3,4.9-3.9c1-0.3,2-0.4,3.1-0.5l3.2-0.2l3.2-0.3l1.6-0.1
				c0.5,0,1.1-0.1,1.5-0.1c0.5,0,0.9,0.1,1.4,0.3c0.4,0.2,0.9,0.5,1.4,0.7l2.9,1.5c1.9,1,3.8,1.9,5.8,2.8l0-0.1
				c-1.8-1.2-3.6-2.3-5.5-3.4l-2.8-1.6c-0.5-0.3-0.9-0.5-1.5-0.8c-0.5-0.2-1.1-0.4-1.7-0.4c-0.6,0-1.1,0.1-1.7,0.1l-1.6,0.2
				l-3.2,0.4l-3.2,0.4c-1.1,0.1-2.2,0.3-3.2,0.8c-1,0.4-2,1-2.8,1.7c-0.8,0.7-1.5,1.6-2.1,2.5c-1.3,1.7-2.8,3.3-4.3,4.8
				c-0.7,0.8-1.5,1.5-2.2,2.4c-0.7,0.9-1.2,1.9-1.6,3c-0.3,1.1-0.5,2.2-0.4,3.3C977.6,369,977.9,370,978.4,371L978.4,371z"/>
		</g>
		<g>
			<path class="st47" d="M1009.7,345.8c-2.3-1.5-4.8-2.7-7.3-3.8c-2.5-1.1-5-2.2-7.7-2.9c2.3,1.5,4.8,2.7,7.3,3.8
				C1004.5,344,1007,345,1009.7,345.8z"/>
		</g>
		<g>
			<path class="st47" d="M990.8,373.2c0.3-1.1,0.5-2.1,0.6-3.2c0-0.5,0.1-1.1,0.1-1.6c0-0.5,0-1.1-0.1-1.6l-0.2,0.3
				c0.6-0.4,1.1-0.9,1.7-1.3c0.6-0.4,1.2-0.8,1.8-1.1l1.9-1c0.6-0.3,1.2-0.7,1.8-1.1l-0.5,0c1.1,0.6,2.2,1.2,3.4,1.7
				c1.2,0.5,2.3,1,3.5,1.4l0-0.1c-1-0.8-2.1-1.5-3.2-2.1c-1.1-0.7-2.2-1.3-3.3-1.8l-0.3-0.1l-0.2,0.2c-0.6,0.4-1.2,0.8-1.7,1.2
				l-1.7,1.3c-0.6,0.4-1.1,0.8-1.7,1.2c-0.6,0.4-1.2,0.7-1.9,1l-0.1,0.1l0,0.2c-0.1,0.5-0.1,1.1-0.1,1.6c0,0.5,0,1.1,0,1.6
				C990.6,371,990.6,372.1,990.8,373.2L990.8,373.2z"/>
		</g>
		<g>
			<path class="st47" d="M1008.9,384.2c-2.2,0.9-4.2,2.2-6.1,3.6c-1.9,1.4-3.7,3-5.3,4.7c-1.6,1.7-3,3.7-4.2,5.8
				c-1.2,2.1-2,4.3-2.5,6.6c0.5-1.1,0.9-2.2,1.5-3.2c0.3-0.5,0.5-1,0.8-1.5l0.9-1.5c1.3-1.9,2.7-3.8,4.3-5.5c1.6-1.7,3.3-3.3,5-4.8
				c0.9-0.7,1.8-1.5,2.7-2.1C1006.9,385.5,1007.9,384.8,1008.9,384.2z"/>
		</g>
		<g>
			<path class="st47" d="M984,385.9c0.4,0.8,0.6,1.6,0.8,2.4c0.2,0.8,0.4,1.6,0.6,2.5c0.3,1.7,0.5,3.3,0.6,5
				c0.1,1.7,0.1,3.4,0.1,5.1l-0.1,2.6c0,0.9-0.1,1.7-0.1,2.6c0.2-0.8,0.4-1.7,0.6-2.5c0.1-0.9,0.3-1.7,0.4-2.6
				c0.2-1.7,0.2-3.5,0.1-5.2c-0.1-1.7-0.4-3.5-0.8-5.1C985.7,388.9,985,387.3,984,385.9z"/>
		</g>
		<g>
			<path class="st47" d="M753,558c-2.7,2-5.6,3.8-8.5,5.6c-3,1.7-6,3.3-9.3,4.7c-3.2,1.4-6.8,2.5-10.4,3.4
				c-3.7,0.9-7.6,1.3-11.7,1.6c4.3,0.5,8.6,0.6,12.7,0c4-0.6,7.8-1.7,11.3-3.1C743.8,567.2,749.4,563.1,753,558z"/>
		</g>
		<g>
			<path class="st8" d="M927.1,478.6c-0.3-0.8-0.9-1.5-1.7-1.9c-0.8-0.4-1.8-0.5-2.6-0.2c-3,0.7-6,1.5-9,2.3
				c-2.6,0.2-5.2,0.6-7.7,1.2c-2.5,0.6-5,1.4-7.4,2.4l0,0.1c2.5-0.7,5-1.3,7.5-1.7c1.3-0.2,2.5-0.4,3.8-0.6c1.3-0.1,2.6-0.3,3.8-0.3
				l0.1,0l0.1,0c3-0.8,6-1.6,9-2.4c0.7-0.2,1.4-0.2,2,0.1c0.6,0.3,1.1,0.8,1.4,1.4c0.3,0.6,0.4,1.4,0.2,2.1c-0.1,0.4-0.3,0.7-0.5,1
				c-0.2,0.3-0.3,0.7-0.6,1l-0.7,0.9l-0.8,0.8c-0.3,0.3-0.6,0.5-0.9,0.7c-0.3,0.2-0.6,0.5-0.9,0.7c-1.3,0.8-2.8,1.4-4.2,1.9
				c-2.9,0.9-6,1.4-9,1.7l-0.1,0l-0.1,0.1c-1.3,1.1-2.7,2.1-4.1,3c-1.4,1-2.8,1.9-4.3,2.8l0,0.1c1.6-0.7,3.1-1.5,4.6-2.4
				c1.5-0.8,2.8-1.8,4.2-2.8c3.1-0.1,6.2-0.8,9.1-2c2.9-1.2,5.8-2.7,7.7-5.3c0.3-0.3,0.5-0.7,0.6-1c0.2-0.4,0.4-0.7,0.5-1.1
				C927.4,480.3,927.4,479.4,927.1,478.6z"/>
			<path class="st38" d="M919.5,542c-8.6-7.5-17.2-14.9-25.7-22.4c0.1-0.2,0.1-0.3,0.2-0.5l-0.9-0.4c0,0.1,0,0.1-0.1,0.2
				c-1.6-1.4-3.3-2.9-4.9-4.3c-2-1.8-4.3-3-6.9-3.8C865.8,506.7,870,486,836,486c-13.7,0-30.3,2.1-44.9,5.3
				c-6.2,1.4-12,2.8-17.1,4.1c-16.8,4.3-35.4,6.8-52.1,11.8c-12.9,3.9-28.7,11.3-31.4,26c-9.1,49.1,35.6,68.8,69.4,45.9l4.2-3.8
				c5.4-4.9,10.1-10.4,14.2-16.4c11.9-17.7,37.3-45.6,40.7-41.9c33.5,35.8,39.1,15.3,33,7c-3.4-4.6,18,19.1,22.9,22.2
				c3.4,2.2,7.1,4.5,11.9,2.5c-8.1-7.7-16.1-15.2-24-22.8c0.4-0.4,0.7-0.8,1.1-1.1c1.7,1.4,3.2,3.2,5.2,4.2
				c11,5.6,20.9,12.8,30.4,20.7c2.4,2,5.5,3.1,8.8,1.7c-10.7-10.1-19.1-22.6-32.8-29.3c-2.3-1.1-4.5-2.5-5.6-5
				c17.5,6.7,28.6,21.1,41,34c0.7,0.4,1.4,0.9,2.2,1.2c1.9,1,4.3,1.6,5.5-0.1c1.4-1.9-1.3-2.8-2.5-4c-10.4-11.1-20.9-22.2-33.9-30.5
				c-0.7-0.5-2.5-0.9-1.2-2.5c0.4,0,0.7-0.1,1,0c12.8,7.9,23.5,18.3,33.6,29.4c2.2,2.5,4.6,3.4,7.6,1.8
				C922.4,544.3,920.8,543.2,919.5,542z"/>
		</g>
		<g>
			<path class="st47" d="M750.5,569.4c-0.7,0.6-1.3,1.1-2.1,1.5c-0.7,0.5-1.5,0.9-2.2,1.3c-1.5,0.8-3.1,1.4-4.6,2
				c-1.6,0.6-3.2,1.1-4.8,1.6l-2.5,0.7c-0.8,0.2-1.7,0.4-2.5,0.6c0.9,0,1.7-0.1,2.6-0.2c0.9-0.1,1.7-0.2,2.6-0.4
				c1.7-0.3,3.4-0.8,5-1.4c1.6-0.6,3.2-1.3,4.7-2.3C748,571.9,749.4,570.8,750.5,569.4z"/>
		</g>
		<path class="st48" d="M801,425c-2.9,10.6,1.9,17.7-4,27c-5.9,9.3-6.6,9.9-15,17c0,0,5.7-12.7,10-20C797.2,440.1,801,425,801,425z"
			/>
	</g>
	<g>
		<polygon class="st33" points="1371,1188.2 380.1,1188.2 78,1185 1371,1185.4 		"/>
	</g>
	<g>
		<path class="st38" d="M749.9,187c-1.6-1.1-3.7-0.9-5.6-0.5c-18,4.3-18.6,25.8-9.9,38.6c1.5,2.2,3.2,4.3,3.7,6.9c0.4,2,0,4-0.4,5.9
			c-3.2,16.4-4.4,33.6-9.5,49.5c-1.1,3.4-5.2,5.8-5.1,9.3c0.1,3.4,1.5,6.7,3,9.7c5.3,10.4,13.4,19.4,23.2,25.8
			c6.5,4.2,12.3,10.5,20,11.8C811,351,815.1,311.7,810,310c-10.1-3.4-33-8.9-39-21c-5.4-10.8-6.3-24.5-12.2-37
			c-1-2.1,2.2-3.7,3.3-1.7c0.1,0.2,6.3,24.8,13.2,35c8.6,12.5,24.4,17.7,39.3,21c9.6,2.1,19.3-2.3,27.7-7.5
			c16.6-10.2,19-42.9,22.6-59.9c3.4-15.9-0.2-24.3,4.2-39.9c1.3-4.6,6.3-18.3,0.2-21.1c-0.8-0.4-1.7-0.6-2.6-0.8L817,166.3
			c-8.2-1.8-17-3.6-24.8-0.7c-12.3,4.5-18.1,18.6-21.6,30.9c-0.4,1.5-1.2,3-2.4,4.1c-4.6,4.2-10.1-0.3-13.7-4.4"/>
		<path class="st8" d="M852.8,314.6c-0.4-0.2-0.7-0.4-1-0.6C852.6,314.7,852.7,314.7,852.8,314.6z"/>
	</g>
	<path class="st49" d="M845,125.7c1.7-0.2,3.4-0.4,5.1-0.6c-28.7-8.1-54-15.2-78,0.2c-2.1,1.3-5.2,1.5-9.2,0.3
		c-1.1,1.8-2.5,3.6-3.4,5.5c-0.7,1.4-1,2.9-1.4,4.4c-0.3,0.3-0.7,0.6-1,0.8c-3.9,0.4-7.5,0.7-12.3,1.2c1.8,1.8,3.1,3,4.7,4.6
		c-8.3,7.6-15.1,17.6-19.7,29c-11.2,27.6-4,49.7,1.9,65.8c3.7,10.1,9.7,1.9,7.3-1.1c-6.2-7.8-7.8-17.2-6.9-26.9
		c0.4-4.6,2.6-8.8,5.8-12.1c2.4,7.3,5.7,14.3,8.7,20.7c4.3-8.2,8-15.5,11.4-22.5c1.3,3.9,4.1,9.1,6.2,9.7c5,1.5,7.4,1,8.8-4.7
		c1.2-5,3.8-9.9,6.5-14.4c3.4-5.8,8.6-11.4,15.2-14.8c20.1,6,40.4,12.1,61.5,18.4c0.7-3.5,1.3-6.5,2-10.4
		c10.6,6.4,16.5,15,20.6,24.4c7.2-0.6,7-0.6,14.2-1.2c2-8.3,3.9-16.6,4.7-24.9C900.5,150.9,880.2,137.6,845,125.7z"/>
	<path class="st50" d="M843.6,121.9c1.7-0.2,3.4-0.4,5.1-0.6c-28.8-8.1-54.2-15.2-78.3,0.2c-2.1,1.3-5.2,1.5-9.2,0.3
		c-1.2,1.8-2.5,3.6-3.4,5.5c-0.7,1.4-1,2.9-1.4,4.4c-0.3,0.3-0.7,0.6-1,0.8c-3.9,0.4-7.5,0.7-12.3,1.2c1.8,1.8,3.1,3,4.7,4.6
		c-8.4,7.6-15.1,17.6-19.8,29c-11.3,27.6-4,49.7,1.9,65.8c3.7,10.1,9.7,1.9,7.3-1.1c-6.2-7.8-7.8-17.2-6.9-26.9
		c0.4-4.6,2.6-8.8,5.8-12.1c2.4,7.3,5.7,14.3,8.7,20.7c4.3-8.2,8-15.5,11.4-22.5c1.3,3.9,4.1,9.1,6.2,9.7c5,1.5,7.5,1,8.9-4.7
		c1.2-5,3.8-9.9,6.5-14.4c3.4-5.8,8.6-11.4,15.2-14.8c20.2,6,40.6,12.1,61.7,18.4c0.7-3.5,1.3-6.5,2-10.4
		c10.7,6.4,16.5,15,20.7,24.4c7.2-0.6,7.1-0.6,14.3-1.2c2-8.3,3.9-16.6,4.8-24.9C899.3,147.1,879,133.8,843.6,121.9z"/>
	<path class="st12" d="M822,257.2c2.9-1.6,6-1.1,9-1.1c6.2-0.1,6.2-0.1,5.5-6.4c-0.8-7.6-1.7-15.1-2.5-22.7c-0.1-1.1-1.1-3,0.9-3.2
		c1.6-0.1,1.1,1.7,1.2,2.7c1,9.5,2,19.1,3,28.7c0.2,1.6,0.3,3.1-2,3.1C832.2,258.2,827.1,258.7,822,257.2z"/>
	<g>
		<g>
			<g>
				<g>
					<path class="st41" d="M834.6,572.4h202.8c2.4,0,4.5-1.6,5.3-3.8l1.6-4.9l41.6-127.9c1.2-3.6-1.5-7.3-5.3-7.3H877.7
						c-2.4,0-4.5,1.6-5.3,3.9l-43.2,132.8C828.1,568.7,830.8,572.4,834.6,572.4z"/>
				</g>
			</g>
		</g>
		<g>
			<g>
				<path class="st33" d="M832,567.5c0,0-0.1,0-0.1,0c-0.2-0.1-0.3-0.3-0.3-0.5l43.2-132.8c0.8-2.5,3.1-4.1,5.7-4.1h200.8
					c0.2,0,0.4,0.2,0.4,0.4c0,0.2-0.2,0.4-0.4,0.4H880.4c-2.2,0-4.2,1.4-4.9,3.6l-43.2,132.8C832.3,567.4,832.1,567.5,832,567.5z"/>
			</g>
		</g>
	</g>
	<g class="st51">
		<path class="st52" d="M702,515c-15,12-15.1,28.1-11.1,43.8C696,579,714,589,730,589c11,0,31.3-8,24-8c-2.3,0-9.9,4.9-17,6
			c-11.4,1.8-27.6-2.4-34-12c-1.7-2.6-5.8-7.5-7-10c-4.5-9-2.4-26.9,2-36c2.3-4.8,4-8,11.5-16C711.5,510.9,704.3,513.1,702,515z"/>
	</g>
	<path class="st48" d="M804,412.5c2.9,10.6-6.9,33.3-1,42.5c5.9,9.3,2.6,4.9,11,12l-8-16L804,412.5z"/>
	<path class="st53" d="M975,507c-5.5,0-10-4.5-10-10c0-4,2.3-7.4,5.6-9c-2.2-0.9-4.7-1.3-7.5-1.3c-11.2,0-22.3,7.5-24.8,16.8
		c-2.5,9.3,4.6,16.8,15.8,16.8c9.9,0,19.7-5.9,23.6-13.7C976.8,506.9,975.9,507,975,507z"/>
	<circle class="st54" cx="511.5" cy="168" r="19"/>
	<path class="st55" d="M624.3,891.6c2-8.4,6.2-16.4,11.9-22.9"/>
	<path class="st55" d="M632.2,888.6c0.5-4.1,3-7.8,6.7-9.7"/>
	<circle class="st13" cx="259" cy="308" r="16.5"/>
	<circle class="st13" cx="1438.5" cy="324.5" r="17"/>
	<circle class="st13" cx="514" cy="1047" r="14.5"/>
	<g>
		<path class="st56" d="M626.3,758.8V807c-16,0.8-32,1.3-48,1.6c-0.9,0-1.9,0-2.7-0.5c-0.4-0.3-0.7-0.7-0.9-1.2
			c-0.3-0.6-0.4-1.3-0.5-1.9c-1.7-9.8-3.1-19.7-4.1-29.6c-0.9-9.1-1.1-13.7,9.2-15.1C595.3,757.9,610.4,759.5,626.3,758.8
			L626.3,758.8z"/>
		<path class="st57" d="M326.3,832.9c-9.1-2.9-16.4-10.9-18.5-20.3c-0.9-4-0.9-8.3-2.7-12.1c-4.3-9.2-16.1-11-25.9-13.5
			c-13.4-3.5-26.6-11.7-31.4-24.7c-2.5-6.7-1.6-13-2.3-19.7c-0.7-7-4.2-13.5-4.4-20.7c-0.2-7.1,2.3-14.8,8.2-18.8
			c5.1-3.5,11.9-3.8,17.8-1.8c5.9,2,10.9,5.9,15.3,10.3c2.8,2.8,5.4,5.8,8.8,7.9c7.3,4.5,16.2,3.7,24.3,5.4
			c9.6,1.9,13.8,7.1,18,15.6c5.8,11.7,5.9,26.8,15.8,35.3c2.4,2,5.2,3.5,7.7,5.4c7.6,5.8,12.1,15.5,11.6,25.1
			C367.2,825.8,344.5,838.8,326.3,832.9z"/>
		<path class="st57" d="M337.4,720.7c-1.5-7.5-3.2-15.4-8.2-21.2c-7.4-8.5-20.5-10.6-27.1-19.6c-5.5-7.4-5.2-17.7-9.5-25.8
			c-7.3-13.8-23.9-17.9-35.7-26.6c-16.5-12.2-17.2-30.9,5.4-36.4c10.2-2.5,21.2-1.2,30.5,3.6c6.7,3.4,12.9,8.7,20.4,9.6
			c5.6,0.6,11.3-1.3,16.9-0.3c10.1,1.8,15.9,12.4,18.7,22.2c2.8,9.8,4.1,20.7,10.9,28.3c5.4,6.1,13.5,9.2,19.6,14.6
			c8.9,7.8,13.1,19.9,13.7,31.8c1.1,19.2-2.4,44.5-25.2,48.9C349.2,753.5,340.4,735.6,337.4,720.7z"/>
		<path class="st57" d="M419.2,804.5c2.7-9,7.3-17.4,13.2-24.6c4.9-5.9,10.7-11,14.6-17.5c10.4-17.4,5.8-41.9,19.3-57
			c3.6-4.1,8.3-7.1,12.9-10c13.7-8.8,27.3-17.6,41-26.3c3.2-2,7.4-4.1,10.5-1.9c2.9,2.1,2.7,6.4,2.1,10c-2.2,13-4.7,26.8-13.7,36.5
			c-3.6,3.9-8.2,7.1-10.7,11.8c-4,7.8-1.1,17.1-0.3,25.9c1.6,18.5-8,37.6-23.9,47.2c-2.7,1.6-5.5,3-7.5,5.4c-3.2,3.8-3.5,9.3-5,14.1
			c-2.8,9.4-10.8,17-20.3,19.3C431.1,842.3,413,824.5,419.2,804.5z"/>
		<path class="st57" d="M387.8,656.2c5.1-8,13-16.7,14.7-26.1c2-11.2-0.9-23.7,1-35.3c2.2-13.5,3.9-29,16.6-36.5
			c6.7-4,14.2-6.2,20.8-10.2c6.4-3.9,11.6-9.5,17-14.6c5.5-5.1,11.4-10.1,18.6-12.3c7.1-2.3,15.7-1.4,21,3.9
			c4.1,4.1,5.6,10.6,3.8,16.1c-4.4,13.5,0.5,19.8,3.7,32.8c2,8.3,0,17.4-5.4,24.1c-5.7,7-14.9,11.8-17.2,20.5
			c-1.8,6.8,1.3,14,1.4,21c0,24.4-29.2,30.6-34.6,51.7c-0.9,3.4-1,7.1-2,10.4c-3,9.5-13.2,15.2-23.1,16.5
			c-11.8,1.6-24.4-1.8-33.3-9.7c-8.9-7.9-13.8-20.4-11.9-32.2C380.3,669,383.7,662.5,387.8,656.2z"/>
		<path class="st58" d="M385.1,995.2c0.6-26.5,1.1-53.1,1.1-79.6c0-26.1-0.4-52.2-1.5-78.3c-1.6-40.5-4.7-81.9-16.2-119.9
			c-11.5-38-31.5-72.7-66.8-99.6c-0.8-0.6-1.9-0.4-2.5,0.3c-0.6,0.8-0.4,1.9,0.3,2.5c34.6,26.4,54.2,60.3,65.5,97.8
			c11.4,37.5,14.4,78.6,16.1,119c1.1,26,1.5,52.1,1.5,78.1c0,26.5-0.4,53-1.1,79.6c0,1,0.8,1.8,1.7,1.8
			C384.3,997,385.1,996.2,385.1,995.2L385.1,995.2z"/>
		<path class="st58" d="M401.4,1008.1c-1.6-20.5-2.1-41.1-2.1-61.8c0-32,1.4-64,2.4-96c1.3-38.2,2.2-76.5,7.8-114.2
			c6.3-42.6,18.6-84.3,36.4-123.5c0.4-0.9,0-2-0.9-2.4c-0.9-0.4-2,0-2.4,0.9c-18,39.5-30.4,81.5-36.7,124.5
			c-5.6,38-6.5,76.4-7.8,114.6c-1.1,32-2.5,64.1-2.5,96.2c0,20.7,0.6,41.4,2.2,62c0.1,1,1,1.8,2,1.7
			C400.7,1010,401.4,1009.1,401.4,1008.1L401.4,1008.1z"/>
		<path class="st58" d="M387.4,991.6c7.2-27.9,14.6-55.7,22.1-83.5c14.9-55,31.3-111.5,67.5-154.9c0.6-0.8,0.5-1.9-0.2-2.6
			c-0.8-0.6-1.9-0.5-2.6,0.2c-36.9,44.2-53.3,101.2-68.2,156.2c-7.5,27.8-14.9,55.6-22.1,83.5c-0.3,1,0.3,2,1.3,2.2
			C386.1,993.2,387.1,992.6,387.4,991.6L387.4,991.6z"/>
		<path class="st58" d="M381.7,983.3c-1.4-39.5-6.8-78.8-16-117.3c-5.9-24.5-12.5-49.3-24.1-72.1c-10.2-20-29.6-42.1-50.2-55.4
			c-0.8-0.5-1.9-0.3-2.5,0.5c-0.5,0.8-0.3,1.9,0.5,2.5c19.9,12.8,39.1,34.7,48.9,54.1c11.4,22.3,17.9,46.8,23.8,71.3
			c9.2,38.2,14.5,77.3,15.9,116.6c0,1,0.9,1.7,1.8,1.7C381,985.1,381.8,984.3,381.7,983.3L381.7,983.3z"/>
		<path class="st43" d="M483.3,908.7c0,5.1-0.1,10.4-0.3,15.8c0,1.2-0.1,2.4-0.1,3.7c-0.1,1.6-0.1,3.3-0.2,5c0,0.6-0.1,1.1-0.1,1.7
			c-0.1,1.5-0.1,3.1-0.2,4.6c-0.2,2.7-0.3,5.5-0.5,8.2c-1.2,17.3-2.8,34.6-4.7,51.8c-4.8,45.2-9.5,118.8-15.8,163.8
			c-1.1,7.5-2.3,15.3-6.8,21.3c-7.3,9.8-24.5,7.2-35.4,8.2c-16.7,1.5-33.5,1.6-50.3,1.2c-16.7-0.3-48.8,4.4-51.9-18.2
			c-9-66.3-20.6-158.2-26.4-227.7c-0.4-4.4-0.7-8.6-1-12.8v0c-0.2-2.4-0.3-4.8-0.5-7.2l-0.1-1.1c-0.1-1.2-0.1-2.4-0.2-3.7
			c-0.2-3.5-0.4-7-0.6-10.5c-0.1-1.1-0.1-2.2,0.4-3.1c0.8-1.5,2.8-1.7,4.4-1.7C309,907.3,459.7,907.8,483.3,908.7z"/>
		<path class="st59" d="M482.9,924.5c0,1.2-0.1,2.4-0.1,3.7c-2.4,0-4.8,0-7.2,0c-52.4,0-122.7-0.7-163.8-1.1
			c-9.5-0.1-17.4-0.2-22.9-0.2c-0.1-1.2-0.1-2.4-0.2-3.7c5.6,0.1,13.6,0.1,23.2,0.2C354.9,923.8,430,924.5,482.9,924.5z"/>
		<path class="st59" d="M482.5,934.8c-0.1,1.5-0.1,3.1-0.2,4.6c-0.2,2.7-0.3,5.5-0.5,8.2c-33.6,0-67.6,0.1-100.7,0.2
			c-30.2,0.1-60.5,0.2-90.6,0.2c-0.4-4.4-0.7-8.6-1-12.8c30.5,0,61.1-0.1,91.6-0.2C414.4,934.9,448.7,934.8,482.5,934.8z"/>
	</g>
	<circle class="st13" cx="610" cy="45" r="14.5"/>
	<g>
		<g>
			<path d="M876.9,94.5c-1.7-19.1,4.6-38.6,17.5-52.9c-1.7-0.7-3.4-1.4-5.1-2.1c-0.6,24.5,8,48.8,23.7,67.6c1.4,1.7,4.6,0.8,5-1.3
				c3.6-17,12.4-32.5,25.1-44.2c-1.7-1-3.3-1.9-5-2.9c-3,9.9,5.7,17.5,14.5,19.7c4.6,1.2,9.8,1.3,14.4-0.3c5.8-2,10.8-5.7,15.7-9.3
				c5.4-4.1,10.9-8.4,17.3-10.7c-1-1.7-1.9-3.3-2.9-5c-6.7,7.7-3,18.6,4.2,24.5c3.8,3.1,8.5,5.1,13.5,5c5.9-0.2,11.6-2.4,16.4-5.7
				c5.6-3.8,10.4-8.8,14.7-14c-1.6-0.2-3.1-0.4-4.7-0.6c7.3,10.5,15.8,21.1,26.9,27.8c5.2,3.1,11.1,5.3,17.2,5.4
				c6.4,0.2,12.5-2.1,17.9-5.6c5.8-3.7,11-8.4,17.6-10.8c6.7-2.4,13.8-3,20.8-3.1c7.7-0.1,15.4,0.4,23,0.7c8.2,0.3,16.4,0.7,24.6,1
				c18.5,0.7,37,1.5,55.5,2.2c3.9,0.2,3.9-5.8,0-6c-31.9-1.3-63.9-2.8-95.8-3.8c-14-0.5-28.2,0.4-40.2,8.5
				c-5.4,3.6-10.5,8.2-16.8,10c-5.3,1.5-10.8,0.9-15.9-1.2c-6.2-2.6-11.6-7-16.3-11.7c-5-5-9.4-10.7-13.5-16.5
				c-1-1.4-3.4-2.2-4.7-0.6c-6,7.3-13.3,15.1-22.8,17.4c-3.9,0.9-7.8,0.7-11.3-1.3c-3.1-1.8-5.7-4.5-7.1-7.7
				c-1.4-3.2-1.5-6.9,0.9-9.6c1.8-2.1,0.1-6.1-2.9-5c-10.6,3.7-18.3,12-27.8,17.5c-4,2.3-7.9,3.8-12.6,3.5
				c-3.7-0.2-7.6-1.5-10.6-3.7c-3.1-2.3-4.6-5.5-3.5-9.2c0.9-3-2.9-4.9-5-2.9c-13.4,12.4-22.9,29-26.7,46.9c1.7-0.4,3.3-0.9,5-1.3
				c-14.7-17.6-22.5-40.5-21.9-63.4c0.1-2.5-3.4-4.1-5.1-2.1c-13.9,15.4-21.1,36.4-19.3,57.1c0.1,1.6,1.3,3,3,3
				C875.4,97.5,877,96.2,876.9,94.5L876.9,94.5z"/>
		</g>
	</g>
	<circle class="st13" cx="237.6" cy="845.2" r="17"/>
	<path class="st60" d="M833.7,587.6c7.8,0.4,15.6,0.9,23.4,1.3c-8.4,0.5-16.6,3.3-23.5,8c7.6-0.4,15.3,0.6,22.5,3
		c-10,4.6-19.9,9.2-29.9,13.7c4.4,0.3,8.7,0.5,13.1,0.8c-3.3,2.9-7.1,5.1-11.2,6.5"/>
	<path class="st61" d="M337.4,1109.8c19.6,0.5,39.2,1,58.8,1.6c-15.4-17.4-36.2-29.9-58.7-35.5c11.8-11.1,27.2-18.4,43.3-20.5
		c-9-1.2-18.1-2.4-27.1-3.5"/>
	<path class="st61" d="M441.3,990.3c-0.8,4-0.3,8.1,1.2,11.9c-3.6-2.5-7.8-4.3-12.1-5.2c5.7,0.8,10.1,7,9,12.6
		c4.2,4.1,12.2,2.8,15-2.4s-0.7-12.5-6.4-13.7"/>
</g>
</svg>
