<?xml version="1.0" encoding="utf-8"?>
<!-- Generator: Adobe Illustrator 26.4.0, SVG Export Plug-In . SVG Version: 6.00 Build 0)  -->
<svg version="1.1" id="Layer_1" xmlns="http://www.w3.org/2000/svg" xmlns:xlink="http://www.w3.org/1999/xlink" x="0px" y="0px"
	 viewBox="0 0 1585 1229" style="enable-background:new 0 0 1585 1229;" xml:space="preserve">
<style type="text/css">
	.st0{opacity:0.46;fill:#A52A04;}
	.st1{opacity:0.2;fill:#FF4500;}
	.st2{fill:none;stroke:#FF4500;stroke-width:2;stroke-miterlimit:10;}
	.st3{fill:#6D6D6D;stroke:#301D03;stroke-width:0.75;stroke-miterlimit:10;}
	.st4{fill:#4C4B48;}
	.st5{fill:#D3D2D1;stroke:#221F20;stroke-width:1.0006;stroke-linecap:round;stroke-linejoin:round;}
	.st6{fill:#EDE2DE;}
	.st7{clip-path:url(#SVGID_00000021799567722104965850000017015640230238776966_);}
	.st8{clip-path:url(#SVGID_00000161590124304950664600000001199684364951999164_);}
	.st9{fill:#4B9FAE;}
	.st10{fill:#265A63;}
	.st11{fill:#A5823D;}
	.st12{fill:#808080;}
	.st13{fill:#4D4E4E;}
	.st14{fill:#CCCBCB;}
	.st15{fill:#989898;}
	.st16{fill:#C8C7B1;}
	.st17{fill:#B2B3A0;}
	.st18{fill:#676767;}
	
		.st19{clip-path:url(#SVGID_00000021799567722104965850000017015640230238776966_);fill:#454948;stroke:#221F20;stroke-width:0.25;stroke-miterlimit:10;}
	.st20{fill:#CF5847;}
	.st21{fill:#FFFFFF;}
	.st22{fill:#222020;}
	.st23{opacity:0.5;fill:#312119;}
	.st24{opacity:0.23;fill:#EDE2DE;}
	.st25{fill:#1B1A2E;}
	.st26{fill:#22223A;}
	.st27{fill:#016F46;}
	.st28{fill:#1F4168;}
	.st29{opacity:0.4;}
	.st30{fill:#FFC89F;}
	.st31{clip-path:url(#SVGID_00000047035558115674667270000012417671710287868568_);fill:#2A7959;}
	.st32{fill:#A65B3C;}
	.st33{fill:#C9AA99;}
	.st34{fill:#F4741E;}
	.st35{fill:#F0F2F5;}
	.st36{opacity:0.28;}
	.st37{fill:#095137;}
	.st38{fill:#FF9A6C;}
	.st39{fill:#FAE8D8;}
	.st40{opacity:0.61;fill:#095137;}
	.st41{fill:#A07F4E;}
	.st42{fill:#D6B887;}
	.st43{opacity:0.62;}
	.st44{fill:#7F6553;}
	.st45{fill:#CEDDDD;stroke:#1B1A2E;stroke-miterlimit:10;}
	.st46{fill:#2C2C4C;}
	.st47{fill:none;stroke:#221F20;stroke-width:1.0006;stroke-linecap:round;stroke-linejoin:round;}
	.st48{fill:#F4D4C0;stroke:#221F20;stroke-width:0.25;stroke-miterlimit:10;}
	.st49{fill:#78BBB5;stroke:#221F20;stroke-width:0.25;stroke-miterlimit:10;}
	.st50{fill:#59A9AB;stroke:#221F20;stroke-width:0.25;stroke-miterlimit:10;}
	.st51{fill:#FFFFFF;stroke:#221F20;stroke-width:0.25;stroke-miterlimit:10;}
	.st52{fill:none;stroke:#221F20;stroke-width:0.5;stroke-miterlimit:10;}
	.st53{fill:none;stroke:#221F20;stroke-miterlimit:10;}
	.st54{clip-path:url(#SVGID_00000134241582786942548930000002721144667824209035_);}
	.st55{clip-path:url(#SVGID_00000164507217863484263420000010040473877816271522_);}
	
		.st56{clip-path:url(#SVGID_00000134241582786942548930000002721144667824209035_);fill:#454948;stroke:#221F20;stroke-width:0.25;stroke-miterlimit:10;}
	.st57{clip-path:url(#SVGID_00000171697782381155658010000013310196779773331597_);fill:#2A7959;}
	.st58{fill:#FF4500;}
	.st59{fill:#F0FFFF;}
	.st60{clip-path:url(#SVGID_00000080916885713390959140000015737121668680606341_);}
	.st61{clip-path:url(#SVGID_00000080904992067880017010000006295394314024250501_);}
	.st62{clip-path:url(#SVGID_00000080916885713390959140000015737121668680606341_);fill:#FF4500;}
	.st63{fill:#F0FFFF;stroke:#FF4500;stroke-width:0.5;stroke-miterlimit:10;}
	.st64{opacity:0.23;fill:#FF4500;}
	.st65{fill:#F49D82;}
	.st66{clip-path:url(#SVGID_00000107576699751986214730000008092421686131545529_);fill:#EF683F;}
	.st67{fill:#FFFFFF;stroke:#FF4500;stroke-miterlimit:10;}
	.st68{opacity:0.16;}
	.st69{fill:none;stroke:#F0FFFF;stroke-miterlimit:10;}
	.st70{fill:#F0FFFF;stroke:#FF4500;stroke-miterlimit:10;}
	.st71{fill:none;stroke:#FF4500;stroke-miterlimit:10;}
	.st72{opacity:0.61;fill:#FF4500;}
	.st73{fill:#F49D82;stroke:#FF4500;stroke-width:2;stroke-miterlimit:10;}
	.st74{fill:#F0FFFF;stroke:#FF4500;stroke-width:2;stroke-miterlimit:10;}
	.st75{clip-path:url(#SVGID_00000059999364074743892860000013877613011669104061_);}
	.st76{clip-path:url(#SVGID_00000119114825149432799840000002172815031684534409_);}
	.st77{clip-path:url(#SVGID_00000059999364074743892860000013877613011669104061_);fill:#FF4500;}
	.st78{fill:#FF4501;}
	.st79{fill:#FF4500;stroke:#F0FFFF;stroke-width:2;stroke-miterlimit:10;}
	.st80{opacity:0.8;}
	.st81{fill:#A52A04;}
	.st82{opacity:0.2;fill:#A52A04;}
	.st83{display:none;opacity:0.25;}
	.st84{fill:#F43E06;}
	.st85{fill:none;stroke:#000000;stroke-width:0.25;stroke-miterlimit:10;}
	.st86{fill:#EF683F;}
	.st87{opacity:0.2;fill:url(#SVGID_00000088816653301753154650000001189475604969444993_);}
	.st88{opacity:0.62;fill:#FF4500;}
	.st89{fill:#FCFAFA;}
	.st90{display:none;}
	.st91{display:inline;}
	.st92{fill:#FF4500;stroke:#F0FFFF;stroke-miterlimit:10;}
	.st93{display:inline;fill:#F0FFFF;stroke:#FF4500;stroke-width:2;stroke-miterlimit:10;}
	.st94{opacity:0.15;}
	.st95{opacity:0.5;}
	.st96{opacity:0.44;}
	.st97{opacity:0.14;}
	.st98{fill:#2D3F4D;}
	.st99{fill:#4C5C6B;}
	.st100{fill:#3D4D5C;}
	.st101{fill:#334755;}
	.st102{fill:#F49D82;stroke:#FF4500;stroke-miterlimit:10;}
	.st103{opacity:0.52;}
	.st104{opacity:0.41;}
</style>
<g>
	<g>
		<defs>
			<rect id="SVGID_00000034077585135825992710000005961906145905959065_" x="-756.8" y="134.5" width="424.1" height="451.7"/>
		</defs>
		<use xlink:href="#SVGID_00000034077585135825992710000005961906145905959065_"  style="overflow:visible;fill:#B8D9F2;"/>
		<clipPath id="SVGID_00000083080144719167476220000000630129703111439270_">
			<use xlink:href="#SVGID_00000034077585135825992710000005961906145905959065_"  style="overflow:visible;"/>
		</clipPath>
		<g style="clip-path:url(#SVGID_00000083080144719167476220000000630129703111439270_);">
			<defs>
				<path id="SVGID_00000049924138060479889370000014962048191306564267_" d="M-70,606.8V50.9h-851.9v555.9h273.8
					C-618.4,562.4-70,606.8-70,606.8z"/>
			</defs>
			<clipPath id="SVGID_00000054981060634260615660000003050544722953931923_">
				<use xlink:href="#SVGID_00000049924138060479889370000014962048191306564267_"  style="overflow:visible;"/>
			</clipPath>
			<g style="clip-path:url(#SVGID_00000054981060634260615660000003050544722953931923_);">
				<g>
					<g>
						<rect x="20.4" y="396.1" class="st9" width="2.1" height="34.7"/>
						<rect x="46.7" y="384.6" class="st9" width="2.1" height="46.8"/>
						<rect x="74.2" y="368.9" class="st9" width="2.1" height="63.1"/>
						<rect x="97.8" y="350.2" class="st9" width="2.1" height="81.8"/>
					</g>
					<g>
						<polygon class="st9" points="48.4,408.3 47.5,409.8 19.3,396.3 20.2,394.8 						"/>
						<polygon class="st9" points="21.5,418 19.9,417 48.4,382.9 50,383.9 						"/>
						<polygon class="st9" points="75.5,393.2 74.8,394.8 46.5,385.1 47.2,383.5 						"/>
						<polygon class="st9" points="48.3,409.1 46.6,408.2 74.5,368 76.2,368.9 						"/>
						<polygon class="st9" points="20.7,417.3 19.8,418.8 -7.6,406 -6.6,404.4 						"/>
						<polygon class="st9" points="-6,421.5 -7.4,420.3 21.1,395.6 22.5,396.8 						"/>
						<polygon class="st9" points="75.3,394.4 73.6,393.6 98.1,349.4 99.9,350.1 						"/>
						<polygon class="st9" points="98.9,372.9 98.4,374.6 74.8,369 75.3,367.4 						"/>
						<polygon class="st9" points="118.6,343.6 119.2,345.3 98.3,351.4 97.7,349.7 						"/>
						<polygon class="st9" points="99.8,372.7 98,372 116.9,332.4 118.7,333.1 						"/>
					</g>
					<polygon class="st9" points="324.2,424.5 319.7,429.4 193.8,338.6 198.3,333.7 					"/>
					<path class="st9" d="M127.3,323.5c-46.5,54.8-114.4,87-191.9,91c-0.4-0.7-0.9-1.4-1.3-2.2c77.5-4.1,145.4-36.2,191.9-91
						C126.4,322,126.9,322.7,127.3,323.5z"/>
					<path class="st9" d="M127.2,324.1c-24.1,76.2-106.4,115.2-191.9,91c-0.4-0.7-0.8-1.3-1.2-2c85.5,24.2,167.7-14.8,191.9-91
						C126.4,322.8,126.8,323.5,127.2,324.1z"/>
					<rect x="-333.2" y="424" class="st9" width="663.5" height="10.8"/>
					<g>
						<rect x="117.2" y="332" class="st9" width="86.8" height="80.1"/>
						<rect x="113.5" y="405.5" class="st9" width="94.2" height="112.1"/>
						<rect x="117.2" y="302" class="st9" width="86.8" height="27"/>
						<rect x="113.5" y="328.4" class="st9" width="94.2" height="6.9"/>
						<polygon class="st9" points="187.1,302.6 134.4,302.8 160.3,222.3 						"/>
						<g>
							<rect x="158.9" y="207.4" class="st9" width="3.3" height="18.9"/>
							<rect x="154.7" y="212.6" class="st9" width="11.7" height="2.7"/>
							<path class="st9" d="M164.3,227.7c0,0.8-0.8,1.4-1.7,1.4h-4.2c-0.9,0-1.7-0.6-1.7-1.4V227c0-0.8,0.8-1.4,1.7-1.4h4.2
								c0.9,0,1.7,0.6,1.7,1.4V227.7z"/>
						</g>
						<rect x="117.2" y="290.1" class="st9" width="8" height="17"/>
						<rect x="132.6" y="290.1" class="st9" width="8" height="17"/>
						<rect x="148.7" y="290.1" class="st9" width="8" height="17"/>
						<rect x="164.8" y="290.1" class="st9" width="8" height="17"/>
						<rect x="180.9" y="290.1" class="st9" width="8" height="17"/>
						<rect x="195.9" y="290.1" class="st9" width="8" height="17"/>
						<rect x="117.2" y="307.1" class="st9" width="86.8" height="3.7"/>
						<rect x="136.6" y="290.3" class="st9" width="4.5" height="115.2"/>
						<rect x="180.7" y="290.3" class="st9" width="4.4" height="115.2"/>
						<rect x="156.7" y="341.8" class="st9" width="8" height="15"/>
						<rect x="158.6" y="345.1" class="st9" width="4.2" height="9"/>
						<rect x="168.8" y="371.7" class="st9" width="8" height="15"/>
						<rect x="170.7" y="375" class="st9" width="4.2" height="9"/>
						<g>
							<rect x="159.4" y="312.7" class="st9" width="2.2" height="12.9"/>
							<rect x="156.5" y="316.2" class="st9" width="8" height="1.9"/>
						</g>
						<g>
							<rect x="146" y="312.7" class="st9" width="1.3" height="12.9"/>
							<rect x="144.3" y="316.2" class="st9" width="4.7" height="1.9"/>
						</g>
						<g>
							<rect x="174.2" y="312.7" class="st9" width="1.3" height="12.9"/>
							<rect x="172.5" y="316.2" class="st9" width="4.7" height="1.9"/>
						</g>
					</g>
					<rect x="201.7" y="429.6" class="st9" width="128.6" height="88.1"/>
					<path class="st9" d="M304.3,473.6c0-14.3-15.1-25.8-33.8-25.8c-18.6,0-33.8,11.6-33.8,25.8v43.6h67.5V473.6z"/>
				</g>
			</g>
		</g>
	</g>
</g>
<g>
	<path class="st58" d="M803.5,291.8c0,25.7,0.8,52.5-21,52.5s-58-26.8-58-52.5c0-25.7,17.7-46.5,39.5-46.5S803.5,266.1,803.5,291.8z
		"/>
	<rect x="820" y="504.8" class="st58" width="437" height="101"/>
	<rect x="810.7" y="19.5" class="st58" width="473.5" height="631.5"/>
	<rect x="815.4" y="26.9" class="st59" width="458.8" height="610.1"/>
	<g>
		<defs>
			<rect id="SVGID_00000052069681306453988160000015382076402675082907_" x="835.4" y="154.5" width="424.1" height="451.7"/>
		</defs>
		<use xlink:href="#SVGID_00000052069681306453988160000015382076402675082907_"  style="overflow:visible;fill:#FF4500;"/>
		<clipPath id="SVGID_00000007408669496408025020000013430866774036006561_">
			<use xlink:href="#SVGID_00000052069681306453988160000015382076402675082907_"  style="overflow:visible;"/>
		</clipPath>
		<g style="clip-path:url(#SVGID_00000007408669496408025020000013430866774036006561_);">
			<defs>
				<path id="SVGID_00000115494762962085250700000008480688955367013815_" d="M1522.2,626.9V70.9H670.3v555.9h273.8
					C973.7,582.4,1522.2,626.9,1522.2,626.9z"/>
			</defs>
			<use xlink:href="#SVGID_00000115494762962085250700000008480688955367013815_"  style="overflow:visible;fill:#FF4500;"/>
			<clipPath id="SVGID_00000103226537779041089000000012815475661456166076_">
				<use xlink:href="#SVGID_00000115494762962085250700000008480688955367013815_"  style="overflow:visible;"/>
			</clipPath>
			<g style="clip-path:url(#SVGID_00000103226537779041089000000012815475661456166076_);">
				<g>
					<path class="st58" d="M765.7,470.2c-0.6,0.8-1.2,1.6-1.8,2.5c-9.4-6.1-18.8-12.1-28.3-17.9c0.6-0.8,1.2-1.7,1.8-2.5
						C746.8,458.1,756.3,464.1,765.7,470.2z"/>
					<path class="st58" d="M786.5,459.7c-0.6,0.8-1.2,1.6-1.8,2.4c-9.4-6.3-18.9-12.5-28.3-18.5c0.6-0.8,1.2-1.7,1.8-2.5
						C767.6,447.1,777,453.3,786.5,459.7z"/>
					<path class="st58" d="M805.3,448.3c-0.6,0.8-1.2,1.6-1.8,2.4c-8.1-5.6-16.2-11.1-24.3-16.5c0.6-0.8,1.2-1.6,1.8-2.4
						C789.1,437.1,797.2,442.6,805.3,448.3z"/>
					<path class="st58" d="M826.7,439.5c-0.6,0.8-1.2,1.6-1.8,2.4c-7.7-5.5-15.5-10.9-23.2-16.2c0.6-0.8,1.2-1.6,1.8-2.4
						C811.3,428.5,819,434,826.7,439.5z"/>
					<path class="st58" d="M844.4,429.8c-0.6,0.8-1.2,1.6-1.8,2.3c-6.4-4.7-12.9-9.3-19.3-13.9c0.6-0.8,1.2-1.6,1.8-2.4
						C831.5,420.5,838,425.1,844.4,429.8z"/>
					<path class="st58" d="M861.7,420.5c-0.6,0.8-1.2,1.5-1.8,2.3c-4.9-3.7-9.9-7.4-14.8-11c0.6-0.8,1.2-1.6,1.8-2.3
						C851.8,413.1,856.7,416.8,861.7,420.5z"/>
					<path class="st58" d="M878.3,413.8c-0.6,0.8-1.2,1.5-1.8,2.3c-4.7-3.6-9.4-7.2-14.1-10.7c0.6-0.8,1.2-1.5,1.8-2.3
						C868.9,406.6,873.6,410.2,878.3,413.8z"/>
					<path class="st58" d="M762.6,473.1c1-0.2,2-0.4,2.9-0.6c-1.6-11.3-3.3-22.5-4.9-33.8c-1,0.2-2,0.4-2.9,0.6
						C759.3,450.6,760.9,461.8,762.6,473.1z"/>
					<path class="st58" d="M784.8,462.2c0.9-0.1,1.7-0.3,2.6-0.4c-1.7-10.3-3.4-20.6-5.1-30.9c-0.9,0.1-1.7,0.3-2.6,0.5
						C781.4,441.6,783.1,451.9,784.8,462.2z"/>
					<path class="st58" d="M803.7,449.4c1-0.3,1.9-0.5,2.9-0.8c0.1-7.9,0.2-15.9,0.3-23.8c-1,0.3-1.9,0.5-2.9,0.8
						C804,433.5,803.8,441.5,803.7,449.4z"/>
					<path class="st58" d="M821.6,438.9c1.1-0.3,2.2-0.7,3.3-1c1-7.6,1.9-15.2,2.9-22.7c-1.1,0.3-2.2,0.7-3.3,1
						C823.5,423.7,822.6,431.3,821.6,438.9z"/>
					<path class="st58" d="M840,429.2c1.2-0.4,2.4-0.8,3.6-1.2c2-6.6,3.9-13.1,5.9-19.6c-1.2,0.4-2.4,0.8-3.6,1.2
						C843.9,416.1,842,422.6,840,429.2z"/>
					<path class="st58" d="M857.9,420.8c1.2-0.4,2.3-0.8,3.5-1.2c2.4-5.4,4.8-10.7,7.2-16.1c-1.2,0.4-2.3,0.8-3.5,1.2
						C862.7,410.1,860.3,415.4,857.9,420.8z"/>
					<path class="st58" d="M876.3,415.2c1.1-0.4,2.2-0.7,3.4-1.1c2.5-4.8,5-9.6,7.5-14.4c-1.1,0.4-2.2,0.7-3.4,1.1
						C881.3,405.6,878.8,410.4,876.3,415.2z"/>
					<path class="st58" d="M935.9,392.8c-66.8,13.8-134.2,34.7-201,62.7c-0.9-2.7-1.8-5.4-2.7-8c66.8-28.2,134.2-49.3,201-63.3
						C934.1,387.1,935,390,935.9,392.8z"/>
					<path class="st58" d="M935.7,392.6c-62.2,25-125,56.2-187.3,93.7c-1-1.8-2-3.5-2.9-5.3c62.3-37.6,125.1-69,187.3-94.3
						C933.7,388.7,934.7,390.7,935.7,392.6z"/>
				</g>
				<g>
					<g>
						
							<rect x="745.8" y="254" transform="matrix(0.7069 -0.7073 0.7073 0.7069 30.9105 606.9583)" class="st58" width="4.1" height="24.4"/>
						
							<rect x="735.6" y="264.2" transform="matrix(0.7073 -0.7069 0.7069 0.7073 30.6983 606.5116)" class="st58" width="24.4" height="4.1"/>
					</g>
					<g>
						
							<rect x="765.8" y="254" transform="matrix(0.707 -0.7072 0.7072 0.707 36.7251 621.0167)" class="st58" width="4.1" height="24.4"/>
						
							<rect x="755.7" y="264.1" transform="matrix(0.7072 -0.707 0.707 0.7072 36.6567 620.8757)" class="st58" width="24.4" height="4.1"/>
					</g>
					<g>
						
							<rect x="785.9" y="254" transform="matrix(0.7069 -0.7073 0.7073 0.7069 42.6924 635.3896)" class="st58" width="4.1" height="24.4"/>
						
							<rect x="775.8" y="264.2" transform="matrix(0.7073 -0.7069 0.7069 0.7073 42.463 634.9261)" class="st58" width="24.4" height="4.1"/>
					</g>
					<g>
						
							<rect x="806" y="254" transform="matrix(0.7069 -0.7073 0.7073 0.7069 48.5833 649.605)" class="st58" width="4.1" height="24.4"/>
						
							<rect x="795.9" y="264.2" transform="matrix(0.7073 -0.7069 0.7069 0.7073 48.3451 649.1328)" class="st58" width="24.4" height="4.1"/>
					</g>
					<g>
						
							<rect x="826.1" y="254" transform="matrix(0.707 -0.7072 0.7072 0.707 54.3893 663.6553)" class="st58" width="4.1" height="24.4"/>
						
							<rect x="816" y="264.1" transform="matrix(0.7072 -0.707 0.707 0.7072 54.3126 663.506)" class="st58" width="24.4" height="4.1"/>
					</g>
					<g>
						
							<rect x="846.2" y="254" transform="matrix(0.7069 -0.7073 0.7073 0.7069 60.365 678.0359)" class="st58" width="4.1" height="24.4"/>
						
							<rect x="836.1" y="264.2" transform="matrix(0.7073 -0.7069 0.7069 0.7073 60.1098 677.5474)" class="st58" width="24.4" height="4.1"/>
					</g>
					<g>
						
							<rect x="866.3" y="254" transform="matrix(0.707 -0.7073 0.7073 0.707 66.2111 692.1672)" class="st58" width="4.1" height="24.4"/>
						
							<rect x="856.2" y="264.2" transform="matrix(0.7072 -0.707 0.707 0.7072 66.037 691.8391)" class="st58" width="24.4" height="4.1"/>
					</g>
					<g>
						
							<rect x="886.4" y="254" transform="matrix(0.7067 -0.7075 0.7075 0.7067 72.2329 706.6267)" class="st58" width="4.1" height="24.4"/>
						
							<rect x="876.3" y="264.2" transform="matrix(0.7073 -0.7069 0.7069 0.7073 71.8743 705.9615)" class="st58" width="24.4" height="4.1"/>
					</g>
				</g>
				<g>
					<g>
						
							<rect x="906.5" y="254" transform="matrix(0.7068 -0.7074 0.7074 0.7068 78.0776 720.7554)" class="st58" width="4.1" height="24.4"/>
						
							<rect x="896.4" y="264.2" transform="matrix(0.7074 -0.7068 0.7068 0.7074 77.6978 720.0608)" class="st58" width="24.4" height="4.1"/>
					</g>
					<g>
						
							<rect x="926.6" y="254" transform="matrix(0.707 -0.7072 0.7072 0.707 83.8194 734.7012)" class="st58" width="4.1" height="24.4"/>
						
							<rect x="916.5" y="264.1" transform="matrix(0.7071 -0.7071 0.7071 0.7071 83.7792 734.6287)" class="st58" width="24.4" height="4.1"/>
					</g>
					<g>
						
							<rect x="946.7" y="254" transform="matrix(0.7068 -0.7074 0.7074 0.7068 89.8633 749.1915)" class="st58" width="4.1" height="24.4"/>
						
							<rect x="936.6" y="264.2" transform="matrix(0.7076 -0.7067 0.7067 0.7076 89.3552 748.2869)" class="st58" width="24.4" height="4.1"/>
					</g>
					<g>
						
							<rect x="966.8" y="254" transform="matrix(0.7073 -0.707 0.707 0.7073 95.4459 762.8644)" class="st58" width="4.1" height="24.4"/>
						
							<rect x="956.7" y="264.1" transform="matrix(0.7071 -0.7071 0.7071 0.7071 95.5523 763.0515)" class="st58" width="24.4" height="4.1"/>
					</g>
					<g>
						
							<rect x="986.9" y="254" transform="matrix(0.7068 -0.7074 0.7074 0.7068 101.647 777.6241)" class="st58" width="4.1" height="24.4"/>
						
							<rect x="976.8" y="264.2" transform="matrix(0.7077 -0.7065 0.7065 0.7077 101.0127 776.522)" class="st58" width="24.4" height="4.1"/>
					</g>
					<g>
						
							<rect x="1007" y="254" transform="matrix(0.7073 -0.707 0.707 0.7073 107.2126 791.2805)" class="st58" width="4.1" height="24.4"/>
						
							<rect x="996.9" y="264.1" transform="matrix(0.7071 -0.7071 0.7071 0.7071 107.3252 791.4737)" class="st58" width="24.4" height="4.1"/>
					</g>
					<g>
						
							<rect x="1027.1" y="254" transform="matrix(0.7067 -0.7075 0.7075 0.7067 113.5477 806.2552)" class="st58" width="4.1" height="24.4"/>
						
							<rect x="1017" y="264.2" transform="matrix(0.7073 -0.707 0.707 0.7073 113.0963 805.4893)" class="st58" width="24.4" height="4.1"/>
					</g>
					<g>
						
							<rect x="1047.2" y="254" transform="matrix(0.707 -0.7073 0.7073 0.707 119.2171 820.0962)" class="st58" width="4.1" height="24.4"/>
						
							<rect x="1037.1" y="264.1" transform="matrix(0.7071 -0.7071 0.7071 0.7071 119.0984 819.8968)" class="st58" width="24.4" height="4.1"/>
					</g>
					<g>
						
							<rect x="1067.3" y="254" transform="matrix(0.707 -0.7073 0.7073 0.707 125.1067 834.3105)" class="st58" width="4.1" height="24.4"/>
						
							<rect x="1057.2" y="264.2" transform="matrix(0.7074 -0.7068 0.7068 0.7074 124.7415 833.7031)" class="st58" width="24.4" height="4.1"/>
					</g>
					<g>
						
							<rect x="1087.4" y="254" transform="matrix(0.7073 -0.707 0.707 0.7073 130.7468 848.1143)" class="st58" width="4.1" height="24.4"/>
						
							<rect x="1077.3" y="264.1" transform="matrix(0.7073 -0.707 0.707 0.7073 130.7468 848.1142)" class="st58" width="24.4" height="4.1"/>
					</g>
					<g>
						
							<rect x="1107.5" y="254" transform="matrix(0.7067 -0.7076 0.7076 0.7067 137.142 863.1568)" class="st58" width="4.1" height="24.4"/>
						
							<rect x="1097.4" y="264.2" transform="matrix(0.7075 -0.7067 0.7067 0.7075 136.3874 861.9259)" class="st58" width="24.4" height="4.1"/>
					</g>
					<g>
						
							<rect x="1127.6" y="254" transform="matrix(0.707 -0.7073 0.7073 0.707 142.7755 876.9539)" class="st58" width="4.1" height="24.4"/>
						
							<rect x="1117.5" y="264.1" transform="matrix(0.707 -0.7073 0.7073 0.707 142.7754 876.9538)" class="st58" width="24.4" height="4.1"/>
					</g>
					<g>
						
							<rect x="1147.7" y="254" transform="matrix(0.7067 -0.7076 0.7076 0.7067 148.9332 891.5975)" class="st58" width="4.1" height="24.4"/>
						
							<rect x="1137.6" y="264.2" transform="matrix(0.7074 -0.7068 0.7068 0.7074 148.2766 890.5455)" class="st58" width="24.4" height="4.1"/>
					</g>
					<g>
						
							<rect x="1167.8" y="254" transform="matrix(0.707 -0.7073 0.7073 0.707 154.5546 905.3824)" class="st58" width="4.1" height="24.4"/>
						
							<rect x="1157.7" y="264.1" transform="matrix(0.7071 -0.7071 0.7071 0.7071 154.4175 905.1648)" class="st58" width="24.4" height="4.1"/>
					</g>
				</g>
				<rect x="731.3" y="273.8" class="st58" width="449.5" height="5.4"/>
				<rect x="720.6" y="252" class="st58" width="449.5" height="5.2"/>
				<g>
					<path class="st58" d="M1132.1,469.5c0.6,0.8,1.2,1.6,1.8,2.5c9.4-6.1,18.8-12.1,28.3-17.9c-0.6-0.8-1.2-1.7-1.8-2.5
						C1150.9,457.4,1141.5,463.3,1132.1,469.5z"/>
					<path class="st58" d="M1111.3,459c0.6,0.8,1.2,1.6,1.8,2.4c9.4-6.3,18.9-12.5,28.3-18.5c-0.6-0.8-1.2-1.7-1.8-2.5
						C1130.1,446.4,1120.7,452.6,1111.3,459z"/>
					<path class="st58" d="M1092.4,447.6c0.6,0.8,1.2,1.6,1.8,2.4c8.1-5.6,16.2-11.1,24.3-16.5c-0.6-0.8-1.2-1.6-1.8-2.4
						C1108.7,436.4,1100.6,441.9,1092.4,447.6z"/>
					<path class="st58" d="M1071,438.8c0.6,0.8,1.2,1.6,1.8,2.4c7.7-5.5,15.5-10.9,23.2-16.2c-0.6-0.8-1.2-1.6-1.8-2.4
						C1086.5,427.8,1078.7,433.3,1071,438.8z"/>
					<path class="st58" d="M1053.4,429.1c0.6,0.8,1.2,1.6,1.8,2.3c6.4-4.7,12.9-9.3,19.3-13.9c-0.6-0.8-1.2-1.6-1.8-2.4
						C1066.2,419.8,1059.8,424.4,1053.4,429.1z"/>
					<path class="st58" d="M1036,419.8c0.6,0.8,1.2,1.5,1.8,2.3c4.9-3.7,9.9-7.4,14.8-11c-0.6-0.8-1.2-1.5-1.8-2.3
						C1045.9,412.4,1041,416.1,1036,419.8z"/>
					<path class="st58" d="M1019.4,413.1c0.6,0.8,1.2,1.5,1.8,2.3c4.7-3.6,9.4-7.2,14.1-10.7c-0.6-0.8-1.2-1.5-1.8-2.3
						C1028.8,405.9,1024.1,409.5,1019.4,413.1z"/>
					<path class="st58" d="M1135.2,472.4c-1-0.2-2-0.4-2.9-0.6c1.6-11.3,3.3-22.5,4.9-33.8c1,0.2,2,0.4,2.9,0.6
						C1138.5,449.9,1136.8,461.1,1135.2,472.4z"/>
					<path class="st58" d="M1112.9,461.5c-0.9-0.1-1.7-0.3-2.6-0.4c1.7-10.3,3.4-20.6,5.1-30.9c0.9,0.2,1.7,0.3,2.6,0.5
						C1116.3,440.9,1114.6,451.2,1112.9,461.5z"/>
					<path class="st58" d="M1094,448.7c-1-0.3-1.9-0.5-2.9-0.8c-0.1-7.9-0.2-15.9-0.3-23.8c1,0.3,1.9,0.5,2.9,0.8
						C1093.8,432.8,1093.9,440.8,1094,448.7z"/>
					<path class="st58" d="M1076.1,438.1c-1.1-0.3-2.2-0.7-3.3-1c-1-7.6-1.9-15.2-2.9-22.7c1.1,0.3,2.2,0.7,3.3,1
						C1074.2,423,1075.2,430.6,1076.1,438.1z"/>
					<path class="st58" d="M1057.8,428.5c-1.2-0.4-2.4-0.8-3.6-1.2c-2-6.6-3.9-13.1-5.9-19.6c1.2,0.4,2.4,0.8,3.6,1.2
						C1053.8,415.3,1055.8,421.9,1057.8,428.5z"/>
					<path class="st58" d="M1039.9,420.1c-1.2-0.4-2.3-0.8-3.5-1.2c-2.4-5.4-4.8-10.7-7.2-16.1c1.2,0.4,2.3,0.8,3.5,1.2
						C1035.1,409.3,1037.5,414.7,1039.9,420.1z"/>
					<path class="st58" d="M1021.5,414.5c-1.1-0.4-2.3-0.7-3.4-1.1c-2.5-4.8-5-9.6-7.5-14.4c1.1,0.4,2.2,0.7,3.4,1.1
						C1016.5,404.9,1019,409.7,1021.5,414.5z"/>
					<path class="st58" d="M961.8,392.1c66.8,13.8,134.2,34.7,201,62.7c0.9-2.7,1.8-5.4,2.7-8c-66.8-28.2-134.2-49.3-201-63.3
						C963.6,386.4,962.7,389.3,961.8,392.1z"/>
					<path class="st58" d="M962,391.9c62.2,25,125,56.2,187.3,93.7c1-1.8,2-3.5,2.9-5.3c-62.3-37.6-125.1-69-187.3-94.3
						C964,388,963,389.9,962,391.9z"/>
				</g>
				<g>
					<rect x="928.9" y="250.6" class="st58" width="33" height="27.7"/>
					<rect x="925.6" y="244.9" class="st58" width="6.5" height="33.4"/>
					<rect x="958.7" y="244.9" class="st58" width="6.5" height="33.4"/>
					<rect x="943.3" y="233.2" class="st58" width="4.2" height="23.4"/>
					<rect x="940.7" y="239.7" class="st58" width="9.4" height="5.2"/>
					<path class="st58" d="M933.7,244.2c0,1.1-0.9,2-1.9,2H926c-1.1,0-1.9-0.9-1.9-2v-3.9c0-1.1,0.9-2,1.9-2h5.8
						c1.1,0,1.9,0.9,1.9,2V244.2z"/>
					<path class="st58" d="M966.8,244.2c0,1.1-0.9,2-1.9,2H959c-1.1,0-1.9-0.9-1.9-2v-3.9c0-1.1,0.9-2,1.9-2h5.8
						c1.1,0,1.9,0.9,1.9,2V244.2z"/>
					<path class="st58" d="M959.6,269.3c-0.4,0.3-0.9-6.2-8.7-8.3c-7.9-2.2-6.9-9.8-5.4-11c0.4-0.3,0.9,6.2,8.7,8.3
						C962.1,260.5,961.1,268.1,959.6,269.3z"/>
					<path class="st58" d="M931.2,269.3c0.4,0.3,0.9-6.2,8.7-8.3c7.9-2.2,6.9-9.8,5.4-11c-0.4-0.3-0.9,6.2-8.7,8.3
						C928.7,260.5,929.7,268.1,931.2,269.3z"/>
				</g>
				<g>
					<g>
						<rect x="1278.6" y="299.3" class="st58" width="2.1" height="151.5"/>
						<rect x="1303" y="322.9" class="st58" width="2.1" height="128.6"/>
						<rect x="1328.3" y="344.3" class="st58" width="2.1" height="106.5"/>
						<rect x="1354.1" y="362" class="st58" width="2.1" height="89.5"/>
						<rect x="1380.5" y="379.2" class="st58" width="2.1" height="72.6"/>
						<rect x="1406.8" y="393.4" class="st58" width="2.1" height="58"/>
						<rect x="1433.9" y="405.6" class="st58" width="2.1" height="45.9"/>
						<rect x="1460" y="415.5" class="st58" width="2.1" height="36"/>
						<rect x="1486.4" y="423.7" class="st58" width="2.1" height="28.4"/>
						<rect x="1557" y="430.3" class="st58" width="2.1" height="23"/>
					</g>
					<g>
						<polygon class="st58" points="1612.8,437.3 1611.9,438.8 1584.6,426 1585.5,424.5 						"/>
						<polygon class="st58" points="1586.2,441.6 1584.8,440.4 1613.3,415.6 1614.7,416.9 						"/>
						<polygon class="st58" points="1585.8,440.7 1585,442.2 1557.3,431.2 1558.1,429.6 						"/>
						<polygon class="st58" points="1557.7,441.7 1556.6,440.2 1587.3,422.9 1588.4,424.3 						"/>
						<polygon class="st58" points="1536.7,437.6 1536.1,436.1 1557.3,429.7 1557.9,431.1 						"/>
						<polygon class="st58" points="1558,439.3 1557.4,440.9 1534.8,433.7 1535.5,432.1 						"/>
					</g>
					<g>
						<polygon class="st58" points="1382.1,411.5 1380.3,412.2 1354.8,364.7 1356.6,363.9 						"/>
						<polygon class="st58" points="1356.4,399.8 1355.1,398.6 1380.5,378.7 1381.8,380 						"/>
						<polygon class="st58" points="1355.3,398.4 1353.5,399.1 1328.9,347.9 1330.7,347.2 						"/>
						<polygon class="st58" points="1328.7,382.6 1327.6,381.1 1354.9,364.1 1356,365.5 						"/>
						<polygon class="st58" points="1329.9,381.7 1328.1,382.3 1304.2,326 1306.1,325.4 						"/>
						<polygon class="st58" points="1303.6,359.3 1302.6,357.8 1330.4,344.3 1331.3,345.8 						"/>
						<polygon class="st58" points="1305.1,356.9 1303.2,357.5 1278.8,303.1 1280.6,302.5 						"/>
						<polygon class="st58" points="1279.3,325.8 1279.3,324.1 1304.9,324.4 1304.9,326.2 						"/>
						<polygon class="st58" points="1281.2,300.7 1281.4,302.5 1267.8,303.4 1267.7,301.7 						"/>
						<polygon class="st58" points="1408.9,423.8 1407.2,424.6 1379.9,380.1 1381.6,379.2 						"/>
						<polygon class="st58" points="1381.5,414.4 1380.3,413 1409.1,392.9 1410.3,394.2 						"/>
						<polygon class="st58" points="1436,430.5 1434.3,431.4 1407.8,395.5 1409.5,394.6 						"/>
						<polygon class="st58" points="1407.5,424.7 1406.3,423.3 1435.3,404.2 1436.4,405.6 						"/>
						<polygon class="st58" points="1462,434.1 1460.5,435.1 1435.7,406.9 1437.2,405.9 						"/>
						<polygon class="st58" points="1434.1,431.8 1433.2,430.3 1462.2,415.1 1463.2,416.6 						"/>
						<polygon class="st58" points="1487.1,435.1 1485.8,436.4 1460.5,416.5 1461.8,415.2 						"/>
						<polygon class="st58" points="1459.9,435.4 1459.2,433.8 1488.7,423.5 1489.4,425.1 						"/>
						<polygon class="st58" points="1506.5,435.5 1505.4,436.9 1486.9,426.1 1488,424.7 						"/>
						<polygon class="st58" points="1280.3,322.4 1278.4,322.8 1267,287.3 1268.9,286.8 						"/>
						<polygon class="st58" points="1513.3,429.3 1513.8,430.9 1486.7,437.3 1486.2,435.6 						"/>
					</g>
					<path class="st58" d="M1526.1,434.6c-107-22.1-201.4-76.7-266.9-154.5c0.6-0.8,1.2-1.6,1.8-2.4
						c65.5,77.8,159.8,132.4,266.9,154.5C1527.3,433,1526.7,433.8,1526.1,434.6z"/>
					<path class="st58" d="M1525,435c-121.3,16.2-235.6-50-266.9-154.5c0.6-0.8,1.2-1.6,1.8-2.4c31.2,104.4,145.6,170.6,266.9,154.5
						C1526.2,433.4,1525.6,434.2,1525,435z"/>
					<path class="st58" d="M1719.5,343.5c-46.5,54.8-114.4,87-191.9,91c-0.4-0.7-0.9-1.4-1.3-2.2c77.5-4.1,145.4-36.2,191.9-91
						C1718.6,342.1,1719,342.8,1719.5,343.5z"/>
					<path class="st58" d="M1719.4,344.2c-24.1,76.2-106.4,115.2-191.9,91c-0.4-0.7-0.8-1.3-1.2-2c85.5,24.2,167.7-14.8,191.9-91
						C1718.6,342.8,1719,343.5,1719.4,344.2z"/>
					<rect x="1259" y="444" class="st58" width="663.5" height="10.8"/>
					<g>
						<rect x="1521.3" y="438.8" class="st58" width="10.3" height="15.7"/>
						<path class="st58" d="M1536.4,434c0,4.7-4.3,8.5-9.6,8.5c-5.3,0-9.6-3.8-9.6-8.5c0-4.7,4.3-8.5,9.6-8.5
							C1532.1,425.5,1536.4,429.3,1536.4,434z"/>
						<path class="st58" d="M1531.6,434c0,2.3-2.1,4.2-4.8,4.2c-2.7,0-4.8-1.9-4.8-4.2c0-2.3,2.1-4.2,4.8-4.2
							C1529.5,429.7,1531.6,431.6,1531.6,434z"/>
					</g>
				</g>
				<g>
					<g>
						<rect x="615.6" y="303.6" class="st58" width="2.1" height="146.6"/>
						<rect x="591.2" y="326.4" class="st58" width="2.1" height="124.4"/>
						<rect x="565.9" y="347.1" class="st58" width="2.1" height="103.1"/>
						<rect x="540.2" y="364.2" class="st58" width="2.1" height="86.6"/>
						<rect x="513.8" y="380.8" class="st58" width="2.1" height="70.2"/>
						<rect x="487.4" y="394.6" class="st58" width="2.1" height="56.1"/>
						<rect x="460.3" y="406.3" class="st58" width="2.1" height="44.4"/>
						<rect x="434.3" y="416" class="st58" width="2.1" height="34.8"/>
						<rect x="407.9" y="423.8" class="st58" width="2.1" height="27.5"/>
						<rect x="337.2" y="430.3" class="st58" width="2.1" height="22.2"/>
						<rect x="308.8" y="424.1" class="st58" width="2.1" height="27.5"/>
						<rect x="281.7" y="416.5" class="st58" width="2.1" height="33.6"/>
						<rect x="255.3" y="405.5" class="st58" width="2.1" height="45.3"/>
						<rect x="227.9" y="390.3" class="st58" width="2.1" height="61.1"/>
						<rect x="204.2" y="372.2" class="st58" width="2.1" height="79.2"/>
					</g>
					<g>
						<polygon class="st58" points="255.7,428.3 256.6,429.8 284.8,416.8 283.9,415.3 						"/>
						<polygon class="st58" points="282.6,437.8 284.2,436.8 255.7,403.8 254.1,404.8 						"/>
						<polygon class="st58" points="228.6,413.7 229.3,415.3 257.6,405.9 256.9,404.4 						"/>
						<polygon class="st58" points="255.8,429.1 257.5,428.2 229.6,389.3 228,390.2 						"/>
						<polygon class="st58" points="283.4,437 284.4,438.5 311.7,426.1 310.8,424.6 						"/>
						<polygon class="st58" points="310.1,441.2 311.5,440 283,416.1 281.6,417.3 						"/>
						<polygon class="st58" points="310.5,440.3 311.3,441.8 339,431.1 338.2,429.6 						"/>
						<polygon class="st58" points="338.6,441.2 339.7,439.8 308.9,423.1 307.9,424.5 						"/>
						<polygon class="st58" points="359.6,437.3 360.2,435.9 339,429.6 338.4,431 						"/>
						<polygon class="st58" points="228.8,414.9 230.6,414.2 206,371.4 204.3,372.1 						"/>
						<polygon class="st58" points="205.2,394.1 205.7,395.7 229.3,390.4 228.8,388.8 						"/>
						<polygon class="st58" points="185.5,365.8 184.9,367.4 205.8,373.3 206.4,371.7 						"/>
						<polygon class="st58" points="204.3,393.9 206.1,393.3 187.2,355 185.4,355.6 						"/>
						<polygon class="st58" points="338.3,438.9 338.9,440.5 361.5,433.5 360.8,432 						"/>
					</g>
					<g>
						<polygon class="st58" points="514.2,412.1 516,412.8 541.5,366.8 539.7,366.1 						"/>
						<polygon class="st58" points="539.9,400.8 541.2,399.6 515.8,380.4 514.5,381.6 						"/>
						<polygon class="st58" points="540.9,399.4 542.7,400.1 567.4,350.5 565.6,349.9 						"/>
						<polygon class="st58" points="567.5,384.1 568.7,382.7 541.4,366.2 540.2,367.6 						"/>
						<polygon class="st58" points="566.4,383.2 568.2,383.8 592,329.4 590.2,328.8 						"/>
						<polygon class="st58" points="592.7,361.6 593.7,360.2 565.9,347 565,348.5 						"/>
						<polygon class="st58" points="591.2,359.3 593,359.9 617.5,307.2 615.7,306.6 						"/>
						<polygon class="st58" points="617,329.2 616.9,327.5 591.4,327.9 591.4,329.5 						"/>
						<polygon class="st58" points="615.1,304.9 614.9,306.6 628.4,307.5 628.6,305.8 						"/>
						<polygon class="st58" points="487.4,423.9 489.1,424.7 516.4,381.7 514.7,380.9 						"/>
						<polygon class="st58" points="514.8,414.8 516,413.5 487.2,394.1 486,395.4 						"/>
						<polygon class="st58" points="460.3,430.5 462,431.4 488.5,396.6 486.8,395.7 						"/>
						<polygon class="st58" points="488.8,424.8 490,423.5 461,405 459.9,406.4 						"/>
						<polygon class="st58" points="434.3,433.9 435.8,434.9 460.6,407.7 459.1,406.6 						"/>
						<polygon class="st58" points="462.1,431.7 463.1,430.3 434.1,415.6 433.1,417 						"/>
						<polygon class="st58" points="409.2,434.9 410.5,436.1 435.8,416.9 434.5,415.7 						"/>
						<polygon class="st58" points="436.4,435.2 437.1,433.6 407.6,423.7 406.9,425.2 						"/>
						<polygon class="st58" points="389.8,435.3 390.9,436.7 409.4,426.2 408.3,424.8 						"/>
						<polygon class="st58" points="616,325.8 617.9,326.3 629.3,291.9 627.4,291.5 						"/>
						<polygon class="st58" points="383,429.2 382.5,430.9 409.6,437 410.1,435.4 						"/>
					</g>
					<polygon class="st58" points="-20.1,444.1 -15.5,448.8 110.3,361 105.8,356.2 					"/>
					<path class="st58" d="M370.2,434.4c107-21.3,201.4-74.2,266.9-149.4c-0.6-0.8-1.2-1.5-1.8-2.3
						c-65.5,75.2-159.8,128.1-266.9,149.4C369,432.9,369.6,433.7,370.2,434.4z"/>
					<path class="st58" d="M371.3,434.8c121.3,15.6,235.6-48.4,266.9-149.4c-0.6-0.8-1.2-1.5-1.8-2.3
						c-31.2,101-145.6,165.1-266.9,149.4C370.1,433.3,370.7,434.1,371.3,434.8z"/>
					<path class="st58" d="M176.8,346.3c46.5,53,114.4,84.1,191.9,88c0.4-0.7,0.9-1.4,1.3-2.1c-77.5-3.9-145.4-35.1-191.9-88
						C177.7,344.9,177.2,345.6,176.8,346.3z"/>
					<path class="st58" d="M176.9,346.9c24.1,73.7,106.4,111.4,191.9,88c0.4-0.6,0.8-1.3,1.2-1.9c-85.5,23.4-167.7-14.4-191.9-88
						C177.7,345.7,177.3,346.3,176.9,346.9z"/>
					<rect x="-26.2" y="443.5" class="st58" width="663.5" height="10.5"/>
					<g>
						<rect x="100.1" y="354.6" class="st58" width="86.8" height="77.4"/>
						<rect x="96.4" y="425.6" class="st58" width="94.2" height="108.4"/>
						<rect x="100.1" y="325.5" class="st58" width="86.8" height="26.1"/>
						<rect x="96.4" y="351.1" class="st58" width="94.2" height="6.7"/>
						<polygon class="st58" points="117.1,326.1 169.7,326.3 143.8,248.5 						"/>
						<g>
							<rect x="141.9" y="234" class="st58" width="3.3" height="18.3"/>
							<rect x="137.7" y="239.1" class="st58" width="11.7" height="2.6"/>
							<path class="st58" d="M139.8,253.7c0,0.7,0.8,1.4,1.7,1.4h4.2c0.9,0,1.7-0.6,1.7-1.4V253c0-0.7-0.8-1.4-1.7-1.4h-4.2
								c-0.9,0-1.7,0.6-1.7,1.4V253.7z"/>
						</g>
						<rect x="178.9" y="314" class="st58" width="8" height="16.4"/>
						<rect x="163.5" y="314" class="st58" width="8" height="16.4"/>
						<rect x="147.4" y="314" class="st58" width="8" height="16.4"/>
						<rect x="131.3" y="314" class="st58" width="8" height="16.4"/>
						<rect x="115.2" y="314" class="st58" width="8" height="16.4"/>
						<rect x="100.1" y="314" class="st58" width="8" height="16.4"/>
						<rect x="100.1" y="330.5" class="st58" width="86.8" height="3.6"/>
						<rect x="163.1" y="314.2" class="st58" width="4.5" height="111.4"/>
						<rect x="119" y="314.2" class="st58" width="4.4" height="111.4"/>
						<rect x="139.4" y="364" class="st58" width="8" height="14.5"/>
						<rect x="141.3" y="367.2" class="st58" width="4.2" height="8.7"/>
						<rect x="127.3" y="393" class="st58" width="8" height="14.5"/>
						<rect x="129.2" y="396.1" class="st58" width="4.2" height="8.7"/>
						<g>
							<rect x="142.5" y="335.9" class="st58" width="2.2" height="12.4"/>
							<rect x="139.6" y="339.3" class="st58" width="8" height="1.8"/>
						</g>
						<g>
							<rect x="156.8" y="335.9" class="st58" width="1.3" height="12.4"/>
							<rect x="155.1" y="339.3" class="st58" width="4.7" height="1.8"/>
						</g>
						<g>
							<rect x="128.5" y="335.9" class="st58" width="1.3" height="12.4"/>
							<rect x="126.8" y="339.3" class="st58" width="4.7" height="1.8"/>
						</g>
					</g>
					<g>
						<rect x="364.7" y="438.5" class="st58" width="10.3" height="15.2"/>
						<path class="st58" d="M359.9,433.8c0,4.5,4.3,8.2,9.6,8.2c5.3,0,9.6-3.7,9.6-8.2c0-4.5-4.3-8.2-9.6-8.2
							C364.2,425.6,359.9,429.3,359.9,433.8z"/>
						<path class="st58" d="M364.7,433.8c0,2.3,2.1,4.1,4.8,4.1c2.7,0,4.8-1.8,4.8-4.1c0-2.3-2.1-4.1-4.8-4.1
							C366.8,429.7,364.7,431.5,364.7,433.8z"/>
					</g>
					<rect x="-26.2" y="449" class="st58" width="128.6" height="85.2"/>
					<path class="st58" d="M-0.2,491.5c0-13.8,15.1-25,33.8-25c18.6,0,33.8,11.2,33.8,25v42.2H-0.2V491.5z"/>
				</g>
				<g>
					<polygon class="st58" points="718.8,242.2 655.1,242.2 687.2,131.2 					"/>
					<rect x="648.9" y="241.3" class="st58" width="70" height="242.2"/>
					<rect x="636" y="195.7" class="st58" width="24" height="313.9"/>
					<rect x="659.5" y="228.3" class="st58" width="54.9" height="13"/>
					<g>
						<polygon class="st58" points="738.5,195.7 714.6,195.7 726.6,161.9 						"/>
					</g>
					<rect x="714.6" y="195.7" class="st58" width="24" height="315.3"/>
					<path class="st58" d="M661.6,246v-5.2h51.3v5.2H661.6z M737.7,246h-23.1v-5.2h23.1V246z M660,240.8v5.2h-23.1v-5.2H660z"/>
					<g>
						<rect x="674.3" y="185.7" class="st58" width="27" height="43.2"/>
						<polygon class="st58" points="704.3,218.2 671.4,218.3 687.7,186.9 						"/>
						<polygon class="st58" points="704.3,207.1 671.4,207.2 687.7,175.8 						"/>
						<path class="st58" d="M696.9,204.2c0-8.1-4.1-14.7-9.1-14.7c-5,0-9.1,6.6-9.1,14.7v24.7h18.2V204.2z"/>
						<rect x="678.7" y="216.5" class="st58" width="18.2" height="1.8"/>
						<path class="st58" d="M691.7,202.9c0-3.5-1.7-6.3-3.8-6.3c-2.1,0-3.8,2.8-3.8,6.3v18.9h7.7V202.9z"/>
					</g>
					<g>
						<rect x="621.6" y="442.6" class="st58" width="130.6" height="80.9"/>
						<rect x="621.6" y="448.8" class="st58" width="130.6" height="2.5"/>
						<rect x="645.2" y="453.9" class="st58" width="3.6" height="5.3"/>
						<rect x="685.1" y="453.9" class="st58" width="3.6" height="5.3"/>
						<rect x="726.7" y="453.9" class="st58" width="3.6" height="5.3"/>
					</g>
					<rect x="680.1" y="277.7" class="st58" width="15.4" height="11.6"/>
					<g>
						<polygon class="st58" points="659.9,195.7 636,195.7 648,161.9 						"/>
					</g>
				</g>
				<rect x="636.2" y="283.5" class="st58" width="102.3" height="7.6"/>
				<rect x="636.2" y="334.4" class="st58" width="102.3" height="9.4"/>
				<g>
					<path class="st58" d="M682.8,309.6c0-3.5-1.7-6.3-3.8-6.3c-2.1,0-3.8,2.8-3.8,6.3v18.9h7.7V309.6z"/>
					<path class="st58" d="M699.3,309.6c0-3.5-1.7-6.3-3.8-6.3c-2.1,0-3.8,2.8-3.8,6.3v18.9h7.7V309.6z"/>
				</g>
				<g>
					<path class="st58" d="M682.8,412.7c0-3.5-1.7-6.3-3.8-6.3c-2.1,0-3.8,2.8-3.8,6.3v18.9h7.7V412.7z"/>
					<path class="st58" d="M699.4,412.7c0-3.5-1.7-6.3-3.8-6.3c-2.1,0-3.8,2.8-3.8,6.3v18.9h7.7V412.7z"/>
				</g>
				<g>
					<path class="st58" d="M682.8,258.4c0-3.5-1.7-6.3-3.8-6.3c-2.1,0-3.8,2.8-3.8,6.3v18.9h7.7V258.4z"/>
					<path class="st58" d="M699.4,258.4c0-3.5-1.7-6.3-3.8-6.3c-2.1,0-3.8,2.8-3.8,6.3v18.9h7.7V258.4z"/>
				</g>
				<g>
					<path class="st58" d="M682.8,358.5c0-3.5-1.7-6.3-3.8-6.3c-2.1,0-3.8,2.8-3.8,6.3v18.9h7.7V358.5z"/>
					<path class="st58" d="M699.4,358.5c0-3.5-1.7-6.3-3.8-6.3c-2.1,0-3.8,2.8-3.8,6.3v18.9h7.7V358.5z"/>
				</g>
				<rect x="636.7" y="386.1" class="st58" width="102.3" height="9.4"/>
				<g>
					<polygon class="st58" points="1246.5,242.2 1182.8,242.2 1214.8,131.2 					"/>
					<rect x="1176.5" y="241.3" class="st58" width="70" height="242.2"/>
					<rect x="1163.6" y="195.7" class="st58" width="24" height="313.9"/>
					<rect x="1187.1" y="228.3" class="st58" width="54.9" height="13"/>
					<g>
						<polygon class="st58" points="1266.2,195.7 1242.2,195.7 1254.2,161.9 						"/>
					</g>
					<rect x="1242.2" y="195.7" class="st58" width="24" height="315.3"/>
					<path class="st58" d="M1189.3,246v-5.2h51.3v5.2H1189.3z M1265.3,246h-23.1v-5.2h23.1V246z M1187.7,240.8v5.2h-23.1v-5.2
						H1187.7z"/>
					<g>
						<rect x="1202" y="185.7" class="st58" width="27" height="43.2"/>
						<polygon class="st58" points="1231.9,218.2 1199,218.3 1215.4,186.9 						"/>
						<polygon class="st58" points="1231.9,207.1 1199,207.2 1215.4,175.8 						"/>
						<path class="st58" d="M1224.5,204.2c0-8.1-4.1-14.7-9.1-14.7c-5,0-9.1,6.6-9.1,14.7v24.7h18.2V204.2z"/>
						<rect x="1206.4" y="216.5" class="st58" width="18.2" height="1.8"/>
						<path class="st58" d="M1219.3,202.9c0-3.5-1.7-6.3-3.8-6.3c-2.1,0-3.8,2.8-3.8,6.3v18.9h7.7V202.9z"/>
					</g>
					<g>
						<rect x="1149.3" y="442.6" class="st58" width="130.6" height="80.9"/>
						<rect x="1149.3" y="448.8" class="st58" width="130.6" height="2.5"/>
						<rect x="1172.9" y="453.9" class="st58" width="3.6" height="5.3"/>
						<rect x="1212.8" y="453.9" class="st58" width="3.6" height="5.3"/>
						<rect x="1254.4" y="453.9" class="st58" width="3.6" height="5.3"/>
					</g>
					<rect x="1207.8" y="277.7" class="st58" width="15.4" height="11.6"/>
					<g>
						<polygon class="st58" points="1187.6,195.7 1163.6,195.7 1175.6,161.9 						"/>
					</g>
				</g>
				<rect x="1163.9" y="283.5" class="st58" width="102.3" height="7.6"/>
				<rect x="1163.9" y="334.4" class="st58" width="102.3" height="9.4"/>
				<g>
					<path class="st58" d="M1210.5,309.6c0-3.5-1.7-6.3-3.8-6.3c-2.1,0-3.8,2.8-3.8,6.3v18.9h7.7V309.6z"/>
					<path class="st58" d="M1227,309.6c0-3.5-1.7-6.3-3.8-6.3c-2.1,0-3.8,2.8-3.8,6.3v18.9h7.7V309.6z"/>
				</g>
				<g>
					<path class="st58" d="M1210.5,412.7c0-3.5-1.7-6.3-3.8-6.3c-2.1,0-3.8,2.8-3.8,6.3v18.9h7.7V412.7z"/>
					<path class="st58" d="M1227,412.7c0-3.5-1.7-6.3-3.8-6.3c-2.1,0-3.8,2.8-3.8,6.3v18.9h7.7V412.7z"/>
				</g>
				<g>
					<path class="st58" d="M1210.5,258.4c0-3.5-1.7-6.3-3.8-6.3c-2.1,0-3.8,2.8-3.8,6.3v18.9h7.7V258.4z"/>
					<path class="st58" d="M1227,258.4c0-3.5-1.7-6.3-3.8-6.3c-2.1,0-3.8,2.8-3.8,6.3v18.9h7.7V258.4z"/>
				</g>
				<g>
					<path class="st58" d="M1210.5,358.5c0-3.5-1.7-6.3-3.8-6.3c-2.1,0-3.8,2.8-3.8,6.3v18.9h7.7V358.5z"/>
					<path class="st58" d="M1227,358.5c0-3.5-1.7-6.3-3.8-6.3c-2.1,0-3.8,2.8-3.8,6.3v18.9h7.7V358.5z"/>
				</g>
				<rect x="1164.3" y="386.1" class="st58" width="102.3" height="9.4"/>
			</g>
		</g>
		
			<rect x="914.2" y="516" style="clip-path:url(#SVGID_00000007408669496408025020000013430866774036006561_);fill:#FF4500;" width="373" height="112"/>
	</g>
	<g>
		<g>
			<path class="st63" d="M1185,439.6V337.8c0-21.7-21.1-39.2-47-39.2H956.8c-26,0-47,17.6-47,39.2v101.8H1185z"/>
			<rect x="1136.5" y="333.4" class="st58" width="25.3" height="30.4"/>
			<rect x="1092" y="333.4" class="st58" width="40.3" height="30.4"/>
			<rect x="958.4" y="333.4" class="st58" width="40.3" height="30.4"/>
			<rect x="1047.3" y="333.4" class="st58" width="40.3" height="30.4"/>
			<rect x="1002.8" y="333.4" class="st58" width="40.3" height="30.4"/>
			<rect x="914.3" y="333.4" class="st58" width="40.3" height="30.4"/>
			<rect x="1092" y="385" class="st58" width="40.3" height="30.3"/>
			<rect x="1047.5" y="385" class="st58" width="40.3" height="30.3"/>
			<rect x="913.9" y="385" class="st58" width="40.3" height="30.3"/>
			<rect x="1002.8" y="385" class="st58" width="40.3" height="30.3"/>
			<rect x="958.3" y="385" class="st58" width="40.3" height="30.3"/>
			<path class="st63" d="M960.6,440.5c0,9.1,7.4,16.4,16.4,16.4c9.1,0,16.4-7.4,16.4-16.4c0-9.1-7.4-16.4-16.4-16.4
				C968,424.1,960.6,431.4,960.6,440.5"/>
			<path class="st58" d="M958.2,439.3h5.2c0,6.8,5.5,12.3,12.3,12.3c6.8,0,12.3-5.5,12.3-12.3c0-6.8-5.5-12.3-12.3-12.3
				c-6.8,0-12.3,5.5-12.3,12.3H958.2h-5.3c0-12.6,10.2-22.8,22.8-22.8c12.6,0,22.8,10.2,22.8,22.8c0,12.6-10.2,22.8-22.8,22.8
				c-12.6,0-22.8-10.2-22.8-22.8H958.2z"/>
			<rect x="1136.8" y="333.4" class="st58" width="26.5" height="30.4"/>
			<rect x="1166.8" y="384.9" class="st58" width="18.2" height="30.4"/>
			
				<rect x="1179.1" y="335.7" transform="matrix(-1 -4.470081e-11 4.470081e-11 -1 2363.176 699.3903)" class="st58" width="4.9" height="28"/>
		</g>
		<path class="st59" d="M1116,439.3c0,9.1,7.4,16.4,16.4,16.4c9.1,0,16.4-7.4,16.4-16.4c0-9.1-7.4-16.4-16.4-16.4
			C1123.3,422.9,1116,430.2,1116,439.3"/>
		<path class="st58" d="M1115.1,439.3h5.2c0,6.8,5.5,12.3,12.3,12.3c6.8,0,12.3-5.5,12.3-12.3c0-6.8-5.5-12.3-12.3-12.3
			c-6.8,0-12.3,5.5-12.3,12.3H1115.1h-5.3c0-12.6,10.2-22.8,22.8-22.8c12.6,0,22.8,10.2,22.8,22.8c0,12.6-10.2,22.8-22.8,22.8
			c-12.6,0-22.8-10.2-22.8-22.8H1115.1z"/>
	</g>
	<path class="st64" d="M1164,537.5c0,307.5-359,110.3-359,110.3l5-624.4C810,23.3,1164,230,1164,537.5z"/>
	<g>
		<g>
			<g>
				<g>
					<g>
						<path class="st58" d="M563.2,1008.3c-25.3-32-38.5-64.9-40.4-100.7c-1.6-31.1,5.5-60.1,11.8-85.8c7.6-31,14.2-57.7,5.2-81.4
							c-5.5-14.4-15.7-27.9-30.4-40c-12-9.9-27-18.8-44.5-26.6c-30.1-13.4-57.4-18.8-57.6-18.8l2.3-11.3c1.2,0.2,28.9,5.7,60.2,19.7
							c18.5,8.3,34.4,17.8,47.2,28.3c16.3,13.4,27.7,28.5,33.9,44.8c10.2,27,2.9,56.7-4.8,88.2c-12.6,51.2-26.8,109.3,26.5,176.7
							L563.2,1008.3z"/>
					</g>
					<g>
						<path class="st58" d="M403.5,1079.7l-8.3-6.6c47.3-62.7,34.7-116.7,23.5-164.3c-6.9-29.2-13.3-56.9-4.3-82
							c5.5-15.2,15.6-29.2,30.1-41.7c11.4-9.8,25.5-18.6,41.9-26.3c27.8-13,52.4-18.1,53.5-18.3l2,10.5c-0.2,0-24.6,5.1-51.4,17.6
							c-15.5,7.3-28.8,15.6-39.4,24.7c-13,11.2-22.1,23.7-26.9,37.1c-8,22.1-2.1,46.9,4.6,75.7c2.9,12.2,5.8,24.8,7.9,38
							c2.4,15.1,3.2,28.8,2.6,41.8C437.7,1019.4,425.9,1050,403.5,1079.7z"/>
					</g>
					<g>
						<path class="st58" d="M640.9,690.6c0-26.4-57.7-169.2-50.4-294.3c5.4-91.1-57.2-140.9-62-135c-24.3,9.9,35.7,133.8-9.4,134.2
							c-53.6,0.4-33.5-135-57.8-144.8c-4.8-5.9-18.3,56.7-48.1,143c-14.4,41.6,2.3,191-26.2,297c-6.8,25.5,5.9,112-2.3,181.8
							c0,0,12.9,14.5,49.9,7.2s60.3-4.5,82.2,2c21.9,6.5,68.5-4.6,92.3-4.6c23.8,0,35.1,4.6,34.1-4.6
							C635,802.6,640.9,716.9,640.9,690.6z"/>
					</g>
					<g>
						<path class="st58" d="M535.6,199.8c-4.7-25.8-19.8-43.1-39.3-43.1s-34.6,17.2-39.3,43.1c-4.7,25.8,0.7,78.7,0.7,78.7l6.1-16.9
							c0-23.4-1.7-38.4,2.7-61.4c4.4-23,17.4-32.8,29.9-32.8c12.5,0,25.5,9.8,29.9,32.8c4.4,23,2.7,38,2.7,61.4l6.1,16.9
							C534.9,278.5,540.3,225.6,535.6,199.8z"/>
					</g>
					<g>
						<g>
							<path class="st58" d="M603.7,674.4c-1.4,0.2-2.7,0.4-4.1,0.6c-63.2,8.3-126.9,8.3-190,0c-1.4-0.2-2.7-0.4-4.1-0.6
								c0.6-6.8,1.2-13.6,1.8-20.4c0.7,0.1,1.4,0.2,2.1,0.3c63.3,8.5,127.1,8.5,190.4,0c0.7-0.1,1.4-0.2,2.1-0.3
								C602.5,660.8,603.1,667.6,603.7,674.4z"/>
						</g>
					</g>
					<g>
						<defs>
							<path id="SVGID_00000155123013200628628970000007045205182805522856_" d="M640.9,690.6c0-26.4,16.1-251.5-20.4-297
								c-57.1-71.2-43.4-148.9-48.1-143c-24.3,9.9-36.2,196.3-57.9,196.3c-21.7,0-28.8-186.4-53.2-196.3c-4.8-5.9,9,71.8-48.1,143
								c-36.5,45.5-26.2,270.6-26.2,297c0,26.4,5.9,112-2.3,181.8c0,0,12.9,14.5,49.9,7.2s60.3-4.5,82.2,2
								c21.9,6.5,68.5-4.6,92.3-4.6c23.8,0,35.1,4.6,34.1-4.6C635,802.6,640.9,716.9,640.9,690.6z"/>
						</defs>
						<use xlink:href="#SVGID_00000155123013200628628970000007045205182805522856_"  style="overflow:visible;fill:#FF4500;"/>
						<clipPath id="SVGID_00000049194400435966906890000018154813253466801536_">
							<use xlink:href="#SVGID_00000155123013200628628970000007045205182805522856_"  style="overflow:visible;"/>
						</clipPath>
						<g style="opacity:5.000000e-02;clip-path:url(#SVGID_00000049194400435966906890000018154813253466801536_);">
							
								<image style="overflow:visible;" width="235" height="433" xlink:href="65E40730C535DAF3.png"  transform="matrix(1 0 0 1 369 -9)">
							</image>
						</g>
						<g style="opacity:5.000000e-02;clip-path:url(#SVGID_00000049194400435966906890000018154813253466801536_);">
							
								<image style="overflow:visible;" width="242" height="325" xlink:href="65E40730C535DAF1.png"  transform="matrix(1 0 0 1 387 108)">
							</image>
						</g>
						<g style="opacity:7.000000e-02;clip-path:url(#SVGID_00000049194400435966906890000018154813253466801536_);">
							
								<image style="overflow:visible;" width="245" height="460" xlink:href="65E40730C535DAF7.png"  transform="matrix(1 0 0 1 463 505)">
							</image>
						</g>
					</g>
				</g>
			</g>
			<circle class="st65" cx="517.6" cy="492.9" r="33.5"/>
			<g>
				<path class="st65" d="M603.6,767.2c-1.4,1-2.4,2.8-4.1,2.9c-58,6.2-32,4.2-83,13.2c-1.4,0.3-14.4-2.3-54,0c-0.4,0,2-17.6,2-18
					c0.6-35.1-17.6-62.9-17-98c0-1.1-39.1-7.7-38.2-7c0,0,0,0,0,0c33.2,23.7,63.5,8.2,96.9,7c30.2-1,63.4,14.4,93.5-7c0,0,0,0,0,0
					c0.9-0.7,2.1,0.2,2.1,1.5C602.4,696.9,603,732.1,603.6,767.2z"/>
			</g>
		</g>
		<g>
			<path class="st59" d="M947.5,793.1c0,1.5-0.5,3-1.7,4.3c-6.5,6.9-15.6,10.8-25.1,10.8H701.7c-27.7,0-54.1-7.7-76.8-21.4
				c-27.2-16.5-49-41.6-61.1-72.5c-45.9-116.7-98.2-300.2,27.8-297.5c191.1,4,201.8,288.8,201,370h148.6
				C945,786.8,947.5,789.9,947.5,793.1z"/>
		</g>
		<g class="st29">
			<path class="st58" d="M593.8,416.4c0,0-44.4,274.3,81.6,219.5l-7.5,60c-5.9,47.3,31.9,89.3,79.6,87.1c0.8,0,1.7-0.1,2.5-0.1
				L593.8,416.4z"/>
		</g>
		<g>
			<path class="st58" d="M936.9,782.7l-77.3,0.2l-77.3,0.1l-38.6,0l-19.3,0c-6.4,0-12.9,0-19.3-0.6c-12.9-1.2-25.5-4.3-37.6-8.9
				c-6-2.3-11.9-5-17.6-8c-5.7-3-11.2-6.4-16.5-10.1c-21.2-14.8-38.3-35.3-49.2-58.8c-2.8-5.8-5-11.9-7.3-17.9
				c-2.3-6-4.6-12.1-6.8-18.1c-4.4-12.1-8.6-24.3-12.6-36.5c-7.9-24.5-14.8-49.4-20-74.6c-1.3-6.3-2.4-12.7-3.4-19
				c-1-6.4-1.9-12.8-2.5-19.2c-0.6-6.4-1.2-12.8-1.4-19.3c-0.2-6.4-0.2-12.9,0.1-19.3c-0.3,6.4-0.2,12.9,0.1,19.3
				c0.3,6.4,0.8,12.8,1.5,19.2c0.7,6.4,1.6,12.8,2.7,19.1c1.1,6.3,2.2,12.7,3.6,19c5.2,25.2,12.2,50,20.1,74.5
				c4,12.2,8.2,24.4,12.6,36.5c2.2,6,4.5,12.1,6.8,18.1c2.3,6,4.6,12,7.3,17.8c10.9,23.3,27.9,43.6,49,58.3
				c21,14.7,45.6,24.6,71.2,27c6.4,0.7,12.8,0.7,19.3,0.7l19.3,0l38.6,0l77.3,0.1L936.9,782.7z"/>
		</g>
		<g>
			<g>
				<g>
					
						<rect x="747.3" y="786.5" transform="matrix(0.9573 -0.2892 0.2892 0.9573 -257.4694 259.3181)" class="st58" width="3" height="428.9"/>
				</g>
				<g>
					
						<rect x="410.4" y="999.5" transform="matrix(0.2891 -0.9573 0.9573 0.2891 -514.043 1309.7627)" class="st58" width="428.9" height="3"/>
				</g>
			</g>
			<g>
				<rect x="568.9" y="1092.6" class="st58" width="235.9" height="3"/>
			</g>
			<g>
				
					<ellipse transform="matrix(0.231 -0.973 0.973 0.231 -605.6129 1422.0255)" class="st58" cx="596.8" cy="1094.1" rx="12.7" ry="12.7"/>
			</g>
			<g>
				
					<ellipse transform="matrix(0.7071 -0.7071 0.7071 0.7071 -546.0275 870.0369)" class="st58" cx="777.2" cy="1094.1" rx="12.7" ry="12.7"/>
			</g>
		</g>
		<g>
			<g>
				<g>
					
						<rect x="886.9" y="786.5" transform="matrix(0.9573 -0.2892 0.2892 0.9573 -251.5062 299.6784)" class="st58" width="3" height="428.9"/>
				</g>
				<g>
					
						<rect x="549.9" y="999.5" transform="matrix(0.2891 -0.9573 0.9573 0.2891 -414.8197 1443.3711)" class="st58" width="428.9" height="3"/>
				</g>
			</g>
			<g>
				<rect x="708.4" y="1092.6" class="st58" width="235.9" height="3"/>
			</g>
			<g>
				
					<ellipse transform="matrix(0.7071 -0.7071 0.7071 0.7071 -557.9953 841.144)" class="st58" cx="736.4" cy="1094.1" rx="12.7" ry="12.7"/>
			</g>
			<g>
				
					<ellipse transform="matrix(0.231 -0.973 0.973 0.231 -359.5402 1733.3635)" class="st58" cx="916.8" cy="1094.1" rx="12.7" ry="12.7"/>
			</g>
		</g>
	</g>
	<g>
		<g>
			<path class="st58" d="M1074.1,1076.2l-3.6,35.8l11.3,27.9h-72.7c0,0-7-48.5,5.8-82.8L1074.1,1076.2z"/>
		</g>
		<g>
			<defs>
				<path id="SVGID_00000053527912914373404910000005116980984424512396_" d="M704,316.6c-6.6-5.3-13.5-11.5-20.5,1.4
					c0,0-54.6,10.2-54,23.5c-8.2-3.3-41,3.8-40.5,115.3c0.1,32.2,0.5,69.5,2.1,110.4c1.6,41,40.2,71,80.7,67.1
					c0.8-0.1,1.6-0.2,2.4-0.3c0,0,11.6,49.4,17.5,103.3c0.8,7.8,7.6,13.5,15.3,12.9c40.8-2.9,160.3-18.8,216.4-103.8
					c0,0-78.5-57.7-88-128.1l34,32.8c0,0,2.2,90.4,68.4,52.4c66.2-38-9.1-113.5-39-126.2c0,0-12.8-15.8-16.8-41
					c-5.9-37-9.7-79.7-24.8-87c-11.9-5.7-8.7-12.5-44.7-20.2c0,0-10-13.1-21.1,3.1C777.2,352.6,715.3,325.8,704,316.6z"/>
			</defs>
			<use xlink:href="#SVGID_00000053527912914373404910000005116980984424512396_"  style="overflow:visible;fill:#EF683F;"/>
			<clipPath id="SVGID_00000015312874078551393190000000948007353577156772_">
				<use xlink:href="#SVGID_00000053527912914373404910000005116980984424512396_"  style="overflow:visible;"/>
			</clipPath>
			<path style="clip-path:url(#SVGID_00000015312874078551393190000000948007353577156772_);fill:#EF683F;" d="M583.6,428.4
				c-0.4-1.7-1-3.3-1.1-5c-0.5-8,1.9-15.3,5.8-22.2c0.7-1.2,1.4,17.6,2.2,16.5c0.7-1.1,1.5-2.2-1.1-3.1c3.1-1.4,5.7-2.6,8.2-3.7
				c0-0.2-0.1-0.4-0.1-0.6c-1.6,0.2-3.5-0.1-4.8,0.6c-9.5,6-19.4-8.5-26.7,0.4c-1.3,1.6-2.5,3.2-3.8,4.8c-0.2-0.1-0.5-0.1-0.7-0.2
				c0.1-1,0-2.1,0.3-3c2.2-5.9,6.2,9.5,10.9,5.6c5.5-4.5,11.6-7.9,18.2-10.4c0.5-0.2,1-0.4,1.6-0.7c-0.6-3.7-5.3-6.6-2.1-11
				c1.5,1.3,2.8,2.3,4.4,3.6c0.2-1.8,0.2-3.1,0.4-4.4c0.4-2.7,1.1-5.4,3.6-7c0.6-0.4,1.4-0.3,2.1-0.5c0,0.7,0,1.4-0.2,2.1
				c-0.2,1.2-0.6,2.5-0.7,3.9c6.6-5,13.5-7.9,21.6-5.5c0,0.2,0.1,0.4,0.1,0.6c-2.7,0.5-5.6,0.6-8.1,1.6c-2.5,1-4.8,2.7-7,4.5
				c7.8-2,15.1-1.2,22,2.9c-7.8-2.4-15.1-1.6-22.2,3.5c4.3-0.3,8.2-0.7,12-0.8c4,0,7.5,1.5,10.4,4.3c2.8,2.6,6,4.8,7.4,8.6
				c-0.2,0.2-0.4,0.4-0.5,0.6c-0.6-0.4-1.3-0.8-1.9-1.2c-7.7-6.4-16.3-8.8-26-5.9c-0.5,0.2-1,0.4-1.6,1c12-0.8,22.3-17.5,30.2-8.3
				c-4.2-0.6-6.8,15.5-11.3,14.3c2.1,2.6,4-15,5.9-12.7c-0.2,0.3-0.4,0.6-0.6,0.8c-0.8-0.4-1.8-0.6-2.4-1.1
				c-1.4-1.2-2.7,17.4-4.1,16.2c-2.8-2.2-5.9-2.9-10.1-2.3c4.8,4,9.3-12.4,10.4-6.5c-0.2,0.1-0.4,0.3-0.6,0.4
				c-3.2-3.3-6.4,13.3-9.8,10.1c-3.4-3.2-7.3-5.7-12.9-5.6c7.5,7,12.8-5.5,13.2,4.6c-3.3-7.1-6-14.6-14.3-18.5
				c0.2,8.9,4.9,15.8,7.3,23.5c-6.3-6-10-13.4-11.7-22c-4,8-3.8,16.3-2,24.7c-3.5-4.2-4.5-9.2-5.2-14.5c-3,5.2-3.7,11-4.1,16.9
				C584,428.4,583.8,428.4,583.6,428.4z"/>
		</g>
		<g class="st29">
			<path class="st58" d="M709,740c0,0-12.8-0.1-10,4.8c2.9,4.9,13.7,4.2,13.7,4.2L709,740z"/>
		</g>
		<g>
			<path class="st58" d="M698,324.2c-1,0.4-1.5,1.6-0.9,2.6c3.5,6,15.2,19.8,41,37c9.9,6.6,48.3,8.6,51.6,4.4l0,0
				c2.7-3.4,4.5-7.3,5.5-11.6l5.8-25.8l-10.8-0.9c-0.2-0.1-0.4-0.2-0.6-0.2l-74.6-11.7c-0.3-0.1-0.6,0-0.9,0.1L698,324.2z"/>
		</g>
		<g>
			<g>
				<g>
					<path class="st58" d="M1356.4,710.2c13.3,9.4,19.3,19.8,22,27.9c0,0,0,0,0,0c2.7,8,2,13.8,2,13.8s-1.4,6.2-7.4,12.4
						c-4.8,4.9-12.5,9.7-24.9,11.2c-32.3,4-47.3-11.9-81.1-16.9c-3.9-0.6-8.5-1.1-13.5-1.9c-16.1,3.6-13.6-1.4-12.7-2.7
						c-15.5-4.1-31.5-12.2-38.7-30.7c-1.4-3.6-1.7-7.6-0.8-11.4l0.3-1.1c1-4.4,3.5-8.4,7.1-11.1c14.4-10.9,30-12.4,44-10.6
						c0,0-1.2-4,2.9-3.1c1.9,0.4,5,2,10,5.7c2.3,0.6,4.5,1.3,6.6,1.9C1304.8,703.8,1327.9,690.2,1356.4,710.2z"/>
				</g>
			</g>
			<g>
				<g>
					<path class="st21" d="M1254.1,695.2L1254.1,695.2L1254.1,695.2c1.1,3.5,2.7,6.9,4.9,9.9l7.2,10.4c1,1.5,1.7,3.1,2.1,4.9
						c0.3,1.7,0.3,3.5-0.1,5.3c-0.9,4.1-3.9,7.6-7.8,9.1l-4.5,1.7c-5.3,2.1-9.7,5.9-12.3,10.8c0,0-24.4-5.1-35.3-23.2
						c-4.4-7.3-2-16.9,5.2-21.5C1221.6,697.5,1234.9,692.4,1254.1,695.2z"/>
				</g>
			</g>
			<g>
				<g>
					<path class="st21" d="M1347.5,742c-1,4.3-2.9,9.1-6.1,14.2c-1.8,2.9-5.2,4.4-8.6,3.8c-7.2-1.2-31.5-5-43.3-5.3
						c-13.9-0.3-32.2,5.7-32.4,5.7c-1.9,0.6-3.9-0.4-4.5-2.3c-0.6-1.9,0.4-3.9,2.3-4.5c0.8-0.3,19.7-6.4,34.7-6.1
						c11.9,0.3,35,3.9,44.3,5.4c0.5,0.1,1.1-0.2,1.4-0.6c9-14.1,5.4-24.5,3.5-28.3c-0.2-0.4-0.5-0.6-1-0.7
						c-8-1.5-34.9-6.5-45.7-10.7c-13-5-26.5-17.3-27-17.9c-1.5-1.3-1.6-3.6-0.2-5.1c1.3-1.5,3.6-1.6,5-0.2
						c0.1,0.1,13.1,12,24.8,16.4c10.3,3.9,36.6,8.9,44.5,10.3c2.6,0.5,4.8,2.1,6,4.5C1346.9,724.1,1349.8,731.8,1347.5,742z"/>
				</g>
			</g>
			<g>
				<g>
					<path class="st21" d="M1275.1,741.3c0.7-2.3,1.4-4.5,2-6.8c0.6-2.3,1.1-4.6,1.5-6.9c0.5-2.3,0.8-4.6,1-7
						c0.3-2.3,0.3-4.7,0.4-7.1c0.5,2.3,0.8,4.7,0.7,7.2l0,0.9l-0.1,0.9c0,0.6-0.1,1.2-0.1,1.8c-0.1,1.2-0.3,2.4-0.5,3.6
						c-0.5,2.4-1.1,4.7-1.9,7C1277.4,737,1276.4,739.2,1275.1,741.3z"/>
				</g>
			</g>
			<g>
				<g>
					<path class="st21" d="M1293.6,737.1c-1.1,4.9-2.5,8.1-2.6,8.4c-0.4,0.9-1.4,1.3-2.3,0.9c-0.9-0.4-1.3-1.4-0.9-2.4
						c0.1-0.1,5.5-13.2,3.2-27c-0.2-1,0.5-1.9,1.5-2.1c1-0.2,1.9,0.5,2.1,1.5C1295.7,724.2,1294.8,731.7,1293.6,737.1z"/>
				</g>
			</g>
			<g>
				<g>
					<path class="st21" d="M1305.3,739.1c-1.1,4.9-2.5,8.1-2.6,8.4c-0.4,0.9-1.4,1.3-2.3,0.9c-0.9-0.4-1.3-1.4-0.9-2.4
						c0.1-0.1,5.5-13.2,3.2-27c-0.2-1,0.5-1.9,1.5-2.1c1-0.2,1.9,0.5,2.1,1.5C1307.5,726.2,1306.5,733.6,1305.3,739.1z"/>
				</g>
			</g>
			<g>
				<g>
					<path class="st21" d="M1317,741c-1.1,4.9-2.5,8.1-2.6,8.4c-0.4,0.9-1.4,1.3-2.3,0.9c-0.9-0.4-1.3-1.5-0.9-2.4
						c0.1-0.1,5.5-13.2,3.2-27c-0.2-1,0.5-1.9,1.5-2.1c1-0.2,1.9,0.5,2.1,1.5C1319.2,728.2,1318.2,735.6,1317,741z"/>
				</g>
			</g>
			<g>
				<g>
					<path class="st21" d="M1376.1,750.9c-0.1,0.4-5,21-33.2,24.5c-8.2,1-16.1,0.8-23.9-0.6l-0.1,0c-0.6-0.1-0.9-0.7-0.8-1.3
						c0.1-0.6,0.7-0.9,1.3-0.8l0,0c7.7,1.4,15.1,1.6,23.2,0.6c26.2-3.2,31-21.3,31.4-22.7c0.1-1.3,1.4-23.1-23.7-40.7
						c-5.9-4.1-11.8-7-18.2-8.9c-0.6-0.2-0.9-0.7-0.8-1.3c0.1-0.6,0.7-0.9,1.3-0.8l0.1,0c6.6,1.9,12.8,5,18.9,9.2
						c26.8,18.9,24.7,41.8,24.6,42.8L1376.1,750.9C1376.1,750.9,1376.1,750.9,1376.1,750.9z"/>
				</g>
			</g>
			<g>
				<g>
					<path class="st21" d="M1378.4,738.2C1378.4,738.2,1378.4,738.2,1378.4,738.2c2.7,8.1,2,13.8,2,13.8s-1.4,6.2-7.4,12.4l-1.1-8.1
						c-0.6-4.2,0.3-8.4,2.6-12L1378.4,738.2z"/>
				</g>
			</g>
		</g>
		<g>
			<path class="st58" d="M951.2,789.1c0,1.5-0.5,3-1.7,4.3c-6.5,6.9-15.5,10.8-24.9,10.8h-217c-27.4,0-53.6-7.7-76.1-21.4h313.4
				C948.7,782.8,951.2,785.9,951.2,789.1z"/>
		</g>
		<g>
			<g>
				<g>
					<path class="st58" d="M1000.7,1195.3c-0.3,4,3,7.5,7.2,7.4c11.6-0.2,39.5-0.2,94.5,1.7c48,1.7,64.8-4.4,70.7-8.9
						c2.2-1.7,2.9-4.7,1.7-7.2c0,0,1.5-3.8,1.4-8.3c-0.1-4-1.6-8.5-6.8-11.3c-4.8-2.7-14.9-6.8-26-11.9c-2.9-1.4-6-2.8-9-4.3
						c-9.3-4.7-18.7-10-25.6-15.9c-16.7-14-16.5-16.4-24.8-15.9c0,0-6.1-5.6-10.1-12.7c-1.5-2.7-4.7-4-7.8-3.3
						c-6.7,1.6-17.8,5-24.4,11.3c-1.4,1.3-2.1,3.1-2.1,5l0,12.2l-10.4,4.3c0,0-16.7-19-22.4-16.5c-5.6,2.5-1.8,13.8-1.8,13.8
						s-2.4,6.3-3.6,15.4c-1.4,9.8-1.4,22.9,4.5,34.6C1005.6,1184.8,1001.3,1187.5,1000.7,1195.3z"/>
				</g>
			</g>
			<g>
				<g>
					<path class="st67" d="M1000.7,1195.3c-0.3,4,3,7.5,7.2,7.4c11.6-0.2,39.5-0.2,94.5,1.7c48,1.7,64.8-4.4,70.7-8.9
						c2.2-1.7,2.9-4.7,1.7-7.2c-34.9,8-77.8-4.9-114.8-2.3c-40.1,2.8-54.2-1.2-54.2-1.2S1001.3,1187.5,1000.7,1195.3z"/>
				</g>
			</g>
			<g>
				<g>
					<path class="st21" d="M1049.4,1188.1c-0.7,0-1.3-0.4-1.5-1c-4.3-13.6-10.9-25.2-19.8-34.5c-11.9-12.5-23.7-16.3-23.8-16.4
						c-0.8-0.3-1.2-1.1-1-1.9s1.1-1.2,1.9-0.9c0.5,0.2,12.6,4.1,25,17.2c9.2,9.6,16,21.6,20.4,35.6c0.2,0.8-0.2,1.6-1,1.8
						C1049.6,1188.1,1049.5,1188.1,1049.4,1188.1z"/>
				</g>
			</g>
			<g>
				<g>
					<path class="st21" d="M1004.8,1134.8c0,0,12.1,3.9,24.4,16.8l0,0c0,0,7-5.6,18-10.8c10.7-5.1,23.2-5.2,34-0.3
						c6.5,3,14.8,7.1,24.1,12.6c21.1,12.4,33.6,11.7,37.8,3.7h0c0.7-1.4,0.2-3-1.3-3.7l-3.2-1.4c-0.8-0.4-1.7-0.3-2.4,0
						c-0.5,0.2-1.2,0.5-2.1,0.8c-4.4,1.2-13.4,1.5-26.8-8.9c-8.3-6.5-15.2-11.1-20.9-14.4c-12.1-7-27.1-7.3-39.3-0.6
						c-2.5,1.3-5,2.9-7.7,4.7l-10.4,4.3c0,0-16.7-19-22.4-16.5C1001,1123.5,1004.8,1134.8,1004.8,1134.8z"/>
				</g>
			</g>
			<g>
				<g>
					<path class="st21" d="M1069.4,1187.4c-0.3,0-0.5-0.1-0.8-0.2c-0.7-0.4-1-1.3-0.6-2c0.2-0.3,17-28.5,57.3-19.5
						c37.9,8.4,46.1,4.1,46.2,4.1c0.7-0.5,1.6-0.3,2.1,0.4c0.5,0.7,0.3,1.6-0.4,2.1c-0.8,0.5-9.2,5.1-48.5-3.7
						c-38.1-8.5-53.4,17-54.1,18.1C1070.4,1187.1,1069.9,1187.3,1069.4,1187.4z"/>
				</g>
			</g>
			<g>
				<g>
					<path class="st21" d="M1121.1,1150.6c-0.9,0-1.9-0.5-2.3-1.3c-0.6-1.2-0.1-2.7,1.1-3.3c1-0.5,1.1-1.8,1.1-1.8
						c0.1-1.4,1.3-2.4,2.7-2.3c1.4,0.1,2.4,1.3,2.3,2.6c0,0.4-0.4,4-3.8,5.8C1121.8,1150.5,1121.4,1150.6,1121.1,1150.6z"/>
				</g>
			</g>
			<g>
				<g>
					<path class="st21" d="M1115,1146.5c-0.9,0-1.9-0.5-2.3-1.3c-0.6-1.2-0.1-2.7,1.1-3.3c1-0.5,1.1-1.8,1.1-1.8
						c0.1-1.3,1.4-2.3,2.7-2.2c1.4,0.1,2.4,1.3,2.3,2.6c0,0.4-0.4,4-3.8,5.8C1115.7,1146.4,1115.3,1146.4,1115,1146.5z"/>
				</g>
			</g>
			<g>
				<g>
					<path class="st21" d="M1108.9,1142.3c-0.9,0-1.9-0.5-2.3-1.3c-0.6-1.2-0.1-2.7,1.1-3.3c1-0.5,1.1-1.8,1.1-1.8
						c0.1-1.4,1.3-2.4,2.7-2.3c1.4,0.1,2.4,1.3,2.3,2.6c0,0.4-0.4,4-3.8,5.8C1109.6,1142.2,1109.3,1142.3,1108.9,1142.3z"/>
				</g>
			</g>
			<g>
				<g>
					<path class="st21" d="M1102.8,1138.2c-0.9,0-1.9-0.5-2.3-1.3c-0.6-1.2-0.1-2.7,1.1-3.3c1-0.5,1.1-1.8,1.2-1.8
						c0.2-1.3,1.4-2.3,2.7-2.2c1.4,0.1,2.4,1.3,2.3,2.6c0,0.4-0.4,4-3.8,5.8C1103.6,1138.1,1103.2,1138.2,1102.8,1138.2z"/>
				</g>
			</g>
			<g>
				<g>
					<path class="st21" d="M1083.9,1120.7c-0.1,0.7-0.4,1.3-0.9,1.8c-0.5,0.5-1.1,0.9-1.7,1.2c-0.6,0.3-1.3,0.5-2,0.6
						c-0.7,0.1-1.3,0.1-2,0c0.6-0.3,1.2-0.5,1.8-0.7c0.6-0.2,1.2-0.4,1.7-0.7c0.6-0.2,1.1-0.5,1.6-0.9
						C1083,1121.6,1083.5,1121.2,1083.9,1120.7z"/>
				</g>
			</g>
		</g>
		<g>
			<path class="st58" d="M780.7,559.8c0,1.7-0.2,3.4-0.5,5c-0.3,1.7-0.6,3.3-1,4.9c-0.4,1.6-0.9,3.2-1.4,4.8c-0.5,1.6-1.2,3.1-2,4.7
				c0-1.7,0.2-3.4,0.5-5c0.3-1.7,0.6-3.3,1-4.9c0.4-1.6,0.9-3.2,1.4-4.8C779.3,562.9,779.9,561.3,780.7,559.8z"/>
		</g>
		<g class="st29">
			<path class="st58" d="M639.6,526.4c0,0-31.5,0.3-41,22.7C598.6,549.2,590.5,518,639.6,526.4z"/>
		</g>
		<g class="st29">
			<path class="st58" d="M642.9,521.8c0,0-15.8-13.3-34.6-3.9C608.3,517.9,639.1,501.6,642.9,521.8z"/>
		</g>
		<g class="st29">
			<path class="st58" d="M666.1,629c0,0-32.7-23.9-29.6-82.6C636.5,546.4,627.3,624.6,666.1,629z"/>
		</g>
		<g class="st68">
			<path class="st59" d="M676.7,470.4c0.2,12.1-1.2,24.2-4.2,35.9c-0.9,3.5-1.2,5.8,0.1,4c5-7,24.5,7.7,27,9c6,3-10-29,17.1-27.3
				c1.3,0.1,1.2-2.2-0.2-2.2c-9.1,0.2-24.7-5.4-27.9-9.5c-5.2-6.5-7.2-23.1-10-31c-5.7-16-2.7-13-2.6-30
				C674.3,443.4,676.2,445.7,676.7,470.4z"/>
		</g>
		<g class="st29">
			<path class="st58" d="M719.9,645.4c0,0,16.6-40.4,65.6-53.4C763.3,599.1,697,626.7,719.9,645.4z"/>
		</g>
		<g class="st29">
			<path class="st58" d="M717.6,677.3c0,0,36.1,10.5,57.7-19.9C775.3,657.4,747.9,676.6,717.6,677.3z"/>
		</g>
		<g class="st29">
			<path class="st58" d="M836.1,381.9c0,0,36.4,46.5,18,104.4C854.1,486.3,867.5,470.3,836.1,381.9z"/>
		</g>
		<g>
			<path class="st58" d="M836.1,381.9c0.2,5.3,0.3,10.5,0.7,15.8c0.3,5.3,0.6,10.5,1,15.7c0.8,10.5,20.8,17.9,22.2,28.4
				c1.3,10.4-16,3.8-13.9,14.1l1.7,7.7c0.3,1.3,0.5,2.6,0.9,3.8l1,3.8l1,3.8c0.2,0.6,0.3,1.3,0.5,1.9l0.6,1.9l2.4,7.5
				c-3.7-9.9-6.5-20-8.8-30.3c-2.2-10.3,15.1-3.7,13.7-14.1c-1.3-10.5-21.3-17.9-22-28.4C836.4,402.9,836,392.4,836.1,381.9z"/>
		</g>
		<g>
			<path class="st58" d="M775.3,657.4c-3,4.5-6.7,8.6-11.1,11.9c-2.2,1.7-4.5,3.1-6.9,4.4c-2.4,1.2-5,2.3-7.6,3.1
				c-5.2,1.6-10.7,2.5-16.1,2.5c-5.4,0-10.9-0.6-16.1-2.1c2.6,0.6,5.3,1,8,1.2c2.7,0.2,5.4,0.3,8.1,0.2c5.4-0.2,10.7-1,15.8-2.7
				c2.6-0.8,5-1.8,7.4-3c2.4-1.2,4.7-2.6,6.9-4.2c2.2-1.6,4.3-3.3,6.1-5.2C771.9,661.7,773.6,659.6,775.3,657.4z"/>
		</g>
		<g>
			<path class="st59" d="M785.5,592c-6.9,2.1-13.7,4.7-20.2,8c-6.4,3.3-12.6,7.2-18.2,11.8c-5.7,4.5-10.8,9.7-15.4,15.3
				c-2.3,2.8-4.5,5.7-6.5,8.8c-2,3-3.9,6.2-5.4,9.5c2.8-6.8,6.8-13,11.3-18.7c4.5-5.7,9.7-11,15.4-15.6c2.8-2.3,5.8-4.4,8.9-6.4
				c3.1-2,6.3-3.7,9.5-5.3c1.7-0.8,3.3-1.6,5-2.2l2.5-1l2.6-0.9C778.5,593.9,782,592.9,785.5,592z"/>
		</g>
		<g>
			<path class="st58" d="M633.9,343.2c5.7,2.6,10.9,6.4,15.7,10.6c4.7,4.2,8.9,9.1,12.4,14.4c1.8,2.7,3.3,5.4,4.7,8.3
				c1.4,2.9,2.6,5.8,3.6,8.8c0.5,1.5,1,3,1.4,4.6c0.2,0.8,0.4,1.5,0.6,2.3l0.5,2.3c0.4,1.5,0.6,3.1,0.8,4.7c0.2,1.6,0.4,3.2,0.6,4.7
				c-1-6.3-2.5-12.4-4.6-18.4c-2.2-5.9-5-11.6-8.5-16.8c-3.4-5.3-7.5-10.1-12.1-14.4c-2.3-2.2-4.7-4.2-7.2-6.1
				C639.3,346.4,636.7,344.7,633.9,343.2z"/>
		</g>
		<g>
			<path class="st58" d="M680.6,510.6c-2.8-0.1-5.5,0-8.3,0.2c-2.8,0.2-5.5,0.5-8.2,1.1c-5.4,1.1-10.7,2.8-15.3,5.7
				c-4.6,2.9-8.4,7.2-10.4,12.4c-1,2.6-1.7,5.3-1.9,8.1c-0.2,1.4-0.2,2.8-0.2,4.2c0,1.4,0.1,2.8,0.2,4.2c-0.8-5.5-0.7-11.3,1.2-16.7
				c1.8-5.4,5.8-9.9,10.5-13c4.8-3,10.2-4.7,15.7-5.7C669.4,510.2,675.1,510,680.6,510.6z"/>
		</g>
		<g>
			<path class="st58" d="M639.6,526.4c-2,0.2-4.1,0.5-6.1,0.8c-2,0.4-4,0.8-6,1.3c-4,1.1-7.8,2.5-11.5,4.4c-1.8,0.9-3.6,2-5.3,3.2
				c-1.7,1.2-3.3,2.6-4.8,4c-3,3-5.4,6.6-7.3,10.5c0.7-2.1,1.7-4.1,2.8-5.9c1.2-1.8,2.5-3.6,4-5.2c3-3.2,6.5-5.6,10.2-7.6
				c3.8-1.9,7.7-3.3,11.8-4.2C631.3,526.9,635.5,526.3,639.6,526.4z"/>
		</g>
		<g>
			<path class="st58" d="M642.9,521.8c-1.3-0.9-2.6-1.7-3.9-2.3c-0.7-0.4-1.4-0.7-2-1c-0.7-0.3-1.4-0.6-2.1-0.9
				c-2.8-1.1-5.8-1.9-8.8-2.2c-1.5-0.3-3-0.2-4.5-0.3c-1.5,0.1-3,0.1-4.5,0.4c-3,0.4-5.9,1.4-8.8,2.5c0.7-0.4,1.4-0.7,2.1-1
				c0.7-0.3,1.4-0.7,2.1-0.9l2.2-0.7c0.7-0.3,1.5-0.4,2.3-0.5c1.5-0.4,3.1-0.4,4.6-0.6c1.6,0,3.1,0,4.6,0.3c3.1,0.4,6.1,1.2,8.9,2.5
				C637.9,518.2,640.6,519.8,642.9,521.8z"/>
		</g>
		<g>
			<path class="st58" d="M666.1,629c-6-4.6-10.8-10.6-14.9-17c-4.1-6.4-7.2-13.4-9.7-20.6c-1-3.7-2.2-7.3-2.9-11l-0.6-2.8
				c-0.2-0.9-0.4-1.9-0.5-2.8l-0.7-5.7c-0.1-0.9-0.3-1.9-0.3-2.8l-0.1-2.8l-0.3-5.7c0-1.9,0.1-3.8,0.2-5.7l0.2-5.7
				c0.1,3.8,0,7.6,0.1,11.4l0.4,5.7l0.2,2.8c0.1,0.9,0.2,1.9,0.4,2.8l0.8,5.6c0.1,0.9,0.3,1.9,0.5,2.8l0.6,2.8
				c0.7,3.7,1.9,7.3,2.9,10.9c2.4,7.1,5.5,14.1,9.4,20.5l1.5,2.4l1.6,2.3c1,1.6,2.2,3,3.4,4.5C660.6,623.8,663.2,626.6,666.1,629z"
				/>
		</g>
		<g>
			<path class="st58" d="M717.9,576.1c2.3,6.6,2.8,13.8,1.7,20.7c-1.1,6.9-4.3,13.5-8.9,18.8c-4.6,5.3-10.6,9.3-16.8,12.2
				c-6.3,3-13,4.9-19.8,6.2l5-1.4c1.7-0.5,3.3-1,4.9-1.6c1.6-0.6,3.2-1.2,4.8-1.8c1.6-0.7,3.2-1.4,4.7-2.1
				c6.1-3.1,11.9-6.9,16.4-12.2c2.3-2.6,4.2-5.4,5.7-8.5c1.5-3.1,2.5-6.4,3.2-9.8c0.6-3.4,0.9-6.9,0.7-10.3
				C719.4,582.9,718.9,579.5,717.9,576.1z"/>
		</g>
		<g>
			<path class="st58" d="M799.7,543c0,2.7-2.2,4.9-4.8,4.9c-2.7,0-4.8-2.2-4.8-4.9c0-2.7,2.2-4.9,4.8-4.9
				C797.5,538.1,799.7,540.3,799.7,543z"/>
		</g>
		<g>
			<path class="st69" d="M962.8,711.5c3.7,2.3,7.7,4.1,11.8,5.7c4,1.6,8.2,3,12.4,4.2c4.2,1.2,8.4,2.2,12.7,3
				c2.1,0.4,4.3,0.8,6.4,1.2c2.2,0.3,4.3,0.7,6.5,0.9c8.6,1.1,17.4,1.6,26.1,1.4c8.7-0.2,17.4-1,26.1-2.2c2.2-0.3,4.3-0.6,6.5-1
				l6.4-1.2l6.4-1.3c2.1-0.4,4.3-0.9,6.5-1.2c4.3-0.6,8.7-0.9,13.1-0.9c4.4,0,8.8,0.4,13.1,1.4c4.3,1,8.5,2.6,12.3,4.9
				c3.8,2.3,7.2,5.2,10.1,8.5c5.8,6.7,9.5,15,11.6,23.5l-0.1,0c-1.2-4.2-2.8-8.4-4.8-12.3c-2-3.9-4.4-7.6-7.3-10.8
				c-5.8-6.5-13.7-11-22.1-12.9c-4.2-0.9-8.6-1.3-12.9-1.3c-4.3-0.1-8.7,0.2-13,0.8c-2.2,0.3-4.3,0.7-6.4,1.1l-6.4,1.2l-6.5,1.1
				c-2.2,0.3-4.3,0.6-6.5,0.9c-8.7,1.1-17.4,1.7-26.1,1.9c-8.7,0.2-17.5,0-26.2-0.9c-8.7-0.9-17.3-2.6-25.7-5.1
				c-4.2-1.2-8.3-2.7-12.4-4.4C970.3,715.9,966.4,714,962.8,711.5L962.8,711.5z"/>
		</g>
		<g>
			<path class="st58" d="M857.2,782.8c4.9-2.2,9.7-4.5,14.4-6.9c2.4-1.2,4.7-2.4,7.1-3.7l7-3.8c9.3-5.2,18.5-10.7,27.3-16.6
				c9-5.8,17.5-12.2,25.9-18.8l6.2-5.1c2-1.7,4-3.6,6-5.3l3-2.7c1-0.9,1.9-1.9,2.9-2.8l5.7-5.6c-7.3,7.8-15,15.3-23.3,22.1
				c-8.3,6.8-16.9,13.2-25.8,19.1c-9,5.9-18.1,11.4-27.5,16.4C876.7,774.1,867.1,778.8,857.2,782.8z"/>
		</g>
		<g>
			<path class="st58" d="M1026.2,800.5c1-1.7,2.3-3.3,3.6-4.9c1.3-1.5,2.7-3,4.1-4.4c2.9-2.8,6.1-5.3,9.5-7.5c3.4-2.1,7-4,10.8-5.4
				c1.9-0.8,3.8-1.3,5.8-1.8c1-0.3,2-0.4,2.9-0.6c1-0.2,2-0.4,3-0.5c-3.9,1-7.7,2.1-11.4,3.7l-1.4,0.6c-0.5,0.2-0.9,0.4-1.4,0.6
				l-2.7,1.3c-0.9,0.4-1.7,1-2.6,1.4l-1.3,0.7c-0.4,0.3-0.8,0.5-1.3,0.8c-3.4,2.1-6.6,4.5-9.5,7.2
				C1031.5,794.4,1028.7,797.3,1026.2,800.5z"/>
		</g>
		<g>
			<path class="st58" d="M936.3,690.7c0.7,1.1,1.5,2.1,2.3,3.1c0.8,1,1.6,2,2.5,2.9c1.7,1.9,3.5,3.7,5.5,5.3c0.9,0.9,2,1.6,3,2.4
				c1,0.7,2.1,1.5,3.2,2.1c0.5,0.3,1.1,0.7,1.6,1l1.7,0.9c1.1,0.6,2.3,1.1,3.5,1.7c-2.5-0.7-4.9-1.6-7.2-2.9c-1.2-0.6-2.2-1.3-3.3-2
				c-1-0.8-2.1-1.5-3.1-2.4c-2-1.7-3.8-3.5-5.4-5.6C938.8,695.2,937.4,693.1,936.3,690.7z"/>
		</g>
		<g>
			<path class="st58" d="M973.8,612.3c2.7,2.1,4.9,4.7,6.7,7.6c1.9,2.9,3.3,6,4.2,9.3c0.9,3.3,1.4,6.8,1.2,10.2
				c0,1.7-0.3,3.4-0.5,5.1c-0.1,0.8-0.4,1.7-0.6,2.5c-0.2,0.8-0.4,1.6-0.7,2.5c0.2-1.7,0.6-3.3,0.8-5c0.1-1.7,0.4-3.4,0.2-5
				c0-3.4-0.5-6.7-1.4-9.9c-0.9-3.2-2.2-6.3-3.9-9.2c-0.4-0.7-0.9-1.4-1.3-2.1c-0.5-0.7-1-1.4-1.5-2
				C976.1,614.8,975,613.5,973.8,612.3z"/>
		</g>
		<g>
			<path class="st58" d="M790.7,667.2c-0.1,7.1-0.8,14.1-2,21.1c-1.1,7-2.8,13.9-4.8,20.7l-1.6,5.1l-1.9,5c-0.6,1.7-1.3,3.3-2,4.9
				c-0.7,1.6-1.4,3.3-2.2,4.8c-3.1,6.4-7,12.3-11.3,17.8l2.9-4.4c0.5-0.7,1-1.4,1.5-2.2l1.3-2.3c0.9-1.5,1.8-3,2.6-4.6l2.3-4.7
				c2.9-6.4,5.6-12.9,7.5-19.7c2.1-6.7,3.7-13.6,5-20.5c0.6-3.5,1.2-6.9,1.6-10.4C790.1,674.3,790.4,670.7,790.7,667.2z"/>
		</g>
		<g>
			<path class="st58" d="M1210.2,758.5c0.9-3.1,1.8-6.1,2.6-9.2c0.8-3.1,1.5-6.2,2.2-9.3c1.3-6.3,2.3-12.6,2.9-18.9
				c0.8-6.3,0.9-12.7,0.8-19.1l-0.2-4.8c-0.1-1.6-0.3-3.2-0.5-4.8l-0.2-2.4c-0.1-0.8-0.3-1.6-0.4-2.4l-0.8-4.7
				c1.5,6.2,2.6,12.6,2.8,19c0.2,1.6,0.1,3.2,0.1,4.8c0,1.6,0,3.2-0.1,4.8l-0.2,4.8l-0.4,4.8c-0.7,6.4-1.7,12.7-3.2,19
				C1214.2,746.3,1212.5,752.5,1210.2,758.5z"/>
		</g>
		<g>
			<path class="st58" d="M1033.6,798.6c2-0.8,4.1-1.4,6.2-1.8c2.1-0.4,4.2-0.7,6.4-0.8c2.1-0.1,4.3,0,6.4,0.3
				c2.1,0.2,4.2,0.8,6.3,1.5c-1.1-0.1-2.1-0.4-3.2-0.4l-1.6-0.2l-1.6-0.1c-2.1-0.1-4.2-0.2-6.3-0.1c-2.1,0.1-4.2,0.3-6.3,0.5
				c-1.1,0.1-2.1,0.3-3.1,0.5C1035.7,798.2,1034.7,798.4,1033.6,798.6z"/>
		</g>
		<g>
			<path class="st58" d="M1002.1,1061.6c5,2.5,10.3,4.5,15.6,6.3c5.3,1.7,10.7,3.2,16.2,4.1c5.5,1,11,1.8,16.6,2.1
				c5.6,0.4,11.2,0.2,16.8,0l-4.2,0.4c-1.4,0.1-2.8,0.3-4.2,0.3c-2.8,0.1-5.6,0.2-8.4,0c-5.6-0.1-11.2-0.9-16.8-1.8
				c-5.5-1-11-2.5-16.3-4.4c-2.7-0.9-5.3-2-7.8-3.1C1007,1064.3,1004.5,1063.1,1002.1,1061.6z"/>
		</g>
		<g>
			<path class="st58" d="M1207.5,700.9C1207.4,700.9,1207.4,700.9,1207.5,700.9c-0.1,0-2.9-0.6-7.9-1.6c-0.3-0.1-0.4-0.3-0.4-0.6
				s0.3-0.4,0.6-0.4c5,1,7.8,1.6,7.8,1.6c0.3,0.1,0.4,0.3,0.4,0.6C1207.9,700.8,1207.7,700.9,1207.5,700.9z M1191.8,697.7
				c0,0-0.1,0-0.1,0c-2.4-0.5-5-1-7.8-1.6c-0.3-0.1-0.4-0.3-0.4-0.6c0.1-0.3,0.3-0.4,0.6-0.4c2.8,0.6,5.4,1.1,7.8,1.6
				c0.3,0.1,0.4,0.3,0.4,0.6C1192.3,697.6,1192.1,697.7,1191.8,697.7z M1176.3,694.4c0,0-0.1,0-0.1,0c-2.5-0.5-5.1-1.1-7.8-1.7
				c-0.3-0.1-0.4-0.3-0.4-0.6c0.1-0.3,0.3-0.4,0.6-0.4c2.7,0.6,5.3,1.1,7.8,1.7c0.3,0.1,0.4,0.3,0.4,0.6
				C1176.7,694.3,1176.5,694.4,1176.3,694.4z M1160.7,691.1c0,0-0.1,0-0.1,0c-2.5-0.6-5.1-1.1-7.8-1.7c-0.3-0.1-0.4-0.3-0.4-0.6
				c0.1-0.3,0.3-0.4,0.6-0.4c2.6,0.6,5.2,1.2,7.8,1.7c0.3,0.1,0.4,0.3,0.4,0.6C1161.2,690.9,1161,691.1,1160.7,691.1z M1145.2,687.6
				c0,0-0.1,0-0.1,0c-2.5-0.6-5.1-1.1-7.8-1.7c-0.3-0.1-0.4-0.3-0.4-0.6c0.1-0.3,0.3-0.4,0.6-0.4c2.6,0.6,5.2,1.2,7.8,1.7
				c0.3,0.1,0.4,0.3,0.4,0.6C1145.7,687.5,1145.5,687.6,1145.2,687.6z M1129.7,684.1c0,0-0.1,0-0.1,0c-2.6-0.6-5.1-1.2-7.7-1.8
				c-0.3-0.1-0.4-0.3-0.4-0.6c0.1-0.3,0.3-0.4,0.6-0.4c2.6,0.6,5.2,1.2,7.7,1.8c0.3,0.1,0.4,0.3,0.4,0.6
				C1130.2,684,1130,684.1,1129.7,684.1z M1114.2,680.6c0,0-0.1,0-0.1,0c-2.6-0.6-5.1-1.2-7.7-1.8c-0.3-0.1-0.4-0.3-0.4-0.6
				c0.1-0.3,0.3-0.4,0.6-0.4c2.6,0.6,5.2,1.2,7.7,1.8c0.3,0.1,0.4,0.3,0.4,0.6C1114.7,680.4,1114.5,680.6,1114.2,680.6z
				 M1098.8,676.9c0,0-0.1,0-0.1,0c-2.6-0.6-5.2-1.2-7.7-1.9c-0.3-0.1-0.4-0.3-0.4-0.6c0.1-0.3,0.3-0.4,0.6-0.4
				c2.6,0.6,5.2,1.2,7.7,1.9c0.3,0.1,0.4,0.3,0.4,0.6C1099.2,676.8,1099,676.9,1098.8,676.9z M1083.3,673.2c0,0-0.1,0-0.1,0
				c-2.6-0.6-5.2-1.3-7.7-1.9c-0.3-0.1-0.4-0.3-0.4-0.6c0.1-0.3,0.3-0.4,0.6-0.4c2.6,0.6,5.1,1.3,7.7,1.9c0.3,0.1,0.4,0.3,0.4,0.6
				C1083.8,673,1083.6,673.2,1083.3,673.2z M1067.9,669.3c0,0-0.1,0-0.1,0c-2.6-0.7-5.2-1.3-7.7-2c-0.3-0.1-0.4-0.3-0.4-0.6
				c0.1-0.3,0.3-0.4,0.6-0.4c2.5,0.7,5.1,1.3,7.7,2c0.3,0.1,0.4,0.3,0.4,0.6C1068.4,669.1,1068.2,669.3,1067.9,669.3z M1052.6,665.2
				c0,0-0.1,0-0.1,0c-2.6-0.7-5.2-1.4-7.7-2.1c-0.3-0.1-0.4-0.3-0.3-0.6c0.1-0.3,0.3-0.4,0.6-0.3c2.5,0.7,5.1,1.4,7.7,2.1
				c0.3,0.1,0.4,0.3,0.4,0.6C1053,665.1,1052.8,665.2,1052.6,665.2z M1037.3,661c0,0-0.1,0-0.1,0c-2.6-0.7-5.2-1.5-7.6-2.2
				c-0.3-0.1-0.4-0.4-0.3-0.6c0.1-0.3,0.4-0.4,0.6-0.3c2.5,0.7,5,1.5,7.6,2.2c0.3,0.1,0.4,0.4,0.3,0.6
				C1037.7,660.9,1037.5,661,1037.3,661z M1022,656.4c0,0-0.1,0-0.1,0c-2.7-0.8-5.2-1.7-7.6-2.4c-0.3-0.1-0.4-0.4-0.3-0.6
				c0.1-0.3,0.4-0.4,0.6-0.3c2.3,0.8,4.9,1.6,7.6,2.4c0.3,0.1,0.4,0.4,0.3,0.6C1022.4,656.3,1022.2,656.4,1022,656.4z"/>
		</g>
		<g>
			<path class="st58" d="M775.6,428.4c-0.4,0.7-0.8,1.5-1.1,2.3c-0.3,0.8-0.6,1.6-0.9,2.4c-0.5,1.6-0.9,3.3-1.2,4.9
				c-0.3,1.7-0.5,3.3-0.7,5l-0.2,2.5c-0.1,0.9-0.1,1.7-0.2,2.6c-0.1-0.9-0.2-1.7-0.3-2.6c0-0.9-0.1-1.7-0.1-2.6
				c0-1.7,0.2-3.5,0.5-5.2c0.3-1.7,0.8-3.4,1.4-5C773.5,431.2,774.4,429.6,775.6,428.4z"/>
		</g>
		<g>
			<g>
				<path class="st59" d="M976.2,344.9c0,0,4.1-6.2,10.1-3.6c5.9,2.6-1.2,13.4-4,15.7c0,0,8.6-5,14.7,2l9.9-10.4
					c0,0,2.5-5.1,5.3-8.9c0,0,0.2-14.5,8.3-18.1c2.4-1.1,5,1,4.4,3.7l-2.1,9.3c0,0-0.1,19.7-12.3,32c-1.4,1.4-2.4,3.1-2.9,5l1.6,2.3
					c1.7,2.4,2.3,5.4,2.1,8.3c-0.2,1.9,0.1,3.7,0.7,5.5l0.3,0.8c1,2.8,1,5.9,0,8.8l-0.6,1.8l-2.4,10.2c-0.8,3.2-2.6,6-5.1,8
					c-4.2,3.3-11.1,8.2-19.1,11.9c-3.1,1.4-5.4,4.2-6.1,7.6l0,0c-0.5,2-0.3,4,0.3,6l28.8,86.4c0,0-30.9,44.6-70.7,37.8l2.9-98.9
					c0.6-19.4,3.4-38.6,8.5-57.3l0,0c0,0-1.7-25.6,9.5-45C958.1,365.8,963.5,344.5,976.2,344.9z"/>
			</g>
			<g>
				<path class="st59" d="M1007,348.6c0.9-1.5,1.8-3,2.7-4.4c0.9-1.4,1.9-2.9,2.9-4.2l0.1-0.1l0-0.1c0.2-3.1,0.6-6.2,1.4-9.2
					c0.4-1.5,1-3,1.8-4.3c0.2-0.3,0.4-0.6,0.6-1c0.2-0.3,0.4-0.6,0.7-0.9l0.8-0.8l0.9-0.7c0.3-0.3,0.6-0.4,1-0.6
					c0.3-0.2,0.7-0.4,1-0.5c0.7-0.2,1.4-0.2,2.1,0.1c0.6,0.3,1.2,0.8,1.4,1.4c0.3,0.6,0.3,1.3,0.1,2c-0.7,3-1.5,6.1-2.2,9.2l0,0.1
					l0,0.1c0,1.3-0.1,2.6-0.2,3.9c-0.1,1.3-0.3,2.6-0.5,3.9c-0.4,2.6-0.9,5.1-1.5,7.7l0.1,0c0.9-2.4,1.7-5,2.2-7.5
					c0.5-2.6,0.9-5.2,1-7.8l0,0.1c0.7-3.1,1.4-6.1,2-9.2c0.2-0.8,0.1-1.8-0.3-2.6c-0.4-0.8-1.1-1.4-1.9-1.7c-0.8-0.3-1.7-0.3-2.5,0
					c-0.4,0.1-0.7,0.4-1.1,0.6c-0.3,0.2-0.7,0.4-1,0.7c-2.5,2-4,4.9-5.1,7.9c-1,3-1.7,6.1-1.7,9.3l0.1-0.2c-1,1.4-1.9,2.9-2.8,4.4
					C1008.3,345.4,1007.5,347,1007,348.6L1007,348.6z"/>
			</g>
			<g>
				<path class="st59" d="M982.5,357.4c0.6-0.3,1.2-0.5,1.8-0.8l-0.4-0.9c-1.1,0.4-1.7,0.8-1.8,0.8L982.5,357.4z"/>
			</g>
			<g>
				<g>
					<polygon class="st58" points="946.5,389.7 1039.9,310.4 1036.4,306.1 942.9,385.4 941.8,390 					"/>
				</g>
			</g>
			<g>
				<path class="st59" d="M968.4,380.6l-1.8,6l-1.9,3.9c-1.6,3.3,1.3,6.9,4.8,6c3.4-0.9,5.2-2.9,5.2-2.9c4.7,5,13.3,2.8,13.3,2.8
					l6.9,3.5c-0.5,10.1,6.9,19.2,6.9,19.2c0.8-0.6,1.6-1.2,2.2-1.7c2.6-2,4.4-4.8,5.1-8l2.4-10.2l0.6-1.8c1-2.8,1-5.9,0-8.8
					l-0.3-0.8c-0.6-1.8-0.9-3.7-0.7-5.5c0.3-3-0.5-6.1-2.3-8.6l-1.4-2L997,359c-4.4-5-10.1-3.8-13-2.8c-0.5,0.3-1.1,0.5-1.7,0.8
					c0,0,0,0,0,0c-4.4,1.8-8.9,3.1-12.2,4c-3.1,0.8-5.7,3-7.2,5.9c-2.1,4.1-4.7,7.9-6.6,10.7c-1.7,2.3-0.5,5.6,2.3,6.3
					C965.4,385.5,968.4,380.6,968.4,380.6z"/>
			</g>
		</g>
		<g>
			<path class="st58" d="M974,399.4c2.4,1.3,5.5,1.1,8,0c1.3-0.5,2.4-1.3,3.5-2c0.6-0.3,1.1-0.8,1.7-1c0.6-0.2,1.2-0.1,1.9-0.1
				c1.3,0.1,2.7,0.2,4,0.2c0.6,0,1.1,0.3,1.5,0.7c0.2,0.2,0.4,0.4,0.5,0.7c0.1,0.3,0.3,0.6,0.5,0.9c1.4,2.4,3.3,4.4,5.5,6l0.1-0.1
				c-1.8-2.1-3.4-4.2-4.7-6.5l-0.5-0.9c-0.2-0.3-0.5-0.7-0.8-0.9c-0.6-0.5-1.4-0.8-2.2-0.8c-1.4,0-2.7,0.1-4,0.1l-1,0
				c-0.4,0-0.7,0.1-1,0.2c-0.3,0.1-0.6,0.3-0.9,0.5c-0.3,0.2-0.6,0.4-0.8,0.5c-1.1,0.7-2.4,1.2-3.7,1.5
				C979.3,399.4,976.7,399.9,974,399.4L974,399.4z"/>
		</g>
		<g>
			<path class="st58" d="M974.1,399.3c-1.5-0.9-2-2.8-1.2-4.2c0.2-0.3,0.4-0.7,0.7-0.9c0.3-0.3,0.6-0.4,1-0.7
				c0.8-0.4,1.5-0.9,2.2-1.4c1.4-1,2.7-2.2,3.9-3.5c0.6-0.6,1.3-1.1,2.1-1.4c0.8-0.3,1.6-0.4,2.5-0.7c1.7-0.4,3.4-0.8,5-1.2l2.5-0.7
				l1.2-0.3c0.4-0.1,0.8-0.2,1.2-0.2c0.8-0.1,1.6,0,2.4,0.2c0.8,0.2,1.5,0.6,2.3,1c1.6,0.7,3.2,1.4,4.8,2l0-0.1
				c-1.5-0.9-3-1.8-4.5-2.6c-0.8-0.4-1.5-0.9-2.4-1.2c-0.9-0.3-1.8-0.4-2.7-0.4c-0.5,0-0.9,0.1-1.4,0.2c-0.4,0.1-0.8,0.2-1.3,0.4
				l-2.5,0.8c-1.7,0.5-3.3,1-4.9,1.6c-0.8,0.3-1.6,0.5-2.5,0.9c-0.8,0.4-1.5,0.9-2.2,1.5c-1.2,1.2-2.7,2.1-4.1,3l-2.2,1.3
				c-0.3,0.2-0.8,0.4-1.1,0.8c-0.3,0.3-0.6,0.8-0.8,1.2c-0.4,0.9-0.4,1.9,0,2.8C972.5,398.4,973.2,399.1,974.1,399.3L974.1,399.3z"
				/>
		</g>
		<g>
			<path class="st58" d="M962.8,390.4c0.1,2.1,0.4,4.2,0.6,6.3l0-0.1c-0.1,0.8-0.1,1.7-0.1,2.5c0,0.9-0.1,1.6,0,2.6
				c0.2,1.9,1.7,3.5,3.5,3.9c0.9,0.2,1.9,0.1,2.7-0.2c0.9-0.4,1.5-1,2.1-1.6c1.2-1.3,2-2.8,2.4-4.4c-0.7,1.5-1.7,2.9-2.9,4
				c-0.6,0.6-1.2,1.1-1.9,1.3c-0.7,0.3-1.5,0.3-2.2,0.1c-1.4-0.4-2.6-1.6-2.8-3.1l0-0.6l0-0.6l0-1.3c0-0.8,0-1.7,0-2.5l0-0.1l0,0
				C963.8,394.5,963.4,392.4,962.8,390.4z"/>
		</g>
		<g>
			<path class="st58" d="M962.9,390.4c-0.1-0.5-0.2-1.1-0.2-1.6c-0.1-0.5-0.1-1.1,0-1.6c0-1.1,0.3-2.1,0.6-3.1
				c0.4-1,0.9-1.9,1.5-2.7c0.6-0.8,1.4-1.6,2.1-2.4c1.4-1.7,2.7-3.4,3.9-5.2c1.1-1.8,2.8-3.3,4.9-3.9c1-0.3,2-0.4,3.1-0.5l3.2-0.2
				l3.2-0.3l1.6-0.1c0.5,0,1.1-0.1,1.5-0.1c0.5,0,0.9,0.1,1.4,0.3c0.4,0.2,0.9,0.5,1.4,0.7l2.9,1.5c1.9,1,3.8,1.9,5.8,2.8l0-0.1
				c-1.8-1.2-3.6-2.3-5.5-3.4l-2.8-1.6c-0.5-0.3-0.9-0.5-1.5-0.8c-0.5-0.2-1.1-0.4-1.7-0.4c-0.6,0-1.1,0.1-1.7,0.1l-1.6,0.2
				l-3.2,0.4l-3.2,0.4c-1.1,0.1-2.2,0.3-3.2,0.8c-1,0.4-2,1-2.8,1.7c-0.8,0.7-1.5,1.6-2.1,2.5c-1.3,1.7-2.8,3.3-4.3,4.8
				c-0.7,0.8-1.5,1.5-2.2,2.4c-0.7,0.9-1.2,1.9-1.6,3c-0.3,1.1-0.5,2.2-0.4,3.3C962.1,388.3,962.5,389.4,962.9,390.4L962.9,390.4z"
				/>
		</g>
		<g>
			<path class="st58" d="M994.2,365.1c-2.3-1.5-4.8-2.7-7.3-3.8c-2.5-1.1-5-2.2-7.7-2.9c2.3,1.5,4.8,2.7,7.3,3.8
				C989,363.3,991.5,364.3,994.2,365.1z"/>
		</g>
		<g>
			<path class="st58" d="M975.3,392.5c0.3-1.1,0.5-2.1,0.6-3.2c0-0.5,0.1-1.1,0.1-1.6c0-0.5,0-1.1-0.1-1.6l-0.2,0.3
				c0.6-0.4,1.1-0.9,1.7-1.3c0.6-0.4,1.2-0.8,1.8-1.1l1.9-1c0.6-0.3,1.2-0.7,1.8-1.1l-0.5,0c1.1,0.6,2.2,1.2,3.4,1.7
				c1.2,0.5,2.3,1,3.5,1.4l0-0.1c-1-0.8-2.1-1.5-3.2-2.1c-1.1-0.7-2.2-1.3-3.3-1.8l-0.3-0.1l-0.2,0.2c-0.6,0.4-1.2,0.8-1.7,1.2
				l-1.7,1.3c-0.6,0.4-1.1,0.8-1.7,1.2c-0.6,0.4-1.2,0.7-1.9,1l-0.1,0.1l0,0.2c-0.1,0.5-0.1,1.1-0.1,1.6c0,0.5,0,1.1,0,1.6
				C975.1,390.3,975.1,391.4,975.3,392.5L975.3,392.5z"/>
		</g>
		<g>
			<path class="st58" d="M993.4,403.5c-2.2,0.9-4.2,2.2-6.1,3.6c-1.9,1.4-3.7,3-5.3,4.7c-1.6,1.7-3,3.7-4.2,5.8
				c-1.2,2.1-2,4.3-2.5,6.6c0.5-1.1,0.9-2.2,1.5-3.2c0.3-0.5,0.5-1,0.8-1.5l0.9-1.5c1.3-1.9,2.7-3.8,4.3-5.5c1.6-1.7,3.3-3.3,5-4.8
				c0.9-0.7,1.8-1.5,2.7-2.1C991.4,404.8,992.4,404.2,993.4,403.5z"/>
		</g>
		<g>
			<path class="st58" d="M968.5,405.2c0.4,0.8,0.6,1.6,0.8,2.4c0.2,0.8,0.4,1.6,0.6,2.5c0.3,1.7,0.5,3.3,0.6,5
				c0.1,1.7,0.1,3.4,0.1,5.1l-0.1,2.6c0,0.9-0.1,1.7-0.1,2.6c0.2-0.8,0.4-1.7,0.6-2.5c0.1-0.9,0.3-1.7,0.4-2.6
				c0.2-1.7,0.2-3.5,0.1-5.2c-0.1-1.7-0.4-3.5-0.8-5.1C970.2,408.2,969.5,406.6,968.5,405.2z"/>
		</g>
		<g>
			<path class="st58" d="M737.5,577.3c-2.7,2-5.6,3.8-8.5,5.6c-3,1.7-6,3.3-9.3,4.7c-3.2,1.4-6.8,2.5-10.4,3.4
				c-3.7,0.9-7.6,1.3-11.7,1.6c4.3,0.5,8.6,0.6,12.7,0c4-0.6,7.8-1.7,11.3-3.1C728.3,586.6,734,582.4,737.5,577.3z"/>
		</g>
		<g>
			<path class="st59" d="M911.6,497.9c-0.3-0.8-0.9-1.5-1.7-1.9c-0.8-0.4-1.8-0.5-2.6-0.2c-3,0.7-6,1.5-9,2.3
				c-2.6,0.2-5.2,0.6-7.7,1.2c-2.5,0.6-5,1.4-7.4,2.4l0,0.1c2.5-0.7,5-1.3,7.5-1.7c1.3-0.2,2.5-0.4,3.8-0.6c1.3-0.1,2.6-0.3,3.8-0.3
				l0.1,0l0.1,0c3-0.8,6-1.6,9-2.4c0.7-0.2,1.4-0.2,2,0.1c0.6,0.3,1.1,0.8,1.4,1.4c0.3,0.6,0.4,1.4,0.2,2.1c-0.1,0.4-0.3,0.7-0.5,1
				c-0.2,0.3-0.3,0.7-0.6,1l-0.7,0.9l-0.8,0.8c-0.3,0.3-0.6,0.5-0.9,0.7c-0.3,0.2-0.6,0.5-0.9,0.7c-1.3,0.8-2.8,1.4-4.2,1.9
				c-2.9,0.9-6,1.4-9,1.7l-0.1,0l-0.1,0.1c-1.3,1.1-2.7,2.1-4.1,3c-1.4,1-2.8,1.9-4.3,2.8l0,0.1c1.6-0.7,3.1-1.5,4.6-2.4
				c1.5-0.8,2.8-1.8,4.2-2.8c3.1-0.1,6.2-0.8,9.1-2c2.9-1.2,5.8-2.7,7.7-5.3c0.3-0.3,0.5-0.7,0.6-1c0.2-0.4,0.4-0.7,0.5-1.1
				C911.9,499.6,911.9,498.7,911.6,497.9z"/>
			<path class="st59" d="M904,561.3c-8.6-7.5-17.2-14.9-25.7-22.4c0.1-0.2,0.1-0.3,0.2-0.5l-0.9-0.4c0,0.1,0,0.1-0.1,0.2
				c-1.6-1.4-3.3-2.9-4.9-4.3c-2-1.8-4.3-3-6.9-3.8c-15.3-4.2-11.1-24.9-45.1-24.9c-13.7,0-30.3,2.1-44.9,5.3
				c-6.2,1.4-12,2.8-17.1,4.1c-16.8,4.3-35.4,6.8-52.1,11.8c-12.9,3.9-28.7,11.3-31.4,26c-9.1,49.1,35.6,68.8,69.4,45.9l4.2-3.8
				c5.4-4.9,10.1-10.4,14.2-16.4c11.9-17.7,37.3-45.6,40.7-41.9c33.5,35.8,39.1,15.3,33,7c-3.4-4.6,18,19.1,22.9,22.2
				c3.4,2.2,7.1,4.5,11.9,2.5c-8.1-7.7-16.1-15.2-24-22.8c0.4-0.4,0.7-0.8,1.1-1.1c1.7,1.4,3.2,3.2,5.2,4.2
				c11,5.6,20.9,12.8,30.4,20.7c2.4,2,5.5,3.1,8.8,1.7c-10.7-10.1-19.1-22.6-32.8-29.3c-2.3-1.1-4.5-2.5-5.6-5
				c17.5,6.7,28.6,21.1,41,34c0.7,0.4,1.4,0.9,2.2,1.2c1.9,1,4.3,1.6,5.5-0.1c1.4-1.9-1.3-2.8-2.5-4c-10.4-11.1-20.9-22.2-33.9-30.5
				c-0.7-0.5-2.5-0.9-1.2-2.5c0.4,0,0.7-0.1,1,0c12.8,7.9,23.5,18.3,33.6,29.4c2.2,2.5,4.6,3.4,7.6,1.8
				C906.9,563.6,905.4,562.5,904,561.3z"/>
		</g>
		<g>
			<g>
				<g>
					<g>
						<path class="st59" d="M814.3,571h202.8c2.4,0,4.5-1.6,5.3-3.8l1.6-4.9l41.6-127.9c1.2-3.6-1.5-7.3-5.3-7.3H857.5
							c-2.4,0-4.5,1.6-5.3,3.9l-43.2,132.8C807.9,567.3,810.6,571,814.3,571z"/>
					</g>
				</g>
			</g>
			<g>
				<g>
					<path class="st58" d="M811.8,566.1c0,0-0.1,0-0.1,0c-0.2-0.1-0.3-0.3-0.3-0.5l43.2-132.8c0.8-2.5,3.1-4.1,5.7-4.1H1061
						c0.2,0,0.4,0.2,0.4,0.4c0,0.2-0.2,0.4-0.4,0.4H860.2c-2.2,0-4.2,1.4-4.9,3.6l-43.2,132.8C812.1,566,811.9,566.1,811.8,566.1z"
						/>
				</g>
			</g>
		</g>
		<path class="st58" d="M954.8,505.6c-5.5,0-10-4.5-10-10c0-4,2.3-7.4,5.6-9c-2.2-0.9-4.7-1.3-7.5-1.3c-11.2,0-22.3,7.5-24.8,16.8
			c-2.5,9.3,4.6,16.8,15.8,16.8c9.9,0,19.7-5.9,23.6-13.7C956.6,505.4,955.7,505.6,954.8,505.6z"/>
		<g>
			<g>
				<g>
					<g>
						<path class="st70" d="M768.9,632.8h202c2.4,0,4.5-0.7,5.3-1.7l1.6-2.2l41.4-57.1c1.2-1.6-1.5-3.3-5.3-3.3h-202
							c-2.4,0-4.5,0.7-5.3,1.7l-43,59.3C762.5,631.2,765.2,632.8,768.9,632.8z"/>
					</g>
				</g>
			</g>
			<g>
				<g>
					<path class="st70" d="M766.3,630.6c0,0-0.1,0-0.1,0c-0.2,0-0.3-0.1-0.3-0.2l43-59.3c0.8-1.1,3.1-1.8,5.6-1.8h200
						c0.2,0,0.4,0.1,0.4,0.2s-0.2,0.2-0.4,0.2h-200c-2.2,0-4.2,0.6-4.9,1.6l-43,59.3C766.7,630.6,766.5,630.6,766.3,630.6z"/>
				</g>
			</g>
		</g>
		<path class="st71" d="M813.4,586.1c7.8,0.4,15.6,0.9,23.4,1.3c-8.4,0.5-16.6,3.3-23.5,8c7.6-0.4,15.3,0.6,22.5,3
			c-10,4.6-19.9,9.2-29.9,13.7c4.4,0.3,8.7,0.5,13.1,0.8c-3.3,2.9-7.1,5.1-11.2,6.5"/>
		<g>
			<path class="st58" d="M735,588.7c-0.7,0.6-1.3,1.1-2.1,1.5c-0.7,0.5-1.5,0.9-2.2,1.3c-1.5,0.8-3.1,1.4-4.6,2
				c-1.6,0.6-3.2,1.1-4.8,1.6l-2.5,0.7c-0.8,0.2-1.7,0.4-2.5,0.6c0.9,0,1.7-0.1,2.6-0.2c0.9-0.1,1.7-0.2,2.6-0.4
				c1.7-0.3,3.4-0.8,5-1.4c1.6-0.6,3.2-1.3,4.7-2.3C732.6,591.2,734,590.1,735,588.7z"/>
		</g>
		<path class="st72" d="M785.5,444.3c-2.9,10.6,1.9,17.7-4,27c-5.9,9.3-6.6,9.9-15,17c0,0,5.7-12.7,10-20
			C781.7,459.5,785.5,444.3,785.5,444.3z"/>
		<g>
			<path class="st58" d="M709,740c0,0,20.9,81.7,168.5,47.6l146.9,15.8c-19.1,34.4,0,118.3-22.3,258.3c0,0-2.9,7.2-8.6,20
				c0,0,30.4,39.8,87.4,12.8c0,0-3.7-16.7,25.2-117.7s54.3-163.7,44.7-218.3l58.4,2.2l18.9,2.1c0,0,20.4-29.7,4.5-78.8l-15.6-1.1
				c0,0-52.1-6.1-157.9-56.1c-103.9-49.1-151.9-15.2-151.9-15.2l-117.6,41.8C789.5,653.3,778.3,730.8,709,740z"/>
		</g>
	</g>
	<g>
		<polygon class="st58" points="1355.5,1207.6 364.6,1207.6 62.5,1204.3 1355.5,1204.8 		"/>
	</g>
	<g>
		<path class="st70" d="M734.4,206.4c-1.6-1.1-3.7-0.9-5.6-0.5c-18,4.3-18.6,25.8-9.9,38.6c1.5,2.2,3.2,4.3,3.7,6.9
			c0.4,2,0,4-0.4,5.9c-3.2,16.4-4.4,33.6-9.5,49.5c-1.1,3.4-5.2,5.8-5.1,9.3c0.1,3.4,1.5,6.7,3,9.7c5.3,10.4,13.4,19.4,23.2,25.8
			c6.5,4.2,12.3,10.5,20,11.8c41.6,6.9,45.6-32.5,40.6-34.1c-10.1-3.4-33-8.9-39-21c-5.4-10.8-6.3-24.5-12.2-37
			c-1-2.1,2.2-3.7,3.3-1.7c0.1,0.2,6.3,24.8,13.2,35c8.6,12.5,24.4,17.7,39.3,21c9.6,2.1,19.3-2.3,27.7-7.5
			c16.6-10.2,19-42.9,22.6-59.9c3.4-15.9-0.2-24.3,4.2-39.9c1.3-4.6,6.3-18.3,0.2-21.1c-0.8-0.4-1.7-0.6-2.6-0.8l-49.7-10.9
			c-8.2-1.8-17-3.6-24.8-0.7c-12.3,4.5-18.1,18.6-21.6,30.9c-0.4,1.5-1.2,3-2.4,4.1c-4.6,4.2-10.1-0.3-13.7-4.4"/>
		<path class="st70" d="M837.3,333.9c-0.4-0.2-0.7-0.4-1-0.6C837.2,334,837.3,334.1,837.3,333.9z"/>
	</g>
	<path class="st58" d="M829.5,145.1c1.7-0.2,3.4-0.4,5.1-0.6c-28.7-8.1-54-15.2-78,0.2c-2.1,1.3-5.2,1.5-9.2,0.3
		c-1.1,1.8-2.5,3.6-3.4,5.5c-0.7,1.4-1,2.9-1.4,4.4c-0.3,0.3-0.7,0.6-1,0.8c-3.9,0.4-7.5,0.7-12.3,1.2c1.8,1.8,3.1,3,4.7,4.6
		c-8.3,7.6-15.1,17.6-19.7,29c-11.2,27.6-4,49.7,1.9,65.8c3.7,10.1,9.7,1.9,7.3-1.1c-6.2-7.8-7.8-17.2-6.9-26.9
		c0.4-4.6,2.6-8.8,5.8-12.1c2.4,7.3,5.7,14.3,8.7,20.7c4.3-8.2,8-15.5,11.4-22.5c1.3,3.9,4.1,9.1,6.2,9.7c5,1.5,7.4,1,8.8-4.7
		c1.2-5,3.8-9.9,6.5-14.4c3.4-5.8,8.6-11.4,15.2-14.8c20.1,6,40.4,12.1,61.5,18.4c0.7-3.5,1.3-6.5,2-10.4
		c10.6,6.4,16.5,15,20.6,24.4c7.2-0.6,7-0.6,14.2-1.2c2-8.3,3.9-16.6,4.7-24.9C885,170.3,864.8,156.9,829.5,145.1z"/>
	<path class="st65" d="M828.1,141.3c1.7-0.2,3.4-0.4,5.1-0.6c-28.8-8.1-54.2-15.2-78.3,0.2c-2.1,1.3-5.2,1.5-9.2,0.3
		c-1.2,1.8-2.5,3.6-3.4,5.5c-0.7,1.4-1,2.9-1.4,4.4c-0.3,0.3-0.7,0.6-1,0.8c-3.9,0.4-7.5,0.7-12.3,1.2c1.8,1.8,3.1,3,4.7,4.6
		c-8.4,7.6-15.1,17.6-19.8,29c-11.3,27.6-4,49.7,1.9,65.8c3.7,10.1,9.7,1.9,7.3-1.1c-6.2-7.8-7.8-17.2-6.9-26.9
		c0.4-4.6,2.6-8.8,5.8-12.1c2.4,7.3,5.7,14.3,8.7,20.7c4.3-8.2,8-15.5,11.4-22.5c1.3,3.9,4.1,9.1,6.2,9.7c5,1.5,7.5,1,8.9-4.7
		c1.2-5,3.8-9.9,6.5-14.4c3.4-5.8,8.6-11.4,15.2-14.8c20.2,6,40.6,12.1,61.7,18.4c0.7-3.5,1.3-6.5,2-10.4
		c10.7,6.4,16.5,15,20.7,24.4c7.2-0.6,7.1-0.6,14.3-1.2c2-8.3,3.9-16.6,4.8-24.9C883.8,166.5,863.5,153.1,828.1,141.3z"/>
	<path class="st58" d="M806.5,276.5c2.9-1.6,6-1.1,9-1.1c6.2-0.1,6.2-0.1,5.5-6.4c-0.8-7.6-5.7-17.1-6.5-24.7
		c-0.1-1.1-1.1-3,0.9-3.2c1.6-0.1,1.1,1.7,1.2,2.7c1,9.5,8.3,21.2,7,30.7c0.2,1.6,0.3,3.1-2,3.1
		C816.7,277.6,811.6,278.1,806.5,276.5z"/>
	<g class="st43">
		<path class="st58" d="M686.5,534.3c-15,12-15.1,28.1-11.1,43.8c5.1,20.2,23.1,30.2,39.1,30.2c11,0,31.3-8,24-8
			c-2.3,0-9.9,4.9-17,6c-11.4,1.8-27.6-2.4-34-12c-1.7-2.6-5.8-7.5-7-10c-4.5-9-2.4-26.9,2-36c2.3-4.8,4-8,11.5-16
			C696,530.2,688.9,532.5,686.5,534.3z"/>
	</g>
	<path class="st72" d="M788.5,431.8c2.9,10.6-6.9,33.3-1,42.5c5.9,9.3,2.6,4.9,11,12l-8-16L788.5,431.8z"/>
	<circle class="st58" cx="496" cy="187.3" r="19"/>
	<path class="st58" d="M608.9,910.9c2-8.4,6.2-16.4,11.9-22.9"/>
	<path class="st58" d="M616.7,907.9c0.5-4.1,3-7.8,6.7-9.7"/>
	<circle class="st58" cx="243.5" cy="327.3" r="11"/>
	<circle class="st58" cx="1423" cy="343.8" r="11"/>
	<circle class="st58" cx="498.5" cy="1066.3" r="11"/>
	<g>
		<path class="st58" d="M610.8,778.1v48.2c-16,0.8-32,1.3-48,1.6c-0.9,0-1.9,0-2.7-0.5c-0.4-0.3-0.7-0.7-0.9-1.2
			c-0.3-0.6-0.4-1.3-0.5-1.9c-1.7-9.8-3.1-19.7-4.1-29.6c-0.9-9.1-1.1-13.7,9.2-15.1C579.8,777.3,594.9,778.8,610.8,778.1
			L610.8,778.1z"/>
		<path class="st65" d="M310.8,852.2c-9.1-2.9-16.4-10.9-18.5-20.3c-0.9-4-0.9-8.3-2.7-12.1c-4.3-9.2-16.1-11-25.9-13.5
			c-13.4-3.5-26.6-11.7-31.4-24.7c-2.5-6.7-1.6-13-2.3-19.7c-0.7-7-4.2-13.5-4.4-20.7c-0.2-7.1,2.3-14.8,8.2-18.8
			c5.1-3.5,11.9-3.8,17.8-1.8c5.9,2,10.9,5.9,15.3,10.3c2.8,2.8,5.4,5.8,8.8,7.9c7.3,4.5,16.2,3.7,24.3,5.4
			c9.6,1.9,13.8,7.1,18,15.6c5.8,11.7,5.9,26.8,15.8,35.3c2.4,2,5.2,3.5,7.7,5.4c7.6,5.8,12.1,15.5,11.6,25.1
			C351.7,845.1,329,858.1,310.8,852.2z"/>
		<path class="st65" d="M321.9,740.1c-1.5-7.5-3.2-15.4-8.2-21.2c-7.4-8.5-20.5-10.6-27.1-19.6c-5.5-7.4-5.2-17.7-9.5-25.8
			c-7.3-13.8-23.9-17.9-35.7-26.6c-16.5-12.2-17.2-30.9,5.4-36.4c10.2-2.5,21.2-1.2,30.5,3.6c6.7,3.4,12.9,8.7,20.4,9.6
			c5.6,0.6,11.3-1.3,16.9-0.3c10.1,1.8,15.9,12.4,18.7,22.2c2.8,9.8,4.1,20.7,10.9,28.3c5.4,6.1,13.5,9.2,19.6,14.6
			c8.9,7.8,13.1,19.9,13.7,31.8c1.1,19.2-2.4,44.5-25.2,48.9C333.8,772.8,324.9,754.9,321.9,740.1z"/>
		<path class="st73" d="M403.7,823.8c2.7-9,7.3-17.4,13.2-24.6c4.9-5.9,10.7-11,14.6-17.5c10.4-17.4,5.8-41.9,19.3-57
			c3.6-4.1,8.3-7.1,12.9-10c13.7-8.8,27.3-17.6,41-26.3c3.2-2,7.4-4.1,10.5-1.9c2.9,2.1,2.7,6.4,2.1,10c-2.2,13-4.7,26.8-13.7,36.5
			c-3.6,3.9-8.2,7.1-10.7,11.8c-4,7.8-1.1,17.1-0.3,25.9c1.6,18.5-8,37.6-23.9,47.2c-2.7,1.6-5.5,3-7.5,5.4c-3.2,3.8-3.5,9.3-5,14.1
			c-2.8,9.4-10.8,17-20.3,19.3C415.6,861.7,397.6,843.8,403.7,823.8z"/>
		<path class="st65" d="M372.3,675.6c5.1-8,13-16.7,14.7-26.1c2-11.2-0.9-23.7,1-35.3c2.2-13.5,3.9-29,16.6-36.5
			c6.7-4,14.2-6.2,20.8-10.2c6.4-3.9,11.6-9.5,17-14.6c5.5-5.1,11.4-10.1,18.6-12.3c7.1-2.3,15.7-1.4,21,3.9
			c4.1,4.1,5.6,10.6,3.8,16.1c-4.4,13.5,0.5,19.8,3.7,32.8c2,8.3,0,17.4-5.4,24.1c-5.7,7-14.9,11.8-17.2,20.5
			c-1.8,6.8,1.3,14,1.4,21c0,24.4-29.2,30.6-34.6,51.7c-0.9,3.4-1,7.1-2,10.4c-3,9.5-13.2,15.2-23.1,16.5
			c-11.8,1.6-24.4-1.8-33.3-9.7c-8.9-7.9-13.8-20.4-11.9-32.2C364.8,688.3,368.3,681.9,372.3,675.6z"/>
		<path class="st58" d="M369.6,1014.5c0.6-26.5,1.1-53.1,1.1-79.6c0-26.1-0.4-52.2-1.5-78.3c-1.6-40.5-4.7-81.9-16.2-119.9
			c-11.5-38-31.5-72.7-66.8-99.6c-0.8-0.6-1.9-0.4-2.5,0.3c-0.6,0.8-0.4,1.9,0.3,2.5c34.6,26.4,54.2,60.3,65.5,97.8
			c11.4,37.5,14.4,78.6,16.1,119c1.1,26,1.5,52.1,1.5,78.1c0,26.5-0.4,53-1.1,79.6c0,1,0.8,1.8,1.7,1.8
			C368.8,1016.3,369.6,1015.5,369.6,1014.5L369.6,1014.5z"/>
		<path class="st58" d="M385.9,1027.4c-1.6-20.5-2.1-41.1-2.1-61.8c0-32,1.4-64,2.4-96c1.3-38.2,2.2-76.5,7.8-114.2
			c6.3-42.6,18.6-84.3,36.4-123.5c0.4-0.9,0-2-0.9-2.4c-0.9-0.4-2,0-2.4,0.9c-18,39.5-30.4,81.5-36.7,124.5
			c-5.6,38-6.5,76.4-7.8,114.6c-1.1,32-2.5,64.1-2.5,96.2c0,20.7,0.6,41.4,2.2,62c0.1,1,1,1.8,2,1.7
			C385.2,1029.3,386,1028.4,385.9,1027.4L385.9,1027.4z"/>
		<path class="st58" d="M371.9,1011c7.2-27.9,14.6-55.7,22.1-83.5c14.9-55,31.3-111.5,67.5-154.9c0.6-0.8,0.5-1.9-0.2-2.6
			c-0.8-0.6-1.9-0.5-2.6,0.2c-36.9,44.2-53.3,101.2-68.2,156.2c-7.5,27.8-14.9,55.6-22.1,83.5c-0.3,1,0.3,2,1.3,2.2
			C370.7,1012.5,371.7,1011.9,371.9,1011L371.9,1011z"/>
		<path class="st58" d="M366.3,1002.7c-1.4-39.5-6.8-78.8-16-117.3c-5.9-24.5-12.5-49.3-24.1-72.1c-10.2-20-29.6-42.1-50.2-55.4
			c-0.8-0.5-1.9-0.3-2.5,0.5c-0.5,0.8-0.3,1.9,0.5,2.5c19.9,12.8,39.1,34.7,48.9,54.1c11.4,22.3,17.9,46.8,23.8,71.3
			c9.2,38.2,14.5,77.3,15.9,116.6c0,1,0.9,1.7,1.8,1.7C365.5,1004.5,366.3,1003.6,366.3,1002.7L366.3,1002.7z"/>
		<path class="st58" d="M467.8,928c0,5.1-0.1,10.4-0.3,15.8c0,1.2-0.1,2.4-0.1,3.7c-0.1,1.6-0.1,3.3-0.2,5c0,0.6-0.1,1.1-0.1,1.7
			c-0.1,1.5-0.1,3.1-0.2,4.6c-0.2,2.7-0.3,5.5-0.5,8.2c-1.2,17.3-2.8,34.6-4.7,51.8c-4.8,45.2-9.5,118.8-15.8,163.8
			c-1.1,7.5-2.3,15.3-6.8,21.3c-7.3,9.8-24.5,7.2-35.4,8.2c-16.7,1.5-33.5,1.6-50.3,1.2c-16.7-0.3-48.8,4.4-51.9-18.2
			c-9-66.3-20.6-158.2-26.4-227.7c-0.4-4.4-0.7-8.6-1-12.8v0c-0.2-2.4-0.3-4.8-0.5-7.2l-0.1-1.1c-0.1-1.2-0.1-2.4-0.2-3.7
			c-0.2-3.5-0.4-7-0.6-10.5c-0.1-1.1-0.1-2.2,0.4-3.1c0.8-1.5,2.8-1.7,4.4-1.7C293.5,926.6,444.2,927.2,467.8,928z"/>
		<path class="st58" d="M467.5,943.8c0,1.2-0.1,2.4-0.1,3.7c-2.4,0-4.8,0-7.2,0c-52.4,0-122.7-0.7-163.8-1.1
			c-9.5-0.1-17.4-0.2-22.9-0.2c-0.1-1.2-0.1-2.4-0.2-3.7c5.6,0.1,13.6,0.1,23.2,0.2C339.4,943.1,414.5,943.9,467.5,943.8z"/>
		<path class="st65" d="M467,954.1c-0.1,1.5-0.1,3.1-0.2,4.6c-0.2,2.7-0.3,5.5-0.5,8.2c-33.6,0-67.6,0.1-100.7,0.2
			c-30.2,0.1-60.5,0.2-90.6,0.2c-0.4-4.4-0.7-8.6-1-12.8c30.5,0,61.1-0.1,91.6-0.2C398.9,954.3,433.2,954.2,467,954.1z"/>
	</g>
	<circle class="st58" cx="594.5" cy="64.3" r="11"/>
	<g>
		<g>
			<path class="st58" d="M861.4,113.9c-1.7-19.1,4.6-38.6,17.5-52.9c-1.7-0.7-3.4-1.4-5.1-2.1c-0.6,24.5,8,48.8,23.7,67.6
				c1.4,1.7,4.6,0.8,5-1.3c3.6-17,12.4-32.5,25.1-44.2c-1.7-1-3.3-1.9-5-2.9c-3,9.9,5.7,17.5,14.5,19.7c4.6,1.2,9.8,1.3,14.4-0.3
				c5.8-2,10.8-5.7,15.7-9.3c5.4-4.1,10.9-8.4,17.3-10.7c-1-1.7-1.9-3.3-2.9-5c-6.7,7.7-3,18.6,4.2,24.5c3.8,3.1,8.5,5.1,13.5,5
				c5.9-0.2,11.6-2.4,16.4-5.7c5.6-3.8,10.4-8.8,14.7-14c-1.6-0.2-3.1-0.4-4.7-0.6c7.3,10.5,15.8,21.1,26.9,27.8
				c5.2,3.1,11.1,5.3,17.2,5.4c6.4,0.2,12.5-2.1,17.9-5.6c5.8-3.7,11-8.4,17.6-10.8c6.7-2.4,13.8-3,20.8-3.1
				c7.7-0.1,15.4,0.4,23,0.7c8.2,0.3,16.4,0.7,24.6,1c18.5,0.7,37,1.5,55.5,2.2c3.9,0.2,3.9-5.8,0-6c-31.9-1.3-63.9-2.8-95.8-3.8
				c-14-0.5-28.2,0.4-40.2,8.5c-5.4,3.6-10.5,8.2-16.8,10c-5.3,1.5-10.8,0.9-15.9-1.2c-6.2-2.6-11.6-7-16.3-11.7
				c-5-5-9.4-10.7-13.5-16.5c-1-1.4-3.4-2.2-4.7-0.6c-6,7.3-13.3,15.1-22.8,17.4c-3.9,0.9-7.8,0.7-11.3-1.3
				c-3.1-1.8-5.7-4.5-7.1-7.7c-1.4-3.2-1.5-6.9,0.9-9.6c1.8-2.1,0.1-6.1-2.9-5c-10.6,3.7-18.3,12-27.8,17.5c-4,2.3-7.9,3.8-12.6,3.5
				c-3.7-0.2-7.6-1.5-10.6-3.7c-3.1-2.3-4.6-5.5-3.5-9.2c0.9-3-2.9-4.9-5-2.9c-13.4,12.4-22.9,29-26.7,46.9c1.7-0.4,3.3-0.9,5-1.3
				c-14.7-17.6-22.5-40.5-21.9-63.4c0.1-2.5-3.4-4.1-5.1-2.1c-13.9,15.4-21.1,36.4-19.3,57.1c0.1,1.6,1.3,3,3,3
				C859.9,116.9,861.6,115.5,861.4,113.9L861.4,113.9z"/>
		</g>
	</g>
	<circle class="st58" cx="222.1" cy="864.6" r="11"/>
	<path class="st58" d="M321.9,1129.1c19.6,0.5,39.2,1,58.8,1.6c-15.4-17.4-36.2-29.9-58.7-35.5c11.8-11.1,27.2-18.4,43.3-20.5
		c-9-1.2-18.1-2.4-27.1-3.5"/>
	<path class="st58" d="M425.8,1009.6c-0.8,4-0.3,8.1,1.2,11.9c-3.6-2.5-7.8-4.3-12.1-5.2c5.7,0.8,10.1,7,9,12.6
		c4.2,4.1,12.2,2.8,15-2.4c2.7-5.2-0.7-12.5-6.4-13.7"/>
</g>
<g id="QkCDSp_00000045596782389999145870000017440757376148657025_">
	<g>
	</g>
</g>
</svg>
