<?xml version="1.0" encoding="utf-8"?>
<!-- Generator: Adobe Illustrator 26.4.0, SVG Export Plug-In . SVG Version: 6.00 Build 0)  -->
<svg version="1.1" id="Layer_1" xmlns="http://www.w3.org/2000/svg" xmlns:xlink="http://www.w3.org/1999/xlink" x="0px" y="0px"
	 viewBox="0 0 405 394" style="enable-background:new 0 0 405 394;" xml:space="preserve">
<style type="text/css">
	.st0{fill:#FF4501;}
</style>
<g>
	<path class="st0" d="M400,275.8c-10.8,23.1-25.4,43.4-43.8,60.9c-30.4,29-66.3,47.4-107.7,54c-62.1,10-118.1-4.7-166.7-44.6
		C43.2,314.6,19.3,273.8,10,224.8c-13.6-71.7,11.3-144.4,65.8-193c13.6-12.1,28.6-22.2,44.9-30.4c5.8-2.9,11.9,0.2,12.4,6.4
		c0.1,1.8-0.5,3.7-1.2,5.4c-6.9,14.4-12.1,29.5-15.2,45.1c-3.5,17.7-4.6,35.6-3.1,53.6c3,35.9,15.1,68.5,36.6,97.3
		c28.5,38.1,65.9,62.8,112.4,73c42.6,9.4,83.7,4.4,123.2-14.3c1.4-0.7,2.9-1.4,4.5-1.7c4.4-0.8,7.4,1.3,9.7,6.4
		C400,273.7,400,274.7,400,275.8z"/>
</g>
</svg>
