<?xml version="1.0" encoding="utf-8"?>
<!-- Generator: Adobe Illustrator 26.4.0, SVG Export Plug-In . SVG Version: 6.00 Build 0)  -->
<svg version="1.1" id="Layer_1" xmlns="http://www.w3.org/2000/svg" xmlns:xlink="http://www.w3.org/1999/xlink" x="0px" y="0px"
	 viewBox="0 0 83.2 62.5" style="enable-background:new 0 0 83.2 62.5;" xml:space="preserve">
<style type="text/css">
	.st0{fill:#F05223;}
	.st1{fill:#B21F24;}
	.st2{fill:#AADAC4;}
	.st3{opacity:0.5;}
</style>
<g>
	<path class="st0" d="M5.8,30.4c-0.5,0.6-1.5,0.6-2,0c-12.2-14.9,6.6-36,26.9-29C58.2,10.9,43.4,49.2,66.1,60
		c1.4,0.7,0.7,2.8-0.8,2.4c-15.8-3.4-17.8-31.3-22.4-45.3C37-1,8.2-0.6,3.9,16.3c-1.8,7.2,0.5,10.8,2,12.3
		C6.3,29.1,6.3,29.9,5.8,30.4C5.9,30.4,5.8,30.4,5.8,30.4z"/>
	<path class="st1" d="M51.4,36.2c-1.1-5.2-2.4-12.1-4-17C46.2,19.1,45,19,43.8,19c-0.1,0-0.2,0-0.2,0c1.3,4.6,2.8,12,4.3,17.7
		C49,36.6,50.2,36.4,51.4,36.2z"/>
	<path class="st0" d="M81.9,30.4c-0.1-0.1-0.1-0.2-0.2-0.3c-1.1-2.2-3.3-3.6-5.5-4.6c-4.9-2.1-10-3.3-15.2-4.1
		c-13.1-2-26.6-2.3-39.8-0.1c-3.5,0.6-7.1,1.3-10.4,2.6c-3.1,1.1-7.5,2.7-9,5.8C1.2,30.9,1,32.2,1,33.5c-0.1,1.8,0,3.7,0.3,5.5
		c0.2,1,0.4,2,1,2.9c0.8,1,2,1.6,3.2,2.1c3.7,1.3,7.6,1.9,11.6,1.6c2.5-0.2,5.2-0.9,6.4-3.1c1.1-2.1,0.4-4.8,1.2-7
		c0.2-0.5,0.5-1,0.9-1.2c0.6-0.4,1.4-0.2,2.1,0c9.1,2.4,18.8,2.5,27.9,0.2c0.7-0.2,1.4-0.4,2.1-0.1c0.9,0.3,1.3,1.3,1.4,2.2
		c0.4,2.1-0.2,4.3,0.9,6.2c1,1.8,3.3,2.5,5.3,2.9c4.4,0.7,9,0.1,13.1-1.5c1.1-0.4,2.2-1,2.8-1.9c0.6-0.9,0.8-1.9,1-3
		C82.7,36.4,83.1,33.1,81.9,30.4z"/>
	<path class="st2" d="M10.1,41.8c-0.7-0.1-1.9,0.1-1.9-0.8c0-0.9,1.1-0.9,1.9-0.8c0.8,0,2-0.2,2,0.9C12.1,41.9,10.9,41.7,10.1,41.8z
		"/>
	<path class="st2" d="M11.3,35.5c-0.7,0.4-1.5,0.7-2.3,0.6c-1.8,0-2.7-0.9-2.6-2.6c0.1-1.2,0.5-2.3,1-3.3c0.6-1.1,1.4-1.4,2.4-0.4
		c1.2,1.2,1.7,2.7,2.3,4.2C12.6,34.7,11.8,35.1,11.3,35.5z"/>
	<path class="st2" d="M71.2,31.9c0.1-1.4-0.6-2-2-1.6c-1.8,0.6-2.7,2-3.6,3.4c-1.7,2.5-1,5,2.8,5.9c1.5,0.3,1.8-0.3,2.1-1.5
		C71,36,71.2,34,71.2,31.9z"/>
	<path class="st2" d="M64.6,41.2c0-0.1,0-0.3-0.1-0.4c-0.9-0.8-1.8-1.5-2.8-2.2c-0.3-0.2-0.7-0.2-0.9,0.1c-0.3,0.3-0.2,0.6,0,0.9
		c0.6,0.9,1.2,1.7,1.8,2.5c0.3,0.3,0.8,0.4,1.2,0.2C64.3,42.1,64.5,41.7,64.6,41.2z"/>
	<path class="st2" d="M60.7,24.7c0,1.2-8.6-0.5-19.2-0.5s-19.2,1.5-19.2,0.3c0-1.2,8.6-2.2,19.2-2.1S60.7,23.4,60.7,24.7z"/>
	<g class="st3">
		<path class="st1" d="M27.5,33.1c-0.3,0.3-0.5,0.4-0.7,0.9c2.9,0.8,11.2,3.2,24.1,1.5c0.5-0.1,6.1-1,5.9-1.4
			c-2.3-0.2-14.6,0.7-19.5,0.3c-3.5-0.3-6.9-1-8.5-1.5c-0.2-0.1-0.5-0.1-0.7,0h0C27.9,32.8,27.7,32.9,27.5,33.1z"/>
	</g>
	<g class="st3">
		<path class="st1" d="M1.9,40.9c0,0-0.1,0.1-0.1,0.2c-0.2,0.4,0.7,1.1,0.9,1.3C3.6,43.2,4.8,43.6,6,44c3.6,1.2,7.4,1.7,11.2,1.4
			c1.6-0.1,4.4-0.5,5.4-1.9c-1.1-0.5-3.5,0.1-4.7,0.2C13,43.9,7.7,44.4,3.5,41.4C3.2,41.2,2.3,40.5,1.9,40.9z"/>
	</g>
	<g class="st3">
		<path class="st1" d="M81.5,41.7c0,0,0.1,0.1,0.1,0.2c-0.2,0.4-0.8,0.9-1.1,1.1c-0.9,0.8-2.2,1.3-3.1,1.6
			c-3.6,1.2-7.3,1.5-11.1,1.1c-1.6-0.2-4.8-0.8-5.8-2.3c0,0,0.9-0.1,0.9-0.1c1,0.2,1.9,0.5,2.9,0.7c1,0.2,2.1,0.4,3.1,0.5
			c2.1,0.2,4.2,0.1,6.2-0.1c2-0.2,4.1-0.8,5.8-1.9c0.1-0.1,0.3-0.2,0.4-0.2C80.1,42,81.1,41.3,81.5,41.7z"/>
	</g>
	<g class="st3">
		<path class="st1" d="M3.3,29.5c0.5,0.6,1.5,0.6,2,0c0,0,0,0,0,0c0.4-0.5,0.4-1.3,0-1.8C5,27.5,4.8,27.3,4.6,27
			c-0.4-0.6-1.3-0.7-1.8-0.2c0,0,0,0,0,0c-0.5,0.4-0.6,1.2-0.2,1.7C2.7,28.9,3,29.2,3.3,29.5z"/>
	</g>
</g>
</svg>
