<?xml version="1.0" encoding="utf-8"?>
<!-- Generator: Adobe Illustrator 26.4.0, SVG Export Plug-In . SVG Version: 6.00 Build 0)  -->
<svg version="1.1" id="Layer_1" xmlns="http://www.w3.org/2000/svg" xmlns:xlink="http://www.w3.org/1999/xlink" x="0px" y="0px"
	 viewBox="0 0 405 394" style="enable-background:new 0 0 405 394;" xml:space="preserve">
<style type="text/css">
	.st0{fill:#FF4501;}
</style>
<g>
	<path class="st0" d="M6,192.4c1.2-0.4,1-1.6,1.4-2.5c3.3-7.5,9.1-11.7,17.2-12c10.6-0.3,21.2-0.3,31.8,0
		c10.5,0.2,18.6,8.6,18.7,18.9c0.1,10.5-8,19.1-18.7,19.3c-10.5,0.3-20.9,0.3-31.4,0c-8.4-0.2-14.4-4.5-17.7-12.4
		C7,203,7.1,201.9,6,201.6C6,198.5,6,195.5,6,192.4z"/>
	<path class="st0" d="M205.6,0.5c1.3,1.4,3.3,0.9,4.8,1.7c7.1,3.7,11.1,9.4,11.3,17.3c0.2,10.3,0.2,20.7,0,31
		c-0.2,10.9-8.7,19.2-19.4,19.1c-10.4-0.1-18.8-8.3-18.9-19.1c-0.2-10.2-0.2-20.4,0-30.6c0.2-8.6,4.4-14.7,12.4-18.1
		c0.7-0.3,1.9-0.2,2.1-1.3C200.5,0.5,203,0.5,205.6,0.5z"/>
	<path class="st0" d="M202.7,295.4c-54.2,0.2-98.6-44.1-98.6-98.4c0-54.2,43.9-98.2,98.2-98.4c54.2-0.2,98.6,44.1,98.6,98.4
		C300.9,251.2,257,295.2,202.7,295.4z"/>
	<path class="st0" d="M58,71.1c0.4-7.8,4.1-13.6,11.2-16.9c6.9-3.2,14-2.6,19.7,2.5c8.7,7.7,17,15.9,24.7,24.6
		c6.6,7.6,5.8,18.7-1.3,25.7c-7.1,6.9-17.9,7.6-25.4,1.1c-8.7-7.7-16.8-16-24.7-24.6C59.1,80.1,57.9,75.8,58,71.1z"/>
	<path class="st0" d="M327.8,52.5c8,0.2,14,3.8,17.4,11c3.3,7,2.7,14.2-2.5,20c-7.6,8.6-15.7,16.8-24.3,24.4c-7.6,6.7-18.7,6-25.7-1
		s-7.8-18.1-1.1-25.7c7.6-8.6,15.9-16.6,24.3-24.4C319.2,53.8,323.3,52.5,327.8,52.5z"/>
	<path class="st0" d="M58,322.4c-0.1-5.6,2.2-10.2,6-14.1c6.9-7,13.8-14,20.9-20.8c8.3-8,19.8-8.1,27.5-0.5s7.7,19.2-0.3,27.5
		c-6.9,7.2-14,14.2-21.1,21.1c-6.2,6-13.5,7.6-21.5,4.2C62,336.7,58.3,330.6,58,322.4z"/>
	<path class="st0" d="M328,341.5c-5.6,0.1-10.2-2.1-14.1-5.9c-7-6.9-14-13.8-20.9-20.9c-8.1-8.4-8.2-20.2-0.4-27.8
		c7.7-7.5,19.2-7.4,27.5,0.6c7.2,6.9,14.2,14,21.1,21.2c5.9,6.1,7.4,13.4,4.1,21.2C342.2,337.4,336.2,341.2,328,341.5z"/>
	<path class="st0" d="M364.5,177.8c5,0,10-0.1,14.9,0c11.2,0.2,19.7,8.6,19.6,19.3c-0.1,10.5-8.5,18.9-19.5,19
		c-10.1,0.1-20.2,0.1-30.3,0c-11-0.2-19.3-8.5-19.3-19.1c0-10.8,8.4-19.1,19.6-19.2C354.5,177.7,359.5,177.8,364.5,177.8z"/>
	<path class="st0" d="M205,324.9c1.3,1.4,3.3,0.9,4.8,1.7c7.1,3.7,11.1,9.4,11.3,17.3c0.2,10.3,0.2,20.7,0,31
		c-0.2,10.9-8.7,19.2-19.4,19.1c-10.4-0.1-18.8-8.3-18.9-19.1c-0.2-10.2-0.2-20.4,0-30.6c0.2-8.6,4.4-14.7,12.4-18.1
		c0.7-0.3,1.9-0.2,2.1-1.3C199.9,324.9,202.4,324.9,205,324.9z"/>
</g>
</svg>
