<svg xmlns="http://www.w3.org/2000/svg" viewBox="0 0 383.2 383.1" style="enable-background:new 0 0 383.2 383.1" xml:space="preserve"><path d="M75.517 1.437c-2.504 2.673-2.709 4.432-2.709 23.266 0 17.323.067 18.352 1.338 20.613.735 1.309 2.244 2.929 3.353 3.6 1.957 1.184 5.141 1.229 109.812 1.539l107.796.319-147.394 148.124L.319 347.023l-.191 4.16-.192 4.16 13.598 13.609 13.598 13.609h10.019l147.638-147.193L332.426 88.176l.319 107.755.32 107.755 1.447 2.327c2.613 4.202 3.571 4.379 23.737 4.379 19.035 0 20.702-.221 23.618-3.137l1.333-1.334V2.777l-1.478-1.388L380.244 0H76.863l-1.346 1.437" fill-rule="evenodd"/></svg>