<svg xmlns="http://www.w3.org/2000/svg" viewBox="0 0 294 274" style="enable-background:new 0 0 294 274" xml:space="preserve"><path d="M192.423 5.268c-9.534 11.053-26.864 26.518-33.858 30.214-6.026 3.183-14.998-.298-17.751-6.888-.371-.887-.677-3.108-.681-4.936-.008-3.724-.757-5.703-2.239-5.917-1.345-.195-3.383 1.492-4.806 3.977-.644 1.126-4.421 11.639-8.392 23.362-7.114 20.998-10.296 29.842-13.459 37.409-1.302 3.114-2.204 4.415-4.755 6.86-3.655 3.501-4.974 4.105-7.07 3.237-2.338-.968-4.466-4.255-10.551-16.292-10.036-19.855-15.519-26.376-21.601-25.69-1.654.186-2.619.673-3.994 2.016-.997.973-2.024 1.757-2.282 1.741-.258-.016-2.013-1.917-3.899-4.224-5.105-6.243-15.099-16.147-19.987-19.808-5.185-3.882-10.468-6.611-14.284-7.377-3.412-.685-3.866-.283-3.51 3.102.297 2.821 2.09 6.448 4.651 9.408 2.565 2.964 3.198 5.845 2.876 13.108-.208 4.706-.533 6.454-2.088 11.21-1.573 4.81-1.877 6.466-2.08 11.313-.265 6.318.097 8.665 2.421 15.712 1.45 4.397 1.515 4.879.929 6.86-.862 2.914-4.479 6.358-8.1 7.712-1.535.575-4.816 1.385-7.29 1.8-5.74.963-7.661 1.56-9.031 2.809-1.55 1.414-1.382 2.704.788 6.026 2.961 4.531 6.985 8.774 19.277 20.328 16.231 15.254 17.588 17.027 16.907 22.099-.386 2.876-2.515 5.262-6.478 7.261l-3.401 1.715-9.81.011c-8.461.009-10.032.13-11.428.883-1.732.934-2.55 2.418-2.159 3.915.253.966 2.816 2.781 3.931 2.784.354.001 1.738.472 3.074 1.047 2.117.911 2.785 1.59 5.181 5.268 9.366 14.376 19.816 23.698 30.301 27.03 3.141.999 4.462 1.095 15.68 1.146 11.715.054 12.34.104 14.316 1.16 2.495 1.333 3.079 2.317 3.079 5.182 0 10.511-16.673 32.48-30.532 40.23-4.481 2.506-6.964 3.255-11.323 3.417-3.743.14-3.936.206-5.475 1.886-2.787 3.041-2.86 7.886-.174 11.594 2.165 2.989 4.043 3.958 7.673 3.96 5.896.004 11.657-3.185 19.024-10.529 7.903-7.877 15.913-18.957 25.999-35.961 6.189-10.434 8.176-12.798 10.757-12.798 3.678 0 6.008 1.899 10.304 8.398 10.909 16.507 31.859 30.416 52.637 34.946 6.951 1.516 23.693 1.485 27.696-.051 2.45-.94-.817-4.836-6.702-7.995-4.119-2.211-7.326-5.318-8.77-8.5-2.433-5.359.109-9.724 7.319-12.566 4.231-1.667 10.336-2.512 21.617-2.991 14.462-.615 19.766-1.68 25.97-5.215 3.676-2.095 7.35-5.03 7.35-5.873 0-1.462-3.583-4.273-6.96-5.46-1.787-.628-3.573-1.51-3.967-1.96-3.053-3.482.224-7.914 9.036-12.219 3.956-1.933 10.126-4.12 23.799-8.439 6.241-1.971 10.123-4.019 10.759-5.678.348-.905-.946-2.399-3.46-3.996-2.8-1.779-4.217-3.502-4.217-5.127 0-2.992 1.981-5.242 8.759-9.948 8.498-5.902 15.504-12.979 18.605-18.798 1.829-3.432 1.927-4.646.457-5.675-2.416-1.692-7.485-.762-14.836 2.72-3.051 1.446-3.891 1.625-7.595 1.622-3.685-.004-4.573-.193-7.708-1.643-3.566-1.649-5.098-3.034-10.889-9.848-4.548-5.351-8.676-5.162-16.669.763-12.41 9.199-22.589 10.002-27.759 2.19-1.536-2.32-3.211-8.631-3.25-12.247-.036-3.237.779-5.21 5.284-12.8 7.473-12.589 12.24-22.729 15.664-33.32 3.277-10.138 4.715-19.527 3.152-20.581-1.081-.728-4.395-.21-8.197 1.282-4.069 1.596-5.48 1.421-6.873-.853-3.156-5.153-5.027-16.613-6.679-40.903-.39-5.72-.947-10.846-1.239-11.392-1.12-2.092-2.665-1.258-7.014 3.785" fill-rule="evenodd"/></svg>