<svg xmlns="http://www.w3.org/2000/svg" viewBox="0 0 405 394" style="enable-background:new 0 0 405 394" xml:space="preserve"><path d="M115.425 4.46C84.382 20.947 55.702 48.079 36.979 78.671c-15.484 25.299-24.174 50.175-28.992 82.992-1.38 9.402-1.174 41.058.333 51.3 3.758 25.52 9.68 45.078 20.031 66.15 10.3 20.968 23.342 38.783 40.333 55.091 33.634 32.282 71.59 51.192 115.929 57.753 11.475 1.699 42.867 1.678 55.35-.036 25.872-3.553 44.781-9.229 65.812-19.753 38.923-19.479 71.861-52.098 90.713-89.836 3.848-7.704 3.99-9.955.839-13.296-3.325-3.526-5.861-3.327-16.261 1.276-19.217 8.504-38.133 13.658-58.338 15.895-8.151.903-29.123.903-37.281.001-50.562-5.592-94.212-28.022-125.44-64.456-26.229-30.602-40.418-62.337-46.03-102.952-1.342-9.718-1.142-37.458.344-47.587 2.777-18.926 6.943-33.947 13.981-50.406 2.171-5.077 4.139-9.997 4.374-10.933.595-2.371-.818-6.217-2.878-7.838C126.772-.345 123.4.224 115.425 4.46" fill-rule="evenodd"/></svg>