<svg width="203" height="64" xmlns="http://www.w3.org/2000/svg"><path d="M90.662.357C47.774 1.695 12.797 11.327 2.884 24.529c-1.858 2.475-2.63 4.66-2.63 7.443 0 2.784.772 4.969 2.63 7.444 11.648 15.513 57.545 25.756 108.258 24.162 36.01-1.133 66.141-7.717 81.519-17.813 3.286-2.158 7.223-6.207 8.476-8.718.9-1.803 1.013-2.37 1.013-5.074 0-2.705-.113-3.272-1.013-5.076-1.266-2.536-5.199-6.565-8.572-8.781-12.717-8.353-36.435-14.478-65.557-16.929C121.709.741 101.789-.075 99.47.059c-.465.027-4.429.161-8.808.298m35.551 2.478c32.159 2.84 56.172 9.448 68.018 18.717 3.928 3.074 6.401 7.099 6.401 10.42 0 11.139-22.523 22.067-55.487 26.923-15.732 2.317-23.961 2.851-43.983 2.851-17.777 0-21.226-.159-33.834-1.561C33.602 56.437 8.281 47.029 2.987 36.28c-1.12-2.275-1.12-6.34 0-8.615C7.665 18.168 28.5 9.462 57.009 5.092 64.784 3.9 74.46 2.932 85.598 2.231c5.22-.328 35.091.116 40.615.604" fill-rule="evenodd"/></svg>