<svg xmlns="http://www.w3.org/2000/svg" viewBox="0 0 83.2 62.5" style="enable-background:new 0 0 83.2 62.5" xml:space="preserve"><path d="M18.928.351C10.465 1.719 3.262 7.539.834 14.971c-1.358 4.153-1.052 8.215.914 12.159l.771 1.546-.36.543c-1.093 1.652-1.431 5.084-.892 9.053.173 1.27.515 2.719.755 3.199.886 1.772 5.104 3.439 10.169 4.02 1.91.218 5.572.105 6.945-.215 2.212-.516 3.699-1.511 4.366-2.921.373-.79.54-1.768.755-4.43.162-1.999.422-2.827 1.066-3.393.673-.591 1.011-.591 3.381-.003 5.105 1.268 10.712 1.796 16.179 1.523 1.5-.075 2.743-.12 2.762-.101.02.019.356 1.189.749 2.599 3.876 13.932 8.525 21.044 15.254 23.336 2.033.693 2.665.668 2.993-.116.378-.906.079-1.336-1.537-2.205-6.755-3.633-10.654-10.006-13.324-21.778-.259-1.144-.472-2.147-.472-2.228-.001-.082.607-.262 1.351-.401.743-.139 1.964-.4 2.713-.58 1.609-.387 1.911-.4 2.533-.105.97.461 1.269 1.421 1.441 4.631.131 2.445.336 3.238 1.094 4.239.65.859 2.026 1.609 3.854 2.1 1.286.346 1.552.368 4.623.377 3.658.01 4.793-.136 7.627-.987 3.211-.963 4.574-1.902 5.109-3.521.393-1.188.827-3.798.94-5.65.221-3.643-.769-6.232-3.09-8.076-1.762-1.4-3.589-2.273-7.389-3.527-4.377-1.446-8.94-2.381-15.538-3.185-3.019-.367-7.312-.765-8.275-.767-.564 0-.588-.02-.911-.728a31.43 31.43 0 0 1-.734-1.838c-.571-1.576-2.263-4.922-3.191-6.309C39.784 5.727 34.191 2.011 27.387.549 25.552.155 20.824.044 18.928.351m7.835 3.553c6.863 1.119 12.533 5.16 15.244 10.864.507 1.068 1.673 4.43 1.673 4.826 0 .158-.855.207-4.888.277-6.558.114-11.391.517-17.091 1.427-2.681.428-6.204 1.169-7.904 1.662-2.204.639-6.054 2.137-7.691 2.991-1.851.968-1.742 1.003-2.293-.741-.826-2.615-.828-5.193-.005-8.639C5.989 7.433 15.664 2.094 26.763 3.904m22.602 18.701c7.441.448 11.371 1.192 11.371 2.154 0 .49-1.891.509-7.431.072-9.161-.722-14.067-.738-23.63-.077-3.301.229-6.382.289-6.968.136-.476-.123-.506-.536-.061-.827 1.038-.68 5.729-1.334 11.466-1.599 3.097-.142 11.897-.061 15.253.141M9.532 29.537c.805.633 1.499 1.771 2.387 3.912.503 1.212.469 1.363-.445 1.984-1.585 1.077-3.826.961-4.725-.244-.59-.792-.416-2.747.405-4.54.688-1.504 1.435-1.853 2.378-1.112m60.969.748c.698.292.833.856.715 2.98-.164 2.946-.703 5.55-1.267 6.116-.436.438-1.296.44-2.452.004-2.571-.969-3.409-2.743-2.33-4.935.601-1.219 1.937-2.97 2.64-3.457.487-.338 1.776-.883 2.12-.898.06-.002.318.083.574.19m-8.656 8.42c.267.161 1 .707 1.63 1.213.946.76 1.143.987 1.144 1.311 0 .579-.676 1.203-1.304 1.203-.429 0-.567-.094-1.068-.728-.923-1.167-1.65-2.288-1.65-2.547 0-.275.386-.747.611-.746.084 0 .37.133.637.294m-49.954 1.876c.376.412.382.486.064.879-.196.241-.441.321-1.165.379-1.12.09-2.118-.046-2.399-.326-.44-.44-.134-1.178.553-1.334.153-.034.808-.035 1.456-.001 1.032.055 1.218.105 1.491.403" fill-rule="evenodd"/></svg>