<svg width="24" height="24" fill="none" xmlns="http://www.w3.org/2000/svg"><path d="M11.005 4.512A742.475 742.475 0 0 1 9.72 9.06c-.025.067-.805.309-4.835 1.498C2.242 11.339.08 11.987.08 11.999c0 .013 2.155.579 4.79 1.258 2.635.68 4.803 1.246 4.818 1.259.015.013.6 2.142 1.3 4.73.7 2.589 1.281 4.698 1.292 4.687.011-.01.551-2.136 1.2-4.723l1.18-4.704 4.63-1.242c2.547-.683 4.63-1.252 4.63-1.265 0-.013-2.038-.66-4.53-1.439-2.492-.778-4.535-1.418-4.541-1.422a668.07 668.07 0 0 1-1.276-4.522A371.108 371.108 0 0 0 12.284.072c-.013-.015-.589 1.983-1.279 4.44"/></svg>