<svg xmlns="http://www.w3.org/2000/svg" viewBox="0 0 35.2 36.1" style="enable-background:new 0 0 35.2 36.1" xml:space="preserve"><path d="M17.635.422c-.18 1.387-1.202 5.786-1.671 7.186-.833 2.488-2.128 4.553-3.743 5.969-.602.528-1.78 1.326-2.453 1.662-1.832.915-5.494 1.963-8.771 2.51-.532.089-.977.169-.989.179-.011.009.035.095.102.19.154.216.447.335 1.018.415 1.598.222 5.153 1.225 7.207 2.034 2.829 1.112 4.913 2.955 6.173 5.457.861 1.71 1.901 5.163 2.423 8.046.226 1.253.339 1.593.577 1.749.085.055.163.091.173.078.01-.012.078-.352.151-.756.396-2.203 1.206-5.606 1.634-6.864 1.276-3.75 3.424-6.324 6.488-7.771.845-.4.996-.456 3.086-1.137a36.584 36.584 0 0 1 4.752-1.218c1.047-.198 1.467-.316 1.121-.316-.237 0-2.994-.574-4.054-.844-1.979-.504-4.097-1.264-5.254-1.885-2.828-1.516-4.511-3.49-5.807-6.807-.638-1.634-.948-2.723-1.322-4.645-.327-1.681-.709-3.439-.759-3.496-.023-.027-.06.092-.082.264" fill-rule="evenodd"/></svg>