<svg xmlns="http://www.w3.org/2000/svg" viewBox="0 0 405 394" style="enable-background:new 0 0 405 394" xml:space="preserve"><path d="M194.48 2.715c-4.667 2.494-6.212 3.983-8.598 8.288l-1.944 3.51v41.175l1.823 3.455c1.991 3.776 4.609 6.283 8.898 8.523 4.224 2.205 11.744 2.047 16.372-.345 4.389-2.268 8.089-6.565 9.372-10.883 1.406-4.735 1.438-37.882.041-42.524-3.207-10.658-16.358-16.33-25.964-11.199M71.349 53.624c-6.717 2.396-11.239 7.54-12.665 14.409-.972 4.684-.003 10.17 2.414 13.657.928 1.339 7.409 8.107 14.403 15.039 14.288 14.163 16.174 15.405 23.386 15.405 7.547 0 13.614-3.821 16.975-10.689 2.339-4.781 2.496-10.497.417-15.159-2.726-6.114-26.087-29.584-32.22-32.37-3.227-1.466-9.045-1.6-12.71-.292m250.495.054c-3.651 1.17-14.505 10.876-25.347 22.665-7.7 8.372-8.912 10.703-8.932 17.181-.024 7.774 3.996 14.033 11.078 17.25 3.701 1.681 11.23 1.687 14.895.013 5.441-2.487 29.085-26.044 31.788-31.672 2.816-5.864 1.504-14.258-3.101-19.841-4.307-5.221-13.593-7.771-20.381-5.596m-135.881 46.637c-21.516 3.863-40.206 13.96-54.893 29.658-12.396 13.25-20.878 29.488-24.853 47.579-1.911 8.699-1.757 31.675.269 40.171 4.683 19.632 13.127 34.938 26.798 48.574 4.181 4.171 10.201 9.303 13.711 11.69 12.449 8.467 27.597 14.384 41.778 16.32 8.665 1.182 27.095.521 34.652-1.243 18.955-4.426 34.614-13.109 48.272-26.767 13.935-13.935 22.855-30.289 27.075-49.64 1.8-8.254 1.794-30.201-.01-38.794-4.069-19.379-13.086-36.036-27.046-49.96-15.04-15.001-33.094-24.368-53.353-27.679-7.709-1.261-25.144-1.211-32.4.091M18.879 179.237c-6.87 2.118-12.804 10.364-12.804 17.794 0 6.61 4.069 13.221 10.244 16.641l3.594 1.991 19.1.207c23.137.251 24.689-.034 30.207-5.552 7.653-7.652 7.657-18.779.012-26.425-5.4-5.399-6.959-5.703-29.023-5.646-13.619.035-19.05.287-21.33.99m323.761.069c-4.703 1.445-10.065 6.921-11.497 11.742-1.331 4.482-1.349 7.56-.071 11.865 1.277 4.299 4.964 8.595 9.372 10.92l3.469 1.83h40.593l3.974-2.033c9.726-4.972 13.118-16.717 7.533-26.076-2.336-3.913-6.939-7.489-11.143-8.657-4.112-1.142-38.255-.811-42.23.409M95.784 282.195c-1.706.268-4.136 1.012-5.4 1.651-3.714 1.88-28.108 26.446-30.153 30.367-3.854 7.387-1.489 18.037 5.127 23.083 5.893 4.495 14.017 5.329 20.208 2.074 1.661-.873 8.431-7.049 15.739-14.357 14.824-14.827 16.454-17.274 16.376-24.591-.057-5.317-1.346-8.54-5-12.504-4.228-4.587-10.541-6.725-16.897-5.723m206.954-.055c-4.059.638-7.399 2.501-10.488 5.852-3.694 4.008-4.919 7.075-4.945 12.383-.038 7.581 1.512 9.929 16.335 24.747 14.891 14.885 16.722 16.105 24.112 16.064 8.94-.049 14.923-4.459 17.86-13.164 1.742-5.163 1.484-8.724-1.003-13.818-2.482-5.084-27.231-29.426-31.409-30.892-3.855-1.352-7.042-1.71-10.462-1.172m-108.994 45.27c-4.756 2.622-6.162 3.983-8.537 8.268l-1.944 3.51-.217 18.732c-.179 15.536-.034 19.357.85 22.399 1.447 4.978 4.699 9.035 9.075 11.321 3.038 1.587 4.428 1.885 8.799 1.885 6.282 0 10.906-1.981 14.543-6.23 4.245-4.959 4.513-6.771 4.281-28.989-.197-18.916-.273-19.917-1.697-22.58-4.832-9.033-16.72-12.964-25.153-8.316" fill-rule="evenodd"/></svg>