<svg width="207" height="104" viewBox="0 0 207 104" fill="none" xmlns="http://www.w3.org/2000/svg">
<path d="M89.5029 5.84293C89.7142 5.87903 89.935 5.97378 90.0994 6.10012C91.6729 7.31388 92.4619 8.91117 92.57 10.8288C92.6921 12.963 92.1191 14.98 91.4004 16.9608C89.1271 23.2191 86.7834 29.4548 84.557 35.7267C82.2367 42.2602 80.2218 48.8795 78.7845 55.6521C77.8733 59.9296 77.1829 64.2342 76.9856 68.6109C76.7836 73.0689 77.0232 77.4818 78.2725 81.7998C79.1462 84.823 80.5083 87.6115 82.7534 89.9442C85.1723 92.462 88.1924 93.9149 91.6635 94.5466C94.646 95.088 97.6427 94.9662 100.639 94.6955C109.47 93.9058 117.572 90.9143 125.378 87.061C132.414 83.5912 139.065 79.4896 145.81 75.5415C151.916 71.9679 158.087 68.5026 164.663 65.7683C169.459 63.774 174.386 62.1586 179.562 61.3555C185.104 60.4936 190.595 60.5929 195.93 62.506C200.054 63.9815 203.356 66.4632 205.667 70.0999C206.705 71.7333 207.015 73.493 206.386 75.3385C205.719 77.3013 203.502 78.6278 201.515 78.2939C200.444 78.118 199.735 77.4682 199.246 76.5974C198.955 76.0785 198.739 75.5145 198.533 74.955C197.499 72.1304 195.954 69.6713 193.277 67.9973C191.36 66.7971 189.228 66.2015 186.969 66.0481C180.449 65.6014 174.207 66.8602 168.134 69.0306C162.033 71.2099 156.373 74.224 151.004 77.7164C145.363 81.3847 139.835 85.2155 134.269 88.9876C129.314 92.3492 124.326 95.6565 118.957 98.3909C113.772 101.03 108.291 102.813 102.452 103.472C95.8672 104.216 89.4465 103.62 83.3593 100.922C75.6658 97.511 70.6776 91.7716 67.944 84.1416C67.014 81.5427 66.4081 78.8715 66.1263 76.1326C66.084 75.7265 65.9196 75.519 65.4969 75.4558C63.496 75.149 61.5045 74.8241 59.5036 74.5038C55.9528 73.9397 52.4019 73.3848 48.851 72.8117C47.8412 72.6493 47.9163 72.6673 47.3856 73.4795C45.9953 75.6002 44.5768 77.7028 43.102 79.7649C41.1105 82.5489 38.9405 85.1929 36.5169 87.652C32.3789 91.8483 27.4612 94.6052 21.4304 95.3678C16.7429 95.9589 12.1775 95.6024 7.8422 93.6532C5.25889 92.489 3.1171 90.797 1.51545 88.5094C-0.983316 84.9358 0.0218254 79.8551 3.69952 77.4682C5.46086 76.3221 7.12827 76.3312 8.87552 77.5043C10.1578 78.3616 11.0878 79.5483 12.0366 80.7124C13.1685 82.1021 14.2582 83.537 15.5076 84.823C16.926 86.2849 18.6639 87.3046 20.7728 87.6385C22.9099 87.9724 24.8263 87.3723 26.6064 86.3029C28.9361 84.8997 30.8148 83.0091 32.6326 81.0463C35.3145 78.1495 37.2543 74.7925 39.2082 71.4355C39.4901 70.9392 39.7766 70.4609 40.0584 69.9871C38.8607 69.3915 37.6958 68.8907 36.6155 68.25C35.0656 67.334 33.8866 66.0887 33.5438 64.2974C33.121 62.1 33.8303 60.2049 35.3474 58.567C35.4789 58.4271 35.7795 58.3549 35.9909 58.3775C37.6301 58.5579 39.2646 58.77 40.9038 58.9686C41.9841 59.0994 43.0644 59.2032 44.1447 59.3521C44.5909 59.4152 44.807 59.2754 44.9902 58.8738C46.6904 55.1242 48.4236 51.3882 50.1286 47.6386C53.9002 39.3363 57.9771 31.1875 63.0921 23.5575C65.929 19.3296 69.0525 15.3184 72.8946 11.8756C75.4826 9.5564 78.3195 7.59814 81.6919 6.45658C84.2376 5.59476 86.8397 5.35562 89.5029 5.84293ZM175.375 82.4391C175.704 82.6825 176.028 82.9258 176.422 83.2233C175.845 83.7145 175.446 84.0525 175.009 84.422C174.755 84.1741 174.572 83.9713 174.356 83.8001C173.774 83.3134 172.793 83.2728 172.276 83.701C171.75 84.1381 171.661 85.0574 172.173 85.6703C172.497 86.0534 172.924 86.3643 173.337 86.6708C173.929 87.1079 174.582 87.4774 175.159 87.9326C176.573 89.0502 176.746 90.8619 176.173 92.2184C175.46 93.9083 172.839 94.5843 171.177 93.4982C170.637 93.1422 170.205 92.6285 169.675 92.1417C169.891 91.9777 170.089 91.8259 170.279 91.6803L171.107 91.0466C171.238 91.2044 171.337 91.3351 171.445 91.4522C171.595 91.61 171.736 91.7812 171.91 91.9164C172.642 92.4933 173.727 92.5023 174.276 91.948C174.83 91.3937 174.845 90.231 174.229 89.6136C173.793 89.1764 173.257 88.8294 172.76 88.4509C172.187 88.0137 171.572 87.6307 171.041 87.153C170.257 86.4409 169.994 85.4991 170.074 84.4896C170.163 83.3449 170.703 82.4301 171.863 82.02C173.084 81.5874 174.29 81.6279 175.375 82.4391ZM185.536 81.8217C186.964 82.0786 187.861 83.07 188.072 84.6518C187.537 84.7915 186.997 84.9267 186.424 85.0755C186.321 84.8096 186.236 84.5527 186.123 84.3139C185.621 83.2368 184.278 83.07 183.611 84.0615C183.264 84.5752 183.057 85.2061 182.93 85.81C182.606 87.3828 182.639 88.9646 183.071 90.5194C183.184 90.9295 183.386 91.3351 183.625 91.6911C184.01 92.2679 184.593 92.4347 185.292 92.295C185.959 92.1598 186.283 91.7362 186.368 91.1323C186.447 90.5644 186.471 89.9921 186.527 89.3342L185.814 89.3336C185.589 89.333 185.372 89.3319 185.142 89.3297V87.7704H188.246C188.166 89.2305 188.49 90.7357 187.889 92.1688C187.41 93.2999 186.466 93.8452 185.231 93.9714C183.874 94.1111 182.733 93.692 182.076 92.5383C181.639 91.7677 181.329 90.8844 181.155 90.0192C180.794 88.2165 180.864 86.4004 181.404 84.6203C181.522 84.2237 181.695 83.8361 181.897 83.4756C182.658 82.1282 183.978 81.5378 185.536 81.8217ZM191.11 81.9975C191.27 82.0155 191.444 82.2498 191.528 82.4256C192.556 84.5842 193.566 86.7519 194.585 88.915C194.637 89.0232 194.702 89.1314 194.843 89.226V81.9975L195.712 81.9969C195.989 81.9963 196.259 81.9952 196.538 81.993V93.7866C196.144 93.7866 195.745 93.8362 195.374 93.7641C195.2 93.7281 195.017 93.4892 194.928 93.2999C193.787 90.916 192.664 88.523 191.538 86.13C191.481 86.0038 191.406 85.8911 191.27 85.6523V93.7461H189.598V81.9749C190.115 81.9749 190.617 81.9434 191.11 81.9975ZM154.616 81.9028C156.053 81.9794 157.499 81.8893 158.856 82.1822C160.363 82.5067 160.978 83.8181 161.293 85.1656C161.73 87.0358 161.72 88.9196 161.199 90.7808C160.964 91.61 160.579 92.3671 159.912 92.9619C159.391 93.4306 158.781 93.7461 158.058 93.7641C156.935 93.7911 155.808 93.7731 154.62 93.7731L154.62 89.0555C154.62 86.6969 154.618 84.3283 154.616 81.9028ZM179.662 82.011V93.7596H178.056V82.011H179.662ZM168.482 82.02V83.5567H164.378L164.377 85.0608C164.378 85.552 164.383 86.0354 164.397 86.5176C164.401 86.6032 164.655 86.7429 164.796 86.7474C165.524 86.7699 166.256 86.7564 167.031 86.7564V88.3247H164.411V92.2003H168.721V93.7461H162.711C162.711 89.8344 162.711 85.9497 162.706 82.02H168.482ZM159.592 85.9275C159.257 83.9282 158.381 83.2572 156.692 83.632C156.675 83.6598 156.646 83.6922 156.646 83.7292C156.638 86.5199 156.629 89.3059 156.634 92.0965C156.634 92.203 156.738 92.3789 156.826 92.4113C157.807 92.7584 158.766 92.3002 159.223 91.2635C159.353 90.9673 159.462 90.648 159.525 90.3287C159.818 88.8709 159.839 87.3899 159.592 85.9275ZM117.811 0.374596C118.877 0.446701 119.967 0.708082 120.957 1.09114C123.258 1.98344 124.418 3.76804 124.719 6.07991C125.16 9.48236 124.254 12.6595 122.859 15.733C121.493 18.7433 119.351 21.2625 117.079 23.669C112.763 28.2432 107.603 31.5735 101.32 33.1013C100.25 33.3626 99.8034 33.8403 99.4466 34.7912C98.6201 36.9904 97.6012 39.122 96.7043 41.2942C95.521 44.1514 94.9669 47.1753 94.2062 50.1451C93.9151 51.2807 93.6428 52.4164 93.361 53.5565C93.3329 53.6692 93.3235 53.7864 93.2953 53.9937C94.488 52.9527 95.5962 51.9612 96.7278 50.9968C100.832 47.5042 104.739 43.8179 108.481 39.9693C109.054 39.3834 109.735 38.8787 110.43 38.4325C110.772 38.2072 111.275 38.09 111.693 38.1126C113.731 38.2297 115.717 38.5722 117.539 39.5141C118.99 40.2622 120.117 41.2762 120.267 42.9706C120.361 44.0207 119.981 44.958 119.403 45.8233C118.14 47.707 116.346 49.05 114.36 50.1316C111.932 51.452 109.434 52.6507 106.946 53.9171C107.007 53.9531 107.129 54.0433 107.265 54.1063C110.35 55.5394 112.003 57.973 112.421 61.1681C112.632 62.786 112.557 64.4399 112.679 66.0713C112.735 66.8329 112.862 67.617 113.134 68.3291C113.684 69.7712 114.867 70.4652 116.445 70.2263C117.407 70.0821 118.379 69.7892 119.272 69.4016C120.582 68.8293 121.169 67.7387 121.234 66.3597C121.338 64.2011 121.455 62.0424 121.601 59.8838C121.972 54.3091 122.54 48.7571 124.193 43.3672C124.348 42.8643 124.552 42.3743 124.767 41.8876L125.202 40.9156C125.381 40.5146 125.723 40.2892 126.184 40.1901C127.616 39.8836 129.048 39.6223 130.527 39.7124C132.617 39.8386 133.725 40.9247 133.72 42.9346C133.715 44.5389 133.161 46.0396 132.673 47.5538C131.917 49.9062 131.231 52.2767 130.522 54.6426C130.489 54.7553 130.494 54.877 130.555 55.0167C130.94 54.3227 131.311 53.6196 131.706 52.9346C132.959 50.7625 134.359 48.6759 136.364 47.0806C138.998 44.9851 141.999 43.6061 145.445 43.241C148.136 42.9571 150.084 44.5254 150.3 47.1167C150.474 49.1852 149.976 51.1636 149.465 53.1374C148.53 56.7292 147.558 60.3164 146.642 63.9171C146.431 64.7328 146.318 65.5846 146.281 66.4228C146.234 67.3917 146.694 67.6125 147.568 67.1258C147.84 66.9726 148.117 66.8058 148.417 66.7157C148.934 66.5535 149.469 66.5174 149.882 66.9455C150.286 67.3602 150.319 67.8829 150.075 68.3561C149.873 68.7437 149.591 69.1628 149.225 69.3926C147.192 70.6725 145.065 71.7676 142.637 72.1912C141.726 72.3489 140.811 72.3624 139.914 72.083C137.979 71.4837 137.101 70.339 136.951 68.1398C136.833 66.3822 137.185 64.6652 137.538 62.9482C138.026 60.5643 138.585 58.1938 138.97 55.7963C139.144 54.7147 139.083 53.5656 138.918 52.475C138.726 51.1906 137.805 50.8571 136.655 51.5331C135.232 52.3668 134.288 53.6241 133.476 54.9761C131.649 58.0226 130.677 61.3529 129.879 64.7554C129.32 67.1483 129.452 69.5143 129.86 71.8847C129.973 72.5517 129.799 73.079 129.208 73.3449C128.386 73.7099 127.522 74.0569 126.639 74.2282C125.437 74.4625 124.211 74.3769 123.047 73.9172C122.094 73.5387 121.309 73.0249 121.366 71.7766C121.164 71.8893 121.061 71.9343 120.981 72.0109C118.281 74.0163 115.149 74.4895 111.876 74.2236C110.284 74.093 108.678 73.791 107.152 73.3359C103.734 72.3174 101.644 69.5098 101.447 66.0668C101.381 64.868 101.236 63.6513 100.912 62.4976C100.212 60.0145 98.3995 58.8382 95.6619 58.9194C93.5723 58.9779 92.3984 59.8793 91.9195 61.8396C91.1963 64.8185 90.5014 67.8018 89.7876 70.7806C89.4965 72.0019 89.0551 73.1601 87.7732 73.7459C86.6697 74.2552 85.4817 74.449 84.2656 74.2867C83.0917 74.129 82.3497 73.4305 81.9506 72.3895C81.5186 71.2673 81.467 70.0956 81.5468 68.9239C81.8708 64.2506 82.4718 59.6044 83.2983 54.9896C84.0496 50.7805 85.247 46.675 86.4537 42.5695C88.2334 36.5082 90.1586 30.4875 92.7647 24.6965C95.2346 19.212 98.1318 13.9484 101.86 9.13986C103.959 6.42691 106.382 4.02942 109.538 2.42058C112.125 1.10015 114.839 0.176307 117.811 0.374596ZM80.513 16.4148C80.4003 16.4374 80.3439 16.4329 80.3063 16.4554C80.0621 16.6224 79.8131 16.7893 79.583 16.9698C77.6009 18.5175 75.957 20.3674 74.4352 22.3212C70.1985 27.7538 66.7463 33.6466 63.6416 39.7154C60.8611 45.1479 58.2824 50.6708 55.6193 56.1575C54.9899 57.4435 54.3699 58.7339 53.717 60.083C54.0928 60.1327 54.3699 60.1778 54.647 60.2049C56.2863 60.3763 57.9255 60.5704 59.5694 60.7102C61.6595 60.8907 63.7544 61.0396 65.8492 61.175C66.6148 61.2246 66.6101 61.1885 66.751 60.444C67.0892 58.6527 67.3569 56.8524 67.7843 55.0836C70.7011 43.0318 74.5949 31.2687 79.1603 19.7041C79.5877 18.6167 80.048 17.5383 80.513 16.4148ZM113.942 7.60763C113.388 7.80592 112.796 8.05378 112.383 8.43684C111.444 9.3066 110.505 10.2079 109.739 11.2174C107.819 13.7681 106.462 16.6253 105.189 19.514C104.621 20.8074 104.095 22.1098 103.49 23.5428C103.828 23.4437 103.992 23.4121 104.142 23.3445L105.248 22.8708C105.615 22.7114 105.978 22.5446 106.326 22.3531C110.89 19.8069 113.66 15.9087 115.276 11.1903C115.548 10.3927 115.609 9.49137 115.595 8.63963C115.576 7.71579 114.844 7.28766 113.942 7.60763Z" fill="#FFF"/>
</svg>
