<?xml version="1.0" encoding="UTF-8"?>
<svg width="513px" height="393px" viewBox="0 0 513 393" version="1.1" xmlns="http://www.w3.org/2000/svg" xmlns:xlink="http://www.w3.org/1999/xlink">
    <title>flower</title>
    <defs>
        <polygon id="path-1" points="-6.9694004e-14 -4.97030554e-14 464 -4.97030554e-14 464 316 -6.9694004e-14 316"></polygon>
    </defs>
    <g id="Page-1" stroke="none" stroke-width="1" fill="none" fillRule="evenodd">
        <g id="flower" transform="translate(0.902329, 0.644898)">
            <g id="Group" transform="translate(255.911811, 195.886002) rotate(-10.000000) translate(-255.911811, -195.886002) translate(23.911811, 37.886002)">
                <g id="Fill-1-Clipped" transform="translate(-0.000000, 0.000000)">
                    <mask id="mask-2" fill="white">
                        <use xlink:href="#path-1"></use>
                    </mask>
                    <g id="path-1"></g>
                    <path d="M345.316695,43.2726226 C347.130876,46.3963306 348.49852,49.6871022 349.039445,53.2832795 C349.128081,53.8727894 349.184138,54.4670861 349.255287,55.0592288 C349.81897,56.5711789 349.604565,58.1482314 349.608398,59.70111 C349.609596,60.2386816 349.584442,60.8102405 349.343445,61.3245956 C348.511218,66.7804934 346.551622,71.8091581 343.572703,76.4496031 C341.989457,79.095576 340.179828,81.5821441 338.233648,83.9715378 C336.528945,85.9480591 334.961748,88.0523914 333.432882,89.3326544 C334.990736,88.310646 337.237083,87.2144401 339.458035,86.0725192 C340.943063,85.0696584 342.626206,84.4645911 344.226939,83.6941355 C345.495405,83.1611114 346.716199,82.5208602 347.996643,82.0151216 C348.263513,81.9399669 348.509061,81.8001887 348.782638,81.7432242 C349.252652,81.4483496 349.79214,81.3222142 350.298808,81.115419 C350.513691,81.0390675 350.709173,80.9201124 350.918548,80.8308364 C353.193881,79.8813497 355.537248,79.1264517 357.884449,78.3823242 C358.562401,78.0994169 359.278205,77.9380975 359.978437,77.7238826 C361.370036,77.3361417 362.757803,76.9335613 364.181982,76.6765034 C365.825596,76.2677 367.498917,75.9989143 369.146366,75.6035141 C370.055254,75.8756509 370.923178,75.7234267 371.770738,75.3522006 C374.937949,75.0415292 378.102048,74.641821 381.291539,75.0594802 C381.92637,75.4230471 382.585398,75.1904026 383.226218,75.1095036 C384.137502,74.9938992 385.012133,74.9864796 385.797167,75.5530121 C385.881253,75.5836485 385.964859,75.6142847 386.048705,75.6449211 C386.598254,75.4718737 387.156906,75.5125627 387.716516,75.568809 C390.449167,76.3821075 393.261354,76.9249449 395.864164,78.1764864 C399.111868,79.7379813 402.117857,81.6175674 404.618135,84.2408023 C406.218151,85.8642879 407.38217,87.805386 408.602724,89.7060346 C409.029378,90.5382416 409.419382,91.38816 409.796688,92.2454984 C410.436789,94.3945884 411.26255,96.4991599 411.356936,98.7772576 C411.417545,99.1623657 411.473123,99.5474737 411.529179,99.9332999 C411.685132,100.673598 411.515286,101.417965 411.560561,102.15922 C411.543074,102.498374 411.635305,102.839442 411.545949,103.17692 C411.293932,104.414101 411.484142,105.706332 411.085755,106.925322 C410.950404,108.061259 410.579087,109.143583 410.319645,110.251277 C410.183096,110.586841 410.098771,110.937244 410.041996,111.294588 C409.804592,112.001138 409.437827,112.665084 409.332182,113.416632 C409.247617,113.745015 409.159938,114.073637 409.005663,114.378564 C408.677706,114.806515 408.359572,115.240929 408.194515,115.765815 C408.110191,116.091565 407.951842,116.385722 407.809064,116.68658 C406.563836,118.8979 405.290339,121.091269 403.786866,123.141749 C402.993445,124.132163 402.164811,125.093857 401.364922,126.079484 C400.145806,127.656776 398.631312,128.954751 397.268699,130.397051 C395.433915,132.060029 393.519598,133.628226 391.560004,135.141373 C391.444776,135.262003 391.326194,135.379283 391.201623,135.490579 C389.334739,136.782091 387.417547,137.99797 385.501553,139.215285 C385.314216,139.338788 385.117059,139.443861 384.916548,139.542711 C384.102287,139.901012 383.406367,140.47305 382.591387,140.830394 C380.629158,142.103237 378.461865,142.980441 376.392074,144.045053 C375.988897,144.228871 375.565116,144.362905 375.163136,144.551031 C374.963104,144.645094 374.761874,144.736285 374.561363,144.830588 C373.936593,145.094587 373.30703,145.346139 372.681063,145.607027 C371.310065,146.165422 369.9326,146.705866 368.555614,147.249421 C365.227418,148.434185 361.891556,149.593578 358.441663,150.382703 C358.071784,150.382703 357.751254,150.605534 357.384968,150.621092 C356.521597,150.766853 355.665412,150.958091 354.795334,151.061249 C354.68825,151.097869 354.579012,151.129942 354.469294,151.157227 C353.447335,151.280012 352.474004,151.563398 351.613988,152.036585 C353.312941,152.850602 355.255287,152.411641 357.05773,152.886264 C362.20418,153.388892 367.285711,154.258437 372.298007,155.536067 C374.012053,155.972874 375.74263,156.344578 377.465778,156.746202 C378.264948,157.172477 379.240433,156.846966 380.023552,157.343849 C382.923416,158.053511 385.665411,159.213143 388.439746,160.27967 C389.311022,160.610207 390.160739,160.991486 390.998238,161.40005 C393.916788,162.627896 396.743106,164.043151 399.51241,165.57377 C400.141014,166.06802 400.8882,166.362176 401.564714,166.776006 C404.73025,168.541663 407.755643,170.522254 410.65431,172.696475 C412.879814,174.364 415.090466,176.050434 417.113064,177.965683 C417.48486,178.329489 417.915588,178.62915 418.276364,179.00636 C418.556169,179.243074 418.62133,179.621959 418.86041,179.886436 C419.782233,180.878287 420.611108,181.963962 421.749493,182.736332 C422.814095,184.027126 423.95224,185.250904 425.15842,186.412452 C425.44661,186.993584 425.884285,187.448342 426.376819,187.857863 C426.759394,188.464367 427.138138,189.073503 427.741347,189.496188 C429.261591,190.825039 430.489811,192.359727 431.132068,194.30609 C431.330663,194.785262 431.458348,195.31709 432.030894,195.520055 C432.051977,196.639238 432.977872,197.297679 433.43016,198.198819 C434.260233,199.852701 435.187087,201.458714 435.929721,203.158072 C437.108592,206.004139 438.254643,208.863129 438.925408,211.881286 C439.233482,213.2671 439.673073,214.628742 439.704694,216.068887 C439.759314,218.562158 440.014924,221.033647 439.793571,223.553484 C439.270134,229.513684 436.916943,234.492805 432.458988,238.480552 C432.281953,238.638522 432.056766,238.742636 432.031134,239.015013 C429.441021,241.874961 425.963579,243.095866 422.423612,244.196141 C422.046547,244.313182 421.651753,244.39408 421.250731,244.28063 C419.604719,244.574786 417.896662,244.553963 416.329707,245.248546 C416.03984,245.457496 415.747817,245.476643 415.453638,245.257402 C412.862327,245.260275 410.270775,245.262668 407.679462,245.266019 C403.239712,245.272003 398.924772,244.369188 394.593303,243.535545 C391.591385,242.957524 388.619414,242.229673 385.71955,241.324225 C382.240911,240.238071 378.753888,239.144499 375.343762,237.827377 C374.22622,237.396075 373.127601,236.73165 371.892194,236.634475 C371.847157,236.734044 371.80212,236.833372 371.757322,236.93294 C372.91056,237.725416 374.065236,238.515737 375.217035,239.310606 C380.021636,242.625551 384.713163,246.087456 389.080087,249.971088 C389.166568,250.047917 389.288025,250.085735 389.39343,250.141981 C389.495483,250.145092 389.55082,250.197749 389.559445,250.299471 C390.472405,251.236033 391.315174,252.249186 392.450445,252.94329 C393.199307,253.086898 393.425692,253.725473 393.729452,254.291048 C394.801959,255.596442 395.8989,256.88269 396.940982,258.212018 C398.383129,260.052113 399.447969,262.101874 400.248576,264.298354 C400.55114,265.128886 400.227974,266.054438 400.705415,266.842366 C401.192199,267.594391 400.78447,268.248525 400.478553,268.913668 C398.849312,273.017978 395.339051,274.50719 391.411238,275.395404 C390.972845,275.494492 390.576373,275.641451 390.195715,275.861171 C389.09973,276.491609 387.925891,276.126368 386.780558,276.127324 C386.445893,275.874575 386.158424,275.943507 385.906887,276.255614 C385.342246,276.669444 384.762991,276.877675 384.134627,276.379595 L381.2798,276.394914 C380.145248,276.470068 379.028423,277.014342 377.872549,276.524161 C376.207853,276.199129 374.508181,276.456904 372.837735,276.232636 C371.678986,275.773091 370.463703,275.716127 369.23716,275.739824 C364.886285,275.054096 360.584282,274.128784 356.309109,273.078532 C355.306553,272.832005 354.321006,272.516068 353.294495,272.374854 C350.102849,271.36194 346.826876,270.631456 343.663017,269.525916 C343.544675,269.501262 343.430166,269.462011 343.31973,269.41414 C342.42282,269.003423 341.52639,268.589832 340.529823,268.468005 C339.879899,268.200895 339.213684,267.978302 338.543399,267.76672 C336.529903,267.170748 334.626606,266.268652 332.624131,265.64348 C331.585162,265.10495 330.452047,264.788056 329.397268,264.285429 C327.783836,263.692329 326.21161,263.003729 324.655433,262.276356 C323.423141,261.728972 322.245947,261.048032 320.910403,260.753396 C319.609118,259.817792 318.136787,259.200757 316.699194,258.523886 C312.809231,256.692649 309.102772,254.524889 305.387448,252.37556 C299.003674,248.681969 293.031223,244.393362 287.278449,239.79193 C286.63164,239.207447 286.013097,238.588498 285.290587,238.091137 C283.815621,236.876694 282.464507,235.524627 281.033381,234.261118 C280.835026,234.076581 280.665178,233.863803 280.456761,233.688601 C279.439593,232.640025 278.374273,231.637882 277.381779,230.564414 C276.831752,229.905973 276.306878,229.224793 275.646413,228.66616 C275.328998,228.36578 275.039849,228.042902 274.910727,227.786562 C275.395355,228.626428 275.465306,229.762605 275.876629,230.788682 C276.446061,232.648642 276.899547,234.529904 276.972133,236.481772 C276.985549,236.848451 277.132879,237.172285 277.211933,237.51886 C277.838619,242.942207 277.732495,248.332045 276.473132,253.667552 C276.257289,254.687645 275.971974,255.691224 275.712291,256.700786 C274.916476,259.528422 273.927815,262.284495 272.610479,264.916107 C272.073147,265.757887 271.814424,266.766492 271.075624,267.488361 C270.14326,268.595338 269.484232,269.874165 268.784479,271.127141 C268.388489,272.340867 267.72443,273.388007 266.820094,274.286034 C266.692169,274.47057 266.536935,274.618725 266.307917,274.667551 C265.861379,274.966735 265.459637,275.300622 265.375312,275.878165 C265.353752,276.020336 265.2735,276.109851 265.133836,276.145754 C264.07211,277.083034 263.155797,278.152673 262.291707,279.269461 C262.120182,280.158155 261.372279,280.596158 260.783921,281.14474 C260.470099,281.437221 260.13783,281.711751 259.843172,282.025774 C259.290748,282.603077 258.535658,282.954677 258.067798,283.626761 C257.989223,283.701676 257.902025,283.765341 257.809315,283.821109 C257.298813,284.116942 256.878149,284.52407 256.452451,284.924496 C255.976687,285.363457 255.399828,285.67317 254.929813,286.119791 C254.368765,286.436686 253.854911,286.82299 253.339619,287.207859 C253.190613,287.274637 253.01813,287.260036 252.872958,287.341654 C252.602735,287.389284 252.262801,287.348116 252.07259,287.497468 C248.577422,290.241095 244.557378,292.004598 240.412766,293.410038 C238.163784,294.172596 235.898272,295.143145 233.412127,295.059134 C232.794303,295.038072 232.273981,295.585935 231.615193,295.518679 C230.678277,296.13715 229.612239,296.010297 228.599862,295.937296 C226.669493,295.797997 224.724034,296.013408 222.798936,295.533518 C221.963115,295.325048 221.14478,295.045252 220.301291,294.87029 C219.625256,294.576852 218.798297,294.563688 218.35655,293.831049 C215.189579,292.28511 212.396318,290.270294 210.165303,287.501059 C209.09663,286.174362 208.366933,284.641111 207.382584,283.26822 C206.255457,282.343386 206.289953,280.956135 205.964871,279.712013 C205.984037,279.010728 205.741363,278.381727 205.427302,277.772351 C204.977889,277.226642 205.01526,276.564371 204.983158,275.918854 L204.970462,275.877686 C204.948901,275.267593 204.599145,274.769035 204.394322,274.223086 C203.970541,273.092414 204.413965,271.984719 204.434328,270.866733 C204.630048,269.950276 204.287719,269.062541 204.301373,268.146084 C204.352639,264.741863 204.545723,261.350087 204.950338,257.970039 C204.285563,257.054061 205.114197,256.168719 205.008791,255.273085 C204.447265,255.708456 204.472658,256.6881 203.575269,256.821895 C202.686265,258.011446 201.83056,259.222778 201.154044,260.550431 L201.163387,260.544209 C200.291391,261.165312 199.72675,262.030069 199.243799,262.959691 C198.603697,264.150198 197.909455,265.291641 196.605295,265.884502 C193.088805,269.655163 189.218965,273.030663 185.113879,276.1436 C184.743521,276.821429 184.177921,277.22353 183.413967,277.345597 C181.453894,278.528446 179.49382,279.711774 177.533747,280.894623 C177.284845,281.596866 176.677802,281.648325 176.07004,281.698347 C174.780493,282.324239 173.491425,282.94965 172.201878,283.575302 C170.687864,284.219622 169.17361,284.863701 167.659357,285.507543 C167.145263,286.269383 166.254821,286.344537 165.505001,286.661192 C164.594676,287.045343 163.635721,287.304076 162.701919,287.629348 C162.133445,287.819389 161.555149,287.974245 160.969427,288.103493 C160.720046,288.149447 160.484319,288.10852 160.261529,287.989324 C159.375879,288.262897 158.490229,288.536471 157.604578,288.809803 C156.381389,289.690359 155.007996,289.944066 153.535186,289.78131 C152.39752,289.603715 151.370769,290.151818 150.27766,290.293032 C147.622386,290.636972 145.013107,291.343762 142.303214,291.257597 C142.173852,291.253289 142.040178,291.385888 141.908181,291.45458 C140.632288,291.900003 139.315671,291.810966 138.00121,291.748736 C137.664629,291.669751 137.329725,291.652759 136.998655,291.775783 C133.572479,291.737487 130.136721,291.845671 126.723002,291.620447 C123.091764,291.380862 119.436091,291.234141 115.864982,290.367708 C114.638918,290.070202 113.364463,289.970394 112.112287,289.780113 C111.94196,289.90577 111.789122,289.878245 111.649938,289.728175 C110.167546,289.048431 108.525846,288.948625 106.99123,288.440492 C104.80094,287.715274 102.576394,287.092016 100.36646,286.425437 C99.7258789,286.561863 99.1887873,286.379242 98.7472796,285.901507 C98.5915661,285.297636 97.978055,285.41755 97.5892504,285.222003 C95.1174787,283.977403 92.6133664,282.796707 90.1205134,281.59495 C89.0036885,280.647618 87.7524708,279.903968 86.4772973,279.19694 C86.1843163,279.190717 86.0192601,279.034902 85.9603284,278.755346 C84.9980192,277.934867 84.0115143,277.140955 83.0781918,276.288884 C80.1296972,273.596956 77.6112114,270.540983 75.9515453,266.90292 C74.1294582,262.90847 73.3444226,258.703875 74.1366449,254.301819 C74.2767869,253.523944 74.3783602,252.739605 74.4976605,251.958139 C75.4944663,248.822943 76.7432884,245.804548 78.5716043,243.045604 C78.9148926,242.52718 79.4675556,242.118137 79.5123531,241.423554 C79.5147488,241.370419 79.5171444,241.317284 79.5190609,241.264149 C79.6805237,240.681581 80.1304159,240.281393 80.4454363,239.795761 C80.7968696,239.267284 81.3112032,238.871883 81.6408366,238.324978 C82.3111233,237.40134 83.1083763,236.587085 83.8675394,235.73956 C84.6647923,235.079204 85.2632112,234.221626 86.0427368,233.543318 C86.8114823,232.929634 87.3936111,232.112746 88.2093101,231.550042 C89.6382807,230.361449 91.0210165,229.117088 92.4971802,227.984262 C93.4911113,227.365552 94.3690958,226.592704 95.2930756,225.880888 C97.8106031,224.207618 100.234224,222.393851 102.759177,220.963519 C100.26896,221.627465 97.7253201,222.49749 95.1095733,223.124097 C94.3159136,223.425195 93.4647597,223.519976 92.6708607,223.818441 C90.5603442,224.185837 88.5346316,224.944564 86.3963261,225.181758 C86.0520797,225.289463 85.6817211,225.280846 85.3444218,225.420146 C85.2315895,225.458919 85.1151636,225.481658 84.9973005,225.494582 C84.4673956,225.527133 83.9700707,225.752359 83.4360932,225.763608 C83.1239476,225.78108 82.8462985,225.940725 82.5394232,225.983087 C82.2749499,225.996013 82.0109555,226.007023 81.7572623,226.098932 C74.1879105,227.385418 66.5946028,228.073538 58.9217613,227.142242 C55.5173857,226.72889 52.1427152,226.19874 48.8844706,225.091045 C48.4786573,224.927331 48.0694903,224.766971 47.6622396,224.604693 C47.3872257,224.522597 47.1179612,224.422789 46.860435,224.29498 C46.6086582,224.193017 46.3657453,224.070472 46.1163641,223.962527 C45.7232475,223.78182 45.3102474,223.652574 44.9068298,223.497717 C43.533916,222.769625 42.0740423,222.196152 40.8350421,221.227278 C40.6905879,221.130821 40.5727248,221.012345 40.5233756,220.840016 C40.3523304,220.528148 40.1113338,220.299812 39.7610983,220.201919 C39.5359127,220.021931 39.310727,219.841463 39.0855414,219.660996 C37.2670475,219.024336 36.2568264,217.443453 35.0262108,216.137341 C34.2972322,215.364013 33.738101,214.436786 33.0848231,213.591654 C32.7971125,213.220667 32.7070383,212.753943 32.477301,212.354473 C31.8429482,211.2317 31.3444256,210.047176 30.8693797,208.850923 C30.6453918,207.901915 30.2855739,206.989767 30.1063836,206.028313 C29.5117977,205.112574 30.3279759,204.138434 29.9878018,203.212405 C29.8004666,200.871359 29.9499515,198.53821 30.1497439,196.206021 C29.986604,193.51146 30.6707851,190.991863 31.7279598,188.548856 C33.2002906,185.126922 34.8211481,181.782298 36.9117812,178.683243 C37.1324153,178.356056 37.2929199,177.98866 37.5626636,177.693307 C37.9921932,177.255303 38.2830181,176.711269 38.6641567,176.235209 C39.8597967,174.536569 41.3218264,173.061717 42.6652744,171.486819 C43.0627031,171.030386 43.5032524,170.614641 43.9081075,170.16491 C45.4364951,168.579241 47.1141282,167.153455 48.7316318,165.662807 C49.1851174,165.358358 49.5950032,164.999099 50.0039308,164.637926 C52.1007923,162.881364 54.3969672,161.397656 56.6128897,159.802892 C59.2087533,158.187545 61.8065331,156.575069 64.5890132,155.288104 C66.1904664,154.611472 67.6527358,153.64571 69.2838942,153.03059 C69.9790951,152.775447 70.6709421,152.51097 71.3299693,152.168465 C72.5718442,151.685704 73.8108444,151.196241 75.0412203,150.684997 C75.3159948,150.570589 75.5869363,150.44589 75.8744072,150.364752 C77.3611116,149.88582 78.8164338,149.306123 80.3417071,148.947343 C82.1039046,148.281961 83.9430005,147.880816 85.7485581,147.36335 C86.8737676,147.124722 87.9949047,146.867903 89.1189165,146.622573 C90.4563754,146.168533 91.8822318,146.141966 93.2352622,145.760687 C97.6613578,144.891621 102.142313,144.463191 106.629256,144.088614 C108.373726,143.942613 110.117478,143.689624 111.872249,143.922747 C113.374285,143.900249 114.879196,143.878708 116.239892,143.909105 C114.093681,143.118544 111.676289,142.723862 109.421558,141.795677 C105.997299,140.868211 102.69785,139.58699 99.4213992,138.249523 C95.9959422,136.851502 92.6073774,135.368273 89.3405086,133.624875 C88.7567029,133.258675 88.0919262,133.05188 87.4987775,132.703871 C86.8747259,132.345809 86.2887642,131.918097 85.6031458,131.67157 C82.8815137,130.250571 80.495504,128.291762 77.8045358,126.821936 C74.0199795,124.123307 70.6218324,120.972793 67.2533905,117.78853 C66.4745836,117.052301 65.8778416,116.151163 65.1285005,115.386691 C65.0427383,115.312254 64.9689541,115.228004 64.9018774,115.137292 C63.9532231,113.910164 63.0036104,112.683753 62.1119712,111.414022 C61.6029078,110.638779 61.0868974,109.867845 60.5965197,109.079917 C60.3368374,108.716829 60.0575115,108.366904 59.855563,107.965042 C59.3977654,106.918381 59.0161477,105.834142 58.3178326,104.906915 C57.5761572,102.775297 56.9001213,100.625729 56.470352,98.4057922 C56.445917,97.8935912 56.3891415,97.3868952 56.2245643,96.8964747 C56.1646745,96.5678523 56.1598833,96.2361184 56.1663515,95.9034271 C56.1273033,95.0245476 56.2200128,94.146147 56.176892,93.2672675 C56.1730591,93.1339516 56.1732987,93.0003964 56.1761733,92.8668412 C56.1620394,92.3419549 56.0769959,91.8137177 56.2384588,91.2955331 C56.5668945,90.6873543 56.6545731,90.0167061 56.7300343,89.3434251 C57.8061341,85.9229278 59.3062539,82.7484785 62.0216573,80.2827334 C63.2355037,79.0017523 64.733707,78.082184 66.1418359,77.0470114 C66.3984038,76.9158498 66.6092158,76.7071398 66.8820737,76.6035028 C68.5266477,75.9091594 70.0909693,75.035785 71.7709978,74.4197077 C72.0014538,74.3378511 72.2187339,74.2227256 72.453502,74.1506825 C73.5413403,73.7756268 74.6981716,73.6911377 75.7939154,73.3469577 C77.9343768,72.9908106 80.0389042,72.3132212 82.2536291,72.6229353 C83.8773612,72.3747333 85.4998957,72.7574479 87.1221906,72.6217386 C89.5196989,72.3129819 91.8616297,72.7605594 94.2073932,73.1435135 C95.0504021,73.2301567 95.7983059,73.8196665 96.6978507,73.6169403 C96.8947683,73.6016222 97.0876135,73.6248387 97.2785421,73.6700752 C98.1201136,73.9759597 99.0187001,73.9900811 99.8859045,74.1662399 C104.346018,75.3119905 108.787205,76.519971 113.08873,78.1843849 C115.239972,79.1295631 117.52872,79.7322371 119.638758,80.7829671 C120.926149,81.4785073 122.260014,82.0711285 123.635803,82.5708836 C125.210665,83.4399498 126.893089,84.0916897 128.476097,84.9444803 C129.271193,85.5634297 130.185352,85.970797 131.087531,86.3989875 C131.780576,86.7450822 132.452779,87.1292329 133.117795,87.5255902 C134.113404,88.0947557 135.143508,88.6083928 135.931418,89.1768401 C134.924551,87.9822629 133.574635,86.8444108 132.501649,85.4533304 C132.395764,85.3269556 132.291077,85.1993841 132.194295,85.0655896 C131.014466,83.6307088 129.921836,82.1252208 128.67517,80.7437143 C127.686988,79.1549338 126.666227,77.586498 125.685472,75.9924518 C125.234142,74.8045764 124.448148,73.7909451 123.9307,72.6368174 C123.0508,70.8465074 122.371649,68.9745804 121.658002,67.1158174 C121.246919,65.7213862 120.906505,64.3140302 120.832721,62.8535394 C120.798703,62.1812158 120.584058,61.541922 120.422117,60.8930542 C120.347853,60.6300127 120.345218,60.3619449 120.359352,60.092441 C120.359112,59.9564924 120.359352,59.8210224 120.358873,59.6850737 C120.273829,58.7329543 120.228073,57.7798776 120.300899,56.8248861 C120.570883,55.1343835 120.648739,53.4055855 121.265604,51.7813818 C121.317828,51.086081 121.477854,50.4195017 121.794551,49.795526 C122.119633,48.9810307 122.468431,48.1753912 122.798544,47.3625713 C123.148061,46.5913977 123.542614,45.8448768 124.030836,45.1507726 C124.491748,44.4865867 124.954337,43.8235977 125.295948,43.0856932 C125.547964,42.6620503 125.940602,42.3552084 126.224719,41.9578937 C127.110849,40.7989791 128.059503,39.6934388 129.059902,38.6314595 C129.128416,38.5445768 129.20795,38.4696614 129.294431,38.4016871 C130.466115,37.7992526 131.231506,36.696345 132.296347,35.9622701 C133.290278,35.1951653 134.334996,34.4998645 135.368933,33.7894848 C135.819065,33.3849896 136.421077,33.2184047 136.876719,32.8213292 C137.243724,32.5535008 137.648818,32.3581942 138.069724,32.193524 C139.846534,31.1164659 141.813555,30.4295422 143.64738,29.4688063 C144.499253,29.1339609 145.363103,28.8302305 146.219767,28.5068737 C146.428663,28.3994072 146.644985,28.3101311 146.866098,28.2316255 C147.881829,27.8749996 148.909538,27.5547543 149.930299,27.2115318 C151.148937,26.8470075 152.383625,26.5442345 153.61448,26.2261433 C154.200682,26.0746371 154.779936,26.005466 155.373803,26.1514673 C159.310479,25.4743567 163.240927,24.7548819 167.234618,24.4839419 C167.991865,23.806592 168.774265,23.9032879 169.57032,24.4071118 C171.713896,24.4059151 173.857232,24.404479 176.000808,24.4030429 C176.440878,23.9542687 177.016778,23.9789213 177.559859,24.0217643 C181.103898,24.3025175 184.653207,24.5488048 188.141428,25.2900601 C189.349286,25.4954192 190.554508,25.7134636 191.74919,25.9942168 C192.41708,26.1512279 193.013584,26.4212105 193.556903,26.8269024 C194.17808,27.0774979 194.807403,27.2967391 195.485594,27.3280934 C197.257375,27.3611232 198.836069,28.1275099 200.481602,28.6406683 C200.947304,28.7861908 201.336828,29.0458815 201.651369,29.4183042 L205.472577,30.9750123 C206.838305,31.0391571 207.899312,31.7093266 208.820896,32.6561803 C209.946346,33.2803953 211.072034,33.904371 212.197484,34.5288254 C212.799735,34.3368697 212.955209,35.0589773 213.429777,35.1291058 C213.763002,35.1808046 214.058379,35.3157959 214.322134,35.5240271 C215.751584,36.4833269 217.122581,37.523047 218.502202,38.5505604 C218.640668,38.6458202 218.766197,38.7563982 218.889091,38.8698483 C219.739525,39.4801813 220.413646,40.3020963 221.300493,40.8681501 C221.391526,40.9306195 221.473935,41.0036201 221.551073,41.0818865 C222.126734,41.7235737 222.763721,42.3049457 223.382502,42.9042687 C223.717167,43.2482094 224.045842,43.5986122 224.404222,43.9198149 C225.395998,44.9911287 226.320456,46.1191676 227.213054,47.2737739 C227.420272,47.6564886 227.732178,47.9568681 228.017493,48.2785495 C229.443349,50.0695774 230.58964,52.0446628 231.790072,53.9848034 C231.907695,54.18011 232.017892,54.379964 232.130007,54.5788609 C233.013261,56.2116809 233.787516,57.8971572 234.577583,59.5761712 C235.26392,61.3212447 235.901147,63.0835512 236.493577,64.8623724 C237.092714,67.1244339 237.869844,69.3482 237.935483,71.7079145 C237.900028,69.8288072 238.618707,68.1033601 239.062131,66.3228634 C239.366131,65.2369494 239.787037,64.1900489 240.134398,63.1182564 C240.16051,63.0028914 240.201714,62.8925528 240.250584,62.7850864 C241.231579,60.443562 242.276056,58.1312378 243.4808,55.8943078 C244.142462,54.7052356 244.499406,53.3486211 245.444467,52.3148847 C245.960477,51.6004361 246.433366,50.8563086 246.922786,50.1234304 C248.8613,47.2543868 251.124654,44.6589161 253.583011,42.2278762 C254.22982,41.6400419 254.8934,41.0689616 255.472415,40.4098021 C255.541647,40.3229194 255.620701,40.2460892 255.705505,40.1750034 C257.321093,38.857163 258.881822,37.467758 260.644737,36.3380437 C261.848283,35.5515519 262.858503,34.4268639 264.383298,34.2030751 C264.77306,34.0879496 265.105569,33.8816331 265.377228,33.5788601 C265.407654,33.2162506 265.662783,33.0276457 265.9469,32.878533 C267.763718,31.9242595 269.579338,30.9668745 271.456763,30.1334708 C271.825205,29.9699974 272.208738,29.9022624 272.610718,29.944148 C275.141182,28.8958114 277.829515,28.2732718 280.314224,27.1009538 C281.001999,26.6943046 281.796616,26.752705 282.540687,26.591625 C284.330673,26.2560616 286.126888,25.9508951 287.909209,25.5791904 C291.424261,24.8467908 294.990099,24.6067266 298.562167,24.4109413 C299.912562,24.3369833 301.263916,24.2848058 302.614551,24.2228152 C304.713328,24.5112274 306.81594,24.750095 308.941788,24.6311399 C310.669488,25.0081102 312.42354,25.1938429 314.179988,25.3582738 C315.79342,25.7543918 317.406611,26.1536214 319.021241,26.5461492 C322.908806,27.4918063 326.647607,28.8371715 330.247224,30.5918189 C334.921742,32.8706346 339.100373,35.7930523 342.522237,39.7420261 C342.777607,40.0366613 343.105803,40.2690664 343.400222,40.5309113 C343.946655,41.1067785 344.070987,42.0026514 344.832546,42.415045 C344.921182,42.7422313 344.995686,43.0773161 345.316695,43.2726226 Z" id="Fill-1" stroke="#FF4501" stroke-width="5" fillRule="nonzero" mask="url('#mask-2')" transform="translate(234.882353, 160.000000) rotate(10.000000) translate(-234.882353, -160.000000) "></path>
                </g>
            </g>
        </g>
    </g>
</svg>