<?xml version="1.0" encoding="UTF-8"?>
<svg id="Layer_1" data-name="Layer 1" xmlns="http://www.w3.org/2000/svg" viewBox="0 0 318.86 314.89">
  <defs>
    <style>
      .cls-1 {
        fill: #f04923;
        stroke-width: 0px;
      }
    </style>
  </defs>
  <path class="cls-1" d="M317.73,154.33c1.51.27,1.5,2.45-.01,2.7-17.99,3.02-57.35,11.41-70.01,15.37-19.45,6.1-37.07,17.94-50.04,33.67-14.31,17.37-21.88,39.29-26.73,60.98-2.85,12.81-7.23,34.64-9.62,46.74-.3,1.5-2.46,1.45-2.69-.06-2.76-17.88-10.55-57.13-14.52-69.8-6.09-19.45-17.93-37.07-33.66-50.04-17.37-14.31-39.29-21.88-60.98-26.73-15.4-3.44-31.18-5.41-46.78-7.95-1.54-.25-1.54-2.46,0-2.7,18.14-2.82,56.41-10.4,68.92-14.31,19.45-6.09,37.08-17.94,50.04-33.67,14.31-17.37,21.88-39.29,26.73-60.98,3.51-15.68,6.67-32.17,9.64-48.17.28-1.5,2.43-1.49,2.69.02,3.04,17.67,11.52,56.46,15.49,69.12,6.09,19.45,17.93,37.08,33.66,50.04,17.37,14.32,39.29,21.89,60.99,26.73,15.58,3.49,31.21,6.23,46.89,9.05Z"/>
</svg>