<?xml version="1.0" encoding="utf-8"?>
<!-- Generator: Adobe Illustrator 26.4.0, SVG Export Plug-In . SVG Version: 6.00 Build 0)  -->
<svg version="1.1" id="Layer_1" xmlns="http://www.w3.org/2000/svg" xmlns:xlink="http://www.w3.org/1999/xlink" x="0px" y="0px"
	 viewBox="0 0 347.8 173.9" style="enable-background:new 0 0 347.8 173.9;" xml:space="preserve">
<style type="text/css">
	.st0{fill:#FFFFFF;}
	.st1{opacity:0.16;fill:#B11F24;}
	.st2{fill:#B11F24;}
	.st3{opacity:0.2;fill:#ED3324;}
	.st4{fill:#F3C79B;}
	.st5{fill:#ECF6F9;stroke:#ED3324;stroke-width:2;stroke-miterlimit:10;}
	.st6{fill:#ED3324;}
	.st7{fill:#ECF6F9;}
	.st8{clip-path:url(#SVGID_00000016793653580330979070000009339162285346948251_);}
	.st9{clip-path:url(#SVGID_00000018201156716414624870000010612052513625969795_);}
	.st10{clip-path:url(#SVGID_00000016793653580330979070000009339162285346948251_);fill:#ED3324;}
	.st11{opacity:0.2;fill:url(#SVGID_00000167398330117679605310000017578469994787290795_);}
	.st12{fill:#F0F8F9;}
	.st13{fill:#EF4C23;}
	.st14{fill:#F05A22;}
	.st15{opacity:0.33;}
	.st16{fill:#F5957D;}
	.st17{fill:#F7D1BB;stroke:#221F1F;stroke-width:0.25;stroke-miterlimit:10;}
	.st18{opacity:0.37;}
	.st19{fill:#ECF6F9;stroke:#ED3324;stroke-miterlimit:10;}
	.st20{opacity:0.4;}
	.st21{opacity:0.3;}
	.st22{fill:#FFFFFF;stroke:#ED3324;stroke-miterlimit:10;}
	.st23{opacity:0.8;}
	.st24{opacity:0.61;fill:#ED3324;}
	.st25{opacity:0.5;}
	.st26{fill:#ED2D24;}
	.st27{fill:none;stroke:#000000;stroke-width:0.25;stroke-miterlimit:10;}
	.st28{fill:#F05D35;}
	.st29{fill:none;stroke:#ED3324;stroke-width:2;stroke-miterlimit:10;}
	.st30{opacity:0.62;fill:#ED3324;}
	.st31{fill:#F5957D;stroke:#ED3324;stroke-width:2;stroke-miterlimit:10;}
	.st32{fill:#F9F8F8;}
	.st33{opacity:0.15;}
	.st34{fill:none;stroke:#ECF6F9;stroke-miterlimit:10;}
	.st35{fill:#EE3A24;}
	.st36{fill:#E47B6A;}
	.st37{fill:#F05F4F;}
	.st38{fill:#F16C59;}
	.st39{fill:#88261B;}
	.st40{fill:#DC7C6D;}
	.st41{fill:#E06B57;}
	.st42{fill:#E07260;}
	.st43{fill:#DF7A68;}
	.st44{fill:#E37665;}
	.st45{fill:#994D42;}
	.st46{fill:#E27D6C;}
	.st47{fill:#DE8073;}
	.st48{fill:#E56E5B;}
	.st49{fill:#E46E5C;}
	.st50{fill:#E66E5A;}
	.st51{fill:#E46F5C;}
	.st52{fill:#E16852;}
	.st53{fill:#E26652;}
	.st54{fill:#E26650;}
	.st55{fill:#E56550;}
	.st56{fill:#CD2627;}
	.st57{fill:#EE3B24;}
	.st58{fill:#F27267;}
	.st59{fill:#EE4324;}
	.st60{fill:#F05541;}
	.st61{fill:#BFBFBF;}
	.st62{fill:#CDCAC9;}
	.st63{fill:#C1C1C1;}
	.st64{fill:#ECC0BC;}
	.st65{fill:#EE3E23;stroke:#ECF6F9;stroke-width:2;stroke-miterlimit:10;}
	.st66{fill:#F59183;}
	.st67{fill:#EE3C23;}
	.st68{fill:#F1695B;}
	.st69{fill:#F05743;}
	.st70{fill:#999999;}
	.st71{fill:#DBDADA;}
	.st72{fill:#F59990;}
	.st73{fill:#F7BCB7;}
	.st74{fill:#ED3324;stroke:#ECF6F9;stroke-miterlimit:10;}
	.st75{opacity:0.44;}
	.st76{opacity:0.14;}
	.st77{fill:#F5957D;stroke:#ED3324;stroke-miterlimit:10;}
	.st78{opacity:0.52;}
	.st79{opacity:0.41;}
	.st80{opacity:0.1;fill:#ECF6F9;}
	.st81{opacity:0.23;fill:#B11F24;}
	.st82{opacity:0.38;fill:#B11F24;}
	.st83{fill:#ED3324;stroke:#ECF6F9;stroke-width:2;stroke-miterlimit:10;}
	.st84{fill:#F9BEB1;}
	.st85{fill:#F05D35;stroke:#F5957D;stroke-miterlimit:10;}
	.st86{opacity:0.56;}
	.st87{fill:#F16139;stroke:#ED3324;stroke-miterlimit:10;}
	.st88{fill:#FBCEC5;}
	.st89{opacity:0.84;}
	.st90{fill:#A1887B;}
	.st91{fill:#846D61;}
	.st92{fill:#7FFFD4;}
	.st93{fill:#FDFDFD;}
	.st94{fill:#30211C;}
	.st95{fill:#A2897A;}
	.st96{fill:#1376AC;}
	.st97{fill:#F8F8F8;}
	.st98{fill:#F0FFFF;}
</style>
<path class="st98" d="M2,89.1C1.8,42.4,39.1,5.9,84.1,5.3c47.5-0.6,84.3,37.4,84.5,82.9c0.2,46.4-37.1,83.8-83.8,83.6
	C39,171.7,2.2,134.7,2,89.1z M156.8,87c-0.4-13-5.3-25.3-15.2-35.4C135,45,127.1,40.4,118,38c-4-1.1-8-1.9-12.2-1.7
	c-3.7,0.2-7.4,1.1-11.1,1.5c-6.7,0.7-12.9,2.8-18.5,6.5c-4.6,3-8.8,6.5-12.3,10.8c-2.1,2.5-3.9,5.3-5.5,8.1c-2,3.4-3.8,7-4.6,10.7
	c-1.2,5.4-2.6,10.8-2.1,16.5c1,12.3,4.7,23.3,12.9,32.7c14.2,16.2,36.5,22.5,57.4,15.1C142.9,130.6,156.9,110.8,156.8,87z
	 M95.4,37.3c-0.6-0.2-1.1-0.3-1.6,0.3C94.5,38.2,95,38.1,95.4,37.3z"/>
<path class="st98" d="M343.1,89.5c0.6,3.7-0.5,7.6-0.4,11.6c0,1-1.1,1.8-1.1,3c-0.1,1.3-0.6,2.5-0.5,3.8c0.1,1.4-0.2,2.7-1.1,3.9
	c-1.1,1.5-1,3.6-1.5,5.3c-0.5,2.1-2,3.5-2.5,5.4c-0.7,3.1-3.2,5.2-4,8.2c-0.2,1-1.4,1.6-1.9,2.6c-0.4,0.7-0.8,1.3-0.8,2.2
	c0,0.5-0.1,1.1-0.6,1.3c-2.3,0.8-2.9,3.2-4.3,4.8c-3.4,3.8-6.8,7.5-10.7,10.6c-0.9,0.7-1.6,2.1-2.4,2.3c-1.3,0.4-2.2,1.1-3.2,1.8
	c-1.7,1.3-3.5,2.6-5.3,3.9c-0.3,0.2-0.8,0.2-1.2,0.3c-0.4,0.1-1.3-0.3-0.6,0.8c0.3,0.4-0.4,0.6-0.8,0.8c-6.5,3.2-13.1,5.9-20.2,7.5
	c-7,1.6-14,2.5-21.2,2.3c-8.9-0.2-17.5-1.9-25.9-4.8c-8.9-3.1-17.1-7.7-24.4-13.7c-14.9-12.1-24.4-27.5-28.9-46.1
	c-1.6-6.8-2.3-13.7-2.1-20.7c0.3-10,2.3-19.6,6-29c4.2-10.5,10.3-19.7,18.2-27.7c9.7-9.8,21.3-16.9,34.6-20.9
	c7.2-2.1,14.5-3.5,22.1-3.6c3.6-0.1,7.1,0.2,10.6,0.4c10,0.5,19.3,3.6,28.3,7.7c1.5,0.7,3,1.6,4,3.1c0.2,0.3,0.7,0.6,1,0.7
	c1.8,0.7,3.3,1.7,4.9,2.9c3.7,2.8,7.2,5.7,10.7,8.7c2.9,2.4,4.5,5.9,7.2,8.4c3.4,3.1,5.2,7.3,7.6,11c0.4,0.7,0.8,1.5,1.8,1.7
	c0.4,0.1,0.5,0.4,0.6,0.8c0.5,4.4,2.5,8.4,4.2,12.4c2.1,4.8,2.4,9.7,3.2,14.6C343.1,81.6,343.4,85.4,343.1,89.5z M228.9,88.5
	c0,29,22.9,52.3,51.8,52.6c29.3,0.3,52.7-22.7,52.9-52c0.2-29.6-22.7-52.7-52-53C252.6,35.8,229.1,59.4,228.9,88.5z"/>
<path class="st26" d="M156.8,87c0.1,23.8-13.9,43.6-34.9,51c-20.9,7.4-43.2,1.1-57.4-15.1c-8.2-9.4-11.9-20.4-12.9-32.7
	c-0.5-5.7,0.9-11.1,2.1-16.5c0.8-3.7,2.6-7.3,4.6-10.7c1.6-2.8,3.4-5.6,5.5-8.1c3.5-4.3,7.7-7.7,12.3-10.8
	c5.6-3.7,11.8-5.9,18.5-6.5c3.7-0.4,7.4-1.2,11.1-1.5C110,36,114,36.9,118,38c9.1,2.5,17,7,23.6,13.7C151.5,61.7,156.3,74,156.8,87z
	"/>
<path class="st96" d="M95.4,37.3c-0.4,0.8-0.9,0.9-1.6,0.3C94.3,37,94.8,37.1,95.4,37.3z"/>
<path class="st26" d="M228.9,88.5c0.1-29.2,23.7-52.7,52.7-52.4c29.3,0.3,52.3,23.4,52,53c-0.2,29.3-23.6,52.3-52.9,52
	C251.8,140.8,229,117.6,228.9,88.5z"/>
<circle class="st98" cx="118.3" cy="60.7" r="14.2"/>
<circle class="st98" cx="267.1" cy="60.7" r="14.2"/>
</svg>
